G04 EAGLE Gerber RS-274X export*
G75*
%MOMM*%
%FSLAX34Y34*%
%LPD*%
%INBottom Soldermask*%
%IPPOS*%
%AMOC8*
5,1,8,0,0,1.08239X$1,22.5*%
G01*
%ADD10C,3.403200*%
%ADD11R,1.253200X1.253200*%
%ADD12C,1.253200*%
%ADD13C,1.727200*%
%ADD14P,2.144431X8X292.500000*%
%ADD15P,2.144431X8X112.500000*%
%ADD16P,2.144431X8X22.500000*%
%ADD17P,2.144431X8X202.500000*%
%ADD18C,1.422400*%
%ADD19R,2.743200X2.743200*%
%ADD20C,2.908300*%


D10*
X50000Y75000D03*
X950000Y450000D03*
X950000Y283000D03*
X754000Y75000D03*
X50000Y580000D03*
X950000Y605000D03*
D11*
X670700Y100300D03*
D12*
X650700Y100300D03*
X630700Y100300D03*
X610700Y100300D03*
D11*
X670700Y29100D03*
D12*
X650700Y29100D03*
X630700Y29100D03*
X610700Y29100D03*
D11*
X433400Y99900D03*
D12*
X413400Y99900D03*
X393400Y99900D03*
X373400Y99900D03*
D11*
X552400Y721500D03*
D12*
X572400Y721500D03*
X592400Y721500D03*
X612400Y721500D03*
X632400Y721500D03*
X652400Y721500D03*
D11*
X552200Y651500D03*
D12*
X572200Y651500D03*
X592200Y651500D03*
X612200Y651500D03*
X632200Y651500D03*
X652200Y651500D03*
D11*
X433900Y28500D03*
D12*
X413900Y28500D03*
X393900Y28500D03*
X373900Y28500D03*
D11*
X40200Y421400D03*
D12*
X40200Y441400D03*
X40200Y461400D03*
X40200Y481400D03*
X40200Y501400D03*
X40200Y521400D03*
D13*
X454400Y240000D03*
X429000Y240000D03*
X403600Y240000D03*
X454400Y265000D03*
X429000Y265000D03*
X403600Y265000D03*
X403600Y291000D03*
X429000Y291000D03*
X454400Y291000D03*
X403600Y316000D03*
X429000Y316000D03*
X454400Y316000D03*
D11*
X553000Y28500D03*
D12*
X533000Y28500D03*
X513000Y28500D03*
X493000Y28500D03*
D11*
X553000Y100500D03*
D12*
X533000Y100500D03*
X513000Y100500D03*
X493000Y100500D03*
D11*
X314000Y28500D03*
D12*
X294000Y28500D03*
X274000Y28500D03*
D11*
X199000Y99500D03*
D12*
X179000Y99500D03*
X159000Y99500D03*
D11*
X312700Y99500D03*
D12*
X292700Y99500D03*
X272700Y99500D03*
D11*
X966500Y229000D03*
D12*
X966500Y209000D03*
D13*
X403600Y341000D03*
X429000Y341000D03*
X454400Y341000D03*
D11*
X43100Y721300D03*
D12*
X63100Y721300D03*
X83100Y721300D03*
X103100Y721300D03*
D14*
X338800Y159800D03*
X313400Y159800D03*
X288000Y159800D03*
X262600Y159800D03*
X237200Y159800D03*
X211800Y159800D03*
X186400Y159800D03*
X161000Y159800D03*
D11*
X278300Y721500D03*
D12*
X298300Y721500D03*
X318300Y721500D03*
X338300Y721500D03*
D11*
X160800Y721500D03*
D12*
X180800Y721500D03*
X200800Y721500D03*
X220800Y721500D03*
D11*
X38200Y140000D03*
D12*
X38200Y160000D03*
X38200Y180000D03*
X38200Y200000D03*
D15*
X312900Y646000D03*
X338300Y646000D03*
X363700Y646000D03*
X389100Y646000D03*
X414500Y646000D03*
X439900Y646000D03*
X465300Y646000D03*
X490700Y646000D03*
D16*
X110200Y595200D03*
X110200Y569800D03*
X110200Y544400D03*
X110200Y519000D03*
X110200Y493600D03*
X110200Y468200D03*
X110200Y442800D03*
X110200Y417400D03*
X110200Y209900D03*
X110200Y184500D03*
X110200Y159100D03*
X110200Y133700D03*
X110200Y108300D03*
X110200Y82900D03*
X110200Y57500D03*
X110200Y32100D03*
D13*
X110200Y342400D03*
X110200Y317000D03*
X110200Y291600D03*
D15*
X389600Y159800D03*
X415000Y159800D03*
X440400Y159800D03*
X465800Y159800D03*
X491200Y159800D03*
X516600Y159800D03*
X542000Y159800D03*
X567400Y159800D03*
D17*
X490800Y417400D03*
X490800Y442800D03*
X490800Y468200D03*
X490800Y493600D03*
X490800Y519000D03*
X490800Y544400D03*
X490800Y569800D03*
X490800Y595200D03*
D14*
X262500Y646000D03*
X237100Y646000D03*
X211700Y646000D03*
X186300Y646000D03*
X160900Y646000D03*
X135500Y646000D03*
X110100Y646000D03*
X84700Y646000D03*
X59300Y646000D03*
X33900Y646000D03*
D11*
X39200Y260000D03*
D12*
X39200Y280000D03*
X39200Y300000D03*
X39200Y320000D03*
X39200Y340000D03*
X39200Y360000D03*
D16*
X490800Y341300D03*
X490800Y315900D03*
X490800Y290500D03*
X490800Y265100D03*
X490800Y239700D03*
X490800Y214300D03*
D18*
X569804Y223000D02*
X581996Y223000D01*
X646004Y223000D02*
X658196Y223000D01*
D19*
X974000Y329750D03*
X974000Y404250D03*
D12*
X943700Y342750D03*
X943700Y391250D03*
D11*
X396600Y721500D03*
D12*
X416600Y721500D03*
X436600Y721500D03*
X456600Y721500D03*
X476600Y721500D03*
X496600Y721500D03*
D11*
X189000Y30500D03*
D12*
X169000Y30500D03*
D11*
X966500Y156000D03*
D12*
X966500Y136000D03*
D18*
X887996Y653000D02*
X875804Y653000D01*
X952004Y653000D02*
X964196Y653000D01*
D20*
X873010Y68526D02*
X873010Y41475D01*
X920000Y41475D02*
X920000Y68526D01*
X966990Y68526D02*
X966990Y41475D01*
D18*
X887996Y536000D02*
X875804Y536000D01*
X952004Y536000D02*
X964196Y536000D01*
D13*
X894600Y711000D03*
X920000Y711000D03*
X945400Y711000D03*
M02*
