M48
;GenerationSoftware,Autodesk,EAGLE,9.2.2*%
;CreationDate,2019-02-01T02:27:25Z*%
FMAT,2
ICI,OFF
METRIC,TZ,000.000
T9C0.350
T8C0.381
T7C0.700
T6C0.813
T5C1.016
T4C1.050
T3C1.200
T2C1.803
T1C3.200
%
G90
M71
T1
X5000Y7500
X95000Y45000
X95000Y28300
X75400Y7500
X5000Y58000
X95000Y60500
T2
X96699Y5500
X92000Y5500
X87301Y5500
T3
X97400Y32975
X97400Y40425
T4
X94370Y34275
X94370Y39125
T5
X94540Y71100
X18640Y15980
X92000Y71100
X89460Y71100
X21180Y15980
X23720Y15980
X16100Y15980
X26260Y15980
X45440Y24000
X28800Y15980
X31340Y15980
X49080Y21430
X49080Y23970
X49080Y26510
X49080Y29050
X49080Y31590
X49080Y34130
X42900Y24000
X40360Y24000
X45440Y26500
X42900Y26500
X40360Y26500
X40360Y29100
X3390Y64600
X5930Y64600
X8470Y64600
X11010Y64600
X13550Y64600
X16090Y64600
X18630Y64600
X21170Y64600
X23710Y64600
X26250Y64600
X49080Y59520
X49080Y56980
X49080Y54440
X49080Y51900
X49080Y49360
X49080Y46820
X49080Y44280
X49080Y41740
X56740Y15980
X54200Y15980
X51660Y15980
X49120Y15980
X46580Y15980
X44040Y15980
X41500Y15980
X38960Y15980
X11020Y29160
X11020Y31700
X11020Y34240
X11020Y3210
X11020Y5750
X11020Y8290
X11020Y10830
X11020Y13370
X11020Y15910
X11020Y18450
X11020Y20990
X11020Y41740
X11020Y44280
X11020Y46820
X11020Y49360
X11020Y51900
X11020Y54440
X11020Y56980
X11020Y59520
X49070Y64600
X46530Y64600
X43990Y64600
X41450Y64600
X38910Y64600
X36370Y64600
X33830Y64600
X31290Y64600
X42900Y29100
X45440Y29100
X40360Y31600
X42900Y31600
X45440Y31600
X40360Y34100
X42900Y34100
X45440Y34100
X33880Y15980
T6
X57590Y22300
X65210Y22300
X88190Y65300
X95810Y65300
X88190Y53600
X95810Y53600
T7
X49660Y72150
X27830Y72150
X29830Y72150
X31830Y72150
X33830Y72150
X18080Y72150
X10310Y72130
X8310Y72130
X6310Y72130
X4310Y72130
X16080Y72150
X18900Y3050
X20080Y72150
X96650Y20900
X96650Y22900
X27270Y9950
X29270Y9950
X31270Y9950
X15900Y9950
X17900Y9950
X19900Y9950
X27400Y2850
X29400Y2850
X31400Y2850
X49300Y10050
X51300Y10050
X53300Y10050
X55300Y10050
X49300Y2850
X51300Y2850
X53300Y2850
X55300Y2850
X22080Y72150
X3820Y14000
X3820Y16000
X3820Y18000
X3820Y20000
X3920Y26000
X3920Y28000
X3920Y30000
X3920Y32000
X3920Y34000
X3920Y36000
X96650Y15600
X4020Y52140
X4020Y50140
X4020Y48140
X4020Y46140
X4020Y44140
X4020Y42140
X37390Y2850
X39390Y2850
X41390Y2850
X43390Y2850
X65220Y65150
X63220Y65150
X61220Y65150
X59220Y65150
X57220Y65150
X55220Y65150
X65240Y72150
X63240Y72150
X61240Y72150
X59240Y72150
X57240Y72150
X55240Y72150
X37340Y9990
X39340Y9990
X41340Y9990
X43340Y9990
X61070Y2910
X63070Y2910
X65070Y2910
X67070Y2910
X61070Y10030
X63070Y10030
X65070Y10030
X67070Y10030
X96650Y13600
X16900Y3050
X39660Y72150
X41660Y72150
X43660Y72150
X45660Y72150
X47660Y72150
T8
X9500Y38000
T9
X31400Y31700
X31000Y32900
X30000Y31700
X29700Y33700
X28100Y31800
X27800Y34700
X25800Y34700
X20300Y33000
X19200Y33000
X57200Y41500
X74200Y57200
X33200Y50800
X32200Y50800
X18100Y48900
X16700Y48500
X15200Y47900
X25200Y39000
X82200Y27500
X26400Y39000
X74900Y29400
X22800Y40600
X22800Y39600
X36400Y34200
X36800Y33300
X32400Y31700
X32900Y18100
X33100Y32700
X33800Y18500
X33800Y31800
X33800Y19500
X13300Y44400
X17800Y34600
X88600Y22900
X78900Y5700
X17900Y33000
X24600Y28300
X39000Y32900
X38300Y33600
X37900Y34700
X30600Y50800
X32400Y54600
X56400Y17800
X59700Y52100
X34200Y45000
X29600Y51100
X60100Y47900
X68800Y48000
X55600Y52100
X60100Y54900
X67300Y53700
X54900Y59100
X64100Y58600
X73600Y25500
X71400Y25500
X72500Y25500
X69400Y58900
X23500Y50000
X71700Y10900
X70600Y10900
X30000Y21100
X69700Y14900
X29000Y17900
X25400Y24800
X19800Y27900
X36100Y22100
X20200Y13300
X37600Y19900
X29200Y32900
X14400Y51100
X40200Y38600
X24200Y39000
X62000Y47800
X31400Y50300
X20800Y35500
X16000Y49900
X25700Y58300
X16800Y53100
X20200Y53400
X23400Y56200
X20400Y54400
X24500Y56200
X84700Y7200
X46200Y68200
X41400Y68200
X94700Y22000
X94700Y23800
X93000Y25800
X93000Y24800
X93000Y23800
X93000Y22000
X83000Y61700
X72200Y35700
X53700Y30300
X83200Y48200
X73600Y35700
X52900Y27100
X35200Y33900
X35200Y32900
X80400Y45100
X88300Y34600
X87200Y34600
X81600Y43700
X81600Y44600
X43300Y66700
X36100Y55900
X75400Y26800
X24600Y34500
X78100Y27500
X24600Y35500
X13200Y46000
X21900Y58200
X16600Y58200
X21900Y59300
X15900Y55700
X13200Y47100
X61300Y67800
X51000Y53900
X51000Y55700
X34400Y49100
X60300Y58200
X33300Y49100
X54600Y51600
X51600Y49300
X46000Y49300
X62200Y14200
X57800Y14200
X28500Y50100
X54100Y36100
X66000Y40800
X42800Y50800
X70200Y36100
X40500Y51900
X67600Y33800
X40600Y50000
X66700Y31700
X40600Y49000
X65800Y33000
X41200Y48000
X17700Y22400
X17700Y25300
X27400Y50100
X53400Y36800
X59500Y15600
X31800Y21100
X28700Y21100
X36000Y21000
X42900Y39400
X59200Y43500
X15200Y23900
X67400Y43400
X61100Y18500
X64600Y17200
X64200Y63000
X65500Y63000
X70800Y63000
X68300Y63000
X62000Y51900
X28800Y57100
X42300Y60000
X37300Y58800
X32300Y61700
X32700Y56000
X14200Y40100
X15200Y19600
X15200Y21100
X78800Y12900
X80800Y14200
X80200Y72100
X79900Y67000
X80200Y58600
X81400Y55600
X82500Y6200
X87600Y13100
X80100Y16100
X25600Y33500
X40300Y45600
X40600Y55000
X53200Y52100
X82000Y15800
X84200Y15800
X85700Y15800
X83100Y15800
X83400Y33200
X77700Y33200
X80400Y33200
X80400Y35100
X77800Y38000
X68400Y30700
X51000Y41700
X51000Y34700
X25200Y44600
X32200Y42000
X28900Y42000
X25200Y41900
X25200Y47000
X32100Y47100
X28800Y47000
X32200Y44600
X28900Y44600
X96600Y24500
X98000Y24500
X96700Y19300
X91800Y21600
X91800Y19200
X96700Y18000
X88300Y24400
X28700Y59900
X27700Y60100
X33000Y58700
X70700Y18200
X67900Y16900
X30500Y23800
X28100Y28300
X31700Y27600
X80400Y30600
X24600Y22900
X24400Y18200
X92400Y38000
X89500Y39600
X83300Y41000
X78300Y11000
X74200Y13900
X89800Y19200
X57500Y30200
X57500Y31700
X57500Y33000
X82500Y12000
X15900Y6900
X20300Y6900
X80600Y22800
X45300Y54900
X27200Y54400
X25600Y50600
X27200Y55400
X41700Y45600
X34200Y43300
X25500Y32200
X27400Y39000
X8400Y45200
X23300Y45600
X81400Y49400
X65000Y6600
X46300Y6900
X34200Y6800
X29800Y6900
X72400Y70900
X70000Y39600
X71000Y48000
X70800Y55900
X70800Y58600
X70800Y61200
X79900Y63900
X76700Y16100
X78700Y16100
X81600Y8500
X73500Y21200
M30