G04 EAGLE Gerber RS-274X export*
G75*
%MOMM*%
%FSLAX34Y34*%
%LPD*%
%INTop Soldermask*%
%IPPOS*%
%AMOC8*
5,1,8,0,0,1.08239X$1,22.5*%
G01*
%ADD10C,3.403200*%
%ADD11R,0.400000X1.600000*%
%ADD12R,1.600000X0.400000*%
%ADD13R,1.253200X1.283200*%
%ADD14R,1.283200X1.253200*%
%ADD15R,1.253200X1.253200*%
%ADD16C,1.253200*%
%ADD17R,0.551200X1.600200*%
%ADD18R,0.753200X1.403200*%
%ADD19R,1.203200X1.603200*%
%ADD20C,1.727200*%
%ADD21R,1.053200X0.453200*%
%ADD22R,1.503200X1.753200*%
%ADD23P,2.144431X8X292.500000*%
%ADD24P,2.144431X8X112.500000*%
%ADD25P,2.144431X8X22.500000*%
%ADD26P,2.144431X8X202.500000*%
%ADD27C,1.422400*%
%ADD28R,1.603200X1.203200*%
%ADD29R,1.953200X0.603200*%
%ADD30R,2.743200X2.743200*%
%ADD31R,0.603200X0.903200*%
%ADD32R,2.603200X0.963200*%
%ADD33R,1.423200X0.823200*%
%ADD34C,0.258150*%
%ADD35R,1.903200X1.743200*%
%ADD36R,0.703200X0.453200*%
%ADD37C,2.908300*%


D10*
X50000Y75000D03*
X950000Y450000D03*
X950000Y283000D03*
X754000Y75000D03*
X50000Y580000D03*
X950000Y605000D03*
D11*
X348800Y529250D03*
X343800Y529250D03*
X338800Y529250D03*
X333800Y529250D03*
X328800Y529250D03*
X323800Y529250D03*
X318800Y529250D03*
X313800Y529250D03*
X308800Y529250D03*
X303800Y529250D03*
X298800Y529250D03*
X293800Y529250D03*
X288800Y529250D03*
X283800Y529250D03*
X278800Y529250D03*
X273800Y529250D03*
X268800Y529250D03*
X263800Y529250D03*
X258800Y529250D03*
X253800Y529250D03*
X248800Y529250D03*
X243800Y529250D03*
X238800Y529250D03*
X233800Y529250D03*
X228800Y529250D03*
D12*
X210050Y510500D03*
X210050Y505500D03*
X210050Y500500D03*
X210050Y495500D03*
X210050Y490500D03*
X210050Y485500D03*
X210050Y480500D03*
X210050Y475500D03*
X210050Y470500D03*
X210050Y465500D03*
X210050Y460500D03*
X210050Y455500D03*
X210050Y450500D03*
X210050Y445500D03*
X210050Y440500D03*
X210050Y435500D03*
X210050Y430500D03*
X210050Y425500D03*
X210050Y420500D03*
X210050Y415500D03*
X210050Y410500D03*
X210050Y405500D03*
X210050Y400500D03*
X210050Y395500D03*
X210050Y390500D03*
D11*
X228800Y371750D03*
X233800Y371750D03*
X238800Y371750D03*
X243800Y371750D03*
X248800Y371750D03*
X253800Y371750D03*
X258800Y371750D03*
X263800Y371750D03*
X268800Y371750D03*
X273800Y371750D03*
X278800Y371750D03*
X283800Y371750D03*
X288800Y371750D03*
X293800Y371750D03*
X298800Y371750D03*
X303800Y371750D03*
X308800Y371750D03*
X313800Y371750D03*
X318800Y371750D03*
X323800Y371750D03*
X328800Y371750D03*
X333800Y371750D03*
X338800Y371750D03*
X343800Y371750D03*
X348800Y371750D03*
D12*
X367550Y390500D03*
X367550Y395500D03*
X367550Y400500D03*
X367550Y405500D03*
X367550Y410500D03*
X367550Y415500D03*
X367550Y420500D03*
X367550Y425500D03*
X367550Y430500D03*
X367550Y435500D03*
X367550Y440500D03*
X367550Y445500D03*
X367550Y450500D03*
X367550Y455500D03*
X367550Y460500D03*
X367550Y465500D03*
X367550Y470500D03*
X367550Y475500D03*
X367550Y480500D03*
X367550Y485500D03*
X367550Y490500D03*
X367550Y495500D03*
X367550Y500500D03*
X367550Y505500D03*
X367550Y510500D03*
D13*
X467750Y366700D03*
X450250Y366700D03*
X467750Y392500D03*
X450250Y392500D03*
D14*
X318000Y569350D03*
X318000Y586850D03*
X277000Y570550D03*
X277000Y588050D03*
X268500Y338050D03*
X268500Y320550D03*
D13*
X399750Y444900D03*
X417250Y444900D03*
D14*
X140700Y414450D03*
X140700Y431950D03*
D13*
X493850Y367700D03*
X511350Y367700D03*
X493850Y392100D03*
X511350Y392100D03*
D14*
X270100Y230350D03*
X270100Y247850D03*
D13*
X298050Y271700D03*
X280550Y271700D03*
D14*
X632300Y156450D03*
X632300Y173950D03*
X611300Y156350D03*
X611300Y173850D03*
D15*
X670700Y100300D03*
D16*
X650700Y100300D03*
X630700Y100300D03*
X610700Y100300D03*
D15*
X670700Y29100D03*
D16*
X650700Y29100D03*
X630700Y29100D03*
X610700Y29100D03*
D15*
X433400Y99900D03*
D16*
X413400Y99900D03*
X393400Y99900D03*
X373400Y99900D03*
D15*
X552400Y721500D03*
D16*
X572400Y721500D03*
X592400Y721500D03*
X612400Y721500D03*
X632400Y721500D03*
X652400Y721500D03*
D15*
X552200Y651500D03*
D16*
X572200Y651500D03*
X592200Y651500D03*
X612200Y651500D03*
X632200Y651500D03*
X652200Y651500D03*
D15*
X433900Y28500D03*
D16*
X413900Y28500D03*
X393900Y28500D03*
X373900Y28500D03*
D15*
X40200Y421400D03*
D16*
X40200Y441400D03*
X40200Y461400D03*
X40200Y481400D03*
X40200Y501400D03*
X40200Y521400D03*
D17*
X761750Y366560D03*
X768250Y366560D03*
X774750Y366560D03*
X781250Y366560D03*
X787750Y366560D03*
X794250Y366560D03*
X800750Y366560D03*
X813750Y366560D03*
X807250Y366560D03*
X820250Y366560D03*
X826750Y366560D03*
X833250Y366560D03*
X839750Y366560D03*
X846250Y366560D03*
X761750Y293440D03*
X768250Y293440D03*
X774750Y293440D03*
X781250Y293440D03*
X787750Y293440D03*
X794250Y293440D03*
X800750Y293440D03*
X807250Y293440D03*
X813750Y293440D03*
X820250Y293440D03*
X826750Y293440D03*
X833250Y293440D03*
X839750Y293440D03*
X846250Y293440D03*
D13*
X815250Y424000D03*
X832750Y424000D03*
X815250Y396000D03*
X832750Y396000D03*
D14*
X746000Y413750D03*
X746000Y396250D03*
X777200Y413950D03*
X777200Y396450D03*
X746000Y433250D03*
X746000Y450750D03*
X777000Y433250D03*
X777000Y450750D03*
D13*
X858250Y396000D03*
X875750Y396000D03*
D14*
X300000Y570250D03*
X300000Y587750D03*
X687000Y413750D03*
X687000Y396250D03*
X714000Y413750D03*
X714000Y396250D03*
D18*
X768500Y214000D03*
X778000Y214000D03*
X787500Y214000D03*
X787500Y240000D03*
X768500Y240000D03*
D14*
X787000Y190750D03*
X787000Y173250D03*
X767000Y190750D03*
X767000Y173250D03*
X747000Y239750D03*
X747000Y222250D03*
X714000Y222250D03*
X714000Y239750D03*
X720000Y199750D03*
X720000Y182250D03*
X820000Y190750D03*
X820000Y173250D03*
X820000Y213250D03*
X820000Y230750D03*
D19*
X856000Y179000D03*
X846500Y201000D03*
X865500Y201000D03*
D13*
X846250Y231000D03*
X863750Y231000D03*
X863750Y260000D03*
X846250Y260000D03*
D14*
X563000Y357750D03*
X563000Y340250D03*
D20*
X454400Y240000D03*
X429000Y240000D03*
X403600Y240000D03*
X454400Y265000D03*
X429000Y265000D03*
X403600Y265000D03*
D14*
X714000Y450750D03*
X714000Y433250D03*
D13*
X912750Y329100D03*
X895250Y329100D03*
X831750Y538000D03*
X814250Y538000D03*
D20*
X403600Y291000D03*
X429000Y291000D03*
X454400Y291000D03*
D13*
X831750Y670000D03*
X814250Y670000D03*
D20*
X403600Y316000D03*
X429000Y316000D03*
X454400Y316000D03*
D15*
X553000Y28500D03*
D16*
X533000Y28500D03*
X513000Y28500D03*
X493000Y28500D03*
D15*
X553000Y100500D03*
D16*
X533000Y100500D03*
X513000Y100500D03*
X493000Y100500D03*
D21*
X924500Y366300D03*
X909500Y366300D03*
X924500Y361300D03*
X909500Y361300D03*
D14*
X687000Y360250D03*
X687000Y377750D03*
X687000Y320250D03*
X687000Y337750D03*
X417000Y532250D03*
X417000Y549750D03*
X439000Y532250D03*
X439000Y549750D03*
D15*
X314000Y28500D03*
D16*
X294000Y28500D03*
X274000Y28500D03*
D15*
X199000Y99500D03*
D16*
X179000Y99500D03*
X159000Y99500D03*
D15*
X312700Y99500D03*
D16*
X292700Y99500D03*
X272700Y99500D03*
D15*
X966500Y229000D03*
D16*
X966500Y209000D03*
D13*
X901250Y258000D03*
X918750Y258000D03*
X769250Y586000D03*
X786750Y586000D03*
D22*
X724500Y480250D03*
X724500Y559750D03*
X769500Y480250D03*
X769500Y560250D03*
D13*
X770250Y721000D03*
X787750Y721000D03*
D20*
X403600Y341000D03*
X429000Y341000D03*
X454400Y341000D03*
D22*
X724500Y613250D03*
X724500Y692750D03*
X769500Y613250D03*
X769500Y693250D03*
D13*
X834650Y45900D03*
X817150Y45900D03*
X816350Y72400D03*
X833850Y72400D03*
D14*
X687000Y433250D03*
X687000Y450750D03*
D15*
X43100Y721300D03*
D16*
X63100Y721300D03*
X83100Y721300D03*
X103100Y721300D03*
D13*
X741750Y586000D03*
X724250Y586000D03*
D14*
X658400Y451250D03*
X658400Y433750D03*
D13*
X834750Y23000D03*
X817250Y23000D03*
X831750Y639000D03*
X814250Y639000D03*
X831750Y507000D03*
X814250Y507000D03*
D23*
X338800Y159800D03*
X313400Y159800D03*
X288000Y159800D03*
X262600Y159800D03*
X237200Y159800D03*
X211800Y159800D03*
X186400Y159800D03*
X161000Y159800D03*
D15*
X278300Y721500D03*
D16*
X298300Y721500D03*
X318300Y721500D03*
X338300Y721500D03*
D13*
X334350Y605000D03*
X316850Y605000D03*
X354350Y599200D03*
X371850Y599200D03*
D15*
X160800Y721500D03*
D16*
X180800Y721500D03*
X200800Y721500D03*
X220800Y721500D03*
D15*
X38200Y140000D03*
D16*
X38200Y160000D03*
X38200Y180000D03*
X38200Y200000D03*
D13*
X901250Y229000D03*
X918750Y229000D03*
X918750Y205000D03*
X901250Y205000D03*
D24*
X312900Y646000D03*
X338300Y646000D03*
X363700Y646000D03*
X389100Y646000D03*
X414500Y646000D03*
X439900Y646000D03*
X465300Y646000D03*
X490700Y646000D03*
D25*
X110200Y595200D03*
X110200Y569800D03*
X110200Y544400D03*
X110200Y519000D03*
X110200Y493600D03*
X110200Y468200D03*
X110200Y442800D03*
X110200Y417400D03*
X110200Y209900D03*
X110200Y184500D03*
X110200Y159100D03*
X110200Y133700D03*
X110200Y108300D03*
X110200Y82900D03*
X110200Y57500D03*
X110200Y32100D03*
D20*
X110200Y342400D03*
X110200Y317000D03*
X110200Y291600D03*
D24*
X389600Y159800D03*
X415000Y159800D03*
X440400Y159800D03*
X465800Y159800D03*
X491200Y159800D03*
X516600Y159800D03*
X542000Y159800D03*
X567400Y159800D03*
D26*
X490800Y417400D03*
X490800Y442800D03*
X490800Y468200D03*
X490800Y493600D03*
X490800Y519000D03*
X490800Y544400D03*
X490800Y569800D03*
X490800Y595200D03*
D23*
X262500Y646000D03*
X237100Y646000D03*
X211700Y646000D03*
X186300Y646000D03*
X160900Y646000D03*
X135500Y646000D03*
X110100Y646000D03*
X84700Y646000D03*
X59300Y646000D03*
X33900Y646000D03*
D15*
X39200Y260000D03*
D16*
X39200Y280000D03*
X39200Y300000D03*
X39200Y320000D03*
X39200Y340000D03*
X39200Y360000D03*
D25*
X490800Y341300D03*
X490800Y315900D03*
X490800Y290500D03*
X490800Y265100D03*
X490800Y239700D03*
X490800Y214300D03*
D14*
X679000Y182250D03*
X679000Y199750D03*
D27*
X581996Y223000D02*
X569804Y223000D01*
X646004Y223000D02*
X658196Y223000D01*
D28*
X563000Y559000D03*
X585000Y568500D03*
X585000Y549500D03*
X651000Y559000D03*
X673000Y568500D03*
X673000Y549500D03*
D14*
X532000Y559750D03*
X532000Y542250D03*
X620000Y558750D03*
X620000Y541250D03*
D13*
X584750Y594000D03*
X567250Y594000D03*
X672750Y593000D03*
X655250Y593000D03*
D28*
X563000Y489000D03*
X585000Y498500D03*
X585000Y479500D03*
D14*
X532000Y489250D03*
X532000Y506750D03*
D13*
X584750Y521000D03*
X567250Y521000D03*
D28*
X652000Y489000D03*
X674000Y498500D03*
X674000Y479500D03*
D14*
X620000Y489250D03*
X620000Y506750D03*
D13*
X673750Y522000D03*
X656250Y522000D03*
D29*
X945750Y380000D03*
X945750Y354000D03*
X945750Y373500D03*
X945750Y367000D03*
X945750Y360500D03*
D30*
X974000Y329750D03*
X974000Y404250D03*
D16*
X943700Y342750D03*
X943700Y391250D03*
D15*
X396600Y721500D03*
D16*
X416600Y721500D03*
X436600Y721500D03*
X456600Y721500D03*
X476600Y721500D03*
X496600Y721500D03*
D13*
X392950Y599400D03*
X410450Y599400D03*
D15*
X189000Y30500D03*
D16*
X169000Y30500D03*
D13*
X238750Y63000D03*
X221250Y63000D03*
X239750Y21000D03*
X222250Y21000D03*
D15*
X966500Y156000D03*
D16*
X966500Y136000D03*
D14*
X799000Y110250D03*
X799000Y127750D03*
D19*
X906000Y153000D03*
X896500Y175000D03*
X915500Y175000D03*
D13*
X837750Y142000D03*
X820250Y142000D03*
X905750Y131000D03*
X888250Y131000D03*
D31*
X818500Y110500D03*
X825000Y110500D03*
X831500Y110500D03*
X831500Y127500D03*
X818500Y127500D03*
D32*
X593600Y330000D03*
X593600Y342700D03*
X593600Y355400D03*
X593600Y317300D03*
X593600Y304600D03*
X632400Y304600D03*
X632400Y317300D03*
X632400Y330000D03*
X632400Y342700D03*
X632400Y355400D03*
D33*
X755000Y129500D03*
X755000Y139000D03*
X755000Y148500D03*
X729000Y148500D03*
X729000Y129500D03*
D14*
X777000Y129250D03*
X777000Y146750D03*
D13*
X729250Y109000D03*
X746750Y109000D03*
D34*
X323375Y228825D02*
X317525Y228825D01*
X323375Y228825D02*
X323375Y227175D01*
X317525Y227175D01*
X317525Y228825D01*
X317525Y232825D02*
X323375Y232825D01*
X323375Y231175D01*
X317525Y231175D01*
X317525Y232825D01*
X317525Y236825D02*
X323375Y236825D01*
X323375Y235175D01*
X317525Y235175D01*
X317525Y236825D01*
X317525Y240825D02*
X323375Y240825D01*
X323375Y239175D01*
X317525Y239175D01*
X317525Y240825D01*
X317525Y244825D02*
X323375Y244825D01*
X323375Y243175D01*
X317525Y243175D01*
X317525Y244825D01*
X317525Y248825D02*
X323375Y248825D01*
X323375Y247175D01*
X317525Y247175D01*
X317525Y248825D01*
X314175Y250525D02*
X314175Y256375D01*
X315825Y256375D01*
X315825Y250525D01*
X314175Y250525D01*
X314175Y252978D02*
X315825Y252978D01*
X315825Y255431D02*
X314175Y255431D01*
X310175Y256375D02*
X310175Y250525D01*
X310175Y256375D02*
X311825Y256375D01*
X311825Y250525D01*
X310175Y250525D01*
X310175Y252978D02*
X311825Y252978D01*
X311825Y255431D02*
X310175Y255431D01*
X306175Y256375D02*
X306175Y250525D01*
X306175Y256375D02*
X307825Y256375D01*
X307825Y250525D01*
X306175Y250525D01*
X306175Y252978D02*
X307825Y252978D01*
X307825Y255431D02*
X306175Y255431D01*
X302175Y256375D02*
X302175Y250525D01*
X302175Y256375D02*
X303825Y256375D01*
X303825Y250525D01*
X302175Y250525D01*
X302175Y252978D02*
X303825Y252978D01*
X303825Y255431D02*
X302175Y255431D01*
X298175Y256375D02*
X298175Y250525D01*
X298175Y256375D02*
X299825Y256375D01*
X299825Y250525D01*
X298175Y250525D01*
X298175Y252978D02*
X299825Y252978D01*
X299825Y255431D02*
X298175Y255431D01*
X294175Y256375D02*
X294175Y250525D01*
X294175Y256375D02*
X295825Y256375D01*
X295825Y250525D01*
X294175Y250525D01*
X294175Y252978D02*
X295825Y252978D01*
X295825Y255431D02*
X294175Y255431D01*
X292475Y247175D02*
X286625Y247175D01*
X286625Y248825D01*
X292475Y248825D01*
X292475Y247175D01*
X292475Y243175D02*
X286625Y243175D01*
X286625Y244825D01*
X292475Y244825D01*
X292475Y243175D01*
X292475Y239175D02*
X286625Y239175D01*
X286625Y240825D01*
X292475Y240825D01*
X292475Y239175D01*
X292475Y235175D02*
X286625Y235175D01*
X286625Y236825D01*
X292475Y236825D01*
X292475Y235175D01*
X292475Y231175D02*
X286625Y231175D01*
X286625Y232825D01*
X292475Y232825D01*
X292475Y231175D01*
X292475Y227175D02*
X286625Y227175D01*
X286625Y228825D01*
X292475Y228825D01*
X292475Y227175D01*
X295825Y225475D02*
X295825Y219625D01*
X294175Y219625D01*
X294175Y225475D01*
X295825Y225475D01*
X295825Y222078D02*
X294175Y222078D01*
X294175Y224531D02*
X295825Y224531D01*
X299825Y225475D02*
X299825Y219625D01*
X298175Y219625D01*
X298175Y225475D01*
X299825Y225475D01*
X299825Y222078D02*
X298175Y222078D01*
X298175Y224531D02*
X299825Y224531D01*
X303825Y225475D02*
X303825Y219625D01*
X302175Y219625D01*
X302175Y225475D01*
X303825Y225475D01*
X303825Y222078D02*
X302175Y222078D01*
X302175Y224531D02*
X303825Y224531D01*
X307825Y225475D02*
X307825Y219625D01*
X306175Y219625D01*
X306175Y225475D01*
X307825Y225475D01*
X307825Y222078D02*
X306175Y222078D01*
X306175Y224531D02*
X307825Y224531D01*
X311825Y225475D02*
X311825Y219625D01*
X310175Y219625D01*
X310175Y225475D01*
X311825Y225475D01*
X311825Y222078D02*
X310175Y222078D01*
X310175Y224531D02*
X311825Y224531D01*
X315825Y225475D02*
X315825Y219625D01*
X314175Y219625D01*
X314175Y225475D01*
X315825Y225475D01*
X315825Y222078D02*
X314175Y222078D01*
X314175Y224531D02*
X315825Y224531D01*
D35*
X305000Y238000D03*
D36*
X238700Y204700D03*
X238700Y209700D03*
X238700Y214700D03*
X238700Y219700D03*
X211200Y204700D03*
X211200Y209700D03*
X211200Y214700D03*
X211200Y219700D03*
D14*
X255000Y183250D03*
X255000Y200750D03*
D13*
X231750Y185000D03*
X214250Y185000D03*
D14*
X276000Y201750D03*
X276000Y184250D03*
X339000Y222250D03*
X339000Y239750D03*
D13*
X195750Y211000D03*
X178250Y211000D03*
X195750Y239000D03*
X178250Y239000D03*
X195750Y185000D03*
X178250Y185000D03*
X346750Y262000D03*
X329250Y262000D03*
X200750Y307000D03*
X183250Y307000D03*
D19*
X222000Y288000D03*
X231500Y266000D03*
X212500Y266000D03*
D27*
X875804Y653000D02*
X887996Y653000D01*
X952004Y653000D02*
X964196Y653000D01*
D37*
X873010Y68526D02*
X873010Y41475D01*
X920000Y41475D02*
X920000Y68526D01*
X966990Y68526D02*
X966990Y41475D01*
D27*
X887996Y536000D02*
X875804Y536000D01*
X952004Y536000D02*
X964196Y536000D01*
D20*
X894600Y711000D03*
X920000Y711000D03*
X945400Y711000D03*
D14*
X80000Y360250D03*
X80000Y377750D03*
M02*
