G04 EAGLE Gerber RS-274X export*
G75*
%MOMM*%
%FSLAX34Y34*%
%LPD*%
%INBottom Silkscreen*%
%IPPOS*%
%AMOC8*
5,1,8,0,0,1.08239X$1,22.5*%
G01*
%ADD10C,0.101600*%
%ADD11C,0.152400*%
%ADD12C,0.100000*%
%ADD13C,0.001000*%


D10*
X973834Y6508D02*
X973834Y18192D01*
X970588Y18192D01*
X970475Y18190D01*
X970362Y18184D01*
X970249Y18174D01*
X970136Y18160D01*
X970024Y18143D01*
X969913Y18121D01*
X969803Y18096D01*
X969693Y18066D01*
X969585Y18033D01*
X969478Y17996D01*
X969372Y17956D01*
X969268Y17911D01*
X969165Y17863D01*
X969064Y17812D01*
X968965Y17757D01*
X968868Y17699D01*
X968773Y17637D01*
X968680Y17572D01*
X968590Y17504D01*
X968502Y17433D01*
X968416Y17358D01*
X968333Y17281D01*
X968253Y17201D01*
X968176Y17118D01*
X968101Y17032D01*
X968030Y16944D01*
X967962Y16854D01*
X967897Y16761D01*
X967835Y16666D01*
X967777Y16569D01*
X967722Y16470D01*
X967671Y16369D01*
X967623Y16266D01*
X967578Y16162D01*
X967538Y16056D01*
X967501Y15949D01*
X967468Y15841D01*
X967438Y15731D01*
X967413Y15621D01*
X967391Y15510D01*
X967374Y15398D01*
X967360Y15285D01*
X967350Y15172D01*
X967344Y15059D01*
X967342Y14946D01*
X967343Y14946D02*
X967343Y9754D01*
X967342Y9754D02*
X967344Y9641D01*
X967350Y9528D01*
X967360Y9415D01*
X967374Y9302D01*
X967391Y9190D01*
X967413Y9079D01*
X967438Y8969D01*
X967468Y8859D01*
X967501Y8751D01*
X967538Y8644D01*
X967578Y8538D01*
X967623Y8434D01*
X967671Y8331D01*
X967722Y8230D01*
X967777Y8131D01*
X967835Y8034D01*
X967897Y7939D01*
X967962Y7846D01*
X968030Y7756D01*
X968101Y7668D01*
X968176Y7582D01*
X968253Y7499D01*
X968333Y7419D01*
X968416Y7342D01*
X968502Y7267D01*
X968590Y7196D01*
X968680Y7128D01*
X968773Y7063D01*
X968868Y7001D01*
X968965Y6943D01*
X969064Y6888D01*
X969165Y6837D01*
X969268Y6789D01*
X969372Y6744D01*
X969478Y6704D01*
X969585Y6667D01*
X969693Y6634D01*
X969803Y6604D01*
X969913Y6579D01*
X970024Y6557D01*
X970136Y6540D01*
X970249Y6526D01*
X970362Y6516D01*
X970475Y6510D01*
X970588Y6508D01*
X973834Y6508D01*
X961619Y6508D02*
X956426Y6508D01*
X961619Y6508D02*
X961619Y18192D01*
X956426Y18192D01*
X957725Y12999D02*
X961619Y12999D01*
X948603Y6508D02*
X948504Y6510D01*
X948404Y6516D01*
X948305Y6525D01*
X948207Y6538D01*
X948109Y6555D01*
X948011Y6576D01*
X947915Y6601D01*
X947820Y6629D01*
X947726Y6661D01*
X947633Y6696D01*
X947541Y6735D01*
X947451Y6778D01*
X947363Y6823D01*
X947276Y6873D01*
X947192Y6925D01*
X947109Y6981D01*
X947029Y7039D01*
X946951Y7101D01*
X946876Y7166D01*
X946803Y7234D01*
X946733Y7304D01*
X946665Y7377D01*
X946600Y7452D01*
X946538Y7530D01*
X946480Y7610D01*
X946424Y7693D01*
X946372Y7777D01*
X946322Y7864D01*
X946277Y7952D01*
X946234Y8042D01*
X946195Y8134D01*
X946160Y8227D01*
X946128Y8321D01*
X946100Y8416D01*
X946075Y8512D01*
X946054Y8610D01*
X946037Y8708D01*
X946024Y8806D01*
X946015Y8905D01*
X946009Y9005D01*
X946007Y9104D01*
X948603Y6508D02*
X948747Y6510D01*
X948892Y6516D01*
X949036Y6525D01*
X949179Y6538D01*
X949323Y6555D01*
X949466Y6576D01*
X949608Y6601D01*
X949749Y6629D01*
X949890Y6661D01*
X950030Y6697D01*
X950169Y6736D01*
X950307Y6779D01*
X950443Y6826D01*
X950579Y6876D01*
X950713Y6930D01*
X950845Y6987D01*
X950976Y7048D01*
X951105Y7112D01*
X951233Y7180D01*
X951359Y7251D01*
X951483Y7325D01*
X951604Y7402D01*
X951724Y7483D01*
X951842Y7566D01*
X951957Y7653D01*
X952070Y7743D01*
X952181Y7836D01*
X952289Y7931D01*
X952395Y8030D01*
X952498Y8131D01*
X952173Y15596D02*
X952171Y15695D01*
X952165Y15795D01*
X952156Y15894D01*
X952143Y15992D01*
X952126Y16090D01*
X952105Y16188D01*
X952080Y16284D01*
X952052Y16379D01*
X952020Y16473D01*
X951985Y16566D01*
X951946Y16658D01*
X951903Y16748D01*
X951858Y16836D01*
X951808Y16923D01*
X951756Y17007D01*
X951700Y17090D01*
X951642Y17170D01*
X951580Y17248D01*
X951515Y17323D01*
X951447Y17396D01*
X951377Y17466D01*
X951304Y17534D01*
X951229Y17599D01*
X951151Y17661D01*
X951071Y17719D01*
X950988Y17775D01*
X950904Y17827D01*
X950817Y17877D01*
X950729Y17922D01*
X950639Y17965D01*
X950547Y18004D01*
X950454Y18039D01*
X950360Y18071D01*
X950265Y18099D01*
X950169Y18124D01*
X950071Y18145D01*
X949973Y18162D01*
X949875Y18175D01*
X949776Y18184D01*
X949676Y18190D01*
X949577Y18192D01*
X949441Y18190D01*
X949305Y18184D01*
X949169Y18175D01*
X949033Y18162D01*
X948898Y18144D01*
X948764Y18124D01*
X948630Y18099D01*
X948496Y18071D01*
X948364Y18038D01*
X948233Y18003D01*
X948102Y17963D01*
X947973Y17920D01*
X947845Y17874D01*
X947719Y17823D01*
X947593Y17770D01*
X947470Y17712D01*
X947348Y17652D01*
X947228Y17588D01*
X947109Y17520D01*
X946993Y17450D01*
X946879Y17376D01*
X946766Y17299D01*
X946656Y17218D01*
X950875Y13324D02*
X950961Y13377D01*
X951045Y13434D01*
X951127Y13493D01*
X951207Y13556D01*
X951284Y13622D01*
X951359Y13690D01*
X951431Y13762D01*
X951500Y13836D01*
X951566Y13913D01*
X951629Y13992D01*
X951689Y14074D01*
X951746Y14158D01*
X951800Y14244D01*
X951850Y14332D01*
X951897Y14422D01*
X951941Y14513D01*
X951980Y14607D01*
X952017Y14701D01*
X952049Y14797D01*
X952078Y14895D01*
X952103Y14993D01*
X952124Y15092D01*
X952142Y15192D01*
X952155Y15292D01*
X952165Y15393D01*
X952171Y15495D01*
X952173Y15596D01*
X947305Y11376D02*
X947219Y11323D01*
X947135Y11266D01*
X947053Y11207D01*
X946973Y11144D01*
X946896Y11078D01*
X946821Y11010D01*
X946749Y10938D01*
X946680Y10864D01*
X946614Y10787D01*
X946551Y10708D01*
X946491Y10626D01*
X946434Y10542D01*
X946380Y10456D01*
X946330Y10368D01*
X946283Y10278D01*
X946239Y10187D01*
X946200Y10093D01*
X946163Y9999D01*
X946131Y9903D01*
X946102Y9805D01*
X946077Y9707D01*
X946056Y9608D01*
X946038Y9508D01*
X946025Y9408D01*
X946015Y9307D01*
X946009Y9205D01*
X946007Y9104D01*
X947305Y11376D02*
X950875Y13324D01*
X940489Y18192D02*
X940489Y6508D01*
X941787Y6508D02*
X939191Y6508D01*
X939191Y18192D02*
X941787Y18192D01*
X929666Y12999D02*
X927719Y12999D01*
X927719Y6508D01*
X931613Y6508D01*
X931712Y6510D01*
X931812Y6516D01*
X931911Y6525D01*
X932009Y6538D01*
X932107Y6555D01*
X932205Y6576D01*
X932301Y6601D01*
X932396Y6629D01*
X932490Y6661D01*
X932583Y6696D01*
X932675Y6735D01*
X932765Y6778D01*
X932853Y6823D01*
X932940Y6873D01*
X933024Y6925D01*
X933107Y6981D01*
X933187Y7039D01*
X933265Y7101D01*
X933340Y7166D01*
X933413Y7234D01*
X933483Y7304D01*
X933551Y7377D01*
X933616Y7452D01*
X933678Y7530D01*
X933736Y7610D01*
X933792Y7693D01*
X933844Y7777D01*
X933894Y7864D01*
X933939Y7952D01*
X933982Y8042D01*
X934021Y8134D01*
X934056Y8227D01*
X934088Y8321D01*
X934116Y8416D01*
X934141Y8512D01*
X934162Y8610D01*
X934179Y8708D01*
X934192Y8806D01*
X934201Y8905D01*
X934207Y9005D01*
X934209Y9104D01*
X934210Y9104D02*
X934210Y15596D01*
X934209Y15596D02*
X934207Y15695D01*
X934201Y15795D01*
X934192Y15894D01*
X934179Y15992D01*
X934162Y16090D01*
X934141Y16188D01*
X934116Y16284D01*
X934088Y16379D01*
X934056Y16473D01*
X934021Y16566D01*
X933982Y16658D01*
X933939Y16748D01*
X933894Y16836D01*
X933844Y16923D01*
X933792Y17007D01*
X933736Y17090D01*
X933678Y17170D01*
X933616Y17248D01*
X933551Y17323D01*
X933483Y17396D01*
X933413Y17466D01*
X933340Y17534D01*
X933265Y17599D01*
X933187Y17661D01*
X933107Y17719D01*
X933024Y17775D01*
X932940Y17827D01*
X932853Y17877D01*
X932765Y17922D01*
X932675Y17965D01*
X932583Y18004D01*
X932490Y18039D01*
X932396Y18071D01*
X932301Y18099D01*
X932205Y18124D01*
X932107Y18145D01*
X932009Y18162D01*
X931911Y18175D01*
X931812Y18184D01*
X931712Y18190D01*
X931613Y18192D01*
X927719Y18192D01*
X922018Y18192D02*
X922018Y6508D01*
X915527Y6508D02*
X922018Y18192D01*
X915527Y18192D02*
X915527Y6508D01*
X909803Y6508D02*
X904610Y6508D01*
X909803Y6508D02*
X909803Y18192D01*
X904610Y18192D01*
X905909Y12999D02*
X909803Y12999D01*
X899920Y18192D02*
X899920Y6508D01*
X899920Y18192D02*
X896674Y18192D01*
X896561Y18190D01*
X896448Y18184D01*
X896335Y18174D01*
X896222Y18160D01*
X896110Y18143D01*
X895999Y18121D01*
X895889Y18096D01*
X895779Y18066D01*
X895671Y18033D01*
X895564Y17996D01*
X895458Y17956D01*
X895354Y17911D01*
X895251Y17863D01*
X895150Y17812D01*
X895051Y17757D01*
X894954Y17699D01*
X894859Y17637D01*
X894766Y17572D01*
X894676Y17504D01*
X894588Y17433D01*
X894502Y17358D01*
X894419Y17281D01*
X894339Y17201D01*
X894262Y17118D01*
X894187Y17032D01*
X894116Y16944D01*
X894048Y16854D01*
X893983Y16761D01*
X893921Y16666D01*
X893863Y16569D01*
X893808Y16470D01*
X893757Y16369D01*
X893709Y16266D01*
X893664Y16162D01*
X893624Y16056D01*
X893587Y15949D01*
X893554Y15841D01*
X893524Y15731D01*
X893499Y15621D01*
X893477Y15510D01*
X893460Y15398D01*
X893446Y15285D01*
X893436Y15172D01*
X893430Y15059D01*
X893428Y14946D01*
X893429Y14946D02*
X893429Y9754D01*
X893428Y9754D02*
X893430Y9641D01*
X893436Y9528D01*
X893446Y9415D01*
X893460Y9302D01*
X893477Y9190D01*
X893499Y9079D01*
X893524Y8969D01*
X893554Y8859D01*
X893587Y8751D01*
X893624Y8644D01*
X893664Y8538D01*
X893709Y8434D01*
X893757Y8331D01*
X893808Y8230D01*
X893863Y8131D01*
X893921Y8034D01*
X893983Y7939D01*
X894048Y7846D01*
X894116Y7756D01*
X894187Y7668D01*
X894262Y7582D01*
X894339Y7499D01*
X894419Y7419D01*
X894502Y7342D01*
X894588Y7267D01*
X894676Y7196D01*
X894766Y7128D01*
X894859Y7063D01*
X894954Y7001D01*
X895051Y6943D01*
X895150Y6888D01*
X895251Y6837D01*
X895354Y6789D01*
X895458Y6744D01*
X895564Y6704D01*
X895671Y6667D01*
X895779Y6634D01*
X895889Y6604D01*
X895999Y6579D01*
X896110Y6557D01*
X896222Y6540D01*
X896335Y6526D01*
X896448Y6516D01*
X896561Y6510D01*
X896674Y6508D01*
X899920Y6508D01*
X881463Y12999D02*
X878217Y12999D01*
X878217Y13000D02*
X878104Y12998D01*
X877991Y12992D01*
X877878Y12982D01*
X877765Y12968D01*
X877653Y12951D01*
X877542Y12929D01*
X877432Y12904D01*
X877322Y12874D01*
X877214Y12841D01*
X877107Y12804D01*
X877001Y12764D01*
X876897Y12719D01*
X876794Y12671D01*
X876693Y12620D01*
X876594Y12565D01*
X876497Y12507D01*
X876402Y12445D01*
X876309Y12380D01*
X876219Y12312D01*
X876131Y12241D01*
X876045Y12166D01*
X875962Y12089D01*
X875882Y12009D01*
X875805Y11926D01*
X875730Y11840D01*
X875659Y11752D01*
X875591Y11662D01*
X875526Y11569D01*
X875464Y11474D01*
X875406Y11377D01*
X875351Y11278D01*
X875300Y11177D01*
X875252Y11074D01*
X875207Y10970D01*
X875167Y10864D01*
X875130Y10757D01*
X875097Y10649D01*
X875067Y10539D01*
X875042Y10429D01*
X875020Y10318D01*
X875003Y10206D01*
X874989Y10093D01*
X874979Y9980D01*
X874973Y9867D01*
X874971Y9754D01*
X874973Y9641D01*
X874979Y9528D01*
X874989Y9415D01*
X875003Y9302D01*
X875020Y9190D01*
X875042Y9079D01*
X875067Y8969D01*
X875097Y8859D01*
X875130Y8751D01*
X875167Y8644D01*
X875207Y8538D01*
X875252Y8434D01*
X875300Y8331D01*
X875351Y8230D01*
X875406Y8131D01*
X875464Y8034D01*
X875526Y7939D01*
X875591Y7846D01*
X875659Y7756D01*
X875730Y7668D01*
X875805Y7582D01*
X875882Y7499D01*
X875962Y7419D01*
X876045Y7342D01*
X876131Y7267D01*
X876219Y7196D01*
X876309Y7128D01*
X876402Y7063D01*
X876497Y7001D01*
X876594Y6943D01*
X876693Y6888D01*
X876794Y6837D01*
X876897Y6789D01*
X877001Y6744D01*
X877107Y6704D01*
X877214Y6667D01*
X877322Y6634D01*
X877432Y6604D01*
X877542Y6579D01*
X877653Y6557D01*
X877765Y6540D01*
X877878Y6526D01*
X877991Y6516D01*
X878104Y6510D01*
X878217Y6508D01*
X881463Y6508D01*
X881463Y18192D01*
X878217Y18192D01*
X878116Y18190D01*
X878016Y18184D01*
X877916Y18174D01*
X877816Y18161D01*
X877717Y18143D01*
X877618Y18122D01*
X877521Y18097D01*
X877424Y18068D01*
X877329Y18035D01*
X877235Y17999D01*
X877143Y17959D01*
X877052Y17916D01*
X876963Y17869D01*
X876876Y17819D01*
X876790Y17765D01*
X876707Y17708D01*
X876627Y17648D01*
X876548Y17585D01*
X876472Y17518D01*
X876399Y17449D01*
X876329Y17377D01*
X876261Y17303D01*
X876196Y17226D01*
X876135Y17146D01*
X876076Y17064D01*
X876021Y16980D01*
X875969Y16894D01*
X875920Y16806D01*
X875875Y16716D01*
X875833Y16624D01*
X875795Y16531D01*
X875761Y16436D01*
X875730Y16341D01*
X875703Y16244D01*
X875680Y16146D01*
X875660Y16047D01*
X875645Y15947D01*
X875633Y15847D01*
X875625Y15747D01*
X875621Y15646D01*
X875621Y15546D01*
X875625Y15445D01*
X875633Y15345D01*
X875645Y15245D01*
X875660Y15145D01*
X875680Y15046D01*
X875703Y14948D01*
X875730Y14851D01*
X875761Y14756D01*
X875795Y14661D01*
X875833Y14568D01*
X875875Y14476D01*
X875920Y14386D01*
X875969Y14298D01*
X876021Y14212D01*
X876076Y14128D01*
X876135Y14046D01*
X876196Y13966D01*
X876261Y13889D01*
X876329Y13815D01*
X876399Y13743D01*
X876472Y13674D01*
X876548Y13607D01*
X876627Y13544D01*
X876707Y13484D01*
X876790Y13427D01*
X876876Y13373D01*
X876963Y13323D01*
X877052Y13276D01*
X877143Y13233D01*
X877235Y13193D01*
X877329Y13157D01*
X877424Y13124D01*
X877521Y13095D01*
X877618Y13070D01*
X877717Y13049D01*
X877816Y13031D01*
X877916Y13018D01*
X878016Y13008D01*
X878116Y13002D01*
X878217Y13000D01*
X871232Y18192D02*
X867337Y12675D01*
X863443Y18192D01*
X867337Y12675D02*
X867337Y6508D01*
X859280Y7482D02*
X859280Y8131D01*
X858631Y8131D01*
X858631Y7482D01*
X859280Y7482D01*
X859280Y12675D02*
X859280Y13324D01*
X858631Y13324D01*
X858631Y12675D01*
X859280Y12675D01*
X845239Y18192D02*
X845239Y6508D01*
X848485Y18192D02*
X841994Y18192D01*
X831707Y9104D02*
X831709Y9005D01*
X831715Y8905D01*
X831724Y8806D01*
X831737Y8708D01*
X831754Y8610D01*
X831775Y8512D01*
X831800Y8416D01*
X831828Y8321D01*
X831860Y8227D01*
X831895Y8134D01*
X831934Y8042D01*
X831977Y7952D01*
X832022Y7864D01*
X832072Y7777D01*
X832124Y7693D01*
X832180Y7610D01*
X832238Y7530D01*
X832300Y7452D01*
X832365Y7377D01*
X832433Y7304D01*
X832503Y7234D01*
X832576Y7166D01*
X832651Y7101D01*
X832729Y7039D01*
X832809Y6981D01*
X832892Y6925D01*
X832976Y6873D01*
X833063Y6823D01*
X833151Y6778D01*
X833241Y6735D01*
X833333Y6696D01*
X833426Y6661D01*
X833520Y6629D01*
X833615Y6601D01*
X833711Y6576D01*
X833809Y6555D01*
X833907Y6538D01*
X834005Y6525D01*
X834104Y6516D01*
X834204Y6510D01*
X834303Y6508D01*
X834447Y6510D01*
X834592Y6516D01*
X834736Y6525D01*
X834879Y6538D01*
X835023Y6555D01*
X835166Y6576D01*
X835308Y6601D01*
X835449Y6629D01*
X835590Y6661D01*
X835730Y6697D01*
X835869Y6736D01*
X836007Y6779D01*
X836143Y6826D01*
X836279Y6876D01*
X836413Y6930D01*
X836545Y6987D01*
X836676Y7048D01*
X836805Y7112D01*
X836933Y7180D01*
X837059Y7251D01*
X837183Y7325D01*
X837304Y7402D01*
X837424Y7483D01*
X837542Y7566D01*
X837657Y7653D01*
X837770Y7743D01*
X837881Y7836D01*
X837989Y7931D01*
X838095Y8030D01*
X838198Y8131D01*
X837873Y15596D02*
X837871Y15695D01*
X837865Y15795D01*
X837856Y15894D01*
X837843Y15992D01*
X837826Y16090D01*
X837805Y16188D01*
X837780Y16284D01*
X837752Y16379D01*
X837720Y16473D01*
X837685Y16566D01*
X837646Y16658D01*
X837603Y16748D01*
X837558Y16836D01*
X837508Y16923D01*
X837456Y17007D01*
X837400Y17090D01*
X837342Y17170D01*
X837280Y17248D01*
X837215Y17323D01*
X837147Y17396D01*
X837077Y17466D01*
X837004Y17534D01*
X836929Y17599D01*
X836851Y17661D01*
X836771Y17719D01*
X836688Y17775D01*
X836604Y17827D01*
X836517Y17877D01*
X836429Y17922D01*
X836339Y17965D01*
X836247Y18004D01*
X836154Y18039D01*
X836060Y18071D01*
X835965Y18099D01*
X835869Y18124D01*
X835771Y18145D01*
X835673Y18162D01*
X835575Y18175D01*
X835476Y18184D01*
X835376Y18190D01*
X835277Y18192D01*
X835141Y18190D01*
X835005Y18184D01*
X834869Y18175D01*
X834733Y18162D01*
X834598Y18144D01*
X834464Y18124D01*
X834330Y18099D01*
X834196Y18071D01*
X834064Y18038D01*
X833933Y18003D01*
X833802Y17963D01*
X833673Y17920D01*
X833545Y17874D01*
X833419Y17823D01*
X833293Y17770D01*
X833170Y17712D01*
X833048Y17652D01*
X832928Y17588D01*
X832809Y17520D01*
X832693Y17450D01*
X832579Y17376D01*
X832466Y17299D01*
X832356Y17218D01*
X836575Y13324D02*
X836661Y13377D01*
X836745Y13434D01*
X836827Y13493D01*
X836907Y13556D01*
X836984Y13622D01*
X837059Y13690D01*
X837131Y13762D01*
X837200Y13836D01*
X837266Y13913D01*
X837329Y13992D01*
X837389Y14074D01*
X837446Y14158D01*
X837500Y14244D01*
X837550Y14332D01*
X837597Y14422D01*
X837641Y14513D01*
X837680Y14607D01*
X837717Y14701D01*
X837749Y14797D01*
X837778Y14895D01*
X837803Y14993D01*
X837824Y15092D01*
X837842Y15192D01*
X837855Y15292D01*
X837865Y15393D01*
X837871Y15495D01*
X837873Y15596D01*
X833005Y11376D02*
X832919Y11323D01*
X832835Y11266D01*
X832753Y11207D01*
X832673Y11144D01*
X832596Y11078D01*
X832521Y11010D01*
X832449Y10938D01*
X832380Y10864D01*
X832314Y10787D01*
X832251Y10708D01*
X832191Y10626D01*
X832134Y10542D01*
X832080Y10456D01*
X832030Y10368D01*
X831983Y10278D01*
X831939Y10187D01*
X831900Y10093D01*
X831863Y9999D01*
X831831Y9903D01*
X831802Y9805D01*
X831777Y9707D01*
X831756Y9608D01*
X831738Y9508D01*
X831725Y9408D01*
X831715Y9307D01*
X831709Y9205D01*
X831707Y9104D01*
X833005Y11376D02*
X836575Y13324D01*
X826768Y9754D02*
X826768Y18192D01*
X826768Y9754D02*
X826766Y9641D01*
X826760Y9528D01*
X826750Y9415D01*
X826736Y9302D01*
X826719Y9190D01*
X826697Y9079D01*
X826672Y8969D01*
X826642Y8859D01*
X826609Y8751D01*
X826572Y8644D01*
X826532Y8538D01*
X826487Y8434D01*
X826439Y8331D01*
X826388Y8230D01*
X826333Y8131D01*
X826275Y8034D01*
X826213Y7939D01*
X826148Y7846D01*
X826080Y7756D01*
X826009Y7668D01*
X825934Y7582D01*
X825857Y7499D01*
X825777Y7419D01*
X825694Y7342D01*
X825608Y7267D01*
X825520Y7196D01*
X825430Y7128D01*
X825337Y7063D01*
X825242Y7001D01*
X825145Y6943D01*
X825046Y6888D01*
X824945Y6837D01*
X824842Y6789D01*
X824738Y6744D01*
X824632Y6704D01*
X824525Y6667D01*
X824417Y6634D01*
X824307Y6604D01*
X824197Y6579D01*
X824086Y6557D01*
X823974Y6540D01*
X823861Y6526D01*
X823748Y6516D01*
X823635Y6510D01*
X823522Y6508D01*
X823409Y6510D01*
X823296Y6516D01*
X823183Y6526D01*
X823070Y6540D01*
X822958Y6557D01*
X822847Y6579D01*
X822737Y6604D01*
X822627Y6634D01*
X822519Y6667D01*
X822412Y6704D01*
X822306Y6744D01*
X822202Y6789D01*
X822099Y6837D01*
X821998Y6888D01*
X821899Y6943D01*
X821802Y7001D01*
X821707Y7063D01*
X821614Y7128D01*
X821524Y7196D01*
X821436Y7267D01*
X821350Y7342D01*
X821267Y7419D01*
X821187Y7499D01*
X821110Y7582D01*
X821035Y7668D01*
X820964Y7756D01*
X820896Y7846D01*
X820831Y7939D01*
X820769Y8034D01*
X820711Y8131D01*
X820656Y8230D01*
X820605Y8331D01*
X820557Y8434D01*
X820512Y8538D01*
X820472Y8644D01*
X820435Y8751D01*
X820402Y8859D01*
X820372Y8969D01*
X820347Y9079D01*
X820325Y9190D01*
X820308Y9302D01*
X820294Y9415D01*
X820284Y9528D01*
X820278Y9641D01*
X820276Y9754D01*
X820277Y9754D02*
X820277Y18192D01*
X810032Y12999D02*
X808085Y12999D01*
X808085Y6508D01*
X811980Y6508D01*
X812079Y6510D01*
X812179Y6516D01*
X812278Y6525D01*
X812376Y6538D01*
X812474Y6555D01*
X812572Y6576D01*
X812668Y6601D01*
X812763Y6629D01*
X812857Y6661D01*
X812950Y6696D01*
X813042Y6735D01*
X813132Y6778D01*
X813220Y6823D01*
X813307Y6873D01*
X813391Y6925D01*
X813474Y6981D01*
X813554Y7039D01*
X813632Y7101D01*
X813707Y7166D01*
X813780Y7234D01*
X813850Y7304D01*
X813918Y7377D01*
X813983Y7452D01*
X814045Y7530D01*
X814103Y7610D01*
X814159Y7693D01*
X814211Y7777D01*
X814261Y7864D01*
X814306Y7952D01*
X814349Y8042D01*
X814388Y8134D01*
X814423Y8227D01*
X814455Y8321D01*
X814483Y8416D01*
X814508Y8512D01*
X814529Y8610D01*
X814546Y8708D01*
X814559Y8806D01*
X814568Y8905D01*
X814574Y9005D01*
X814576Y9104D01*
X814576Y15596D01*
X814574Y15695D01*
X814568Y15795D01*
X814559Y15894D01*
X814546Y15992D01*
X814529Y16090D01*
X814508Y16188D01*
X814483Y16284D01*
X814455Y16379D01*
X814423Y16473D01*
X814388Y16566D01*
X814349Y16658D01*
X814306Y16748D01*
X814261Y16836D01*
X814211Y16923D01*
X814159Y17007D01*
X814103Y17090D01*
X814045Y17170D01*
X813983Y17248D01*
X813918Y17323D01*
X813850Y17396D01*
X813780Y17466D01*
X813707Y17534D01*
X813632Y17599D01*
X813554Y17661D01*
X813474Y17719D01*
X813391Y17775D01*
X813307Y17827D01*
X813220Y17877D01*
X813132Y17922D01*
X813042Y17965D01*
X812950Y18004D01*
X812857Y18039D01*
X812763Y18071D01*
X812668Y18099D01*
X812572Y18124D01*
X812474Y18145D01*
X812376Y18162D01*
X812278Y18175D01*
X812179Y18184D01*
X812079Y18190D01*
X811980Y18192D01*
X808085Y18192D01*
X802384Y18192D02*
X802384Y9754D01*
X802385Y9754D02*
X802383Y9641D01*
X802377Y9528D01*
X802367Y9415D01*
X802353Y9302D01*
X802336Y9190D01*
X802314Y9079D01*
X802289Y8969D01*
X802259Y8859D01*
X802226Y8751D01*
X802189Y8644D01*
X802149Y8538D01*
X802104Y8434D01*
X802056Y8331D01*
X802005Y8230D01*
X801950Y8131D01*
X801892Y8034D01*
X801830Y7939D01*
X801765Y7846D01*
X801697Y7756D01*
X801626Y7668D01*
X801551Y7582D01*
X801474Y7499D01*
X801394Y7419D01*
X801311Y7342D01*
X801225Y7267D01*
X801137Y7196D01*
X801047Y7128D01*
X800954Y7063D01*
X800859Y7001D01*
X800762Y6943D01*
X800663Y6888D01*
X800562Y6837D01*
X800459Y6789D01*
X800355Y6744D01*
X800249Y6704D01*
X800142Y6667D01*
X800034Y6634D01*
X799924Y6604D01*
X799814Y6579D01*
X799703Y6557D01*
X799591Y6540D01*
X799478Y6526D01*
X799365Y6516D01*
X799252Y6510D01*
X799139Y6508D01*
X799026Y6510D01*
X798913Y6516D01*
X798800Y6526D01*
X798687Y6540D01*
X798575Y6557D01*
X798464Y6579D01*
X798354Y6604D01*
X798244Y6634D01*
X798136Y6667D01*
X798029Y6704D01*
X797923Y6744D01*
X797819Y6789D01*
X797716Y6837D01*
X797615Y6888D01*
X797516Y6943D01*
X797419Y7001D01*
X797324Y7063D01*
X797231Y7128D01*
X797141Y7196D01*
X797053Y7267D01*
X796967Y7342D01*
X796884Y7419D01*
X796804Y7499D01*
X796727Y7582D01*
X796652Y7668D01*
X796581Y7756D01*
X796513Y7846D01*
X796448Y7939D01*
X796386Y8034D01*
X796328Y8131D01*
X796273Y8230D01*
X796222Y8331D01*
X796174Y8434D01*
X796129Y8538D01*
X796089Y8644D01*
X796052Y8751D01*
X796019Y8859D01*
X795989Y8969D01*
X795964Y9079D01*
X795942Y9190D01*
X795925Y9302D01*
X795911Y9415D01*
X795901Y9528D01*
X795895Y9641D01*
X795893Y9754D01*
X795893Y18192D01*
X790079Y18192D02*
X790079Y6508D01*
X786185Y11701D02*
X790079Y18192D01*
X786185Y11701D02*
X782290Y18192D01*
X782290Y6508D01*
X775898Y6508D02*
X775898Y18192D01*
X777196Y6508D02*
X774599Y6508D01*
X774599Y18192D02*
X777196Y18192D01*
X763409Y18192D02*
X763409Y6508D01*
X759515Y11701D02*
X763409Y18192D01*
X759515Y11701D02*
X755620Y18192D01*
X755620Y6508D01*
X749806Y9754D02*
X749806Y18192D01*
X749807Y9754D02*
X749805Y9641D01*
X749799Y9528D01*
X749789Y9415D01*
X749775Y9302D01*
X749758Y9190D01*
X749736Y9079D01*
X749711Y8969D01*
X749681Y8859D01*
X749648Y8751D01*
X749611Y8644D01*
X749571Y8538D01*
X749526Y8434D01*
X749478Y8331D01*
X749427Y8230D01*
X749372Y8131D01*
X749314Y8034D01*
X749252Y7939D01*
X749187Y7846D01*
X749119Y7756D01*
X749048Y7668D01*
X748973Y7582D01*
X748896Y7499D01*
X748816Y7419D01*
X748733Y7342D01*
X748647Y7267D01*
X748559Y7196D01*
X748469Y7128D01*
X748376Y7063D01*
X748281Y7001D01*
X748184Y6943D01*
X748085Y6888D01*
X747984Y6837D01*
X747881Y6789D01*
X747777Y6744D01*
X747671Y6704D01*
X747564Y6667D01*
X747456Y6634D01*
X747346Y6604D01*
X747236Y6579D01*
X747125Y6557D01*
X747013Y6540D01*
X746900Y6526D01*
X746787Y6516D01*
X746674Y6510D01*
X746561Y6508D01*
X746448Y6510D01*
X746335Y6516D01*
X746222Y6526D01*
X746109Y6540D01*
X745997Y6557D01*
X745886Y6579D01*
X745776Y6604D01*
X745666Y6634D01*
X745558Y6667D01*
X745451Y6704D01*
X745345Y6744D01*
X745241Y6789D01*
X745138Y6837D01*
X745037Y6888D01*
X744938Y6943D01*
X744841Y7001D01*
X744746Y7063D01*
X744653Y7128D01*
X744563Y7196D01*
X744475Y7267D01*
X744389Y7342D01*
X744306Y7419D01*
X744226Y7499D01*
X744149Y7582D01*
X744074Y7668D01*
X744003Y7756D01*
X743935Y7846D01*
X743870Y7939D01*
X743808Y8034D01*
X743750Y8131D01*
X743695Y8230D01*
X743644Y8331D01*
X743596Y8434D01*
X743551Y8538D01*
X743511Y8644D01*
X743474Y8751D01*
X743441Y8859D01*
X743411Y8969D01*
X743386Y9079D01*
X743364Y9190D01*
X743347Y9302D01*
X743333Y9415D01*
X743323Y9528D01*
X743317Y9641D01*
X743315Y9754D01*
X743315Y18192D01*
X737541Y18192D02*
X737541Y6508D01*
X737541Y18192D02*
X734295Y18192D01*
X734182Y18190D01*
X734069Y18184D01*
X733956Y18174D01*
X733843Y18160D01*
X733731Y18143D01*
X733620Y18121D01*
X733510Y18096D01*
X733400Y18066D01*
X733292Y18033D01*
X733185Y17996D01*
X733079Y17956D01*
X732975Y17911D01*
X732872Y17863D01*
X732771Y17812D01*
X732672Y17757D01*
X732575Y17699D01*
X732480Y17637D01*
X732387Y17572D01*
X732297Y17504D01*
X732209Y17433D01*
X732123Y17358D01*
X732040Y17281D01*
X731960Y17201D01*
X731883Y17118D01*
X731808Y17032D01*
X731737Y16944D01*
X731669Y16854D01*
X731604Y16761D01*
X731542Y16666D01*
X731484Y16569D01*
X731429Y16470D01*
X731378Y16369D01*
X731330Y16266D01*
X731285Y16162D01*
X731245Y16056D01*
X731208Y15949D01*
X731175Y15841D01*
X731145Y15731D01*
X731120Y15621D01*
X731098Y15510D01*
X731081Y15398D01*
X731067Y15285D01*
X731057Y15172D01*
X731051Y15059D01*
X731049Y14946D01*
X731051Y14833D01*
X731057Y14720D01*
X731067Y14607D01*
X731081Y14494D01*
X731098Y14382D01*
X731120Y14271D01*
X731145Y14161D01*
X731175Y14051D01*
X731208Y13943D01*
X731245Y13836D01*
X731285Y13730D01*
X731330Y13626D01*
X731378Y13523D01*
X731429Y13422D01*
X731484Y13323D01*
X731542Y13226D01*
X731604Y13131D01*
X731669Y13038D01*
X731737Y12948D01*
X731808Y12860D01*
X731883Y12774D01*
X731960Y12691D01*
X732040Y12611D01*
X732123Y12534D01*
X732209Y12459D01*
X732297Y12388D01*
X732387Y12320D01*
X732480Y12255D01*
X732575Y12193D01*
X732672Y12135D01*
X732771Y12080D01*
X732872Y12029D01*
X732975Y11981D01*
X733079Y11936D01*
X733185Y11896D01*
X733292Y11859D01*
X733400Y11826D01*
X733510Y11796D01*
X733620Y11771D01*
X733731Y11749D01*
X733843Y11732D01*
X733956Y11718D01*
X734069Y11708D01*
X734182Y11702D01*
X734295Y11700D01*
X734295Y11701D02*
X737541Y11701D01*
X733646Y11701D02*
X731049Y6508D01*
X726833Y6508D02*
X722939Y18192D01*
X719044Y6508D01*
X720018Y9429D02*
X725860Y9429D01*
X712271Y6508D02*
X712271Y18192D01*
X715516Y18192D02*
X709025Y18192D01*
X701603Y18192D02*
X705497Y6508D01*
X697708Y6508D02*
X701603Y18192D01*
X698682Y9429D02*
X704524Y9429D01*
D11*
X607238Y113762D02*
X607238Y130018D01*
X607238Y122793D02*
X598207Y122793D01*
X598207Y130018D02*
X598207Y113762D01*
X590565Y118278D02*
X590565Y130018D01*
X590565Y118278D02*
X590563Y118145D01*
X590557Y118013D01*
X590547Y117881D01*
X590534Y117749D01*
X590516Y117617D01*
X590495Y117487D01*
X590470Y117356D01*
X590441Y117227D01*
X590408Y117099D01*
X590372Y116971D01*
X590332Y116845D01*
X590288Y116720D01*
X590240Y116596D01*
X590189Y116474D01*
X590134Y116353D01*
X590076Y116234D01*
X590014Y116116D01*
X589949Y116001D01*
X589880Y115887D01*
X589809Y115776D01*
X589733Y115667D01*
X589655Y115560D01*
X589574Y115455D01*
X589489Y115353D01*
X589402Y115253D01*
X589312Y115156D01*
X589219Y115061D01*
X589123Y114970D01*
X589025Y114881D01*
X588924Y114795D01*
X588820Y114712D01*
X588714Y114632D01*
X588606Y114556D01*
X588496Y114482D01*
X588383Y114412D01*
X588269Y114345D01*
X588152Y114282D01*
X588034Y114222D01*
X587914Y114165D01*
X587792Y114112D01*
X587669Y114063D01*
X587545Y114017D01*
X587419Y113975D01*
X587292Y113937D01*
X587164Y113902D01*
X587035Y113871D01*
X586906Y113844D01*
X586775Y113821D01*
X586644Y113801D01*
X586512Y113786D01*
X586380Y113774D01*
X586248Y113766D01*
X586115Y113762D01*
X585983Y113762D01*
X585850Y113766D01*
X585718Y113774D01*
X585586Y113786D01*
X585454Y113801D01*
X585323Y113821D01*
X585192Y113844D01*
X585063Y113871D01*
X584934Y113902D01*
X584806Y113937D01*
X584679Y113975D01*
X584553Y114017D01*
X584429Y114063D01*
X584306Y114112D01*
X584184Y114165D01*
X584064Y114222D01*
X583946Y114282D01*
X583829Y114345D01*
X583715Y114412D01*
X583602Y114482D01*
X583492Y114556D01*
X583384Y114632D01*
X583278Y114712D01*
X583174Y114795D01*
X583073Y114881D01*
X582975Y114970D01*
X582879Y115061D01*
X582786Y115156D01*
X582696Y115253D01*
X582609Y115353D01*
X582524Y115455D01*
X582443Y115560D01*
X582365Y115667D01*
X582289Y115776D01*
X582218Y115887D01*
X582149Y116001D01*
X582084Y116116D01*
X582022Y116234D01*
X581964Y116353D01*
X581909Y116474D01*
X581858Y116596D01*
X581810Y116720D01*
X581766Y116845D01*
X581726Y116971D01*
X581690Y117099D01*
X581657Y117227D01*
X581628Y117356D01*
X581603Y117487D01*
X581582Y117617D01*
X581564Y117749D01*
X581551Y117881D01*
X581541Y118013D01*
X581535Y118145D01*
X581533Y118278D01*
X581534Y118278D02*
X581534Y130018D01*
X573752Y130018D02*
X573752Y113762D01*
X568334Y120987D02*
X573752Y130018D01*
X568334Y120987D02*
X562915Y130018D01*
X562915Y113762D01*
X554995Y113762D02*
X554995Y130018D01*
X549576Y120987D01*
X544158Y130018D01*
X544158Y113762D01*
X535508Y113762D02*
X535508Y130018D01*
X537314Y113762D02*
X533702Y113762D01*
X533702Y130018D02*
X537314Y130018D01*
X526998Y130018D02*
X526998Y113762D01*
X517967Y113762D02*
X526998Y130018D01*
X517967Y130018D02*
X517967Y113762D01*
X504003Y122793D02*
X501293Y122793D01*
X501293Y113762D01*
X506712Y113762D01*
X506830Y113764D01*
X506948Y113770D01*
X507066Y113779D01*
X507183Y113793D01*
X507300Y113810D01*
X507417Y113831D01*
X507532Y113856D01*
X507647Y113885D01*
X507761Y113918D01*
X507873Y113954D01*
X507984Y113994D01*
X508094Y114037D01*
X508203Y114084D01*
X508310Y114134D01*
X508415Y114189D01*
X508518Y114246D01*
X508619Y114307D01*
X508719Y114371D01*
X508816Y114438D01*
X508911Y114508D01*
X509003Y114582D01*
X509094Y114658D01*
X509181Y114738D01*
X509266Y114820D01*
X509348Y114905D01*
X509428Y114992D01*
X509504Y115083D01*
X509578Y115175D01*
X509648Y115270D01*
X509715Y115367D01*
X509779Y115467D01*
X509840Y115568D01*
X509897Y115671D01*
X509952Y115776D01*
X510002Y115883D01*
X510049Y115992D01*
X510092Y116102D01*
X510132Y116213D01*
X510168Y116325D01*
X510201Y116439D01*
X510230Y116554D01*
X510255Y116669D01*
X510276Y116786D01*
X510293Y116903D01*
X510307Y117020D01*
X510316Y117138D01*
X510322Y117256D01*
X510324Y117374D01*
X510324Y126406D01*
X510322Y126524D01*
X510316Y126642D01*
X510307Y126760D01*
X510293Y126877D01*
X510276Y126994D01*
X510255Y127111D01*
X510230Y127226D01*
X510201Y127341D01*
X510168Y127455D01*
X510132Y127567D01*
X510092Y127678D01*
X510049Y127788D01*
X510002Y127897D01*
X509952Y128004D01*
X509897Y128109D01*
X509840Y128212D01*
X509779Y128313D01*
X509715Y128413D01*
X509648Y128510D01*
X509578Y128605D01*
X509504Y128697D01*
X509428Y128788D01*
X509348Y128875D01*
X509266Y128960D01*
X509181Y129042D01*
X509094Y129122D01*
X509003Y129198D01*
X508911Y129272D01*
X508816Y129342D01*
X508719Y129409D01*
X508619Y129473D01*
X508518Y129534D01*
X508415Y129591D01*
X508310Y129646D01*
X508203Y129696D01*
X508094Y129743D01*
X507984Y129786D01*
X507873Y129826D01*
X507761Y129862D01*
X507647Y129895D01*
X507532Y129924D01*
X507417Y129949D01*
X507300Y129970D01*
X507183Y129987D01*
X507066Y130001D01*
X506948Y130010D01*
X506830Y130016D01*
X506712Y130018D01*
X501293Y130018D01*
X493440Y122793D02*
X488924Y122793D01*
X488924Y122794D02*
X488791Y122792D01*
X488659Y122786D01*
X488527Y122776D01*
X488395Y122763D01*
X488263Y122745D01*
X488133Y122724D01*
X488002Y122699D01*
X487873Y122670D01*
X487745Y122637D01*
X487617Y122601D01*
X487491Y122561D01*
X487366Y122517D01*
X487242Y122469D01*
X487120Y122418D01*
X486999Y122363D01*
X486880Y122305D01*
X486762Y122243D01*
X486647Y122178D01*
X486533Y122109D01*
X486422Y122038D01*
X486313Y121962D01*
X486206Y121884D01*
X486101Y121803D01*
X485999Y121718D01*
X485899Y121631D01*
X485802Y121541D01*
X485707Y121448D01*
X485616Y121352D01*
X485527Y121254D01*
X485441Y121153D01*
X485358Y121049D01*
X485278Y120943D01*
X485202Y120835D01*
X485128Y120725D01*
X485058Y120612D01*
X484991Y120498D01*
X484928Y120381D01*
X484868Y120263D01*
X484811Y120143D01*
X484758Y120021D01*
X484709Y119898D01*
X484663Y119774D01*
X484621Y119648D01*
X484583Y119521D01*
X484548Y119393D01*
X484517Y119264D01*
X484490Y119135D01*
X484467Y119004D01*
X484447Y118873D01*
X484432Y118741D01*
X484420Y118609D01*
X484412Y118477D01*
X484408Y118344D01*
X484408Y118212D01*
X484412Y118079D01*
X484420Y117947D01*
X484432Y117815D01*
X484447Y117683D01*
X484467Y117552D01*
X484490Y117421D01*
X484517Y117292D01*
X484548Y117163D01*
X484583Y117035D01*
X484621Y116908D01*
X484663Y116782D01*
X484709Y116658D01*
X484758Y116535D01*
X484811Y116413D01*
X484868Y116293D01*
X484928Y116175D01*
X484991Y116058D01*
X485058Y115944D01*
X485128Y115831D01*
X485202Y115721D01*
X485278Y115613D01*
X485358Y115507D01*
X485441Y115403D01*
X485527Y115302D01*
X485616Y115204D01*
X485707Y115108D01*
X485802Y115015D01*
X485899Y114925D01*
X485999Y114838D01*
X486101Y114753D01*
X486206Y114672D01*
X486313Y114594D01*
X486422Y114518D01*
X486533Y114447D01*
X486647Y114378D01*
X486762Y114313D01*
X486880Y114251D01*
X486999Y114193D01*
X487120Y114138D01*
X487242Y114087D01*
X487366Y114039D01*
X487491Y113995D01*
X487617Y113955D01*
X487745Y113919D01*
X487873Y113886D01*
X488002Y113857D01*
X488133Y113832D01*
X488263Y113811D01*
X488395Y113793D01*
X488527Y113780D01*
X488659Y113770D01*
X488791Y113764D01*
X488924Y113762D01*
X493440Y113762D01*
X493440Y130018D01*
X488924Y130018D01*
X488805Y130016D01*
X488685Y130010D01*
X488566Y130000D01*
X488448Y129986D01*
X488329Y129969D01*
X488212Y129947D01*
X488095Y129922D01*
X487980Y129892D01*
X487865Y129859D01*
X487751Y129822D01*
X487639Y129782D01*
X487528Y129737D01*
X487419Y129689D01*
X487311Y129638D01*
X487205Y129583D01*
X487101Y129524D01*
X486999Y129462D01*
X486899Y129397D01*
X486801Y129328D01*
X486705Y129256D01*
X486612Y129181D01*
X486522Y129104D01*
X486434Y129023D01*
X486349Y128939D01*
X486267Y128852D01*
X486187Y128763D01*
X486111Y128671D01*
X486037Y128577D01*
X485967Y128480D01*
X485900Y128382D01*
X485836Y128281D01*
X485776Y128177D01*
X485719Y128072D01*
X485666Y127965D01*
X485616Y127857D01*
X485570Y127747D01*
X485528Y127635D01*
X485489Y127522D01*
X485454Y127408D01*
X485423Y127293D01*
X485395Y127176D01*
X485372Y127059D01*
X485352Y126942D01*
X485336Y126823D01*
X485324Y126704D01*
X485316Y126585D01*
X485312Y126466D01*
X485312Y126346D01*
X485316Y126227D01*
X485324Y126108D01*
X485336Y125989D01*
X485352Y125870D01*
X485372Y125753D01*
X485395Y125636D01*
X485423Y125519D01*
X485454Y125404D01*
X485489Y125290D01*
X485528Y125177D01*
X485570Y125065D01*
X485616Y124955D01*
X485666Y124847D01*
X485719Y124740D01*
X485776Y124635D01*
X485836Y124531D01*
X485900Y124430D01*
X485967Y124332D01*
X486037Y124235D01*
X486111Y124141D01*
X486187Y124049D01*
X486267Y123960D01*
X486349Y123873D01*
X486434Y123789D01*
X486522Y123708D01*
X486612Y123631D01*
X486705Y123556D01*
X486801Y123484D01*
X486899Y123415D01*
X486999Y123350D01*
X487101Y123288D01*
X487205Y123229D01*
X487311Y123174D01*
X487419Y123123D01*
X487528Y123075D01*
X487639Y123030D01*
X487751Y122990D01*
X487865Y122953D01*
X487980Y122920D01*
X488095Y122890D01*
X488212Y122865D01*
X488329Y122843D01*
X488448Y122826D01*
X488566Y122812D01*
X488685Y122802D01*
X488805Y122796D01*
X488924Y122794D01*
X478541Y125502D02*
X478541Y118278D01*
X478541Y125502D02*
X478539Y125635D01*
X478533Y125767D01*
X478523Y125899D01*
X478510Y126031D01*
X478492Y126163D01*
X478471Y126293D01*
X478446Y126424D01*
X478417Y126553D01*
X478384Y126681D01*
X478348Y126809D01*
X478308Y126935D01*
X478264Y127060D01*
X478216Y127184D01*
X478165Y127306D01*
X478110Y127427D01*
X478052Y127546D01*
X477990Y127664D01*
X477925Y127779D01*
X477856Y127893D01*
X477785Y128004D01*
X477709Y128113D01*
X477631Y128220D01*
X477550Y128325D01*
X477465Y128427D01*
X477378Y128527D01*
X477288Y128624D01*
X477195Y128719D01*
X477099Y128810D01*
X477001Y128899D01*
X476900Y128985D01*
X476796Y129068D01*
X476690Y129148D01*
X476582Y129224D01*
X476472Y129298D01*
X476359Y129368D01*
X476245Y129435D01*
X476128Y129498D01*
X476010Y129558D01*
X475890Y129615D01*
X475768Y129668D01*
X475645Y129717D01*
X475521Y129763D01*
X475395Y129805D01*
X475268Y129843D01*
X475140Y129878D01*
X475011Y129909D01*
X474882Y129936D01*
X474751Y129959D01*
X474620Y129979D01*
X474488Y129994D01*
X474356Y130006D01*
X474224Y130014D01*
X474091Y130018D01*
X473959Y130018D01*
X473826Y130014D01*
X473694Y130006D01*
X473562Y129994D01*
X473430Y129979D01*
X473299Y129959D01*
X473168Y129936D01*
X473039Y129909D01*
X472910Y129878D01*
X472782Y129843D01*
X472655Y129805D01*
X472529Y129763D01*
X472405Y129717D01*
X472282Y129668D01*
X472160Y129615D01*
X472040Y129558D01*
X471922Y129498D01*
X471805Y129435D01*
X471691Y129368D01*
X471578Y129298D01*
X471468Y129224D01*
X471360Y129148D01*
X471254Y129068D01*
X471150Y128985D01*
X471049Y128899D01*
X470951Y128810D01*
X470855Y128719D01*
X470762Y128624D01*
X470672Y128527D01*
X470585Y128427D01*
X470500Y128325D01*
X470419Y128220D01*
X470341Y128113D01*
X470265Y128004D01*
X470194Y127893D01*
X470125Y127779D01*
X470060Y127664D01*
X469998Y127546D01*
X469940Y127427D01*
X469885Y127306D01*
X469834Y127184D01*
X469786Y127060D01*
X469742Y126935D01*
X469702Y126809D01*
X469666Y126681D01*
X469633Y126553D01*
X469604Y126424D01*
X469579Y126293D01*
X469558Y126163D01*
X469540Y126031D01*
X469527Y125899D01*
X469517Y125767D01*
X469511Y125635D01*
X469509Y125502D01*
X469510Y125502D02*
X469510Y118278D01*
X469509Y118278D02*
X469511Y118145D01*
X469517Y118013D01*
X469527Y117881D01*
X469540Y117749D01*
X469558Y117617D01*
X469579Y117487D01*
X469604Y117356D01*
X469633Y117227D01*
X469666Y117099D01*
X469702Y116971D01*
X469742Y116845D01*
X469786Y116720D01*
X469834Y116596D01*
X469885Y116474D01*
X469940Y116353D01*
X469998Y116234D01*
X470060Y116116D01*
X470125Y116001D01*
X470194Y115887D01*
X470265Y115776D01*
X470341Y115667D01*
X470419Y115560D01*
X470500Y115455D01*
X470585Y115353D01*
X470672Y115253D01*
X470762Y115156D01*
X470855Y115061D01*
X470951Y114970D01*
X471049Y114881D01*
X471150Y114795D01*
X471254Y114712D01*
X471360Y114632D01*
X471468Y114556D01*
X471578Y114482D01*
X471691Y114412D01*
X471805Y114345D01*
X471922Y114282D01*
X472040Y114222D01*
X472160Y114165D01*
X472282Y114112D01*
X472405Y114063D01*
X472529Y114017D01*
X472655Y113975D01*
X472782Y113937D01*
X472910Y113902D01*
X473039Y113871D01*
X473168Y113844D01*
X473299Y113821D01*
X473430Y113801D01*
X473562Y113786D01*
X473694Y113774D01*
X473826Y113766D01*
X473959Y113762D01*
X474091Y113762D01*
X474224Y113766D01*
X474356Y113774D01*
X474488Y113786D01*
X474620Y113801D01*
X474751Y113821D01*
X474882Y113844D01*
X475011Y113871D01*
X475140Y113902D01*
X475268Y113937D01*
X475395Y113975D01*
X475521Y114017D01*
X475645Y114063D01*
X475768Y114112D01*
X475890Y114165D01*
X476010Y114222D01*
X476128Y114282D01*
X476245Y114345D01*
X476359Y114412D01*
X476472Y114482D01*
X476582Y114556D01*
X476690Y114632D01*
X476796Y114712D01*
X476900Y114795D01*
X477001Y114881D01*
X477099Y114970D01*
X477195Y115061D01*
X477288Y115156D01*
X477378Y115253D01*
X477465Y115353D01*
X477550Y115455D01*
X477631Y115560D01*
X477709Y115667D01*
X477785Y115776D01*
X477856Y115887D01*
X477925Y116001D01*
X477990Y116116D01*
X478052Y116234D01*
X478110Y116353D01*
X478165Y116474D01*
X478216Y116596D01*
X478264Y116720D01*
X478308Y116845D01*
X478348Y116971D01*
X478384Y117099D01*
X478417Y117227D01*
X478446Y117356D01*
X478471Y117487D01*
X478492Y117617D01*
X478510Y117749D01*
X478523Y117881D01*
X478533Y118013D01*
X478539Y118145D01*
X478541Y118278D01*
X459436Y113762D02*
X459436Y130018D01*
X454921Y130018D02*
X463952Y130018D01*
X431238Y131018D02*
X431238Y119278D01*
X431236Y119145D01*
X431230Y119013D01*
X431220Y118881D01*
X431207Y118749D01*
X431189Y118617D01*
X431168Y118487D01*
X431143Y118356D01*
X431114Y118227D01*
X431081Y118099D01*
X431045Y117971D01*
X431005Y117845D01*
X430961Y117720D01*
X430913Y117596D01*
X430862Y117474D01*
X430807Y117353D01*
X430749Y117234D01*
X430687Y117116D01*
X430622Y117001D01*
X430553Y116887D01*
X430482Y116776D01*
X430406Y116667D01*
X430328Y116560D01*
X430247Y116455D01*
X430162Y116353D01*
X430075Y116253D01*
X429985Y116156D01*
X429892Y116061D01*
X429796Y115970D01*
X429698Y115881D01*
X429597Y115795D01*
X429493Y115712D01*
X429387Y115632D01*
X429279Y115556D01*
X429169Y115482D01*
X429056Y115412D01*
X428942Y115345D01*
X428825Y115282D01*
X428707Y115222D01*
X428587Y115165D01*
X428465Y115112D01*
X428342Y115063D01*
X428218Y115017D01*
X428092Y114975D01*
X427965Y114937D01*
X427837Y114902D01*
X427708Y114871D01*
X427579Y114844D01*
X427448Y114821D01*
X427317Y114801D01*
X427185Y114786D01*
X427053Y114774D01*
X426921Y114766D01*
X426788Y114762D01*
X426656Y114762D01*
X426523Y114766D01*
X426391Y114774D01*
X426259Y114786D01*
X426127Y114801D01*
X425996Y114821D01*
X425865Y114844D01*
X425736Y114871D01*
X425607Y114902D01*
X425479Y114937D01*
X425352Y114975D01*
X425226Y115017D01*
X425102Y115063D01*
X424979Y115112D01*
X424857Y115165D01*
X424737Y115222D01*
X424619Y115282D01*
X424502Y115345D01*
X424388Y115412D01*
X424275Y115482D01*
X424165Y115556D01*
X424057Y115632D01*
X423951Y115712D01*
X423847Y115795D01*
X423746Y115881D01*
X423648Y115970D01*
X423552Y116061D01*
X423459Y116156D01*
X423369Y116253D01*
X423282Y116353D01*
X423197Y116455D01*
X423116Y116560D01*
X423038Y116667D01*
X422962Y116776D01*
X422891Y116887D01*
X422822Y117001D01*
X422757Y117116D01*
X422695Y117234D01*
X422637Y117353D01*
X422582Y117474D01*
X422531Y117596D01*
X422483Y117720D01*
X422439Y117845D01*
X422399Y117971D01*
X422363Y118099D01*
X422330Y118227D01*
X422301Y118356D01*
X422276Y118487D01*
X422255Y118617D01*
X422237Y118749D01*
X422224Y118881D01*
X422214Y119013D01*
X422208Y119145D01*
X422206Y119278D01*
X422207Y119278D02*
X422207Y131018D01*
X415711Y131018D02*
X412098Y114762D01*
X408486Y125599D01*
X404874Y114762D01*
X401261Y131018D01*
X386337Y131018D02*
X386337Y114762D01*
X386337Y131018D02*
X381821Y131018D01*
X381688Y131016D01*
X381556Y131010D01*
X381424Y131000D01*
X381292Y130987D01*
X381160Y130969D01*
X381030Y130948D01*
X380899Y130923D01*
X380770Y130894D01*
X380642Y130861D01*
X380514Y130825D01*
X380388Y130785D01*
X380263Y130741D01*
X380139Y130693D01*
X380017Y130642D01*
X379896Y130587D01*
X379777Y130529D01*
X379659Y130467D01*
X379544Y130402D01*
X379430Y130333D01*
X379319Y130262D01*
X379210Y130186D01*
X379103Y130108D01*
X378998Y130027D01*
X378896Y129942D01*
X378796Y129855D01*
X378699Y129765D01*
X378604Y129672D01*
X378513Y129576D01*
X378424Y129478D01*
X378338Y129377D01*
X378255Y129273D01*
X378175Y129167D01*
X378099Y129059D01*
X378025Y128949D01*
X377955Y128836D01*
X377888Y128722D01*
X377825Y128605D01*
X377765Y128487D01*
X377708Y128367D01*
X377655Y128245D01*
X377606Y128122D01*
X377560Y127998D01*
X377518Y127872D01*
X377480Y127745D01*
X377445Y127617D01*
X377414Y127488D01*
X377387Y127359D01*
X377364Y127228D01*
X377344Y127097D01*
X377329Y126965D01*
X377317Y126833D01*
X377309Y126701D01*
X377305Y126568D01*
X377305Y126436D01*
X377309Y126303D01*
X377317Y126171D01*
X377329Y126039D01*
X377344Y125907D01*
X377364Y125776D01*
X377387Y125645D01*
X377414Y125516D01*
X377445Y125387D01*
X377480Y125259D01*
X377518Y125132D01*
X377560Y125006D01*
X377606Y124882D01*
X377655Y124759D01*
X377708Y124637D01*
X377765Y124517D01*
X377825Y124399D01*
X377888Y124282D01*
X377955Y124168D01*
X378025Y124055D01*
X378099Y123945D01*
X378175Y123837D01*
X378255Y123731D01*
X378338Y123627D01*
X378424Y123526D01*
X378513Y123428D01*
X378604Y123332D01*
X378699Y123239D01*
X378796Y123149D01*
X378896Y123062D01*
X378998Y122977D01*
X379103Y122896D01*
X379210Y122818D01*
X379319Y122742D01*
X379430Y122671D01*
X379544Y122602D01*
X379659Y122537D01*
X379777Y122475D01*
X379896Y122417D01*
X380017Y122362D01*
X380139Y122311D01*
X380263Y122263D01*
X380388Y122219D01*
X380514Y122179D01*
X380642Y122143D01*
X380770Y122110D01*
X380899Y122081D01*
X381030Y122056D01*
X381160Y122035D01*
X381292Y122017D01*
X381424Y122004D01*
X381556Y121994D01*
X381688Y121988D01*
X381821Y121986D01*
X381821Y121987D02*
X386337Y121987D01*
X380918Y121987D02*
X377306Y114762D01*
X370797Y119278D02*
X370797Y126502D01*
X370798Y126502D02*
X370796Y126635D01*
X370790Y126767D01*
X370780Y126899D01*
X370767Y127031D01*
X370749Y127163D01*
X370728Y127293D01*
X370703Y127424D01*
X370674Y127553D01*
X370641Y127681D01*
X370605Y127809D01*
X370565Y127935D01*
X370521Y128060D01*
X370473Y128184D01*
X370422Y128306D01*
X370367Y128427D01*
X370309Y128546D01*
X370247Y128664D01*
X370182Y128779D01*
X370113Y128893D01*
X370042Y129004D01*
X369966Y129113D01*
X369888Y129220D01*
X369807Y129325D01*
X369722Y129427D01*
X369635Y129527D01*
X369545Y129624D01*
X369452Y129719D01*
X369356Y129810D01*
X369258Y129899D01*
X369157Y129985D01*
X369053Y130068D01*
X368947Y130148D01*
X368839Y130224D01*
X368729Y130298D01*
X368616Y130368D01*
X368502Y130435D01*
X368385Y130498D01*
X368267Y130558D01*
X368147Y130615D01*
X368025Y130668D01*
X367902Y130717D01*
X367778Y130763D01*
X367652Y130805D01*
X367525Y130843D01*
X367397Y130878D01*
X367268Y130909D01*
X367139Y130936D01*
X367008Y130959D01*
X366877Y130979D01*
X366745Y130994D01*
X366613Y131006D01*
X366481Y131014D01*
X366348Y131018D01*
X366216Y131018D01*
X366083Y131014D01*
X365951Y131006D01*
X365819Y130994D01*
X365687Y130979D01*
X365556Y130959D01*
X365425Y130936D01*
X365296Y130909D01*
X365167Y130878D01*
X365039Y130843D01*
X364912Y130805D01*
X364786Y130763D01*
X364662Y130717D01*
X364539Y130668D01*
X364417Y130615D01*
X364297Y130558D01*
X364179Y130498D01*
X364062Y130435D01*
X363948Y130368D01*
X363835Y130298D01*
X363725Y130224D01*
X363617Y130148D01*
X363511Y130068D01*
X363407Y129985D01*
X363306Y129899D01*
X363208Y129810D01*
X363112Y129719D01*
X363019Y129624D01*
X362929Y129527D01*
X362842Y129427D01*
X362757Y129325D01*
X362676Y129220D01*
X362598Y129113D01*
X362522Y129004D01*
X362451Y128893D01*
X362382Y128779D01*
X362317Y128664D01*
X362255Y128546D01*
X362197Y128427D01*
X362142Y128306D01*
X362091Y128184D01*
X362043Y128060D01*
X361999Y127935D01*
X361959Y127809D01*
X361923Y127681D01*
X361890Y127553D01*
X361861Y127424D01*
X361836Y127293D01*
X361815Y127163D01*
X361797Y127031D01*
X361784Y126899D01*
X361774Y126767D01*
X361768Y126635D01*
X361766Y126502D01*
X361766Y119278D01*
X361768Y119145D01*
X361774Y119013D01*
X361784Y118881D01*
X361797Y118749D01*
X361815Y118617D01*
X361836Y118487D01*
X361861Y118356D01*
X361890Y118227D01*
X361923Y118099D01*
X361959Y117971D01*
X361999Y117845D01*
X362043Y117720D01*
X362091Y117596D01*
X362142Y117474D01*
X362197Y117353D01*
X362255Y117234D01*
X362317Y117116D01*
X362382Y117001D01*
X362451Y116887D01*
X362522Y116776D01*
X362598Y116667D01*
X362676Y116560D01*
X362757Y116455D01*
X362842Y116353D01*
X362929Y116253D01*
X363019Y116156D01*
X363112Y116061D01*
X363208Y115970D01*
X363306Y115881D01*
X363407Y115795D01*
X363511Y115712D01*
X363617Y115632D01*
X363725Y115556D01*
X363835Y115482D01*
X363948Y115412D01*
X364062Y115345D01*
X364179Y115282D01*
X364297Y115222D01*
X364417Y115165D01*
X364539Y115112D01*
X364662Y115063D01*
X364786Y115017D01*
X364912Y114975D01*
X365039Y114937D01*
X365167Y114902D01*
X365296Y114871D01*
X365425Y114844D01*
X365556Y114821D01*
X365687Y114801D01*
X365819Y114786D01*
X365951Y114774D01*
X366083Y114766D01*
X366216Y114762D01*
X366348Y114762D01*
X366481Y114766D01*
X366613Y114774D01*
X366745Y114786D01*
X366877Y114801D01*
X367008Y114821D01*
X367139Y114844D01*
X367268Y114871D01*
X367397Y114902D01*
X367525Y114937D01*
X367652Y114975D01*
X367778Y115017D01*
X367902Y115063D01*
X368025Y115112D01*
X368147Y115165D01*
X368267Y115222D01*
X368385Y115282D01*
X368502Y115345D01*
X368616Y115412D01*
X368729Y115482D01*
X368839Y115556D01*
X368947Y115632D01*
X369053Y115712D01*
X369157Y115795D01*
X369258Y115881D01*
X369356Y115970D01*
X369452Y116061D01*
X369545Y116156D01*
X369635Y116253D01*
X369722Y116353D01*
X369807Y116455D01*
X369888Y116560D01*
X369966Y116667D01*
X370042Y116776D01*
X370113Y116887D01*
X370182Y117001D01*
X370247Y117116D01*
X370309Y117234D01*
X370367Y117353D01*
X370422Y117474D01*
X370473Y117596D01*
X370521Y117720D01*
X370565Y117845D01*
X370605Y117971D01*
X370641Y118099D01*
X370674Y118227D01*
X370703Y118356D01*
X370728Y118487D01*
X370749Y118617D01*
X370767Y118749D01*
X370780Y118881D01*
X370790Y119013D01*
X370796Y119145D01*
X370798Y119278D01*
X354434Y123793D02*
X349918Y123793D01*
X349918Y123794D02*
X349785Y123792D01*
X349653Y123786D01*
X349521Y123776D01*
X349389Y123763D01*
X349257Y123745D01*
X349127Y123724D01*
X348996Y123699D01*
X348867Y123670D01*
X348739Y123637D01*
X348611Y123601D01*
X348485Y123561D01*
X348360Y123517D01*
X348236Y123469D01*
X348114Y123418D01*
X347993Y123363D01*
X347874Y123305D01*
X347756Y123243D01*
X347641Y123178D01*
X347527Y123109D01*
X347416Y123038D01*
X347307Y122962D01*
X347200Y122884D01*
X347095Y122803D01*
X346993Y122718D01*
X346893Y122631D01*
X346796Y122541D01*
X346701Y122448D01*
X346610Y122352D01*
X346521Y122254D01*
X346435Y122153D01*
X346352Y122049D01*
X346272Y121943D01*
X346196Y121835D01*
X346122Y121725D01*
X346052Y121612D01*
X345985Y121498D01*
X345922Y121381D01*
X345862Y121263D01*
X345805Y121143D01*
X345752Y121021D01*
X345703Y120898D01*
X345657Y120774D01*
X345615Y120648D01*
X345577Y120521D01*
X345542Y120393D01*
X345511Y120264D01*
X345484Y120135D01*
X345461Y120004D01*
X345441Y119873D01*
X345426Y119741D01*
X345414Y119609D01*
X345406Y119477D01*
X345402Y119344D01*
X345402Y119212D01*
X345406Y119079D01*
X345414Y118947D01*
X345426Y118815D01*
X345441Y118683D01*
X345461Y118552D01*
X345484Y118421D01*
X345511Y118292D01*
X345542Y118163D01*
X345577Y118035D01*
X345615Y117908D01*
X345657Y117782D01*
X345703Y117658D01*
X345752Y117535D01*
X345805Y117413D01*
X345862Y117293D01*
X345922Y117175D01*
X345985Y117058D01*
X346052Y116944D01*
X346122Y116831D01*
X346196Y116721D01*
X346272Y116613D01*
X346352Y116507D01*
X346435Y116403D01*
X346521Y116302D01*
X346610Y116204D01*
X346701Y116108D01*
X346796Y116015D01*
X346893Y115925D01*
X346993Y115838D01*
X347095Y115753D01*
X347200Y115672D01*
X347307Y115594D01*
X347416Y115518D01*
X347527Y115447D01*
X347641Y115378D01*
X347756Y115313D01*
X347874Y115251D01*
X347993Y115193D01*
X348114Y115138D01*
X348236Y115087D01*
X348360Y115039D01*
X348485Y114995D01*
X348611Y114955D01*
X348739Y114919D01*
X348867Y114886D01*
X348996Y114857D01*
X349127Y114832D01*
X349257Y114811D01*
X349389Y114793D01*
X349521Y114780D01*
X349653Y114770D01*
X349785Y114764D01*
X349918Y114762D01*
X354434Y114762D01*
X354434Y131018D01*
X349918Y131018D01*
X349799Y131016D01*
X349679Y131010D01*
X349560Y131000D01*
X349442Y130986D01*
X349323Y130969D01*
X349206Y130947D01*
X349089Y130922D01*
X348974Y130892D01*
X348859Y130859D01*
X348745Y130822D01*
X348633Y130782D01*
X348522Y130737D01*
X348413Y130689D01*
X348305Y130638D01*
X348199Y130583D01*
X348095Y130524D01*
X347993Y130462D01*
X347893Y130397D01*
X347795Y130328D01*
X347699Y130256D01*
X347606Y130181D01*
X347516Y130104D01*
X347428Y130023D01*
X347343Y129939D01*
X347261Y129852D01*
X347181Y129763D01*
X347105Y129671D01*
X347031Y129577D01*
X346961Y129480D01*
X346894Y129382D01*
X346830Y129281D01*
X346770Y129177D01*
X346713Y129072D01*
X346660Y128965D01*
X346610Y128857D01*
X346564Y128747D01*
X346522Y128635D01*
X346483Y128522D01*
X346448Y128408D01*
X346417Y128293D01*
X346389Y128176D01*
X346366Y128059D01*
X346346Y127942D01*
X346330Y127823D01*
X346318Y127704D01*
X346310Y127585D01*
X346306Y127466D01*
X346306Y127346D01*
X346310Y127227D01*
X346318Y127108D01*
X346330Y126989D01*
X346346Y126870D01*
X346366Y126753D01*
X346389Y126636D01*
X346417Y126519D01*
X346448Y126404D01*
X346483Y126290D01*
X346522Y126177D01*
X346564Y126065D01*
X346610Y125955D01*
X346660Y125847D01*
X346713Y125740D01*
X346770Y125635D01*
X346830Y125531D01*
X346894Y125430D01*
X346961Y125332D01*
X347031Y125235D01*
X347105Y125141D01*
X347181Y125049D01*
X347261Y124960D01*
X347343Y124873D01*
X347428Y124789D01*
X347516Y124708D01*
X347606Y124631D01*
X347699Y124556D01*
X347795Y124484D01*
X347893Y124415D01*
X347993Y124350D01*
X348095Y124288D01*
X348199Y124229D01*
X348305Y124174D01*
X348413Y124123D01*
X348522Y124075D01*
X348633Y124030D01*
X348745Y123990D01*
X348859Y123953D01*
X348974Y123920D01*
X349089Y123890D01*
X349206Y123865D01*
X349323Y123843D01*
X349442Y123826D01*
X349560Y123812D01*
X349679Y123802D01*
X349799Y123796D01*
X349918Y123794D01*
X339535Y126502D02*
X339535Y119278D01*
X339535Y126502D02*
X339533Y126635D01*
X339527Y126767D01*
X339517Y126899D01*
X339504Y127031D01*
X339486Y127163D01*
X339465Y127293D01*
X339440Y127424D01*
X339411Y127553D01*
X339378Y127681D01*
X339342Y127809D01*
X339302Y127935D01*
X339258Y128060D01*
X339210Y128184D01*
X339159Y128306D01*
X339104Y128427D01*
X339046Y128546D01*
X338984Y128664D01*
X338919Y128779D01*
X338850Y128893D01*
X338779Y129004D01*
X338703Y129113D01*
X338625Y129220D01*
X338544Y129325D01*
X338459Y129427D01*
X338372Y129527D01*
X338282Y129624D01*
X338189Y129719D01*
X338093Y129810D01*
X337995Y129899D01*
X337894Y129985D01*
X337790Y130068D01*
X337684Y130148D01*
X337576Y130224D01*
X337466Y130298D01*
X337353Y130368D01*
X337239Y130435D01*
X337122Y130498D01*
X337004Y130558D01*
X336884Y130615D01*
X336762Y130668D01*
X336639Y130717D01*
X336515Y130763D01*
X336389Y130805D01*
X336262Y130843D01*
X336134Y130878D01*
X336005Y130909D01*
X335876Y130936D01*
X335745Y130959D01*
X335614Y130979D01*
X335482Y130994D01*
X335350Y131006D01*
X335218Y131014D01*
X335085Y131018D01*
X334953Y131018D01*
X334820Y131014D01*
X334688Y131006D01*
X334556Y130994D01*
X334424Y130979D01*
X334293Y130959D01*
X334162Y130936D01*
X334033Y130909D01*
X333904Y130878D01*
X333776Y130843D01*
X333649Y130805D01*
X333523Y130763D01*
X333399Y130717D01*
X333276Y130668D01*
X333154Y130615D01*
X333034Y130558D01*
X332916Y130498D01*
X332799Y130435D01*
X332685Y130368D01*
X332572Y130298D01*
X332462Y130224D01*
X332354Y130148D01*
X332248Y130068D01*
X332144Y129985D01*
X332043Y129899D01*
X331945Y129810D01*
X331849Y129719D01*
X331756Y129624D01*
X331666Y129527D01*
X331579Y129427D01*
X331494Y129325D01*
X331413Y129220D01*
X331335Y129113D01*
X331259Y129004D01*
X331188Y128893D01*
X331119Y128779D01*
X331054Y128664D01*
X330992Y128546D01*
X330934Y128427D01*
X330879Y128306D01*
X330828Y128184D01*
X330780Y128060D01*
X330736Y127935D01*
X330696Y127809D01*
X330660Y127681D01*
X330627Y127553D01*
X330598Y127424D01*
X330573Y127293D01*
X330552Y127163D01*
X330534Y127031D01*
X330521Y126899D01*
X330511Y126767D01*
X330505Y126635D01*
X330503Y126502D01*
X330504Y126502D02*
X330504Y119278D01*
X330503Y119278D02*
X330505Y119145D01*
X330511Y119013D01*
X330521Y118881D01*
X330534Y118749D01*
X330552Y118617D01*
X330573Y118487D01*
X330598Y118356D01*
X330627Y118227D01*
X330660Y118099D01*
X330696Y117971D01*
X330736Y117845D01*
X330780Y117720D01*
X330828Y117596D01*
X330879Y117474D01*
X330934Y117353D01*
X330992Y117234D01*
X331054Y117116D01*
X331119Y117001D01*
X331188Y116887D01*
X331259Y116776D01*
X331335Y116667D01*
X331413Y116560D01*
X331494Y116455D01*
X331579Y116353D01*
X331666Y116253D01*
X331756Y116156D01*
X331849Y116061D01*
X331945Y115970D01*
X332043Y115881D01*
X332144Y115795D01*
X332248Y115712D01*
X332354Y115632D01*
X332462Y115556D01*
X332572Y115482D01*
X332685Y115412D01*
X332799Y115345D01*
X332916Y115282D01*
X333034Y115222D01*
X333154Y115165D01*
X333276Y115112D01*
X333399Y115063D01*
X333523Y115017D01*
X333649Y114975D01*
X333776Y114937D01*
X333904Y114902D01*
X334033Y114871D01*
X334162Y114844D01*
X334293Y114821D01*
X334424Y114801D01*
X334556Y114786D01*
X334688Y114774D01*
X334820Y114766D01*
X334953Y114762D01*
X335085Y114762D01*
X335218Y114766D01*
X335350Y114774D01*
X335482Y114786D01*
X335614Y114801D01*
X335745Y114821D01*
X335876Y114844D01*
X336005Y114871D01*
X336134Y114902D01*
X336262Y114937D01*
X336389Y114975D01*
X336515Y115017D01*
X336639Y115063D01*
X336762Y115112D01*
X336884Y115165D01*
X337004Y115222D01*
X337122Y115282D01*
X337239Y115345D01*
X337353Y115412D01*
X337466Y115482D01*
X337576Y115556D01*
X337684Y115632D01*
X337790Y115712D01*
X337894Y115795D01*
X337995Y115881D01*
X338093Y115970D01*
X338189Y116061D01*
X338282Y116156D01*
X338372Y116253D01*
X338459Y116353D01*
X338544Y116455D01*
X338625Y116560D01*
X338703Y116667D01*
X338779Y116776D01*
X338850Y116887D01*
X338919Y117001D01*
X338984Y117116D01*
X339046Y117234D01*
X339104Y117353D01*
X339159Y117474D01*
X339210Y117596D01*
X339258Y117720D01*
X339302Y117845D01*
X339342Y117971D01*
X339378Y118099D01*
X339411Y118227D01*
X339440Y118356D01*
X339465Y118487D01*
X339486Y118617D01*
X339504Y118749D01*
X339517Y118881D01*
X339527Y119013D01*
X339533Y119145D01*
X339535Y119278D01*
X320430Y114762D02*
X320430Y131018D01*
X315915Y131018D02*
X324946Y131018D01*
X308967Y131018D02*
X308967Y114762D01*
X310773Y114762D02*
X307161Y114762D01*
X307161Y131018D02*
X310773Y131018D01*
X297405Y114762D02*
X293792Y114762D01*
X297405Y114762D02*
X297523Y114764D01*
X297641Y114770D01*
X297759Y114779D01*
X297876Y114793D01*
X297993Y114810D01*
X298110Y114831D01*
X298225Y114856D01*
X298340Y114885D01*
X298454Y114918D01*
X298566Y114954D01*
X298677Y114994D01*
X298787Y115037D01*
X298896Y115084D01*
X299003Y115134D01*
X299108Y115189D01*
X299211Y115246D01*
X299312Y115307D01*
X299412Y115371D01*
X299509Y115438D01*
X299604Y115508D01*
X299696Y115582D01*
X299787Y115658D01*
X299874Y115738D01*
X299959Y115820D01*
X300041Y115905D01*
X300121Y115992D01*
X300197Y116083D01*
X300271Y116175D01*
X300341Y116270D01*
X300408Y116367D01*
X300472Y116467D01*
X300533Y116568D01*
X300590Y116671D01*
X300645Y116776D01*
X300695Y116883D01*
X300742Y116992D01*
X300785Y117102D01*
X300825Y117213D01*
X300861Y117325D01*
X300894Y117439D01*
X300923Y117554D01*
X300948Y117669D01*
X300969Y117786D01*
X300986Y117903D01*
X301000Y118020D01*
X301009Y118138D01*
X301015Y118256D01*
X301017Y118374D01*
X301017Y127406D01*
X301015Y127524D01*
X301009Y127642D01*
X301000Y127760D01*
X300986Y127877D01*
X300969Y127994D01*
X300948Y128111D01*
X300923Y128226D01*
X300894Y128341D01*
X300861Y128455D01*
X300825Y128567D01*
X300785Y128678D01*
X300742Y128788D01*
X300695Y128897D01*
X300645Y129004D01*
X300590Y129109D01*
X300533Y129212D01*
X300472Y129313D01*
X300408Y129413D01*
X300341Y129510D01*
X300271Y129605D01*
X300197Y129697D01*
X300121Y129788D01*
X300041Y129875D01*
X299959Y129960D01*
X299874Y130042D01*
X299787Y130122D01*
X299696Y130198D01*
X299604Y130272D01*
X299509Y130342D01*
X299412Y130409D01*
X299312Y130473D01*
X299211Y130534D01*
X299108Y130591D01*
X299003Y130646D01*
X298896Y130696D01*
X298787Y130743D01*
X298677Y130786D01*
X298566Y130826D01*
X298454Y130862D01*
X298340Y130895D01*
X298225Y130924D01*
X298110Y130949D01*
X297993Y130970D01*
X297876Y130987D01*
X297759Y131001D01*
X297641Y131010D01*
X297523Y131016D01*
X297405Y131018D01*
X293792Y131018D01*
X279442Y118374D02*
X279444Y118256D01*
X279450Y118138D01*
X279459Y118020D01*
X279473Y117903D01*
X279490Y117786D01*
X279511Y117669D01*
X279536Y117554D01*
X279565Y117439D01*
X279598Y117325D01*
X279634Y117213D01*
X279674Y117102D01*
X279717Y116992D01*
X279764Y116883D01*
X279814Y116776D01*
X279869Y116671D01*
X279926Y116568D01*
X279987Y116467D01*
X280051Y116367D01*
X280118Y116270D01*
X280188Y116175D01*
X280262Y116083D01*
X280338Y115992D01*
X280418Y115905D01*
X280500Y115820D01*
X280585Y115738D01*
X280672Y115658D01*
X280763Y115582D01*
X280855Y115508D01*
X280950Y115438D01*
X281047Y115371D01*
X281147Y115307D01*
X281248Y115246D01*
X281351Y115189D01*
X281456Y115134D01*
X281563Y115084D01*
X281672Y115037D01*
X281782Y114994D01*
X281893Y114954D01*
X282005Y114918D01*
X282119Y114885D01*
X282234Y114856D01*
X282349Y114831D01*
X282466Y114810D01*
X282583Y114793D01*
X282700Y114779D01*
X282818Y114770D01*
X282936Y114764D01*
X283054Y114762D01*
X283237Y114764D01*
X283419Y114771D01*
X283601Y114782D01*
X283783Y114797D01*
X283965Y114817D01*
X284146Y114841D01*
X284326Y114869D01*
X284506Y114901D01*
X284685Y114938D01*
X284862Y114979D01*
X285039Y115025D01*
X285215Y115074D01*
X285390Y115128D01*
X285563Y115186D01*
X285734Y115248D01*
X285905Y115314D01*
X286073Y115385D01*
X286240Y115459D01*
X286405Y115537D01*
X286568Y115619D01*
X286729Y115705D01*
X286888Y115795D01*
X287045Y115889D01*
X287199Y115986D01*
X287351Y116087D01*
X287501Y116192D01*
X287648Y116300D01*
X287792Y116411D01*
X287934Y116526D01*
X288073Y116645D01*
X288209Y116767D01*
X288342Y116892D01*
X288472Y117020D01*
X288021Y127406D02*
X288019Y127524D01*
X288013Y127642D01*
X288004Y127760D01*
X287990Y127877D01*
X287973Y127994D01*
X287952Y128111D01*
X287927Y128226D01*
X287898Y128341D01*
X287865Y128455D01*
X287829Y128567D01*
X287789Y128678D01*
X287746Y128788D01*
X287699Y128897D01*
X287649Y129004D01*
X287594Y129109D01*
X287537Y129212D01*
X287476Y129313D01*
X287412Y129413D01*
X287345Y129510D01*
X287275Y129605D01*
X287201Y129697D01*
X287125Y129788D01*
X287045Y129875D01*
X286963Y129960D01*
X286878Y130042D01*
X286791Y130122D01*
X286700Y130198D01*
X286608Y130272D01*
X286513Y130342D01*
X286416Y130409D01*
X286316Y130473D01*
X286215Y130534D01*
X286112Y130591D01*
X286007Y130646D01*
X285900Y130696D01*
X285791Y130743D01*
X285681Y130786D01*
X285570Y130826D01*
X285458Y130862D01*
X285344Y130895D01*
X285229Y130924D01*
X285114Y130949D01*
X284997Y130970D01*
X284880Y130987D01*
X284763Y131001D01*
X284645Y131010D01*
X284527Y131016D01*
X284409Y131018D01*
X284248Y131016D01*
X284086Y131010D01*
X283925Y131001D01*
X283764Y130987D01*
X283604Y130970D01*
X283444Y130949D01*
X283284Y130924D01*
X283125Y130895D01*
X282967Y130863D01*
X282810Y130827D01*
X282654Y130787D01*
X282498Y130743D01*
X282344Y130695D01*
X282191Y130644D01*
X282039Y130590D01*
X281888Y130531D01*
X281739Y130470D01*
X281592Y130404D01*
X281446Y130335D01*
X281301Y130263D01*
X281159Y130187D01*
X281018Y130108D01*
X280879Y130026D01*
X280743Y129940D01*
X280608Y129851D01*
X280475Y129759D01*
X280345Y129663D01*
X286215Y124245D02*
X286316Y124307D01*
X286416Y124372D01*
X286513Y124441D01*
X286608Y124513D01*
X286701Y124587D01*
X286791Y124665D01*
X286879Y124746D01*
X286964Y124829D01*
X287046Y124915D01*
X287125Y125004D01*
X287202Y125095D01*
X287275Y125189D01*
X287346Y125285D01*
X287413Y125383D01*
X287477Y125483D01*
X287538Y125586D01*
X287595Y125690D01*
X287649Y125796D01*
X287699Y125904D01*
X287746Y126013D01*
X287790Y126124D01*
X287830Y126236D01*
X287866Y126350D01*
X287898Y126464D01*
X287927Y126580D01*
X287952Y126696D01*
X287973Y126813D01*
X287990Y126931D01*
X288004Y127049D01*
X288013Y127168D01*
X288019Y127287D01*
X288021Y127406D01*
X281248Y121535D02*
X281147Y121473D01*
X281047Y121408D01*
X280950Y121339D01*
X280855Y121267D01*
X280762Y121193D01*
X280672Y121115D01*
X280584Y121034D01*
X280499Y120951D01*
X280417Y120865D01*
X280338Y120776D01*
X280261Y120685D01*
X280188Y120591D01*
X280117Y120495D01*
X280050Y120397D01*
X279986Y120297D01*
X279925Y120194D01*
X279868Y120090D01*
X279814Y119984D01*
X279764Y119876D01*
X279717Y119767D01*
X279673Y119656D01*
X279633Y119544D01*
X279597Y119430D01*
X279565Y119316D01*
X279536Y119200D01*
X279511Y119084D01*
X279490Y118967D01*
X279473Y118849D01*
X279459Y118731D01*
X279450Y118612D01*
X279444Y118493D01*
X279442Y118374D01*
X281248Y121535D02*
X286215Y124245D01*
X260059Y131018D02*
X259934Y131016D01*
X259809Y131010D01*
X259684Y131001D01*
X259560Y130987D01*
X259436Y130970D01*
X259312Y130949D01*
X259190Y130924D01*
X259068Y130895D01*
X258947Y130863D01*
X258827Y130827D01*
X258708Y130787D01*
X258591Y130744D01*
X258475Y130697D01*
X258360Y130646D01*
X258248Y130592D01*
X258136Y130534D01*
X258027Y130474D01*
X257920Y130409D01*
X257814Y130342D01*
X257711Y130271D01*
X257610Y130197D01*
X257511Y130120D01*
X257415Y130040D01*
X257321Y129957D01*
X257230Y129872D01*
X257141Y129783D01*
X257056Y129692D01*
X256973Y129598D01*
X256893Y129502D01*
X256816Y129403D01*
X256742Y129302D01*
X256671Y129199D01*
X256604Y129093D01*
X256539Y128986D01*
X256479Y128877D01*
X256421Y128765D01*
X256367Y128653D01*
X256316Y128538D01*
X256269Y128422D01*
X256226Y128305D01*
X256186Y128186D01*
X256150Y128066D01*
X256118Y127945D01*
X256089Y127823D01*
X256064Y127701D01*
X256043Y127577D01*
X256026Y127453D01*
X256012Y127329D01*
X256003Y127204D01*
X255997Y127079D01*
X255995Y126954D01*
X260059Y131018D02*
X260202Y131016D01*
X260344Y131010D01*
X260487Y131000D01*
X260629Y130987D01*
X260770Y130969D01*
X260912Y130948D01*
X261052Y130923D01*
X261192Y130894D01*
X261331Y130861D01*
X261469Y130824D01*
X261606Y130784D01*
X261741Y130740D01*
X261876Y130692D01*
X262009Y130640D01*
X262141Y130585D01*
X262271Y130526D01*
X262399Y130464D01*
X262526Y130398D01*
X262651Y130329D01*
X262774Y130257D01*
X262895Y130181D01*
X263013Y130102D01*
X263130Y130019D01*
X263244Y129934D01*
X263356Y129845D01*
X263465Y129754D01*
X263572Y129659D01*
X263677Y129562D01*
X263778Y129461D01*
X263877Y129358D01*
X263973Y129253D01*
X264066Y129144D01*
X264156Y129033D01*
X264243Y128920D01*
X264327Y128805D01*
X264407Y128687D01*
X264485Y128567D01*
X264559Y128445D01*
X264629Y128321D01*
X264697Y128195D01*
X264760Y128067D01*
X264821Y127938D01*
X264878Y127807D01*
X264931Y127675D01*
X264980Y127541D01*
X265026Y127406D01*
X257350Y123793D02*
X257256Y123885D01*
X257166Y123979D01*
X257078Y124076D01*
X256993Y124176D01*
X256911Y124278D01*
X256832Y124383D01*
X256757Y124490D01*
X256685Y124599D01*
X256616Y124710D01*
X256550Y124824D01*
X256488Y124939D01*
X256429Y125056D01*
X256374Y125175D01*
X256323Y125295D01*
X256275Y125417D01*
X256230Y125540D01*
X256190Y125664D01*
X256153Y125790D01*
X256120Y125917D01*
X256091Y126044D01*
X256065Y126173D01*
X256044Y126302D01*
X256026Y126432D01*
X256013Y126562D01*
X256003Y126692D01*
X255997Y126823D01*
X255995Y126954D01*
X257350Y123793D02*
X265026Y114762D01*
X255995Y114762D01*
X249395Y122890D02*
X249391Y123210D01*
X249380Y123529D01*
X249361Y123849D01*
X249334Y124167D01*
X249300Y124485D01*
X249258Y124802D01*
X249208Y125118D01*
X249151Y125433D01*
X249087Y125746D01*
X249015Y126058D01*
X248936Y126368D01*
X248849Y126675D01*
X248755Y126981D01*
X248654Y127284D01*
X248545Y127585D01*
X248430Y127883D01*
X248307Y128179D01*
X248177Y128471D01*
X248040Y128760D01*
X248040Y128761D02*
X248001Y128869D01*
X247958Y128976D01*
X247912Y129081D01*
X247861Y129185D01*
X247808Y129287D01*
X247751Y129387D01*
X247690Y129485D01*
X247626Y129580D01*
X247559Y129674D01*
X247488Y129765D01*
X247415Y129854D01*
X247338Y129940D01*
X247259Y130023D01*
X247177Y130104D01*
X247092Y130182D01*
X247004Y130256D01*
X246914Y130328D01*
X246822Y130396D01*
X246727Y130462D01*
X246630Y130524D01*
X246531Y130582D01*
X246429Y130638D01*
X246327Y130689D01*
X246222Y130737D01*
X246116Y130782D01*
X246008Y130823D01*
X245899Y130860D01*
X245789Y130893D01*
X245677Y130922D01*
X245565Y130948D01*
X245452Y130970D01*
X245338Y130987D01*
X245224Y131001D01*
X245109Y131011D01*
X244994Y131017D01*
X244879Y131019D01*
X244879Y131018D02*
X244764Y131016D01*
X244649Y131010D01*
X244534Y131000D01*
X244420Y130986D01*
X244306Y130969D01*
X244193Y130947D01*
X244081Y130921D01*
X243969Y130892D01*
X243859Y130859D01*
X243750Y130822D01*
X243642Y130781D01*
X243536Y130736D01*
X243432Y130688D01*
X243329Y130637D01*
X243228Y130581D01*
X243128Y130523D01*
X243031Y130461D01*
X242937Y130396D01*
X242844Y130327D01*
X242754Y130255D01*
X242666Y130181D01*
X242581Y130103D01*
X242499Y130022D01*
X242420Y129939D01*
X242343Y129853D01*
X242270Y129764D01*
X242199Y129673D01*
X242132Y129579D01*
X242068Y129484D01*
X242007Y129386D01*
X241950Y129286D01*
X241897Y129184D01*
X241846Y129080D01*
X241800Y128975D01*
X241757Y128868D01*
X241718Y128760D01*
X241719Y128760D02*
X241582Y128471D01*
X241452Y128179D01*
X241329Y127883D01*
X241214Y127585D01*
X241105Y127284D01*
X241004Y126981D01*
X240910Y126675D01*
X240823Y126368D01*
X240744Y126058D01*
X240672Y125746D01*
X240608Y125433D01*
X240551Y125118D01*
X240501Y124802D01*
X240459Y124485D01*
X240425Y124167D01*
X240398Y123849D01*
X240379Y123529D01*
X240368Y123210D01*
X240364Y122890D01*
X249394Y122890D02*
X249390Y122570D01*
X249379Y122251D01*
X249360Y121931D01*
X249333Y121613D01*
X249299Y121295D01*
X249257Y120978D01*
X249207Y120662D01*
X249150Y120347D01*
X249086Y120034D01*
X249014Y119722D01*
X248935Y119412D01*
X248848Y119105D01*
X248754Y118799D01*
X248653Y118496D01*
X248544Y118195D01*
X248429Y117897D01*
X248306Y117601D01*
X248176Y117309D01*
X248039Y117020D01*
X248040Y117020D02*
X248001Y116912D01*
X247958Y116805D01*
X247912Y116700D01*
X247861Y116596D01*
X247808Y116494D01*
X247751Y116394D01*
X247690Y116296D01*
X247626Y116201D01*
X247559Y116107D01*
X247488Y116016D01*
X247415Y115927D01*
X247338Y115841D01*
X247259Y115758D01*
X247177Y115677D01*
X247092Y115599D01*
X247004Y115525D01*
X246914Y115453D01*
X246821Y115384D01*
X246727Y115319D01*
X246630Y115257D01*
X246530Y115199D01*
X246429Y115143D01*
X246327Y115092D01*
X246222Y115044D01*
X246116Y114999D01*
X246008Y114958D01*
X245899Y114921D01*
X245789Y114888D01*
X245677Y114859D01*
X245565Y114833D01*
X245452Y114811D01*
X245338Y114794D01*
X245224Y114780D01*
X245109Y114770D01*
X244994Y114764D01*
X244879Y114762D01*
X241719Y117020D02*
X241582Y117309D01*
X241452Y117601D01*
X241329Y117897D01*
X241214Y118195D01*
X241105Y118496D01*
X241004Y118799D01*
X240910Y119105D01*
X240823Y119412D01*
X240744Y119722D01*
X240672Y120034D01*
X240608Y120347D01*
X240551Y120662D01*
X240501Y120978D01*
X240459Y121295D01*
X240425Y121613D01*
X240398Y121931D01*
X240379Y122251D01*
X240368Y122570D01*
X240364Y122890D01*
X241718Y117020D02*
X241757Y116912D01*
X241800Y116805D01*
X241846Y116700D01*
X241897Y116596D01*
X241950Y116494D01*
X242008Y116394D01*
X242068Y116296D01*
X242132Y116201D01*
X242199Y116107D01*
X242270Y116016D01*
X242343Y115927D01*
X242420Y115841D01*
X242499Y115758D01*
X242581Y115677D01*
X242666Y115599D01*
X242754Y115525D01*
X242844Y115453D01*
X242937Y115384D01*
X243031Y115319D01*
X243128Y115257D01*
X243228Y115199D01*
X243329Y115143D01*
X243432Y115092D01*
X243536Y115044D01*
X243642Y114999D01*
X243750Y114958D01*
X243859Y114921D01*
X243969Y114888D01*
X244081Y114859D01*
X244193Y114833D01*
X244306Y114811D01*
X244420Y114794D01*
X244534Y114780D01*
X244649Y114770D01*
X244764Y114764D01*
X244879Y114762D01*
X248492Y118374D02*
X241267Y127406D01*
X233764Y127406D02*
X229248Y131018D01*
X229248Y114762D01*
X233764Y114762D02*
X224732Y114762D01*
X214520Y121987D02*
X209101Y121987D01*
X214520Y121987D02*
X214638Y121989D01*
X214756Y121995D01*
X214874Y122004D01*
X214991Y122018D01*
X215108Y122035D01*
X215225Y122056D01*
X215340Y122081D01*
X215455Y122110D01*
X215569Y122143D01*
X215681Y122179D01*
X215792Y122219D01*
X215902Y122262D01*
X216011Y122309D01*
X216118Y122359D01*
X216223Y122414D01*
X216326Y122471D01*
X216427Y122532D01*
X216527Y122596D01*
X216624Y122663D01*
X216719Y122733D01*
X216811Y122807D01*
X216902Y122883D01*
X216989Y122963D01*
X217074Y123045D01*
X217156Y123130D01*
X217236Y123217D01*
X217312Y123308D01*
X217386Y123400D01*
X217456Y123495D01*
X217523Y123592D01*
X217587Y123692D01*
X217648Y123793D01*
X217705Y123896D01*
X217760Y124001D01*
X217810Y124108D01*
X217857Y124217D01*
X217900Y124327D01*
X217940Y124438D01*
X217976Y124550D01*
X218009Y124664D01*
X218038Y124779D01*
X218063Y124894D01*
X218084Y125011D01*
X218101Y125128D01*
X218115Y125245D01*
X218124Y125363D01*
X218130Y125481D01*
X218132Y125599D01*
X218132Y126502D01*
X218133Y126502D02*
X218131Y126635D01*
X218125Y126767D01*
X218115Y126899D01*
X218102Y127031D01*
X218084Y127163D01*
X218063Y127293D01*
X218038Y127424D01*
X218009Y127553D01*
X217976Y127681D01*
X217940Y127809D01*
X217900Y127935D01*
X217856Y128060D01*
X217808Y128184D01*
X217757Y128306D01*
X217702Y128427D01*
X217644Y128546D01*
X217582Y128664D01*
X217517Y128779D01*
X217448Y128893D01*
X217377Y129004D01*
X217301Y129113D01*
X217223Y129220D01*
X217142Y129325D01*
X217057Y129427D01*
X216970Y129527D01*
X216880Y129624D01*
X216787Y129719D01*
X216691Y129810D01*
X216593Y129899D01*
X216492Y129985D01*
X216388Y130068D01*
X216282Y130148D01*
X216174Y130224D01*
X216064Y130298D01*
X215951Y130368D01*
X215837Y130435D01*
X215720Y130498D01*
X215602Y130558D01*
X215482Y130615D01*
X215360Y130668D01*
X215237Y130717D01*
X215113Y130763D01*
X214987Y130805D01*
X214860Y130843D01*
X214732Y130878D01*
X214603Y130909D01*
X214474Y130936D01*
X214343Y130959D01*
X214212Y130979D01*
X214080Y130994D01*
X213948Y131006D01*
X213816Y131014D01*
X213683Y131018D01*
X213551Y131018D01*
X213418Y131014D01*
X213286Y131006D01*
X213154Y130994D01*
X213022Y130979D01*
X212891Y130959D01*
X212760Y130936D01*
X212631Y130909D01*
X212502Y130878D01*
X212374Y130843D01*
X212247Y130805D01*
X212121Y130763D01*
X211997Y130717D01*
X211874Y130668D01*
X211752Y130615D01*
X211632Y130558D01*
X211514Y130498D01*
X211397Y130435D01*
X211283Y130368D01*
X211170Y130298D01*
X211060Y130224D01*
X210952Y130148D01*
X210846Y130068D01*
X210742Y129985D01*
X210641Y129899D01*
X210543Y129810D01*
X210447Y129719D01*
X210354Y129624D01*
X210264Y129527D01*
X210177Y129427D01*
X210092Y129325D01*
X210011Y129220D01*
X209933Y129113D01*
X209857Y129004D01*
X209786Y128893D01*
X209717Y128779D01*
X209652Y128664D01*
X209590Y128546D01*
X209532Y128427D01*
X209477Y128306D01*
X209426Y128184D01*
X209378Y128060D01*
X209334Y127935D01*
X209294Y127809D01*
X209258Y127681D01*
X209225Y127553D01*
X209196Y127424D01*
X209171Y127293D01*
X209150Y127163D01*
X209132Y127031D01*
X209119Y126899D01*
X209109Y126767D01*
X209103Y126635D01*
X209101Y126502D01*
X209101Y121987D01*
X209103Y121812D01*
X209109Y121638D01*
X209120Y121464D01*
X209135Y121290D01*
X209154Y121116D01*
X209177Y120943D01*
X209204Y120771D01*
X209236Y120599D01*
X209271Y120428D01*
X209311Y120258D01*
X209355Y120089D01*
X209403Y119921D01*
X209455Y119754D01*
X209511Y119589D01*
X209571Y119425D01*
X209634Y119262D01*
X209702Y119102D01*
X209774Y118942D01*
X209849Y118785D01*
X209929Y118629D01*
X210012Y118476D01*
X210098Y118324D01*
X210189Y118175D01*
X210283Y118028D01*
X210380Y117883D01*
X210481Y117740D01*
X210585Y117600D01*
X210693Y117463D01*
X210804Y117328D01*
X210918Y117196D01*
X211035Y117067D01*
X211156Y116940D01*
X211279Y116817D01*
X211406Y116696D01*
X211535Y116579D01*
X211667Y116465D01*
X211802Y116354D01*
X211939Y116246D01*
X212079Y116142D01*
X212222Y116041D01*
X212367Y115944D01*
X212514Y115850D01*
X212663Y115759D01*
X212815Y115673D01*
X212968Y115590D01*
X213124Y115510D01*
X213281Y115435D01*
X213441Y115363D01*
X213601Y115295D01*
X213764Y115232D01*
X213928Y115172D01*
X214093Y115116D01*
X214260Y115064D01*
X214428Y115016D01*
X214597Y114972D01*
X214767Y114932D01*
X214938Y114897D01*
X215110Y114865D01*
X215282Y114838D01*
X215455Y114815D01*
X215629Y114796D01*
X215803Y114781D01*
X215977Y114770D01*
X216151Y114764D01*
X216326Y114762D01*
D10*
X857692Y44192D02*
X857692Y32508D01*
X857692Y38999D02*
X851201Y38999D01*
X851201Y44192D02*
X851201Y32508D01*
X845500Y35754D02*
X845500Y44192D01*
X845500Y35754D02*
X845498Y35641D01*
X845492Y35528D01*
X845482Y35415D01*
X845468Y35302D01*
X845451Y35190D01*
X845429Y35079D01*
X845404Y34969D01*
X845374Y34859D01*
X845341Y34751D01*
X845304Y34644D01*
X845264Y34538D01*
X845219Y34434D01*
X845171Y34331D01*
X845120Y34230D01*
X845065Y34131D01*
X845007Y34034D01*
X844945Y33939D01*
X844880Y33846D01*
X844812Y33756D01*
X844741Y33668D01*
X844666Y33582D01*
X844589Y33499D01*
X844509Y33419D01*
X844426Y33342D01*
X844340Y33267D01*
X844252Y33196D01*
X844162Y33128D01*
X844069Y33063D01*
X843974Y33001D01*
X843877Y32943D01*
X843778Y32888D01*
X843677Y32837D01*
X843574Y32789D01*
X843470Y32744D01*
X843364Y32704D01*
X843257Y32667D01*
X843149Y32634D01*
X843039Y32604D01*
X842929Y32579D01*
X842818Y32557D01*
X842706Y32540D01*
X842593Y32526D01*
X842480Y32516D01*
X842367Y32510D01*
X842254Y32508D01*
X842141Y32510D01*
X842028Y32516D01*
X841915Y32526D01*
X841802Y32540D01*
X841690Y32557D01*
X841579Y32579D01*
X841469Y32604D01*
X841359Y32634D01*
X841251Y32667D01*
X841144Y32704D01*
X841038Y32744D01*
X840934Y32789D01*
X840831Y32837D01*
X840730Y32888D01*
X840631Y32943D01*
X840534Y33001D01*
X840439Y33063D01*
X840346Y33128D01*
X840256Y33196D01*
X840168Y33267D01*
X840082Y33342D01*
X839999Y33419D01*
X839919Y33499D01*
X839842Y33582D01*
X839767Y33668D01*
X839696Y33756D01*
X839628Y33846D01*
X839563Y33939D01*
X839501Y34034D01*
X839443Y34131D01*
X839388Y34230D01*
X839337Y34331D01*
X839289Y34434D01*
X839244Y34538D01*
X839204Y34644D01*
X839167Y34751D01*
X839134Y34859D01*
X839104Y34969D01*
X839079Y35079D01*
X839057Y35190D01*
X839040Y35302D01*
X839026Y35415D01*
X839016Y35528D01*
X839010Y35641D01*
X839008Y35754D01*
X839009Y35754D02*
X839009Y44192D01*
X833195Y44192D02*
X833195Y32508D01*
X829301Y37701D02*
X833195Y44192D01*
X829301Y37701D02*
X825406Y44192D01*
X825406Y32508D01*
X819479Y32508D02*
X819479Y44192D01*
X815585Y37701D01*
X811690Y44192D01*
X811690Y32508D01*
X805298Y32508D02*
X805298Y44192D01*
X806596Y32508D02*
X803999Y32508D01*
X803999Y44192D02*
X806596Y44192D01*
X799018Y44192D02*
X799018Y32508D01*
X792527Y32508D02*
X799018Y44192D01*
X792527Y44192D02*
X792527Y32508D01*
X782282Y38999D02*
X780335Y38999D01*
X780335Y32508D01*
X784230Y32508D01*
X784329Y32510D01*
X784429Y32516D01*
X784528Y32525D01*
X784626Y32538D01*
X784724Y32555D01*
X784822Y32576D01*
X784918Y32601D01*
X785013Y32629D01*
X785107Y32661D01*
X785200Y32696D01*
X785292Y32735D01*
X785382Y32778D01*
X785470Y32823D01*
X785557Y32873D01*
X785641Y32925D01*
X785724Y32981D01*
X785804Y33039D01*
X785882Y33101D01*
X785957Y33166D01*
X786030Y33234D01*
X786100Y33304D01*
X786168Y33377D01*
X786233Y33452D01*
X786295Y33530D01*
X786353Y33610D01*
X786409Y33693D01*
X786461Y33777D01*
X786511Y33864D01*
X786556Y33952D01*
X786599Y34042D01*
X786638Y34134D01*
X786673Y34227D01*
X786705Y34321D01*
X786733Y34416D01*
X786758Y34512D01*
X786779Y34610D01*
X786796Y34708D01*
X786809Y34806D01*
X786818Y34905D01*
X786824Y35005D01*
X786826Y35104D01*
X786826Y41596D01*
X786824Y41695D01*
X786818Y41795D01*
X786809Y41894D01*
X786796Y41992D01*
X786779Y42090D01*
X786758Y42188D01*
X786733Y42284D01*
X786705Y42379D01*
X786673Y42473D01*
X786638Y42566D01*
X786599Y42658D01*
X786556Y42748D01*
X786511Y42836D01*
X786461Y42923D01*
X786409Y43007D01*
X786353Y43090D01*
X786295Y43170D01*
X786233Y43248D01*
X786168Y43323D01*
X786100Y43396D01*
X786030Y43466D01*
X785957Y43534D01*
X785882Y43599D01*
X785804Y43661D01*
X785724Y43719D01*
X785641Y43775D01*
X785557Y43827D01*
X785470Y43877D01*
X785382Y43922D01*
X785292Y43965D01*
X785200Y44004D01*
X785107Y44039D01*
X785013Y44071D01*
X784918Y44099D01*
X784822Y44124D01*
X784724Y44145D01*
X784626Y44162D01*
X784528Y44175D01*
X784429Y44184D01*
X784329Y44190D01*
X784230Y44192D01*
X780335Y44192D01*
X774465Y38999D02*
X771219Y38999D01*
X771219Y39000D02*
X771106Y38998D01*
X770993Y38992D01*
X770880Y38982D01*
X770767Y38968D01*
X770655Y38951D01*
X770544Y38929D01*
X770434Y38904D01*
X770324Y38874D01*
X770216Y38841D01*
X770109Y38804D01*
X770003Y38764D01*
X769899Y38719D01*
X769796Y38671D01*
X769695Y38620D01*
X769596Y38565D01*
X769499Y38507D01*
X769404Y38445D01*
X769311Y38380D01*
X769221Y38312D01*
X769133Y38241D01*
X769047Y38166D01*
X768964Y38089D01*
X768884Y38009D01*
X768807Y37926D01*
X768732Y37840D01*
X768661Y37752D01*
X768593Y37662D01*
X768528Y37569D01*
X768466Y37474D01*
X768408Y37377D01*
X768353Y37278D01*
X768302Y37177D01*
X768254Y37074D01*
X768209Y36970D01*
X768169Y36864D01*
X768132Y36757D01*
X768099Y36649D01*
X768069Y36539D01*
X768044Y36429D01*
X768022Y36318D01*
X768005Y36206D01*
X767991Y36093D01*
X767981Y35980D01*
X767975Y35867D01*
X767973Y35754D01*
X767975Y35641D01*
X767981Y35528D01*
X767991Y35415D01*
X768005Y35302D01*
X768022Y35190D01*
X768044Y35079D01*
X768069Y34969D01*
X768099Y34859D01*
X768132Y34751D01*
X768169Y34644D01*
X768209Y34538D01*
X768254Y34434D01*
X768302Y34331D01*
X768353Y34230D01*
X768408Y34131D01*
X768466Y34034D01*
X768528Y33939D01*
X768593Y33846D01*
X768661Y33756D01*
X768732Y33668D01*
X768807Y33582D01*
X768884Y33499D01*
X768964Y33419D01*
X769047Y33342D01*
X769133Y33267D01*
X769221Y33196D01*
X769311Y33128D01*
X769404Y33063D01*
X769499Y33001D01*
X769596Y32943D01*
X769695Y32888D01*
X769796Y32837D01*
X769899Y32789D01*
X770003Y32744D01*
X770109Y32704D01*
X770216Y32667D01*
X770324Y32634D01*
X770434Y32604D01*
X770544Y32579D01*
X770655Y32557D01*
X770767Y32540D01*
X770880Y32526D01*
X770993Y32516D01*
X771106Y32510D01*
X771219Y32508D01*
X774465Y32508D01*
X774465Y44192D01*
X771219Y44192D01*
X771118Y44190D01*
X771018Y44184D01*
X770918Y44174D01*
X770818Y44161D01*
X770719Y44143D01*
X770620Y44122D01*
X770523Y44097D01*
X770426Y44068D01*
X770331Y44035D01*
X770237Y43999D01*
X770145Y43959D01*
X770054Y43916D01*
X769965Y43869D01*
X769878Y43819D01*
X769792Y43765D01*
X769709Y43708D01*
X769629Y43648D01*
X769550Y43585D01*
X769474Y43518D01*
X769401Y43449D01*
X769331Y43377D01*
X769263Y43303D01*
X769198Y43226D01*
X769137Y43146D01*
X769078Y43064D01*
X769023Y42980D01*
X768971Y42894D01*
X768922Y42806D01*
X768877Y42716D01*
X768835Y42624D01*
X768797Y42531D01*
X768763Y42436D01*
X768732Y42341D01*
X768705Y42244D01*
X768682Y42146D01*
X768662Y42047D01*
X768647Y41947D01*
X768635Y41847D01*
X768627Y41747D01*
X768623Y41646D01*
X768623Y41546D01*
X768627Y41445D01*
X768635Y41345D01*
X768647Y41245D01*
X768662Y41145D01*
X768682Y41046D01*
X768705Y40948D01*
X768732Y40851D01*
X768763Y40756D01*
X768797Y40661D01*
X768835Y40568D01*
X768877Y40476D01*
X768922Y40386D01*
X768971Y40298D01*
X769023Y40212D01*
X769078Y40128D01*
X769137Y40046D01*
X769198Y39966D01*
X769263Y39889D01*
X769331Y39815D01*
X769401Y39743D01*
X769474Y39674D01*
X769550Y39607D01*
X769629Y39544D01*
X769709Y39484D01*
X769792Y39427D01*
X769878Y39373D01*
X769965Y39323D01*
X770054Y39276D01*
X770145Y39233D01*
X770237Y39193D01*
X770331Y39157D01*
X770426Y39124D01*
X770523Y39095D01*
X770620Y39070D01*
X770719Y39049D01*
X770818Y39031D01*
X770918Y39018D01*
X771018Y39008D01*
X771118Y39002D01*
X771219Y39000D01*
X763585Y40946D02*
X763585Y35754D01*
X763586Y40946D02*
X763584Y41059D01*
X763578Y41172D01*
X763568Y41285D01*
X763554Y41398D01*
X763537Y41510D01*
X763515Y41621D01*
X763490Y41731D01*
X763460Y41841D01*
X763427Y41949D01*
X763390Y42056D01*
X763350Y42162D01*
X763305Y42266D01*
X763257Y42369D01*
X763206Y42470D01*
X763151Y42569D01*
X763093Y42666D01*
X763031Y42761D01*
X762966Y42854D01*
X762898Y42944D01*
X762827Y43032D01*
X762752Y43118D01*
X762675Y43201D01*
X762595Y43281D01*
X762512Y43358D01*
X762426Y43433D01*
X762338Y43504D01*
X762248Y43572D01*
X762155Y43637D01*
X762060Y43699D01*
X761963Y43757D01*
X761864Y43812D01*
X761763Y43863D01*
X761660Y43911D01*
X761556Y43956D01*
X761450Y43996D01*
X761343Y44033D01*
X761235Y44066D01*
X761125Y44096D01*
X761015Y44121D01*
X760904Y44143D01*
X760792Y44160D01*
X760679Y44174D01*
X760566Y44184D01*
X760453Y44190D01*
X760340Y44192D01*
X760227Y44190D01*
X760114Y44184D01*
X760001Y44174D01*
X759888Y44160D01*
X759776Y44143D01*
X759665Y44121D01*
X759555Y44096D01*
X759445Y44066D01*
X759337Y44033D01*
X759230Y43996D01*
X759124Y43956D01*
X759020Y43911D01*
X758917Y43863D01*
X758816Y43812D01*
X758717Y43757D01*
X758620Y43699D01*
X758525Y43637D01*
X758432Y43572D01*
X758342Y43504D01*
X758254Y43433D01*
X758168Y43358D01*
X758085Y43281D01*
X758005Y43201D01*
X757928Y43118D01*
X757853Y43032D01*
X757782Y42944D01*
X757714Y42854D01*
X757649Y42761D01*
X757587Y42666D01*
X757529Y42569D01*
X757474Y42470D01*
X757423Y42369D01*
X757375Y42266D01*
X757330Y42162D01*
X757290Y42056D01*
X757253Y41949D01*
X757220Y41841D01*
X757190Y41731D01*
X757165Y41621D01*
X757143Y41510D01*
X757126Y41398D01*
X757112Y41285D01*
X757102Y41172D01*
X757096Y41059D01*
X757094Y40946D01*
X757094Y35754D01*
X757096Y35641D01*
X757102Y35528D01*
X757112Y35415D01*
X757126Y35302D01*
X757143Y35190D01*
X757165Y35079D01*
X757190Y34969D01*
X757220Y34859D01*
X757253Y34751D01*
X757290Y34644D01*
X757330Y34538D01*
X757375Y34434D01*
X757423Y34331D01*
X757474Y34230D01*
X757529Y34131D01*
X757587Y34034D01*
X757649Y33939D01*
X757714Y33846D01*
X757782Y33756D01*
X757853Y33668D01*
X757928Y33582D01*
X758005Y33499D01*
X758085Y33419D01*
X758168Y33342D01*
X758254Y33267D01*
X758342Y33196D01*
X758432Y33128D01*
X758525Y33063D01*
X758620Y33001D01*
X758717Y32943D01*
X758816Y32888D01*
X758917Y32837D01*
X759020Y32789D01*
X759124Y32744D01*
X759230Y32704D01*
X759337Y32667D01*
X759445Y32634D01*
X759555Y32604D01*
X759665Y32579D01*
X759776Y32557D01*
X759888Y32540D01*
X760001Y32526D01*
X760114Y32516D01*
X760227Y32510D01*
X760340Y32508D01*
X760453Y32510D01*
X760566Y32516D01*
X760679Y32526D01*
X760792Y32540D01*
X760904Y32557D01*
X761015Y32579D01*
X761125Y32604D01*
X761235Y32634D01*
X761343Y32667D01*
X761450Y32704D01*
X761556Y32744D01*
X761660Y32789D01*
X761763Y32837D01*
X761864Y32888D01*
X761963Y32943D01*
X762060Y33001D01*
X762155Y33063D01*
X762248Y33128D01*
X762338Y33196D01*
X762426Y33267D01*
X762512Y33342D01*
X762595Y33419D01*
X762675Y33499D01*
X762752Y33582D01*
X762827Y33668D01*
X762898Y33756D01*
X762966Y33846D01*
X763031Y33939D01*
X763093Y34034D01*
X763151Y34131D01*
X763206Y34230D01*
X763257Y34331D01*
X763305Y34434D01*
X763350Y34538D01*
X763390Y34644D01*
X763427Y34751D01*
X763460Y34859D01*
X763490Y34969D01*
X763515Y35079D01*
X763537Y35190D01*
X763554Y35302D01*
X763568Y35415D01*
X763578Y35528D01*
X763584Y35641D01*
X763586Y35754D01*
X752804Y32508D02*
X748910Y44192D01*
X745015Y32508D01*
X745989Y35429D02*
X751831Y35429D01*
X740271Y32508D02*
X740271Y44192D01*
X737025Y44192D01*
X736912Y44190D01*
X736799Y44184D01*
X736686Y44174D01*
X736573Y44160D01*
X736461Y44143D01*
X736350Y44121D01*
X736240Y44096D01*
X736130Y44066D01*
X736022Y44033D01*
X735915Y43996D01*
X735809Y43956D01*
X735705Y43911D01*
X735602Y43863D01*
X735501Y43812D01*
X735402Y43757D01*
X735305Y43699D01*
X735210Y43637D01*
X735117Y43572D01*
X735027Y43504D01*
X734939Y43433D01*
X734853Y43358D01*
X734770Y43281D01*
X734690Y43201D01*
X734613Y43118D01*
X734538Y43032D01*
X734467Y42944D01*
X734399Y42854D01*
X734334Y42761D01*
X734272Y42666D01*
X734214Y42569D01*
X734159Y42470D01*
X734108Y42369D01*
X734060Y42266D01*
X734015Y42162D01*
X733975Y42056D01*
X733938Y41949D01*
X733905Y41841D01*
X733875Y41731D01*
X733850Y41621D01*
X733828Y41510D01*
X733811Y41398D01*
X733797Y41285D01*
X733787Y41172D01*
X733781Y41059D01*
X733779Y40946D01*
X733781Y40833D01*
X733787Y40720D01*
X733797Y40607D01*
X733811Y40494D01*
X733828Y40382D01*
X733850Y40271D01*
X733875Y40161D01*
X733905Y40051D01*
X733938Y39943D01*
X733975Y39836D01*
X734015Y39730D01*
X734060Y39626D01*
X734108Y39523D01*
X734159Y39422D01*
X734214Y39323D01*
X734272Y39226D01*
X734334Y39131D01*
X734399Y39038D01*
X734467Y38948D01*
X734538Y38860D01*
X734613Y38774D01*
X734690Y38691D01*
X734770Y38611D01*
X734853Y38534D01*
X734939Y38459D01*
X735027Y38388D01*
X735117Y38320D01*
X735210Y38255D01*
X735305Y38193D01*
X735402Y38135D01*
X735501Y38080D01*
X735602Y38029D01*
X735705Y37981D01*
X735809Y37936D01*
X735915Y37896D01*
X736022Y37859D01*
X736130Y37826D01*
X736240Y37796D01*
X736350Y37771D01*
X736461Y37749D01*
X736573Y37732D01*
X736686Y37718D01*
X736799Y37708D01*
X736912Y37702D01*
X737025Y37700D01*
X737025Y37701D02*
X740271Y37701D01*
X736376Y37701D02*
X733779Y32508D01*
X728533Y32508D02*
X728533Y44192D01*
X725288Y44192D01*
X725175Y44190D01*
X725062Y44184D01*
X724949Y44174D01*
X724836Y44160D01*
X724724Y44143D01*
X724613Y44121D01*
X724503Y44096D01*
X724393Y44066D01*
X724285Y44033D01*
X724178Y43996D01*
X724072Y43956D01*
X723968Y43911D01*
X723865Y43863D01*
X723764Y43812D01*
X723665Y43757D01*
X723568Y43699D01*
X723473Y43637D01*
X723380Y43572D01*
X723290Y43504D01*
X723202Y43433D01*
X723116Y43358D01*
X723033Y43281D01*
X722953Y43201D01*
X722876Y43118D01*
X722801Y43032D01*
X722730Y42944D01*
X722662Y42854D01*
X722597Y42761D01*
X722535Y42666D01*
X722477Y42569D01*
X722422Y42470D01*
X722371Y42369D01*
X722323Y42266D01*
X722278Y42162D01*
X722238Y42056D01*
X722201Y41949D01*
X722168Y41841D01*
X722138Y41731D01*
X722113Y41621D01*
X722091Y41510D01*
X722074Y41398D01*
X722060Y41285D01*
X722050Y41172D01*
X722044Y41059D01*
X722042Y40946D01*
X722042Y35754D01*
X722044Y35641D01*
X722050Y35528D01*
X722060Y35415D01*
X722074Y35302D01*
X722091Y35190D01*
X722113Y35079D01*
X722138Y34969D01*
X722168Y34859D01*
X722201Y34751D01*
X722238Y34644D01*
X722278Y34538D01*
X722323Y34434D01*
X722371Y34331D01*
X722422Y34230D01*
X722477Y34131D01*
X722535Y34034D01*
X722597Y33939D01*
X722662Y33846D01*
X722730Y33756D01*
X722801Y33668D01*
X722876Y33582D01*
X722953Y33499D01*
X723033Y33419D01*
X723116Y33342D01*
X723202Y33267D01*
X723290Y33196D01*
X723380Y33128D01*
X723473Y33063D01*
X723568Y33001D01*
X723665Y32943D01*
X723764Y32888D01*
X723865Y32837D01*
X723968Y32789D01*
X724072Y32744D01*
X724178Y32704D01*
X724285Y32667D01*
X724393Y32634D01*
X724503Y32604D01*
X724613Y32579D01*
X724724Y32557D01*
X724836Y32540D01*
X724949Y32526D01*
X725062Y32516D01*
X725175Y32510D01*
X725288Y32508D01*
X728533Y32508D01*
X711120Y40297D02*
X708524Y32508D01*
X705927Y40297D01*
X701482Y41596D02*
X698237Y44192D01*
X698237Y32508D01*
X701482Y32508D02*
X694991Y32508D01*
D12*
X457853Y554480D02*
X408376Y542310D01*
D13*
X408360Y542302D01*
X408351Y542299D02*
X408345Y542296D01*
X408338Y542291D01*
D12*
X408376Y542310D02*
X328710Y490737D01*
X298243Y469147D02*
X286959Y458775D01*
X275627Y471393D01*
D13*
X275582Y471568D01*
D12*
X275426Y471663D02*
X268835Y497497D01*
D13*
X268811Y497547D01*
D12*
X262461Y505750D01*
D13*
X262429Y505779D01*
D12*
X257114Y509229D01*
X243620Y514520D01*
D13*
X243604Y514523D01*
D12*
X219228Y512150D02*
X206816Y513205D01*
X153643Y525376D01*
D13*
X153598Y525379D01*
D12*
X141163Y523791D01*
D13*
X141049Y523691D01*
X141102Y523551D01*
X141150Y523529D01*
D12*
X164163Y518240D01*
X177651Y514007D01*
X190344Y510041D01*
X203546Y503969D01*
X211867Y496545D01*
X212092Y496240D02*
X239196Y440143D01*
X239477Y439625D02*
X249795Y400853D01*
X249835Y400792D02*
X278331Y375691D01*
X278394Y375638D02*
X300378Y358982D01*
D13*
X300386Y358980D01*
X300389Y358975D01*
X300437Y358959D01*
D12*
X323720Y355254D01*
X323757Y355252D02*
X358162Y355519D01*
X395722Y362660D01*
X421666Y363457D01*
X471673Y374834D01*
D13*
X471775Y374950D01*
X471696Y375085D01*
X471642Y375096D01*
D12*
X443925Y374831D01*
X443856Y374834D02*
X389119Y384618D01*
X344968Y394135D01*
X332666Y404605D01*
X405386Y477339D02*
X412001Y486012D01*
X422997Y500426D01*
X423050Y500497D02*
X448730Y534163D01*
D13*
X448733Y534168D01*
D12*
X448773Y534250D02*
X458005Y554295D01*
D13*
X457862Y554480D02*
X457858Y554480D01*
D12*
X328009Y364989D02*
X323662Y355530D01*
X336444Y381181D02*
X395164Y362824D01*
X357734Y355916D02*
X328424Y365253D01*
X336076Y381205D02*
X357734Y355916D01*
X328424Y365253D02*
X336076Y381205D01*
X327612Y365171D02*
X300490Y359231D01*
X338677Y380760D02*
X420519Y363684D01*
X328025Y365354D02*
X279072Y375762D01*
X320220Y385129D02*
X328025Y365354D01*
X320220Y385129D02*
X279072Y375762D01*
X389961Y370330D02*
X442046Y374680D01*
X337878Y381200D01*
X339690Y388050D02*
X439885Y375080D01*
X289824Y396802D02*
X256624Y410547D01*
D13*
X289827Y396802D02*
X289827Y396799D01*
D12*
X319846Y385314D01*
X320987Y385250D02*
X335975Y381599D01*
X339375Y388023D01*
X339426Y388298D02*
X320566Y385457D01*
X339426Y388298D02*
X332451Y404314D01*
X320566Y385457D01*
X332248Y404488D02*
X297119Y408131D01*
X320278Y385491D01*
X289819Y397090D02*
X296529Y408182D01*
X255854Y410947D02*
X249967Y401223D01*
D13*
X255854Y410947D02*
X255854Y410949D01*
D12*
X309689Y422834D02*
X332462Y404774D01*
X309271Y422842D02*
X296830Y408592D01*
X309271Y422842D02*
X290613Y440281D01*
X296830Y408592D01*
X296473Y408663D02*
X269935Y427655D01*
X281125Y448988D02*
X296473Y408663D01*
X269935Y427655D02*
X281125Y448988D01*
X272523Y417924D02*
X295814Y408811D01*
X272134Y417852D02*
X239477Y439625D01*
X256235Y411185D02*
X272134Y417852D01*
X272192Y418130D02*
X269655Y427517D01*
X290634Y457288D02*
X328250Y445559D01*
X309470Y423078D01*
X288745Y455992D01*
X309725Y423229D02*
X405386Y477339D01*
X269467Y427877D02*
X239196Y440143D01*
X269467Y427877D02*
X233195Y493118D01*
X239196Y440143D01*
X281339Y449309D02*
X290237Y440993D01*
X288462Y455764D01*
X281339Y449309D01*
X328371Y445880D02*
X328345Y490340D01*
X308657Y461323D01*
X328824Y445914D02*
X405386Y477648D01*
X327826Y445970D02*
X308446Y461151D01*
X291081Y457426D01*
X328636Y446110D02*
X343136Y468229D01*
X286800Y458558D02*
X281196Y449642D01*
D13*
X275386Y471266D02*
X275240Y471430D01*
D12*
X233817Y493176D01*
X280905Y449711D01*
X275386Y471266D01*
X286964Y458323D02*
X288390Y456058D01*
X290298Y457394D02*
X287266Y458339D01*
X298243Y469147D02*
X308176Y461366D01*
X298243Y469147D02*
X290949Y457669D01*
X343566Y468404D02*
X405386Y477648D01*
X358194Y490716D01*
X357880Y490719D02*
X343294Y468470D01*
X357880Y490719D02*
X328710Y490737D01*
X343294Y468470D01*
X268607Y497325D02*
X241570Y495246D01*
X275105Y471848D01*
X359257Y490904D02*
X411200Y486287D01*
X422496Y500328D02*
X359257Y490904D01*
X359778Y491248D02*
X433342Y514425D01*
X448186Y533885D02*
X359875Y491555D01*
X359037Y491600D02*
X457134Y554031D01*
X408376Y542310D02*
X359037Y491600D01*
X239776Y505562D02*
X236180Y507104D01*
X239776Y505562D02*
X242898Y500363D01*
X241093Y495465D01*
X233023Y493901D01*
X227581Y498309D01*
X228877Y504014D01*
X231462Y506599D01*
X236106Y507115D01*
X226845Y498323D02*
X211867Y496545D01*
X213645Y502892D02*
X226845Y498323D01*
X213645Y502892D02*
X203999Y503908D01*
X243435Y500466D02*
X268411Y497632D01*
X257064Y508951D02*
X243435Y500466D01*
X228594Y503961D02*
X214328Y502934D01*
X213672Y503165D02*
X219220Y505540D01*
X213672Y503165D02*
X184875Y514473D01*
X219752Y505683D02*
X228298Y504289D01*
X219382Y511718D01*
X219752Y505683D01*
X219479Y505810D02*
X207364Y512896D01*
X240088Y505847D02*
X243644Y514229D01*
X240088Y505847D02*
X256598Y509149D01*
X206756Y512946D02*
X184324Y514891D01*
X218736Y505940D01*
X219731Y511943D02*
X231333Y506900D01*
X234360Y513711D01*
X234743Y513748D02*
X236238Y507512D01*
X243223Y514245D01*
X189526Y510575D02*
X175016Y520079D01*
X164227Y518508D02*
X154310Y524950D01*
X164227Y518508D02*
X174678Y520291D01*
X212092Y496240D02*
X232695Y493663D01*
X298243Y469147D02*
X328345Y490340D01*
X243620Y514520D02*
X234743Y513748D01*
X219228Y512150D01*
M02*
