G04 EAGLE Gerber RS-274X export*
G75*
%MOMM*%
%FSLAX34Y34*%
%LPD*%
%INBottom Copper*%
%IPPOS*%
%AMOC8*
5,1,8,0,0,1.08239X$1,22.5*%
G01*
%ADD10R,1.050000X1.050000*%
%ADD11C,1.050000*%
%ADD12C,1.524000*%
%ADD13P,1.924489X8X292.500000*%
%ADD14P,1.924489X8X112.500000*%
%ADD15P,1.924489X8X22.500000*%
%ADD16P,1.924489X8X202.500000*%
%ADD17C,1.219200*%
%ADD18R,2.540000X2.540000*%
%ADD19C,2.705100*%
%ADD20C,0.654800*%
%ADD21C,0.685800*%
%ADD22C,0.200000*%
%ADD23C,0.254000*%
%ADD24C,0.508000*%

G36*
X848146Y1791D02*
X848146Y1791D01*
X848245Y1794D01*
X848303Y1811D01*
X848364Y1819D01*
X848456Y1855D01*
X848551Y1883D01*
X848603Y1913D01*
X848659Y1936D01*
X848739Y1994D01*
X848825Y2044D01*
X848900Y2110D01*
X848917Y2122D01*
X848924Y2132D01*
X848945Y2150D01*
X860898Y14103D01*
X860958Y14181D01*
X861026Y14253D01*
X861055Y14306D01*
X861092Y14354D01*
X861132Y14445D01*
X861180Y14531D01*
X861195Y14590D01*
X861219Y14646D01*
X861234Y14744D01*
X861259Y14839D01*
X861265Y14939D01*
X861269Y14960D01*
X861267Y14972D01*
X861269Y15000D01*
X861269Y31405D01*
X861257Y31503D01*
X861254Y31603D01*
X861237Y31661D01*
X861229Y31721D01*
X861193Y31813D01*
X861165Y31908D01*
X861135Y31960D01*
X861112Y32016D01*
X861054Y32097D01*
X861004Y32182D01*
X860938Y32257D01*
X860926Y32274D01*
X860916Y32282D01*
X860897Y32303D01*
X860251Y32949D01*
X857960Y38481D01*
X857960Y71519D01*
X860251Y77051D01*
X860897Y77697D01*
X860958Y77775D01*
X861026Y77848D01*
X861055Y77901D01*
X861092Y77948D01*
X861132Y78039D01*
X861180Y78126D01*
X861195Y78185D01*
X861219Y78240D01*
X861234Y78338D01*
X861259Y78434D01*
X861265Y78534D01*
X861269Y78554D01*
X861267Y78567D01*
X861269Y78595D01*
X861269Y79253D01*
X861252Y79390D01*
X861239Y79529D01*
X861232Y79548D01*
X861229Y79568D01*
X861178Y79697D01*
X861131Y79828D01*
X861120Y79845D01*
X861112Y79864D01*
X861031Y79976D01*
X860953Y80091D01*
X860937Y80105D01*
X860926Y80121D01*
X860818Y80210D01*
X860714Y80302D01*
X860696Y80311D01*
X860681Y80324D01*
X860555Y80383D01*
X860431Y80447D01*
X860411Y80451D01*
X860393Y80460D01*
X860257Y80486D01*
X860121Y80516D01*
X860100Y80516D01*
X860081Y80519D01*
X859942Y80511D01*
X859803Y80507D01*
X859783Y80501D01*
X859763Y80500D01*
X859631Y80457D01*
X859497Y80418D01*
X859480Y80408D01*
X859461Y80402D01*
X859343Y80327D01*
X859223Y80257D01*
X859202Y80238D01*
X859192Y80231D01*
X859178Y80217D01*
X859103Y80150D01*
X852170Y73218D01*
X852110Y73140D01*
X852042Y73068D01*
X852013Y73015D01*
X851976Y72967D01*
X851936Y72876D01*
X851888Y72789D01*
X851873Y72731D01*
X851849Y72675D01*
X851834Y72577D01*
X851809Y72481D01*
X851803Y72381D01*
X851799Y72361D01*
X851801Y72349D01*
X851799Y72321D01*
X851799Y70012D01*
X848988Y67201D01*
X845012Y67201D01*
X842201Y70012D01*
X842201Y73988D01*
X845012Y76799D01*
X847321Y76799D01*
X847419Y76811D01*
X847518Y76814D01*
X847576Y76831D01*
X847636Y76839D01*
X847728Y76875D01*
X847823Y76903D01*
X847876Y76933D01*
X847932Y76956D01*
X848012Y77014D01*
X848097Y77064D01*
X848173Y77130D01*
X848189Y77142D01*
X848197Y77152D01*
X848218Y77170D01*
X860898Y89850D01*
X860958Y89928D01*
X861026Y90000D01*
X861055Y90053D01*
X861092Y90101D01*
X861132Y90192D01*
X861180Y90279D01*
X861195Y90337D01*
X861219Y90393D01*
X861234Y90491D01*
X861259Y90587D01*
X861265Y90687D01*
X861269Y90707D01*
X861267Y90719D01*
X861269Y90747D01*
X861269Y200000D01*
X861257Y200098D01*
X861254Y200197D01*
X861237Y200255D01*
X861229Y200316D01*
X861193Y200408D01*
X861165Y200503D01*
X861135Y200555D01*
X861112Y200611D01*
X861054Y200691D01*
X861004Y200777D01*
X860938Y200852D01*
X860926Y200869D01*
X860916Y200876D01*
X860898Y200898D01*
X852961Y208834D01*
X852883Y208894D01*
X852811Y208962D01*
X852758Y208991D01*
X852710Y209028D01*
X852619Y209068D01*
X852533Y209116D01*
X852474Y209131D01*
X852418Y209155D01*
X852320Y209170D01*
X852225Y209195D01*
X852125Y209201D01*
X852104Y209205D01*
X852092Y209203D01*
X852064Y209205D01*
X739517Y209205D01*
X739419Y209193D01*
X739320Y209190D01*
X739262Y209173D01*
X739202Y209165D01*
X739110Y209129D01*
X739015Y209101D01*
X738963Y209071D01*
X738906Y209048D01*
X738826Y208990D01*
X738741Y208940D01*
X738665Y208874D01*
X738649Y208862D01*
X738641Y208852D01*
X738620Y208834D01*
X736988Y207201D01*
X733012Y207201D01*
X730316Y209898D01*
X730238Y209958D01*
X730166Y210026D01*
X730113Y210055D01*
X730065Y210092D01*
X729974Y210132D01*
X729887Y210180D01*
X729829Y210195D01*
X729773Y210219D01*
X729675Y210234D01*
X729579Y210259D01*
X729479Y210265D01*
X729459Y210269D01*
X729447Y210267D01*
X729419Y210269D01*
X702334Y210269D01*
X702216Y210254D01*
X702097Y210247D01*
X702059Y210234D01*
X702018Y210229D01*
X701908Y210186D01*
X701795Y210149D01*
X701760Y210127D01*
X701723Y210112D01*
X701627Y210043D01*
X701526Y209979D01*
X701498Y209949D01*
X701465Y209926D01*
X701389Y209834D01*
X701308Y209747D01*
X701288Y209712D01*
X701263Y209681D01*
X701212Y209573D01*
X701154Y209469D01*
X701144Y209429D01*
X701127Y209393D01*
X701105Y209276D01*
X701075Y209161D01*
X701071Y209101D01*
X701067Y209081D01*
X701069Y209060D01*
X701065Y209000D01*
X701065Y185915D01*
X701082Y185778D01*
X701095Y185639D01*
X701102Y185620D01*
X701105Y185600D01*
X701156Y185471D01*
X701203Y185340D01*
X701214Y185323D01*
X701222Y185304D01*
X701303Y185192D01*
X701381Y185077D01*
X701397Y185063D01*
X701408Y185047D01*
X701516Y184958D01*
X701620Y184866D01*
X701638Y184857D01*
X701653Y184844D01*
X701779Y184785D01*
X701903Y184722D01*
X701923Y184717D01*
X701941Y184708D01*
X702077Y184682D01*
X702213Y184652D01*
X702234Y184653D01*
X702253Y184649D01*
X702392Y184657D01*
X702531Y184662D01*
X702551Y184667D01*
X702571Y184668D01*
X702703Y184711D01*
X702837Y184750D01*
X702854Y184760D01*
X702873Y184766D01*
X702991Y184841D01*
X703111Y184912D01*
X703132Y184930D01*
X703142Y184937D01*
X703156Y184952D01*
X703231Y185018D01*
X705012Y186799D01*
X708988Y186799D01*
X711799Y183988D01*
X711799Y180012D01*
X708988Y177201D01*
X705012Y177201D01*
X703231Y178982D01*
X703122Y179067D01*
X703015Y179156D01*
X702996Y179165D01*
X702980Y179177D01*
X702852Y179232D01*
X702727Y179292D01*
X702707Y179295D01*
X702688Y179303D01*
X702550Y179325D01*
X702414Y179351D01*
X702394Y179350D01*
X702374Y179353D01*
X702235Y179340D01*
X702097Y179332D01*
X702078Y179325D01*
X702058Y179323D01*
X701926Y179276D01*
X701795Y179234D01*
X701777Y179223D01*
X701758Y179216D01*
X701643Y179138D01*
X701526Y179063D01*
X701512Y179049D01*
X701495Y179037D01*
X701403Y178933D01*
X701308Y178832D01*
X701298Y178814D01*
X701285Y178799D01*
X701221Y178675D01*
X701154Y178553D01*
X701149Y178534D01*
X701140Y178516D01*
X701110Y178380D01*
X701075Y178245D01*
X701073Y178217D01*
X701070Y178205D01*
X701071Y178185D01*
X701065Y178085D01*
X701065Y152247D01*
X701077Y152149D01*
X701080Y152050D01*
X701097Y151992D01*
X701105Y151932D01*
X701141Y151840D01*
X701169Y151745D01*
X701199Y151692D01*
X701222Y151636D01*
X701280Y151556D01*
X701330Y151471D01*
X701396Y151396D01*
X701408Y151379D01*
X701418Y151371D01*
X701437Y151350D01*
X701799Y150988D01*
X701799Y147012D01*
X698988Y144201D01*
X695012Y144201D01*
X692201Y147012D01*
X692201Y150988D01*
X692563Y151350D01*
X692624Y151428D01*
X692692Y151500D01*
X692721Y151553D01*
X692758Y151601D01*
X692798Y151692D01*
X692846Y151779D01*
X692861Y151837D01*
X692885Y151893D01*
X692900Y151991D01*
X692925Y152087D01*
X692931Y152187D01*
X692935Y152207D01*
X692933Y152219D01*
X692935Y152247D01*
X692935Y204791D01*
X692923Y204889D01*
X692920Y204988D01*
X692903Y205046D01*
X692895Y205106D01*
X692859Y205198D01*
X692831Y205293D01*
X692801Y205345D01*
X692778Y205402D01*
X692720Y205482D01*
X692670Y205567D01*
X692604Y205643D01*
X692592Y205659D01*
X692582Y205667D01*
X692564Y205688D01*
X688354Y209898D01*
X688276Y209958D01*
X688204Y210026D01*
X688151Y210055D01*
X688103Y210092D01*
X688012Y210132D01*
X687925Y210180D01*
X687867Y210195D01*
X687811Y210219D01*
X687713Y210234D01*
X687617Y210259D01*
X687517Y210265D01*
X687497Y210269D01*
X687485Y210267D01*
X687457Y210269D01*
X579964Y210269D01*
X579846Y210254D01*
X579727Y210247D01*
X579689Y210234D01*
X579648Y210229D01*
X579538Y210186D01*
X579425Y210149D01*
X579390Y210127D01*
X579353Y210112D01*
X579257Y210043D01*
X579156Y209979D01*
X579128Y209949D01*
X579095Y209926D01*
X579019Y209834D01*
X578938Y209747D01*
X578918Y209712D01*
X578893Y209681D01*
X578842Y209573D01*
X578784Y209469D01*
X578774Y209429D01*
X578757Y209393D01*
X578735Y209276D01*
X578705Y209161D01*
X578701Y209101D01*
X578697Y209081D01*
X578699Y209060D01*
X578695Y209000D01*
X578695Y188742D01*
X569170Y179218D01*
X569110Y179140D01*
X569042Y179068D01*
X569013Y179015D01*
X568976Y178967D01*
X568936Y178876D01*
X568888Y178789D01*
X568873Y178731D01*
X568849Y178675D01*
X568834Y178577D01*
X568809Y178481D01*
X568803Y178381D01*
X568799Y178361D01*
X568801Y178349D01*
X568799Y178321D01*
X568799Y176012D01*
X565988Y173201D01*
X562012Y173201D01*
X559201Y176012D01*
X559201Y179988D01*
X562012Y182799D01*
X564321Y182799D01*
X564419Y182811D01*
X564518Y182814D01*
X564576Y182831D01*
X564636Y182839D01*
X564728Y182875D01*
X564823Y182903D01*
X564876Y182933D01*
X564932Y182956D01*
X565012Y183014D01*
X565097Y183064D01*
X565173Y183130D01*
X565189Y183142D01*
X565197Y183152D01*
X565218Y183170D01*
X572734Y190686D01*
X572794Y190764D01*
X572862Y190836D01*
X572891Y190889D01*
X572928Y190937D01*
X572968Y191028D01*
X573016Y191115D01*
X573031Y191173D01*
X573055Y191229D01*
X573070Y191327D01*
X573095Y191423D01*
X573101Y191523D01*
X573105Y191543D01*
X573103Y191555D01*
X573105Y191583D01*
X573105Y209000D01*
X573090Y209118D01*
X573083Y209237D01*
X573070Y209275D01*
X573065Y209316D01*
X573022Y209426D01*
X572985Y209539D01*
X572963Y209574D01*
X572948Y209611D01*
X572879Y209707D01*
X572815Y209808D01*
X572785Y209836D01*
X572762Y209869D01*
X572670Y209945D01*
X572583Y210026D01*
X572548Y210046D01*
X572517Y210071D01*
X572409Y210122D01*
X572305Y210180D01*
X572265Y210190D01*
X572229Y210207D01*
X572112Y210229D01*
X571997Y210259D01*
X571937Y210263D01*
X571917Y210267D01*
X571896Y210265D01*
X571836Y210269D01*
X551000Y210269D01*
X550902Y210257D01*
X550803Y210254D01*
X550745Y210237D01*
X550684Y210229D01*
X550592Y210193D01*
X550497Y210165D01*
X550445Y210135D01*
X550389Y210112D01*
X550309Y210054D01*
X550223Y210004D01*
X550148Y209938D01*
X550131Y209926D01*
X550124Y209916D01*
X550103Y209898D01*
X533166Y192961D01*
X533081Y192852D01*
X532993Y192745D01*
X532984Y192726D01*
X532972Y192710D01*
X532916Y192582D01*
X532857Y192457D01*
X532853Y192437D01*
X532845Y192418D01*
X532823Y192280D01*
X532797Y192144D01*
X532799Y192124D01*
X532795Y192104D01*
X532808Y191965D01*
X532817Y191827D01*
X532823Y191808D01*
X532825Y191788D01*
X532872Y191656D01*
X532915Y191525D01*
X532926Y191507D01*
X532933Y191488D01*
X533011Y191373D01*
X533085Y191256D01*
X533100Y191242D01*
X533111Y191225D01*
X533215Y191133D01*
X533317Y191038D01*
X533335Y191028D01*
X533350Y191015D01*
X533474Y190951D01*
X533595Y190884D01*
X533615Y190879D01*
X533633Y190870D01*
X533769Y190840D01*
X533903Y190805D01*
X533931Y190803D01*
X533943Y190800D01*
X533964Y190801D01*
X534064Y190795D01*
X540358Y190795D01*
X542366Y188786D01*
X561114Y170038D01*
X561209Y169965D01*
X561298Y169886D01*
X561334Y169868D01*
X561366Y169843D01*
X561475Y169796D01*
X561581Y169742D01*
X561620Y169733D01*
X561657Y169717D01*
X561775Y169698D01*
X561891Y169672D01*
X561932Y169673D01*
X561972Y169667D01*
X562090Y169678D01*
X562209Y169682D01*
X562248Y169693D01*
X562288Y169697D01*
X562400Y169737D01*
X562515Y169770D01*
X562549Y169791D01*
X562587Y169804D01*
X562686Y169871D01*
X562788Y169932D01*
X562834Y169971D01*
X562851Y169983D01*
X562864Y169998D01*
X562909Y170038D01*
X563086Y170215D01*
X571714Y170215D01*
X577815Y164114D01*
X577815Y155486D01*
X571714Y149385D01*
X563086Y149385D01*
X556985Y155486D01*
X556985Y164114D01*
X557162Y164291D01*
X557235Y164385D01*
X557314Y164474D01*
X557332Y164510D01*
X557357Y164542D01*
X557404Y164651D01*
X557458Y164757D01*
X557467Y164797D01*
X557483Y164834D01*
X557502Y164952D01*
X557528Y165068D01*
X557527Y165108D01*
X557533Y165148D01*
X557522Y165267D01*
X557518Y165385D01*
X557507Y165424D01*
X557503Y165465D01*
X557463Y165577D01*
X557430Y165691D01*
X557409Y165726D01*
X557396Y165764D01*
X557329Y165862D01*
X557268Y165965D01*
X557229Y166010D01*
X557217Y166027D01*
X557202Y166040D01*
X557162Y166086D01*
X538414Y184834D01*
X538336Y184894D01*
X538264Y184962D01*
X538211Y184991D01*
X538163Y185028D01*
X538072Y185068D01*
X537985Y185116D01*
X537927Y185131D01*
X537871Y185155D01*
X537773Y185170D01*
X537677Y185195D01*
X537577Y185201D01*
X537557Y185205D01*
X537545Y185203D01*
X537517Y185205D01*
X525936Y185205D01*
X525838Y185193D01*
X525739Y185190D01*
X525681Y185173D01*
X525620Y185165D01*
X525528Y185129D01*
X525433Y185101D01*
X525381Y185071D01*
X525325Y185048D01*
X525245Y184990D01*
X525159Y184940D01*
X525084Y184874D01*
X525067Y184862D01*
X525060Y184852D01*
X525039Y184834D01*
X523876Y183671D01*
X523803Y183577D01*
X523724Y183488D01*
X523706Y183452D01*
X523681Y183420D01*
X523634Y183311D01*
X523580Y183205D01*
X523571Y183165D01*
X523555Y183128D01*
X523536Y183010D01*
X523510Y182894D01*
X523511Y182854D01*
X523505Y182814D01*
X523516Y182695D01*
X523520Y182576D01*
X523531Y182538D01*
X523535Y182497D01*
X523575Y182385D01*
X523608Y182271D01*
X523629Y182236D01*
X523642Y182198D01*
X523709Y182100D01*
X523770Y181997D01*
X523810Y181952D01*
X523821Y181935D01*
X523836Y181921D01*
X523876Y181876D01*
X535714Y170038D01*
X535809Y169965D01*
X535898Y169886D01*
X535934Y169868D01*
X535966Y169843D01*
X536075Y169796D01*
X536181Y169742D01*
X536220Y169733D01*
X536257Y169717D01*
X536375Y169698D01*
X536491Y169672D01*
X536532Y169673D01*
X536572Y169667D01*
X536691Y169678D01*
X536809Y169682D01*
X536848Y169693D01*
X536888Y169697D01*
X537000Y169737D01*
X537115Y169770D01*
X537149Y169791D01*
X537187Y169804D01*
X537286Y169871D01*
X537389Y169932D01*
X537434Y169971D01*
X537451Y169983D01*
X537464Y169998D01*
X537509Y170038D01*
X537686Y170215D01*
X546314Y170215D01*
X552415Y164114D01*
X552415Y155486D01*
X546314Y149385D01*
X537686Y149385D01*
X531585Y155486D01*
X531585Y164114D01*
X531762Y164291D01*
X531835Y164385D01*
X531914Y164474D01*
X531932Y164510D01*
X531957Y164542D01*
X532004Y164651D01*
X532058Y164757D01*
X532067Y164797D01*
X532083Y164834D01*
X532102Y164952D01*
X532128Y165067D01*
X532127Y165108D01*
X532133Y165148D01*
X532122Y165266D01*
X532118Y165385D01*
X532107Y165424D01*
X532103Y165464D01*
X532063Y165576D01*
X532030Y165691D01*
X532009Y165726D01*
X531996Y165764D01*
X531929Y165862D01*
X531868Y165965D01*
X531829Y166010D01*
X531817Y166027D01*
X531802Y166040D01*
X531762Y166086D01*
X520898Y176950D01*
X520788Y177035D01*
X520681Y177124D01*
X520662Y177133D01*
X520646Y177145D01*
X520518Y177201D01*
X520393Y177260D01*
X520373Y177263D01*
X520354Y177271D01*
X520216Y177293D01*
X520081Y177319D01*
X520060Y177318D01*
X520040Y177321D01*
X519901Y177308D01*
X519763Y177300D01*
X519744Y177293D01*
X519724Y177291D01*
X519592Y177244D01*
X519461Y177202D01*
X519443Y177191D01*
X519424Y177184D01*
X519309Y177106D01*
X519192Y177031D01*
X519178Y177017D01*
X519161Y177005D01*
X519069Y176901D01*
X518974Y176800D01*
X518964Y176782D01*
X518951Y176767D01*
X518887Y176643D01*
X518820Y176521D01*
X518815Y176502D01*
X518806Y176484D01*
X518776Y176348D01*
X518741Y176213D01*
X518739Y176185D01*
X518737Y176173D01*
X518737Y176153D01*
X518731Y176053D01*
X518731Y171484D01*
X518746Y171366D01*
X518753Y171247D01*
X518766Y171209D01*
X518771Y171168D01*
X518814Y171058D01*
X518851Y170945D01*
X518873Y170910D01*
X518888Y170873D01*
X518958Y170777D01*
X519021Y170676D01*
X519051Y170648D01*
X519074Y170615D01*
X519166Y170539D01*
X519253Y170458D01*
X519288Y170438D01*
X519319Y170413D01*
X519427Y170362D01*
X519531Y170304D01*
X519571Y170294D01*
X519607Y170277D01*
X519724Y170255D01*
X519839Y170225D01*
X519900Y170221D01*
X519920Y170217D01*
X519940Y170219D01*
X520000Y170215D01*
X520914Y170215D01*
X527015Y164114D01*
X527015Y155486D01*
X520914Y149385D01*
X520000Y149385D01*
X519882Y149370D01*
X519763Y149363D01*
X519725Y149350D01*
X519684Y149345D01*
X519574Y149302D01*
X519461Y149265D01*
X519426Y149243D01*
X519389Y149228D01*
X519293Y149159D01*
X519192Y149095D01*
X519164Y149065D01*
X519131Y149042D01*
X519056Y148950D01*
X518974Y148863D01*
X518954Y148828D01*
X518929Y148797D01*
X518878Y148689D01*
X518820Y148585D01*
X518810Y148545D01*
X518793Y148509D01*
X518771Y148392D01*
X518741Y148277D01*
X518737Y148217D01*
X518733Y148197D01*
X518735Y148176D01*
X518731Y148116D01*
X518731Y104620D01*
X518732Y104611D01*
X518731Y104602D01*
X518752Y104453D01*
X518771Y104305D01*
X518774Y104296D01*
X518775Y104287D01*
X518827Y104135D01*
X519775Y101848D01*
X519775Y99152D01*
X518827Y96865D01*
X518825Y96856D01*
X518820Y96848D01*
X518783Y96703D01*
X518743Y96559D01*
X518743Y96549D01*
X518741Y96540D01*
X518731Y96380D01*
X518731Y32620D01*
X518732Y32611D01*
X518731Y32602D01*
X518752Y32453D01*
X518771Y32305D01*
X518774Y32296D01*
X518775Y32287D01*
X518827Y32135D01*
X519775Y29848D01*
X519775Y27152D01*
X518827Y24865D01*
X518825Y24856D01*
X518820Y24848D01*
X518783Y24703D01*
X518743Y24559D01*
X518743Y24549D01*
X518741Y24540D01*
X518731Y24380D01*
X518731Y3048D01*
X518746Y2930D01*
X518753Y2811D01*
X518766Y2773D01*
X518771Y2732D01*
X518814Y2622D01*
X518851Y2509D01*
X518873Y2474D01*
X518888Y2437D01*
X518958Y2341D01*
X519021Y2240D01*
X519051Y2212D01*
X519074Y2179D01*
X519166Y2103D01*
X519253Y2022D01*
X519288Y2002D01*
X519319Y1977D01*
X519427Y1926D01*
X519531Y1868D01*
X519571Y1858D01*
X519607Y1841D01*
X519724Y1819D01*
X519839Y1789D01*
X519900Y1785D01*
X519920Y1781D01*
X519940Y1783D01*
X520000Y1779D01*
X848048Y1779D01*
X848146Y1791D01*
G37*
G36*
X692098Y427743D02*
X692098Y427743D01*
X692197Y427746D01*
X692255Y427763D01*
X692316Y427771D01*
X692408Y427807D01*
X692503Y427835D01*
X692555Y427865D01*
X692611Y427888D01*
X692691Y427946D01*
X692777Y427996D01*
X692852Y428062D01*
X692869Y428074D01*
X692876Y428084D01*
X692898Y428103D01*
X717898Y453103D01*
X717958Y453181D01*
X718026Y453253D01*
X718055Y453306D01*
X718092Y453354D01*
X718132Y453445D01*
X718180Y453531D01*
X718195Y453590D01*
X718219Y453646D01*
X718234Y453744D01*
X718259Y453839D01*
X718265Y453939D01*
X718269Y453960D01*
X718267Y453972D01*
X718269Y454000D01*
X718269Y637000D01*
X718254Y637118D01*
X718247Y637237D01*
X718234Y637275D01*
X718229Y637316D01*
X718186Y637426D01*
X718149Y637539D01*
X718127Y637574D01*
X718112Y637611D01*
X718043Y637707D01*
X717979Y637808D01*
X717949Y637836D01*
X717926Y637869D01*
X717834Y637945D01*
X717747Y638026D01*
X717712Y638046D01*
X717681Y638071D01*
X717573Y638122D01*
X717469Y638180D01*
X717429Y638190D01*
X717393Y638207D01*
X717276Y638229D01*
X717161Y638259D01*
X717101Y638263D01*
X717081Y638267D01*
X717060Y638265D01*
X717000Y638269D01*
X641000Y638269D01*
X640902Y638257D01*
X640803Y638254D01*
X640745Y638237D01*
X640684Y638229D01*
X640592Y638193D01*
X640497Y638165D01*
X640445Y638135D01*
X640389Y638112D01*
X640309Y638054D01*
X640223Y638004D01*
X640148Y637938D01*
X640131Y637926D01*
X640124Y637916D01*
X640103Y637898D01*
X636103Y633898D01*
X636042Y633819D01*
X635974Y633747D01*
X635945Y633694D01*
X635908Y633646D01*
X635868Y633555D01*
X635820Y633469D01*
X635805Y633410D01*
X635781Y633354D01*
X635766Y633256D01*
X635741Y633161D01*
X635735Y633061D01*
X635731Y633040D01*
X635733Y633028D01*
X635731Y633000D01*
X635731Y590581D01*
X635748Y590443D01*
X635761Y590305D01*
X635768Y590286D01*
X635771Y590266D01*
X635822Y590137D01*
X635869Y590006D01*
X635880Y589989D01*
X635888Y589970D01*
X635969Y589858D01*
X636047Y589743D01*
X636063Y589729D01*
X636074Y589713D01*
X636182Y589624D01*
X636286Y589532D01*
X636304Y589523D01*
X636319Y589510D01*
X636445Y589451D01*
X636569Y589388D01*
X636589Y589383D01*
X636607Y589375D01*
X636744Y589348D01*
X636879Y589318D01*
X636900Y589319D01*
X636920Y589315D01*
X637058Y589323D01*
X637197Y589328D01*
X637217Y589333D01*
X637237Y589334D01*
X637369Y589377D01*
X637503Y589416D01*
X637520Y589426D01*
X637539Y589433D01*
X637657Y589507D01*
X637777Y589578D01*
X637798Y589596D01*
X637808Y589603D01*
X637822Y589618D01*
X637898Y589684D01*
X639012Y590799D01*
X642988Y590799D01*
X645799Y587988D01*
X645799Y584012D01*
X642988Y581201D01*
X639012Y581201D01*
X637898Y582316D01*
X637788Y582401D01*
X637681Y582490D01*
X637662Y582499D01*
X637646Y582511D01*
X637519Y582566D01*
X637393Y582625D01*
X637373Y582629D01*
X637354Y582637D01*
X637216Y582659D01*
X637081Y582685D01*
X637060Y582684D01*
X637040Y582687D01*
X636901Y582674D01*
X636763Y582666D01*
X636744Y582659D01*
X636724Y582657D01*
X636592Y582610D01*
X636461Y582567D01*
X636443Y582557D01*
X636424Y582550D01*
X636309Y582472D01*
X636192Y582397D01*
X636178Y582383D01*
X636161Y582371D01*
X636069Y582267D01*
X635974Y582166D01*
X635964Y582148D01*
X635951Y582133D01*
X635887Y582009D01*
X635820Y581887D01*
X635815Y581868D01*
X635806Y581850D01*
X635776Y581714D01*
X635741Y581579D01*
X635739Y581551D01*
X635737Y581539D01*
X635737Y581519D01*
X635731Y581419D01*
X635731Y553526D01*
X635366Y553161D01*
X635306Y553083D01*
X635238Y553011D01*
X635209Y552958D01*
X635172Y552910D01*
X635132Y552819D01*
X635084Y552733D01*
X635069Y552674D01*
X635045Y552618D01*
X635030Y552520D01*
X635005Y552425D01*
X634999Y552325D01*
X634995Y552304D01*
X634997Y552292D01*
X634995Y552264D01*
X634995Y540042D01*
X613158Y518205D01*
X601517Y518205D01*
X601419Y518193D01*
X601320Y518190D01*
X601262Y518173D01*
X601202Y518165D01*
X601110Y518129D01*
X601015Y518101D01*
X600963Y518071D01*
X600906Y518048D01*
X600826Y517990D01*
X600741Y517940D01*
X600665Y517874D01*
X600649Y517862D01*
X600641Y517852D01*
X600620Y517834D01*
X598988Y516201D01*
X595012Y516201D01*
X592201Y519012D01*
X592201Y522988D01*
X595012Y525799D01*
X598988Y525799D01*
X600620Y524166D01*
X600698Y524106D01*
X600770Y524038D01*
X600823Y524009D01*
X600871Y523972D01*
X600962Y523932D01*
X601049Y523884D01*
X601107Y523869D01*
X601163Y523845D01*
X601261Y523830D01*
X601357Y523805D01*
X601457Y523799D01*
X601477Y523795D01*
X601489Y523797D01*
X601517Y523795D01*
X610317Y523795D01*
X610415Y523807D01*
X610514Y523810D01*
X610572Y523827D01*
X610632Y523835D01*
X610724Y523871D01*
X610819Y523899D01*
X610872Y523929D01*
X610928Y523952D01*
X611008Y524010D01*
X611093Y524060D01*
X611169Y524126D01*
X611185Y524138D01*
X611193Y524148D01*
X611214Y524166D01*
X614086Y527039D01*
X614171Y527148D01*
X614260Y527255D01*
X614269Y527274D01*
X614281Y527290D01*
X614337Y527418D01*
X614396Y527543D01*
X614399Y527563D01*
X614407Y527582D01*
X614429Y527720D01*
X614455Y527856D01*
X614454Y527876D01*
X614457Y527896D01*
X614444Y528035D01*
X614436Y528173D01*
X614429Y528192D01*
X614428Y528212D01*
X614380Y528344D01*
X614338Y528475D01*
X614327Y528493D01*
X614320Y528512D01*
X614242Y528627D01*
X614167Y528744D01*
X614153Y528758D01*
X614141Y528775D01*
X614037Y528867D01*
X613936Y528962D01*
X613918Y528972D01*
X613903Y528985D01*
X613779Y529049D01*
X613657Y529116D01*
X613638Y529121D01*
X613620Y529130D01*
X613484Y529160D01*
X613349Y529195D01*
X613321Y529197D01*
X613309Y529200D01*
X613289Y529199D01*
X613189Y529205D01*
X552683Y529205D01*
X552585Y529193D01*
X552486Y529190D01*
X552428Y529173D01*
X552368Y529165D01*
X552276Y529129D01*
X552181Y529101D01*
X552128Y529071D01*
X552072Y529048D01*
X551992Y528990D01*
X551907Y528940D01*
X551831Y528874D01*
X551815Y528862D01*
X551807Y528852D01*
X551786Y528834D01*
X549166Y526214D01*
X549106Y526136D01*
X549038Y526064D01*
X549009Y526011D01*
X548972Y525963D01*
X548932Y525872D01*
X548884Y525785D01*
X548869Y525727D01*
X548845Y525671D01*
X548830Y525573D01*
X548805Y525477D01*
X548799Y525377D01*
X548795Y525357D01*
X548797Y525345D01*
X548795Y525317D01*
X548795Y523645D01*
X548812Y523508D01*
X548825Y523369D01*
X548832Y523350D01*
X548835Y523330D01*
X548886Y523201D01*
X548933Y523070D01*
X548944Y523053D01*
X548952Y523034D01*
X549033Y522922D01*
X549111Y522807D01*
X549127Y522793D01*
X549138Y522777D01*
X549246Y522688D01*
X549350Y522596D01*
X549368Y522587D01*
X549383Y522574D01*
X549509Y522515D01*
X549633Y522452D01*
X549653Y522447D01*
X549671Y522438D01*
X549807Y522412D01*
X549943Y522382D01*
X549964Y522383D01*
X549983Y522379D01*
X550122Y522387D01*
X550261Y522392D01*
X550281Y522397D01*
X550301Y522398D01*
X550433Y522441D01*
X550567Y522480D01*
X550584Y522490D01*
X550603Y522496D01*
X550721Y522571D01*
X550841Y522642D01*
X550862Y522660D01*
X550872Y522667D01*
X550886Y522682D01*
X550961Y522748D01*
X554012Y525799D01*
X557988Y525799D01*
X560799Y522988D01*
X560799Y519012D01*
X557988Y516201D01*
X554012Y516201D01*
X552965Y517248D01*
X552856Y517333D01*
X552749Y517422D01*
X552730Y517431D01*
X552714Y517443D01*
X552587Y517498D01*
X552461Y517558D01*
X552441Y517561D01*
X552422Y517569D01*
X552284Y517591D01*
X552148Y517617D01*
X552128Y517616D01*
X552108Y517619D01*
X551969Y517606D01*
X551831Y517598D01*
X551812Y517591D01*
X551792Y517589D01*
X551660Y517542D01*
X551529Y517500D01*
X551511Y517489D01*
X551492Y517482D01*
X551377Y517404D01*
X551260Y517329D01*
X551246Y517315D01*
X551229Y517303D01*
X551137Y517199D01*
X551042Y517098D01*
X551032Y517080D01*
X551019Y517065D01*
X550955Y516941D01*
X550888Y516819D01*
X550883Y516800D01*
X550874Y516782D01*
X550844Y516646D01*
X550809Y516511D01*
X550807Y516483D01*
X550804Y516471D01*
X550805Y516451D01*
X550799Y516351D01*
X550799Y514012D01*
X547988Y511201D01*
X544012Y511201D01*
X541201Y514012D01*
X541201Y517988D01*
X542834Y519620D01*
X542894Y519698D01*
X542962Y519770D01*
X542991Y519823D01*
X543028Y519871D01*
X543068Y519962D01*
X543116Y520049D01*
X543131Y520107D01*
X543155Y520163D01*
X543170Y520261D01*
X543195Y520357D01*
X543201Y520457D01*
X543205Y520477D01*
X543203Y520489D01*
X543205Y520517D01*
X543205Y528158D01*
X547834Y532786D01*
X549086Y534039D01*
X549171Y534148D01*
X549260Y534255D01*
X549269Y534274D01*
X549281Y534290D01*
X549336Y534417D01*
X549396Y534543D01*
X549399Y534563D01*
X549407Y534582D01*
X549429Y534720D01*
X549455Y534856D01*
X549454Y534876D01*
X549457Y534896D01*
X549444Y535035D01*
X549436Y535173D01*
X549429Y535192D01*
X549428Y535212D01*
X549380Y535344D01*
X549338Y535475D01*
X549327Y535493D01*
X549320Y535512D01*
X549242Y535627D01*
X549167Y535744D01*
X549153Y535758D01*
X549141Y535775D01*
X549037Y535867D01*
X548936Y535962D01*
X548918Y535972D01*
X548903Y535985D01*
X548779Y536048D01*
X548657Y536116D01*
X548638Y536121D01*
X548620Y536130D01*
X548484Y536160D01*
X548349Y536195D01*
X548321Y536197D01*
X548309Y536200D01*
X548289Y536199D01*
X548189Y536205D01*
X514517Y536205D01*
X514419Y536193D01*
X514320Y536190D01*
X514262Y536173D01*
X514202Y536165D01*
X514110Y536129D01*
X514015Y536101D01*
X513963Y536071D01*
X513906Y536048D01*
X513826Y535990D01*
X513741Y535940D01*
X513665Y535874D01*
X513649Y535862D01*
X513641Y535852D01*
X513620Y535834D01*
X511988Y534201D01*
X510000Y534201D01*
X509882Y534186D01*
X509763Y534179D01*
X509725Y534166D01*
X509684Y534161D01*
X509574Y534118D01*
X509461Y534081D01*
X509426Y534059D01*
X509389Y534044D01*
X509293Y533975D01*
X509192Y533911D01*
X509164Y533881D01*
X509131Y533858D01*
X509056Y533766D01*
X508974Y533679D01*
X508954Y533644D01*
X508929Y533613D01*
X508878Y533505D01*
X508820Y533401D01*
X508810Y533361D01*
X508793Y533325D01*
X508771Y533208D01*
X508741Y533093D01*
X508737Y533033D01*
X508733Y533013D01*
X508735Y532992D01*
X508731Y532932D01*
X508731Y504747D01*
X508743Y504649D01*
X508746Y504550D01*
X508763Y504492D01*
X508771Y504432D01*
X508807Y504340D01*
X508835Y504245D01*
X508865Y504192D01*
X508888Y504136D01*
X508946Y504056D01*
X508996Y503971D01*
X509062Y503895D01*
X509074Y503879D01*
X509084Y503871D01*
X509103Y503850D01*
X514782Y498170D01*
X514860Y498110D01*
X514932Y498042D01*
X514985Y498013D01*
X515033Y497976D01*
X515124Y497936D01*
X515211Y497888D01*
X515269Y497873D01*
X515325Y497849D01*
X515423Y497834D01*
X515519Y497809D01*
X515619Y497803D01*
X515639Y497799D01*
X515651Y497801D01*
X515679Y497799D01*
X517988Y497799D01*
X520799Y494988D01*
X520799Y491012D01*
X517988Y488201D01*
X514012Y488201D01*
X510898Y491316D01*
X510788Y491401D01*
X510681Y491490D01*
X510662Y491499D01*
X510646Y491511D01*
X510518Y491566D01*
X510393Y491625D01*
X510373Y491629D01*
X510354Y491637D01*
X510216Y491659D01*
X510081Y491685D01*
X510060Y491684D01*
X510040Y491687D01*
X509901Y491674D01*
X509763Y491666D01*
X509744Y491659D01*
X509724Y491657D01*
X509592Y491610D01*
X509461Y491567D01*
X509443Y491557D01*
X509424Y491550D01*
X509309Y491472D01*
X509192Y491397D01*
X509178Y491383D01*
X509161Y491371D01*
X509069Y491267D01*
X508974Y491166D01*
X508964Y491148D01*
X508951Y491133D01*
X508887Y491009D01*
X508820Y490887D01*
X508815Y490868D01*
X508806Y490850D01*
X508776Y490714D01*
X508741Y490579D01*
X508739Y490551D01*
X508737Y490539D01*
X508737Y490519D01*
X508731Y490419D01*
X508731Y457000D01*
X508743Y456902D01*
X508746Y456803D01*
X508763Y456745D01*
X508771Y456684D01*
X508807Y456592D01*
X508835Y456497D01*
X508865Y456445D01*
X508888Y456389D01*
X508946Y456309D01*
X508996Y456223D01*
X509062Y456148D01*
X509074Y456131D01*
X509084Y456124D01*
X509103Y456103D01*
X537103Y428103D01*
X537181Y428042D01*
X537253Y427974D01*
X537306Y427945D01*
X537354Y427908D01*
X537445Y427868D01*
X537531Y427820D01*
X537590Y427805D01*
X537646Y427781D01*
X537744Y427766D01*
X537839Y427741D01*
X537939Y427735D01*
X537960Y427731D01*
X537972Y427733D01*
X538000Y427731D01*
X692000Y427731D01*
X692098Y427743D01*
G37*
G36*
X338098Y401743D02*
X338098Y401743D01*
X338197Y401746D01*
X338255Y401763D01*
X338316Y401771D01*
X338408Y401807D01*
X338503Y401835D01*
X338555Y401865D01*
X338611Y401888D01*
X338691Y401946D01*
X338777Y401996D01*
X338852Y402062D01*
X338869Y402074D01*
X338876Y402084D01*
X338898Y402103D01*
X346524Y409729D01*
X346597Y409823D01*
X346676Y409912D01*
X346694Y409948D01*
X346719Y409980D01*
X346766Y410089D01*
X346820Y410195D01*
X346829Y410235D01*
X346845Y410272D01*
X346864Y410390D01*
X346890Y410506D01*
X346889Y410546D01*
X346895Y410586D01*
X346884Y410705D01*
X346880Y410824D01*
X346869Y410862D01*
X346865Y410903D01*
X346825Y411015D01*
X346792Y411129D01*
X346771Y411164D01*
X346758Y411202D01*
X346691Y411300D01*
X346630Y411403D01*
X346590Y411448D01*
X346579Y411465D01*
X346564Y411479D01*
X346524Y411524D01*
X345781Y412266D01*
X345781Y443932D01*
X345766Y444050D01*
X345759Y444169D01*
X345746Y444207D01*
X345741Y444248D01*
X345698Y444358D01*
X345661Y444471D01*
X345639Y444506D01*
X345624Y444543D01*
X345555Y444639D01*
X345491Y444740D01*
X345461Y444768D01*
X345438Y444801D01*
X345346Y444877D01*
X345259Y444958D01*
X345224Y444978D01*
X345193Y445003D01*
X345085Y445054D01*
X344981Y445112D01*
X344941Y445122D01*
X344905Y445139D01*
X344788Y445161D01*
X344673Y445191D01*
X344613Y445195D01*
X344593Y445199D01*
X344572Y445197D01*
X344512Y445201D01*
X340012Y445201D01*
X337201Y448012D01*
X337201Y451988D01*
X340012Y454799D01*
X344185Y454799D01*
X344322Y454816D01*
X344461Y454829D01*
X344480Y454836D01*
X344500Y454839D01*
X344629Y454890D01*
X344760Y454937D01*
X344777Y454948D01*
X344796Y454956D01*
X344908Y455037D01*
X345023Y455115D01*
X345037Y455131D01*
X345053Y455142D01*
X345142Y455250D01*
X345234Y455354D01*
X345243Y455372D01*
X345256Y455387D01*
X345315Y455513D01*
X345379Y455637D01*
X345383Y455657D01*
X345392Y455675D01*
X345418Y455811D01*
X345448Y455947D01*
X345448Y455968D01*
X345451Y455987D01*
X345443Y456126D01*
X345439Y456265D01*
X345433Y456285D01*
X345432Y456305D01*
X345389Y456437D01*
X345350Y456571D01*
X345340Y456588D01*
X345334Y456607D01*
X345259Y456725D01*
X345189Y456845D01*
X345170Y456866D01*
X345163Y456876D01*
X345149Y456890D01*
X345082Y456965D01*
X321214Y480834D01*
X321136Y480894D01*
X321064Y480962D01*
X321011Y480991D01*
X320963Y481028D01*
X320872Y481068D01*
X320785Y481116D01*
X320727Y481131D01*
X320671Y481155D01*
X320573Y481170D01*
X320477Y481195D01*
X320377Y481201D01*
X320357Y481205D01*
X320345Y481203D01*
X320317Y481205D01*
X289842Y481205D01*
X275218Y495830D01*
X275140Y495890D01*
X275068Y495958D01*
X275015Y495987D01*
X274967Y496024D01*
X274876Y496064D01*
X274789Y496112D01*
X274731Y496127D01*
X274675Y496151D01*
X274577Y496166D01*
X274481Y496191D01*
X274381Y496197D01*
X274361Y496201D01*
X274349Y496199D01*
X274321Y496201D01*
X272012Y496201D01*
X269201Y499012D01*
X269201Y502988D01*
X272012Y505799D01*
X275988Y505799D01*
X278603Y503184D01*
X278697Y503111D01*
X278786Y503032D01*
X278822Y503014D01*
X278854Y502989D01*
X278963Y502942D01*
X279069Y502888D01*
X279108Y502879D01*
X279146Y502863D01*
X279263Y502844D01*
X279379Y502818D01*
X279420Y502819D01*
X279460Y502813D01*
X279578Y502824D01*
X279697Y502828D01*
X279736Y502839D01*
X279776Y502843D01*
X279889Y502883D01*
X280003Y502916D01*
X280038Y502936D01*
X280076Y502950D01*
X280174Y503017D01*
X280277Y503078D01*
X280322Y503117D01*
X280339Y503129D01*
X280352Y503144D01*
X280398Y503184D01*
X283012Y505799D01*
X283485Y505799D01*
X283622Y505816D01*
X283761Y505829D01*
X283780Y505836D01*
X283800Y505839D01*
X283929Y505890D01*
X284060Y505937D01*
X284077Y505948D01*
X284096Y505956D01*
X284208Y506037D01*
X284323Y506115D01*
X284337Y506131D01*
X284353Y506142D01*
X284442Y506250D01*
X284534Y506354D01*
X284543Y506372D01*
X284556Y506387D01*
X284615Y506513D01*
X284678Y506637D01*
X284683Y506657D01*
X284691Y506675D01*
X284718Y506811D01*
X284748Y506947D01*
X284747Y506968D01*
X284751Y506987D01*
X284743Y507126D01*
X284738Y507265D01*
X284733Y507285D01*
X284732Y507305D01*
X284689Y507437D01*
X284650Y507571D01*
X284640Y507588D01*
X284633Y507607D01*
X284559Y507725D01*
X284488Y507845D01*
X284470Y507866D01*
X284463Y507876D01*
X284454Y507885D01*
X284453Y507887D01*
X284445Y507894D01*
X284382Y507965D01*
X270450Y521898D01*
X270372Y521958D01*
X270300Y522026D01*
X270247Y522055D01*
X270199Y522092D01*
X270108Y522132D01*
X270021Y522180D01*
X269963Y522195D01*
X269907Y522219D01*
X269809Y522234D01*
X269713Y522259D01*
X269613Y522265D01*
X269593Y522269D01*
X269581Y522267D01*
X269553Y522269D01*
X200000Y522269D01*
X199902Y522257D01*
X199803Y522254D01*
X199745Y522237D01*
X199684Y522229D01*
X199592Y522193D01*
X199497Y522165D01*
X199445Y522135D01*
X199389Y522112D01*
X199309Y522054D01*
X199223Y522004D01*
X199148Y521938D01*
X199131Y521926D01*
X199124Y521916D01*
X199103Y521898D01*
X183476Y506271D01*
X183403Y506177D01*
X183324Y506088D01*
X183306Y506052D01*
X183281Y506020D01*
X183234Y505911D01*
X183180Y505805D01*
X183171Y505765D01*
X183155Y505728D01*
X183136Y505610D01*
X183110Y505494D01*
X183111Y505454D01*
X183105Y505414D01*
X183116Y505295D01*
X183120Y505176D01*
X183131Y505138D01*
X183135Y505097D01*
X183175Y504985D01*
X183208Y504871D01*
X183229Y504836D01*
X183242Y504798D01*
X183309Y504700D01*
X183370Y504597D01*
X183410Y504552D01*
X183421Y504535D01*
X183436Y504521D01*
X183476Y504476D01*
X183795Y504158D01*
X183795Y493517D01*
X183807Y493419D01*
X183810Y493320D01*
X183827Y493262D01*
X183835Y493202D01*
X183871Y493110D01*
X183899Y493015D01*
X183929Y492963D01*
X183952Y492906D01*
X184010Y492826D01*
X184060Y492741D01*
X184126Y492665D01*
X184138Y492649D01*
X184148Y492641D01*
X184166Y492620D01*
X185799Y490988D01*
X185799Y487012D01*
X182988Y484201D01*
X179012Y484201D01*
X176201Y487012D01*
X176201Y490988D01*
X177834Y492620D01*
X177894Y492698D01*
X177962Y492770D01*
X177991Y492823D01*
X178028Y492871D01*
X178068Y492962D01*
X178116Y493049D01*
X178131Y493107D01*
X178155Y493163D01*
X178170Y493261D01*
X178195Y493357D01*
X178201Y493457D01*
X178205Y493477D01*
X178203Y493489D01*
X178205Y493517D01*
X178205Y497936D01*
X178188Y498074D01*
X178175Y498212D01*
X178168Y498231D01*
X178165Y498252D01*
X178114Y498381D01*
X178067Y498512D01*
X178056Y498528D01*
X178048Y498547D01*
X177967Y498660D01*
X177889Y498775D01*
X177873Y498788D01*
X177862Y498805D01*
X177754Y498893D01*
X177650Y498985D01*
X177632Y498994D01*
X177617Y499007D01*
X177491Y499067D01*
X177367Y499130D01*
X177347Y499134D01*
X177329Y499143D01*
X177193Y499169D01*
X177057Y499200D01*
X177036Y499199D01*
X177017Y499203D01*
X176878Y499194D01*
X176739Y499190D01*
X176719Y499184D01*
X176699Y499183D01*
X176567Y499140D01*
X176433Y499101D01*
X176416Y499091D01*
X176397Y499085D01*
X176279Y499011D01*
X176159Y498940D01*
X176138Y498921D01*
X176128Y498915D01*
X176114Y498900D01*
X176039Y498834D01*
X170166Y492961D01*
X170106Y492883D01*
X170038Y492811D01*
X170009Y492758D01*
X169972Y492710D01*
X169932Y492619D01*
X169884Y492533D01*
X169869Y492474D01*
X169845Y492418D01*
X169830Y492320D01*
X169805Y492225D01*
X169799Y492125D01*
X169795Y492104D01*
X169797Y492092D01*
X169795Y492064D01*
X169795Y489517D01*
X169807Y489419D01*
X169810Y489320D01*
X169827Y489262D01*
X169835Y489202D01*
X169871Y489110D01*
X169899Y489015D01*
X169929Y488963D01*
X169952Y488906D01*
X170010Y488826D01*
X170060Y488741D01*
X170126Y488665D01*
X170138Y488649D01*
X170148Y488641D01*
X170166Y488620D01*
X171799Y486988D01*
X171799Y483012D01*
X168988Y480201D01*
X167000Y480201D01*
X166882Y480186D01*
X166763Y480179D01*
X166725Y480166D01*
X166684Y480161D01*
X166574Y480118D01*
X166461Y480081D01*
X166426Y480059D01*
X166389Y480044D01*
X166293Y479975D01*
X166192Y479911D01*
X166164Y479881D01*
X166131Y479858D01*
X166056Y479766D01*
X165974Y479679D01*
X165954Y479644D01*
X165929Y479613D01*
X165878Y479505D01*
X165820Y479401D01*
X165810Y479361D01*
X165793Y479325D01*
X165771Y479208D01*
X165741Y479093D01*
X165737Y479033D01*
X165733Y479013D01*
X165735Y478992D01*
X165731Y478932D01*
X165731Y424000D01*
X165743Y423902D01*
X165746Y423803D01*
X165763Y423745D01*
X165771Y423684D01*
X165807Y423592D01*
X165835Y423497D01*
X165865Y423445D01*
X165888Y423389D01*
X165946Y423309D01*
X165996Y423223D01*
X166062Y423148D01*
X166074Y423131D01*
X166084Y423124D01*
X166103Y423103D01*
X179103Y410103D01*
X179181Y410042D01*
X179253Y409974D01*
X179306Y409945D01*
X179354Y409908D01*
X179445Y409868D01*
X179531Y409820D01*
X179590Y409805D01*
X179646Y409781D01*
X179744Y409766D01*
X179839Y409741D01*
X179939Y409735D01*
X179960Y409731D01*
X179972Y409733D01*
X180000Y409731D01*
X224419Y409731D01*
X224517Y409743D01*
X224616Y409746D01*
X224674Y409763D01*
X224734Y409771D01*
X224826Y409807D01*
X224921Y409835D01*
X224973Y409865D01*
X225030Y409888D01*
X225110Y409946D01*
X225195Y409996D01*
X225271Y410062D01*
X225287Y410074D01*
X225295Y410084D01*
X225316Y410103D01*
X226012Y410799D01*
X229988Y410799D01*
X230684Y410103D01*
X230762Y410042D01*
X230834Y409974D01*
X230887Y409945D01*
X230935Y409908D01*
X231026Y409868D01*
X231113Y409820D01*
X231171Y409805D01*
X231227Y409781D01*
X231325Y409766D01*
X231421Y409741D01*
X231521Y409735D01*
X231541Y409731D01*
X231553Y409733D01*
X231581Y409731D01*
X233474Y409731D01*
X241103Y402103D01*
X241181Y402042D01*
X241253Y401974D01*
X241306Y401945D01*
X241354Y401908D01*
X241445Y401868D01*
X241531Y401820D01*
X241590Y401805D01*
X241646Y401781D01*
X241744Y401766D01*
X241839Y401741D01*
X241939Y401735D01*
X241960Y401731D01*
X241972Y401733D01*
X242000Y401731D01*
X338000Y401731D01*
X338098Y401743D01*
G37*
G36*
X898118Y331746D02*
X898118Y331746D01*
X898237Y331753D01*
X898275Y331766D01*
X898316Y331771D01*
X898426Y331814D01*
X898539Y331851D01*
X898574Y331873D01*
X898611Y331888D01*
X898707Y331958D01*
X898808Y332021D01*
X898836Y332051D01*
X898869Y332074D01*
X898945Y332166D01*
X899026Y332253D01*
X899046Y332288D01*
X899071Y332319D01*
X899122Y332427D01*
X899180Y332531D01*
X899190Y332571D01*
X899207Y332607D01*
X899229Y332724D01*
X899259Y332839D01*
X899263Y332900D01*
X899267Y332920D01*
X899265Y332940D01*
X899269Y333000D01*
X899269Y390419D01*
X899252Y390556D01*
X899239Y390695D01*
X899232Y390714D01*
X899229Y390734D01*
X899178Y390863D01*
X899131Y390994D01*
X899120Y391011D01*
X899112Y391030D01*
X899031Y391142D01*
X898953Y391257D01*
X898937Y391271D01*
X898926Y391287D01*
X898818Y391376D01*
X898714Y391468D01*
X898696Y391477D01*
X898681Y391490D01*
X898555Y391549D01*
X898431Y391612D01*
X898411Y391617D01*
X898393Y391625D01*
X898257Y391652D01*
X898121Y391682D01*
X898100Y391681D01*
X898081Y391685D01*
X897942Y391677D01*
X897803Y391672D01*
X897783Y391667D01*
X897763Y391666D01*
X897631Y391623D01*
X897497Y391584D01*
X897480Y391574D01*
X897461Y391567D01*
X897343Y391493D01*
X897223Y391422D01*
X897202Y391404D01*
X897192Y391397D01*
X897178Y391382D01*
X897103Y391316D01*
X896988Y391201D01*
X893012Y391201D01*
X890201Y394012D01*
X890201Y397988D01*
X893012Y400799D01*
X896988Y400799D01*
X897103Y400684D01*
X897212Y400599D01*
X897319Y400510D01*
X897338Y400501D01*
X897354Y400489D01*
X897482Y400434D01*
X897607Y400375D01*
X897627Y400371D01*
X897646Y400363D01*
X897784Y400341D01*
X897920Y400315D01*
X897940Y400316D01*
X897960Y400313D01*
X898099Y400326D01*
X898237Y400334D01*
X898256Y400341D01*
X898276Y400343D01*
X898408Y400390D01*
X898539Y400433D01*
X898557Y400443D01*
X898576Y400450D01*
X898691Y400528D01*
X898808Y400603D01*
X898822Y400617D01*
X898839Y400629D01*
X898931Y400733D01*
X899026Y400834D01*
X899036Y400852D01*
X899049Y400867D01*
X899113Y400991D01*
X899180Y401113D01*
X899185Y401132D01*
X899194Y401150D01*
X899224Y401286D01*
X899259Y401421D01*
X899261Y401449D01*
X899264Y401461D01*
X899263Y401481D01*
X899269Y401581D01*
X899269Y425000D01*
X899257Y425098D01*
X899254Y425197D01*
X899237Y425255D01*
X899229Y425316D01*
X899193Y425408D01*
X899165Y425503D01*
X899135Y425555D01*
X899112Y425611D01*
X899054Y425691D01*
X899004Y425777D01*
X898938Y425852D01*
X898926Y425869D01*
X898916Y425876D01*
X898898Y425898D01*
X867898Y456898D01*
X867819Y456958D01*
X867747Y457026D01*
X867694Y457055D01*
X867646Y457092D01*
X867555Y457132D01*
X867469Y457180D01*
X867410Y457195D01*
X867354Y457219D01*
X867256Y457234D01*
X867161Y457259D01*
X867061Y457265D01*
X867040Y457269D01*
X867028Y457267D01*
X867000Y457269D01*
X801000Y457269D01*
X800902Y457257D01*
X800803Y457254D01*
X800745Y457237D01*
X800684Y457229D01*
X800592Y457193D01*
X800497Y457165D01*
X800445Y457135D01*
X800389Y457112D01*
X800309Y457054D01*
X800223Y457004D01*
X800148Y456938D01*
X800131Y456926D01*
X800124Y456916D01*
X800103Y456898D01*
X799103Y455898D01*
X799042Y455819D01*
X798974Y455747D01*
X798945Y455694D01*
X798908Y455646D01*
X798868Y455555D01*
X798820Y455469D01*
X798805Y455410D01*
X798781Y455354D01*
X798766Y455256D01*
X798741Y455161D01*
X798735Y455061D01*
X798731Y455040D01*
X798733Y455028D01*
X798731Y455000D01*
X798731Y420000D01*
X798743Y419902D01*
X798746Y419803D01*
X798763Y419745D01*
X798771Y419684D01*
X798807Y419592D01*
X798835Y419497D01*
X798865Y419445D01*
X798888Y419389D01*
X798946Y419309D01*
X798996Y419223D01*
X799062Y419148D01*
X799074Y419131D01*
X799084Y419124D01*
X799103Y419103D01*
X800103Y418103D01*
X800181Y418042D01*
X800253Y417974D01*
X800306Y417945D01*
X800354Y417908D01*
X800445Y417868D01*
X800531Y417820D01*
X800590Y417805D01*
X800646Y417781D01*
X800744Y417766D01*
X800839Y417741D01*
X800939Y417735D01*
X800960Y417731D01*
X800972Y417733D01*
X801000Y417731D01*
X847474Y417731D01*
X859731Y405474D01*
X859731Y333000D01*
X859746Y332882D01*
X859753Y332763D01*
X859766Y332725D01*
X859771Y332684D01*
X859814Y332574D01*
X859851Y332461D01*
X859873Y332426D01*
X859888Y332389D01*
X859958Y332293D01*
X860021Y332192D01*
X860051Y332164D01*
X860074Y332131D01*
X860166Y332056D01*
X860253Y331974D01*
X860288Y331954D01*
X860319Y331929D01*
X860427Y331878D01*
X860531Y331820D01*
X860571Y331810D01*
X860607Y331793D01*
X860724Y331771D01*
X860839Y331741D01*
X860900Y331737D01*
X860920Y331733D01*
X860940Y331735D01*
X861000Y331731D01*
X898000Y331731D01*
X898118Y331746D01*
G37*
G36*
X321054Y216746D02*
X321054Y216746D01*
X321173Y216753D01*
X321211Y216766D01*
X321252Y216771D01*
X321362Y216814D01*
X321475Y216851D01*
X321510Y216873D01*
X321547Y216888D01*
X321643Y216958D01*
X321744Y217021D01*
X321772Y217051D01*
X321805Y217074D01*
X321881Y217166D01*
X321962Y217253D01*
X321982Y217288D01*
X322007Y217319D01*
X322058Y217427D01*
X322116Y217531D01*
X322126Y217571D01*
X322143Y217607D01*
X322165Y217724D01*
X322195Y217839D01*
X322199Y217900D01*
X322203Y217920D01*
X322201Y217940D01*
X322205Y218000D01*
X322205Y281000D01*
X322190Y281118D01*
X322183Y281237D01*
X322170Y281275D01*
X322165Y281316D01*
X322122Y281426D01*
X322085Y281539D01*
X322063Y281574D01*
X322048Y281611D01*
X321979Y281707D01*
X321915Y281808D01*
X321885Y281836D01*
X321862Y281869D01*
X321770Y281945D01*
X321683Y282026D01*
X321648Y282046D01*
X321617Y282071D01*
X321509Y282122D01*
X321405Y282180D01*
X321365Y282190D01*
X321329Y282207D01*
X321212Y282229D01*
X321097Y282259D01*
X321037Y282263D01*
X321017Y282267D01*
X320996Y282265D01*
X320936Y282269D01*
X315747Y282269D01*
X315649Y282257D01*
X315550Y282254D01*
X315492Y282237D01*
X315432Y282229D01*
X315340Y282193D01*
X315245Y282165D01*
X315192Y282135D01*
X315136Y282112D01*
X315056Y282054D01*
X314971Y282004D01*
X314895Y281938D01*
X314879Y281926D01*
X314871Y281916D01*
X314850Y281898D01*
X281166Y248214D01*
X281106Y248136D01*
X281038Y248064D01*
X281009Y248011D01*
X280972Y247963D01*
X280932Y247872D01*
X280884Y247785D01*
X280869Y247727D01*
X280845Y247671D01*
X280830Y247573D01*
X280805Y247477D01*
X280799Y247377D01*
X280795Y247357D01*
X280797Y247345D01*
X280795Y247317D01*
X280795Y218000D01*
X280810Y217882D01*
X280817Y217763D01*
X280830Y217725D01*
X280835Y217684D01*
X280878Y217574D01*
X280915Y217461D01*
X280937Y217426D01*
X280952Y217389D01*
X281021Y217293D01*
X281085Y217192D01*
X281115Y217164D01*
X281138Y217131D01*
X281230Y217056D01*
X281317Y216974D01*
X281352Y216954D01*
X281383Y216929D01*
X281491Y216878D01*
X281595Y216820D01*
X281635Y216810D01*
X281671Y216793D01*
X281788Y216771D01*
X281903Y216741D01*
X281963Y216737D01*
X281983Y216733D01*
X282004Y216735D01*
X282064Y216731D01*
X320936Y216731D01*
X321054Y216746D01*
G37*
%LPC*%
G36*
X750464Y57221D02*
X750464Y57221D01*
X743929Y59928D01*
X738928Y64929D01*
X736221Y71464D01*
X736221Y78536D01*
X738928Y85071D01*
X743929Y90072D01*
X750464Y92779D01*
X757536Y92779D01*
X764071Y90072D01*
X769072Y85071D01*
X771779Y78536D01*
X771779Y71464D01*
X769072Y64929D01*
X764071Y59928D01*
X757536Y57221D01*
X750464Y57221D01*
G37*
%LPD*%
%LPC*%
G36*
X576012Y137201D02*
X576012Y137201D01*
X573201Y140012D01*
X573201Y143988D01*
X576012Y146799D01*
X579988Y146799D01*
X581620Y145166D01*
X581698Y145106D01*
X581770Y145038D01*
X581823Y145009D01*
X581871Y144972D01*
X581962Y144932D01*
X582049Y144884D01*
X582107Y144869D01*
X582163Y144845D01*
X582261Y144830D01*
X582357Y144805D01*
X582457Y144799D01*
X582477Y144795D01*
X582489Y144797D01*
X582517Y144795D01*
X617483Y144795D01*
X617581Y144807D01*
X617680Y144810D01*
X617738Y144827D01*
X617798Y144835D01*
X617890Y144871D01*
X617985Y144899D01*
X618037Y144929D01*
X618094Y144952D01*
X618174Y145010D01*
X618259Y145060D01*
X618335Y145126D01*
X618351Y145138D01*
X618359Y145148D01*
X618380Y145166D01*
X620012Y146799D01*
X623988Y146799D01*
X626799Y143988D01*
X626799Y140012D01*
X623988Y137201D01*
X620012Y137201D01*
X618380Y138834D01*
X618302Y138894D01*
X618230Y138962D01*
X618177Y138991D01*
X618129Y139028D01*
X618038Y139068D01*
X617951Y139116D01*
X617893Y139131D01*
X617837Y139155D01*
X617739Y139170D01*
X617643Y139195D01*
X617543Y139201D01*
X617523Y139205D01*
X617511Y139203D01*
X617483Y139205D01*
X582517Y139205D01*
X582419Y139193D01*
X582320Y139190D01*
X582262Y139173D01*
X582202Y139165D01*
X582110Y139129D01*
X582015Y139101D01*
X581963Y139071D01*
X581906Y139048D01*
X581826Y138990D01*
X581741Y138940D01*
X581665Y138874D01*
X581649Y138862D01*
X581641Y138852D01*
X581620Y138834D01*
X579988Y137201D01*
X576012Y137201D01*
G37*
%LPD*%
%LPC*%
G36*
X704012Y104201D02*
X704012Y104201D01*
X701201Y107012D01*
X701201Y110988D01*
X704012Y113799D01*
X707988Y113799D01*
X710603Y111184D01*
X710697Y111111D01*
X710786Y111032D01*
X710822Y111014D01*
X710854Y110989D01*
X710963Y110942D01*
X711069Y110888D01*
X711108Y110879D01*
X711146Y110863D01*
X711263Y110844D01*
X711379Y110818D01*
X711420Y110819D01*
X711460Y110813D01*
X711578Y110824D01*
X711697Y110828D01*
X711736Y110839D01*
X711776Y110843D01*
X711889Y110883D01*
X712003Y110916D01*
X712038Y110936D01*
X712076Y110950D01*
X712174Y111017D01*
X712277Y111078D01*
X712322Y111117D01*
X712339Y111129D01*
X712352Y111144D01*
X712398Y111184D01*
X715012Y113799D01*
X718988Y113799D01*
X721799Y110988D01*
X721799Y107012D01*
X718988Y104201D01*
X715012Y104201D01*
X712398Y106816D01*
X712303Y106889D01*
X712214Y106968D01*
X712178Y106986D01*
X712146Y107011D01*
X712037Y107058D01*
X711931Y107112D01*
X711892Y107121D01*
X711854Y107137D01*
X711737Y107156D01*
X711621Y107182D01*
X711580Y107181D01*
X711540Y107187D01*
X711422Y107176D01*
X711303Y107172D01*
X711264Y107161D01*
X711224Y107157D01*
X711111Y107117D01*
X710997Y107084D01*
X710963Y107063D01*
X710924Y107050D01*
X710826Y106983D01*
X710723Y106922D01*
X710678Y106883D01*
X710661Y106871D01*
X710648Y106856D01*
X710603Y106816D01*
X707988Y104201D01*
X704012Y104201D01*
G37*
%LPD*%
%LPC*%
G36*
X629352Y93525D02*
X629352Y93525D01*
X626862Y94557D01*
X624957Y96462D01*
X623925Y98952D01*
X623925Y101648D01*
X624957Y104138D01*
X626862Y106043D01*
X629352Y107075D01*
X632048Y107075D01*
X634538Y106043D01*
X636443Y104138D01*
X637475Y101648D01*
X637475Y98952D01*
X636443Y96462D01*
X634538Y94557D01*
X632048Y93525D01*
X629352Y93525D01*
G37*
%LPD*%
%LPC*%
G36*
X609352Y22325D02*
X609352Y22325D01*
X606862Y23357D01*
X604957Y25262D01*
X603925Y27752D01*
X603925Y30448D01*
X604957Y32938D01*
X606862Y34843D01*
X609352Y35875D01*
X612048Y35875D01*
X614538Y34843D01*
X616443Y32938D01*
X617475Y30448D01*
X617475Y27752D01*
X616443Y25262D01*
X614538Y23357D01*
X612048Y22325D01*
X609352Y22325D01*
G37*
%LPD*%
%LPC*%
G36*
X531652Y21725D02*
X531652Y21725D01*
X529162Y22757D01*
X527257Y24662D01*
X526225Y27152D01*
X526225Y29848D01*
X527257Y32338D01*
X529162Y34243D01*
X531652Y35275D01*
X534348Y35275D01*
X536838Y34243D01*
X538743Y32338D01*
X539775Y29848D01*
X539775Y27152D01*
X538743Y24662D01*
X536838Y22757D01*
X534348Y21725D01*
X531652Y21725D01*
G37*
%LPD*%
%LPC*%
G36*
X649352Y93525D02*
X649352Y93525D01*
X646862Y94557D01*
X644957Y96462D01*
X643925Y98952D01*
X643925Y101648D01*
X644957Y104138D01*
X646862Y106043D01*
X649352Y107075D01*
X652048Y107075D01*
X654538Y106043D01*
X656443Y104138D01*
X657475Y101648D01*
X657475Y98952D01*
X656443Y96462D01*
X654538Y94557D01*
X652048Y93525D01*
X649352Y93525D01*
G37*
%LPD*%
%LPC*%
G36*
X609352Y93525D02*
X609352Y93525D01*
X606862Y94557D01*
X604957Y96462D01*
X603925Y98952D01*
X603925Y101648D01*
X604957Y104138D01*
X606862Y106043D01*
X609352Y107075D01*
X612048Y107075D01*
X614538Y106043D01*
X616443Y104138D01*
X617475Y101648D01*
X617475Y98952D01*
X616443Y96462D01*
X614538Y94557D01*
X612048Y93525D01*
X609352Y93525D01*
G37*
%LPD*%
%LPC*%
G36*
X629352Y22325D02*
X629352Y22325D01*
X626862Y23357D01*
X624957Y25262D01*
X623925Y27752D01*
X623925Y30448D01*
X624957Y32938D01*
X626862Y34843D01*
X629352Y35875D01*
X632048Y35875D01*
X634538Y34843D01*
X636443Y32938D01*
X637475Y30448D01*
X637475Y27752D01*
X636443Y25262D01*
X634538Y23357D01*
X632048Y22325D01*
X629352Y22325D01*
G37*
%LPD*%
%LPC*%
G36*
X649352Y22325D02*
X649352Y22325D01*
X646862Y23357D01*
X644957Y25262D01*
X643925Y27752D01*
X643925Y30448D01*
X644957Y32938D01*
X646862Y34843D01*
X649352Y35875D01*
X652048Y35875D01*
X654538Y34843D01*
X656443Y32938D01*
X657475Y30448D01*
X657475Y27752D01*
X656443Y25262D01*
X654538Y23357D01*
X652048Y22325D01*
X649352Y22325D01*
G37*
%LPD*%
%LPC*%
G36*
X531652Y93725D02*
X531652Y93725D01*
X529162Y94757D01*
X527257Y96662D01*
X526225Y99152D01*
X526225Y101848D01*
X527257Y104338D01*
X529162Y106243D01*
X531652Y107275D01*
X534348Y107275D01*
X536838Y106243D01*
X538743Y104338D01*
X539775Y101848D01*
X539775Y99152D01*
X538743Y96662D01*
X536838Y94757D01*
X534348Y93725D01*
X531652Y93725D01*
G37*
%LPD*%
%LPC*%
G36*
X765012Y156201D02*
X765012Y156201D01*
X762201Y159012D01*
X762201Y162988D01*
X765012Y165799D01*
X768988Y165799D01*
X771799Y162988D01*
X771799Y159012D01*
X768988Y156201D01*
X765012Y156201D01*
G37*
%LPD*%
%LPC*%
G36*
X785012Y156201D02*
X785012Y156201D01*
X782201Y159012D01*
X782201Y162988D01*
X785012Y165799D01*
X788988Y165799D01*
X791799Y162988D01*
X791799Y159012D01*
X788988Y156201D01*
X785012Y156201D01*
G37*
%LPD*%
%LPC*%
G36*
X593012Y151201D02*
X593012Y151201D01*
X590201Y154012D01*
X590201Y157988D01*
X593012Y160799D01*
X596988Y160799D01*
X599799Y157988D01*
X599799Y154012D01*
X596988Y151201D01*
X593012Y151201D01*
G37*
%LPD*%
%LPC*%
G36*
X677012Y164201D02*
X677012Y164201D01*
X674201Y167012D01*
X674201Y170988D01*
X677012Y173799D01*
X680988Y173799D01*
X683799Y170988D01*
X683799Y167012D01*
X680988Y164201D01*
X677012Y164201D01*
G37*
%LPD*%
%LPC*%
G36*
X740012Y134201D02*
X740012Y134201D01*
X737201Y137012D01*
X737201Y140988D01*
X740012Y143799D01*
X743988Y143799D01*
X746799Y140988D01*
X746799Y137012D01*
X743988Y134201D01*
X740012Y134201D01*
G37*
%LPD*%
%LPC*%
G36*
X823012Y115201D02*
X823012Y115201D01*
X820201Y118012D01*
X820201Y121988D01*
X823012Y124799D01*
X826988Y124799D01*
X829799Y121988D01*
X829799Y118012D01*
X826988Y115201D01*
X823012Y115201D01*
G37*
%LPD*%
%LPC*%
G36*
X781012Y105201D02*
X781012Y105201D01*
X778201Y108012D01*
X778201Y111988D01*
X781012Y114799D01*
X784988Y114799D01*
X787799Y111988D01*
X787799Y108012D01*
X784988Y105201D01*
X781012Y105201D01*
G37*
%LPD*%
%LPC*%
G36*
X618012Y473201D02*
X618012Y473201D01*
X615201Y476012D01*
X615201Y479988D01*
X618012Y482799D01*
X621988Y482799D01*
X624799Y479988D01*
X624799Y476012D01*
X621988Y473201D01*
X618012Y473201D01*
G37*
%LPD*%
%LPC*%
G36*
X599012Y474201D02*
X599012Y474201D01*
X596201Y477012D01*
X596201Y480988D01*
X599012Y483799D01*
X602988Y483799D01*
X605799Y480988D01*
X605799Y477012D01*
X602988Y474201D01*
X599012Y474201D01*
G37*
%LPD*%
%LPC*%
G36*
X787012Y52201D02*
X787012Y52201D01*
X784201Y55012D01*
X784201Y58988D01*
X787012Y61799D01*
X790988Y61799D01*
X793799Y58988D01*
X793799Y55012D01*
X790988Y52201D01*
X787012Y52201D01*
G37*
%LPD*%
%LPC*%
G36*
X708012Y475201D02*
X708012Y475201D01*
X705201Y478012D01*
X705201Y481988D01*
X708012Y484799D01*
X711988Y484799D01*
X714799Y481988D01*
X714799Y478012D01*
X711988Y475201D01*
X708012Y475201D01*
G37*
%LPD*%
%LPC*%
G36*
X648012Y61201D02*
X648012Y61201D01*
X645201Y64012D01*
X645201Y67988D01*
X648012Y70799D01*
X651988Y70799D01*
X654799Y67988D01*
X654799Y64012D01*
X651988Y61201D01*
X648012Y61201D01*
G37*
%LPD*%
%LPC*%
G36*
X686012Y475201D02*
X686012Y475201D01*
X683201Y478012D01*
X683201Y481988D01*
X686012Y484799D01*
X689988Y484799D01*
X692799Y481988D01*
X692799Y478012D01*
X689988Y475201D01*
X686012Y475201D01*
G37*
%LPD*%
%LPC*%
G36*
X233012Y495201D02*
X233012Y495201D01*
X230201Y498012D01*
X230201Y501988D01*
X233012Y504799D01*
X236988Y504799D01*
X239799Y501988D01*
X239799Y498012D01*
X236988Y495201D01*
X233012Y495201D01*
G37*
%LPD*%
%LPC*%
G36*
X671012Y532201D02*
X671012Y532201D01*
X668201Y535012D01*
X668201Y538988D01*
X671012Y541799D01*
X674988Y541799D01*
X677799Y538988D01*
X677799Y535012D01*
X674988Y532201D01*
X671012Y532201D01*
G37*
%LPD*%
%LPC*%
G36*
X706012Y554201D02*
X706012Y554201D01*
X703201Y557012D01*
X703201Y560988D01*
X706012Y563799D01*
X709988Y563799D01*
X712799Y560988D01*
X712799Y557012D01*
X709988Y554201D01*
X706012Y554201D01*
G37*
%LPD*%
%LPC*%
G36*
X706012Y581201D02*
X706012Y581201D01*
X703201Y584012D01*
X703201Y587988D01*
X706012Y590799D01*
X709988Y590799D01*
X712799Y587988D01*
X712799Y584012D01*
X709988Y581201D01*
X706012Y581201D01*
G37*
%LPD*%
%LPC*%
G36*
X692012Y584201D02*
X692012Y584201D01*
X689201Y587012D01*
X689201Y590988D01*
X692012Y593799D01*
X695988Y593799D01*
X698799Y590988D01*
X698799Y587012D01*
X695988Y584201D01*
X692012Y584201D01*
G37*
%LPD*%
%LPC*%
G36*
X814012Y80201D02*
X814012Y80201D01*
X811201Y83012D01*
X811201Y86988D01*
X814012Y89799D01*
X817988Y89799D01*
X820799Y86988D01*
X820799Y83012D01*
X817988Y80201D01*
X814012Y80201D01*
G37*
%LPD*%
%LPC*%
G36*
X706012Y607201D02*
X706012Y607201D01*
X703201Y610012D01*
X703201Y613988D01*
X706012Y616799D01*
X709988Y616799D01*
X712799Y613988D01*
X712799Y610012D01*
X709988Y607201D01*
X706012Y607201D01*
G37*
%LPD*%
%LPC*%
G36*
X672449Y30849D02*
X672449Y30849D01*
X672449Y36891D01*
X676284Y36891D01*
X676931Y36718D01*
X677510Y36383D01*
X677983Y35910D01*
X678318Y35331D01*
X678491Y34684D01*
X678491Y30849D01*
X672449Y30849D01*
G37*
%LPD*%
%LPC*%
G36*
X554749Y30249D02*
X554749Y30249D01*
X554749Y36291D01*
X558584Y36291D01*
X559231Y36118D01*
X559810Y35783D01*
X560283Y35310D01*
X560618Y34731D01*
X560791Y34084D01*
X560791Y30249D01*
X554749Y30249D01*
G37*
%LPD*%
%LPC*%
G36*
X672449Y102049D02*
X672449Y102049D01*
X672449Y108091D01*
X676284Y108091D01*
X676931Y107918D01*
X677510Y107583D01*
X677983Y107110D01*
X678318Y106531D01*
X678491Y105884D01*
X678491Y102049D01*
X672449Y102049D01*
G37*
%LPD*%
%LPC*%
G36*
X554749Y102249D02*
X554749Y102249D01*
X554749Y108291D01*
X558584Y108291D01*
X559231Y108118D01*
X559810Y107783D01*
X560283Y107310D01*
X560618Y106731D01*
X560791Y106084D01*
X560791Y102249D01*
X554749Y102249D01*
G37*
%LPD*%
%LPC*%
G36*
X662909Y30849D02*
X662909Y30849D01*
X662909Y34684D01*
X663082Y35331D01*
X663417Y35910D01*
X663890Y36383D01*
X664469Y36718D01*
X665116Y36891D01*
X668951Y36891D01*
X668951Y30849D01*
X662909Y30849D01*
G37*
%LPD*%
%LPC*%
G36*
X662909Y102049D02*
X662909Y102049D01*
X662909Y105884D01*
X663082Y106531D01*
X663417Y107110D01*
X663890Y107583D01*
X664469Y107918D01*
X665116Y108091D01*
X668951Y108091D01*
X668951Y102049D01*
X662909Y102049D01*
G37*
%LPD*%
%LPC*%
G36*
X545209Y30249D02*
X545209Y30249D01*
X545209Y34084D01*
X545382Y34731D01*
X545717Y35310D01*
X546190Y35783D01*
X546769Y36118D01*
X547416Y36291D01*
X551251Y36291D01*
X551251Y30249D01*
X545209Y30249D01*
G37*
%LPD*%
%LPC*%
G36*
X672449Y92509D02*
X672449Y92509D01*
X672449Y98551D01*
X678491Y98551D01*
X678491Y94716D01*
X678318Y94069D01*
X677983Y93490D01*
X677510Y93017D01*
X676931Y92682D01*
X676284Y92509D01*
X672449Y92509D01*
G37*
%LPD*%
%LPC*%
G36*
X554749Y20709D02*
X554749Y20709D01*
X554749Y26751D01*
X560791Y26751D01*
X560791Y22916D01*
X560618Y22269D01*
X560283Y21690D01*
X559810Y21217D01*
X559231Y20882D01*
X558584Y20709D01*
X554749Y20709D01*
G37*
%LPD*%
%LPC*%
G36*
X554749Y92709D02*
X554749Y92709D01*
X554749Y98751D01*
X560791Y98751D01*
X560791Y94916D01*
X560618Y94269D01*
X560283Y93690D01*
X559810Y93217D01*
X559231Y92882D01*
X558584Y92709D01*
X554749Y92709D01*
G37*
%LPD*%
%LPC*%
G36*
X672449Y21309D02*
X672449Y21309D01*
X672449Y27351D01*
X678491Y27351D01*
X678491Y23516D01*
X678318Y22869D01*
X677983Y22290D01*
X677510Y21817D01*
X676931Y21482D01*
X676284Y21309D01*
X672449Y21309D01*
G37*
%LPD*%
%LPC*%
G36*
X545209Y102249D02*
X545209Y102249D01*
X545209Y106084D01*
X545382Y106731D01*
X545717Y107310D01*
X546190Y107783D01*
X546769Y108118D01*
X547416Y108291D01*
X551251Y108291D01*
X551251Y102249D01*
X545209Y102249D01*
G37*
%LPD*%
%LPC*%
G36*
X665116Y92509D02*
X665116Y92509D01*
X664469Y92682D01*
X663890Y93017D01*
X663417Y93490D01*
X663082Y94069D01*
X662909Y94716D01*
X662909Y98551D01*
X668951Y98551D01*
X668951Y92509D01*
X665116Y92509D01*
G37*
%LPD*%
%LPC*%
G36*
X665116Y21309D02*
X665116Y21309D01*
X664469Y21482D01*
X663890Y21817D01*
X663417Y22290D01*
X663082Y22869D01*
X662909Y23516D01*
X662909Y27351D01*
X668951Y27351D01*
X668951Y21309D01*
X665116Y21309D01*
G37*
%LPD*%
%LPC*%
G36*
X547416Y92709D02*
X547416Y92709D01*
X546769Y92882D01*
X546190Y93217D01*
X545717Y93690D01*
X545382Y94269D01*
X545209Y94916D01*
X545209Y98751D01*
X551251Y98751D01*
X551251Y92709D01*
X547416Y92709D01*
G37*
%LPD*%
%LPC*%
G36*
X547416Y20709D02*
X547416Y20709D01*
X546769Y20882D01*
X546190Y21217D01*
X545717Y21690D01*
X545382Y22269D01*
X545209Y22916D01*
X545209Y26751D01*
X551251Y26751D01*
X551251Y20709D01*
X547416Y20709D01*
G37*
%LPD*%
D10*
X670700Y100300D03*
D11*
X650700Y100300D03*
X630700Y100300D03*
X610700Y100300D03*
D10*
X670700Y29100D03*
D11*
X650700Y29100D03*
X630700Y29100D03*
X610700Y29100D03*
D10*
X433400Y99900D03*
D11*
X413400Y99900D03*
X393400Y99900D03*
X373400Y99900D03*
D10*
X552400Y721500D03*
D11*
X572400Y721500D03*
X592400Y721500D03*
X612400Y721500D03*
X632400Y721500D03*
X652400Y721500D03*
D10*
X552200Y651500D03*
D11*
X572200Y651500D03*
X592200Y651500D03*
X612200Y651500D03*
X632200Y651500D03*
X652200Y651500D03*
D10*
X433900Y28500D03*
D11*
X413900Y28500D03*
X393900Y28500D03*
X373900Y28500D03*
D10*
X40200Y421400D03*
D11*
X40200Y441400D03*
X40200Y461400D03*
X40200Y481400D03*
X40200Y501400D03*
X40200Y521400D03*
D12*
X454400Y240000D03*
X429000Y240000D03*
X403600Y240000D03*
X454400Y265000D03*
X429000Y265000D03*
X403600Y265000D03*
X403600Y291000D03*
X429000Y291000D03*
X454400Y291000D03*
X403600Y316000D03*
X429000Y316000D03*
X454400Y316000D03*
D10*
X553000Y28500D03*
D11*
X533000Y28500D03*
X513000Y28500D03*
X493000Y28500D03*
D10*
X553000Y100500D03*
D11*
X533000Y100500D03*
X513000Y100500D03*
X493000Y100500D03*
D10*
X314000Y28500D03*
D11*
X294000Y28500D03*
X274000Y28500D03*
D10*
X199000Y99500D03*
D11*
X179000Y99500D03*
X159000Y99500D03*
D10*
X312700Y99500D03*
D11*
X292700Y99500D03*
X272700Y99500D03*
D10*
X966500Y229000D03*
D11*
X966500Y209000D03*
D12*
X403600Y341000D03*
X429000Y341000D03*
X454400Y341000D03*
D10*
X43100Y721300D03*
D11*
X63100Y721300D03*
X83100Y721300D03*
X103100Y721300D03*
D13*
X338800Y159800D03*
X313400Y159800D03*
X288000Y159800D03*
X262600Y159800D03*
X237200Y159800D03*
X211800Y159800D03*
X186400Y159800D03*
X161000Y159800D03*
D10*
X278300Y721500D03*
D11*
X298300Y721500D03*
X318300Y721500D03*
X338300Y721500D03*
D10*
X160800Y721500D03*
D11*
X180800Y721500D03*
X200800Y721500D03*
X220800Y721500D03*
D10*
X38200Y140000D03*
D11*
X38200Y160000D03*
X38200Y180000D03*
X38200Y200000D03*
D14*
X312900Y646000D03*
X338300Y646000D03*
X363700Y646000D03*
X389100Y646000D03*
X414500Y646000D03*
X439900Y646000D03*
X465300Y646000D03*
X490700Y646000D03*
D15*
X110200Y595200D03*
X110200Y569800D03*
X110200Y544400D03*
X110200Y519000D03*
X110200Y493600D03*
X110200Y468200D03*
X110200Y442800D03*
X110200Y417400D03*
X110200Y209900D03*
X110200Y184500D03*
X110200Y159100D03*
X110200Y133700D03*
X110200Y108300D03*
X110200Y82900D03*
X110200Y57500D03*
X110200Y32100D03*
D12*
X110200Y342400D03*
X110200Y317000D03*
X110200Y291600D03*
D14*
X389600Y159800D03*
X415000Y159800D03*
X440400Y159800D03*
X465800Y159800D03*
X491200Y159800D03*
X516600Y159800D03*
X542000Y159800D03*
X567400Y159800D03*
D16*
X490800Y417400D03*
X490800Y442800D03*
X490800Y468200D03*
X490800Y493600D03*
X490800Y519000D03*
X490800Y544400D03*
X490800Y569800D03*
X490800Y595200D03*
D13*
X262500Y646000D03*
X237100Y646000D03*
X211700Y646000D03*
X186300Y646000D03*
X160900Y646000D03*
X135500Y646000D03*
X110100Y646000D03*
X84700Y646000D03*
X59300Y646000D03*
X33900Y646000D03*
D10*
X39200Y260000D03*
D11*
X39200Y280000D03*
X39200Y300000D03*
X39200Y320000D03*
X39200Y340000D03*
X39200Y360000D03*
D15*
X490800Y341300D03*
X490800Y315900D03*
X490800Y290500D03*
X490800Y265100D03*
X490800Y239700D03*
X490800Y214300D03*
D17*
X569804Y223000D02*
X581996Y223000D01*
X646004Y223000D02*
X658196Y223000D01*
D18*
X974000Y329750D03*
X974000Y404250D03*
D10*
X396600Y721500D03*
D11*
X416600Y721500D03*
X436600Y721500D03*
X456600Y721500D03*
X476600Y721500D03*
X496600Y721500D03*
D10*
X189000Y30500D03*
D11*
X169000Y30500D03*
D10*
X966500Y156000D03*
D11*
X966500Y136000D03*
D17*
X887996Y653000D02*
X875804Y653000D01*
X952004Y653000D02*
X964196Y653000D01*
D19*
X873010Y68526D02*
X873010Y41475D01*
X920000Y41475D02*
X920000Y68526D01*
X966990Y68526D02*
X966990Y41475D01*
D17*
X887996Y536000D02*
X875804Y536000D01*
X952004Y536000D02*
X964196Y536000D01*
D12*
X894600Y711000D03*
X920000Y711000D03*
X945400Y711000D03*
D20*
X789000Y57000D03*
X816000Y85000D03*
X787000Y161000D03*
X767000Y161000D03*
X799000Y639000D03*
X708000Y612000D03*
X708000Y586000D03*
X708000Y559000D03*
X710000Y480000D03*
X700000Y396000D03*
X724000Y709000D03*
X298000Y69000D03*
X342000Y68000D03*
X463000Y69000D03*
X650000Y66000D03*
X814000Y494000D03*
X233000Y456000D03*
X84000Y452000D03*
X274000Y390000D03*
X255000Y322000D03*
X342000Y433000D03*
X417000Y456000D03*
X272000Y554000D03*
X256000Y506000D03*
X272000Y544000D03*
X453000Y549000D03*
X806000Y228000D03*
X203000Y69000D03*
X159000Y69000D03*
X825000Y120000D03*
X575000Y330000D03*
X575000Y317000D03*
X575000Y302000D03*
X898000Y192000D03*
X742000Y139000D03*
X783000Y110000D03*
X833000Y410000D03*
X895000Y396000D03*
X924000Y380000D03*
X244000Y182000D03*
X246000Y229000D03*
X804000Y306000D03*
X317000Y276000D03*
X281000Y283000D03*
X305000Y238000D03*
X679000Y169000D03*
X707000Y182000D03*
X330000Y587000D03*
X277000Y601000D03*
X287000Y599000D03*
X883000Y244000D03*
X967000Y180000D03*
X918000Y192000D03*
X918000Y216000D03*
X967000Y193000D03*
X980000Y245000D03*
X966000Y245000D03*
X289000Y446000D03*
X322000Y446000D03*
X288000Y470000D03*
X321000Y471000D03*
X252000Y470000D03*
X252000Y419000D03*
X289000Y420000D03*
X322000Y420000D03*
X252000Y446000D03*
X510000Y347000D03*
X510000Y417000D03*
X684000Y307000D03*
X778000Y380000D03*
X804000Y351000D03*
X804000Y332000D03*
X777000Y332000D03*
X834000Y332000D03*
X147000Y69000D03*
X174000Y83000D03*
X174000Y69000D03*
X173000Y51000D03*
X147000Y84000D03*
X147000Y51000D03*
X831000Y158000D03*
X857000Y158000D03*
X842000Y158000D03*
X820000Y158000D03*
X532000Y521000D03*
X406000Y550000D03*
X403000Y456000D03*
X256000Y335000D03*
X801000Y161000D03*
X876000Y131000D03*
X825000Y62000D03*
X814000Y556000D03*
X802000Y586000D03*
X799000Y670000D03*
X802000Y721000D03*
X808000Y142000D03*
X788000Y129000D03*
X152000Y211000D03*
X152000Y196000D03*
X142000Y401000D03*
X327000Y560000D03*
X323000Y617000D03*
X373000Y588000D03*
X423000Y600000D03*
X288000Y571000D03*
X620000Y519000D03*
X683000Y630000D03*
X708000Y630000D03*
X655000Y630000D03*
X642000Y630000D03*
X646000Y172000D03*
X611000Y185000D03*
X674000Y434000D03*
X152000Y239000D03*
X592000Y435000D03*
D21*
X95000Y380000D03*
D20*
X429000Y394000D03*
D22*
X373400Y123600D02*
X373400Y99900D01*
X360000Y200000D02*
X360000Y210000D01*
X369000Y128000D02*
X373400Y123600D01*
X369000Y128000D02*
X369000Y191000D01*
X360000Y200000D01*
D20*
X360000Y210000D03*
X287000Y211000D03*
X318000Y211000D03*
D22*
X296000Y202000D02*
X287000Y211000D01*
X309000Y202000D02*
X318000Y211000D01*
X309000Y202000D02*
X296000Y202000D01*
D20*
X595000Y156000D03*
X534000Y368000D03*
D23*
X533747Y368000D01*
X527683Y374064D01*
X426236Y374064D01*
X394300Y406000D01*
X356000Y406000D01*
X348576Y413424D02*
X348576Y457424D01*
X348576Y413424D02*
X356000Y406000D01*
X348576Y457424D02*
X322000Y484000D01*
X291000Y484000D02*
X274000Y501000D01*
X291000Y484000D02*
X322000Y484000D01*
D20*
X274000Y501000D03*
X177000Y253000D03*
X177000Y224000D03*
D23*
X177000Y253000D01*
D20*
X412000Y480000D03*
D23*
X420000Y480000D02*
X427936Y472064D01*
X420000Y480000D02*
X412000Y480000D01*
X427936Y472064D02*
X427936Y415064D01*
X459000Y384000D01*
D20*
X658000Y330000D03*
D23*
X658000Y373000D01*
X647000Y384000D01*
X459000Y384000D01*
D20*
X406000Y490000D03*
D23*
X418000Y490000D02*
X433000Y475000D01*
X418000Y490000D02*
X406000Y490000D01*
X433000Y418000D02*
X462000Y389000D01*
X433000Y418000D02*
X433000Y475000D01*
D20*
X667000Y317000D03*
D23*
X667000Y374000D02*
X652000Y389000D01*
X667000Y374000D02*
X667000Y317000D01*
X652000Y389000D02*
X462000Y389000D01*
D20*
X406000Y500000D03*
D23*
X416000Y500000D01*
X438000Y421000D02*
X465064Y393936D01*
X438000Y478000D02*
X416000Y500000D01*
X438000Y478000D02*
X438000Y421000D01*
X465064Y393936D02*
X656064Y393936D01*
X676000Y374000D01*
D20*
X676000Y338000D03*
D23*
X676000Y374000D01*
D20*
X405000Y519000D03*
D23*
X443000Y481000D01*
X443000Y424000D01*
X468000Y399000D01*
X664000Y399000D02*
X702000Y361000D01*
X664000Y399000D02*
X468000Y399000D01*
D20*
X702000Y361000D03*
X428000Y508000D03*
D23*
X448000Y488000D01*
X448000Y427000D02*
X470936Y404064D01*
X448000Y427000D02*
X448000Y488000D01*
X656064Y404064D02*
X660000Y408000D01*
X656064Y404064D02*
X470936Y404064D01*
D20*
X660000Y408000D03*
X541000Y361000D03*
D23*
X541000Y372000D01*
X429000Y379000D02*
X396936Y411064D01*
X534000Y379000D02*
X541000Y372000D01*
X534000Y379000D02*
X429000Y379000D01*
X396936Y411064D02*
X358936Y411064D01*
X354000Y416000D01*
X297000Y489000D02*
X285000Y501000D01*
X354000Y460000D02*
X354000Y416000D01*
X354000Y460000D02*
X325000Y489000D01*
X297000Y489000D01*
D20*
X285000Y501000D03*
D23*
X513000Y100500D02*
X513000Y28500D01*
D20*
X578000Y142000D03*
X622000Y142000D03*
D23*
X578000Y142000D01*
D20*
X460000Y493000D03*
X516000Y493000D03*
D23*
X473000Y506000D02*
X460000Y493000D01*
X503000Y506000D02*
X516000Y493000D01*
X503000Y506000D02*
X473000Y506000D01*
X623000Y712100D02*
X632400Y721500D01*
X551000Y532000D02*
X546000Y527000D01*
X623000Y542000D02*
X623000Y712100D01*
X623000Y542000D02*
X613000Y532000D01*
X551000Y532000D01*
D20*
X546000Y516000D03*
D23*
X546000Y527000D01*
D20*
X333000Y491000D03*
D23*
X333000Y495000D01*
X420000Y582000D01*
X603000Y582000D01*
D20*
X603000Y582000D03*
X344000Y491000D03*
D23*
X344000Y498000D01*
X403000Y557000D02*
X510000Y557000D01*
X403000Y557000D02*
X344000Y498000D01*
D20*
X510000Y557000D03*
X510000Y539000D03*
D23*
X609000Y539000D01*
X615000Y545000D01*
X615000Y626000D01*
X603000Y638000D01*
X603000Y668000D01*
X613000Y678000D01*
D20*
X613000Y678000D03*
X132000Y471000D03*
X159000Y557000D03*
D23*
X159000Y588000D01*
X164000Y593000D01*
X219000Y593000D01*
D20*
X219000Y593000D03*
X166000Y582000D03*
X219000Y582000D03*
D23*
X166000Y582000D01*
D20*
X132000Y460000D03*
X246000Y355000D03*
X781000Y275000D03*
D23*
X692000Y275000D01*
X660500Y243500D01*
X564500Y243500D01*
X549000Y259000D02*
X549000Y326000D01*
X549000Y259000D02*
X564500Y243500D01*
X549000Y326000D02*
X516000Y359000D01*
X250000Y359000D01*
X246000Y355000D01*
D20*
X246000Y345000D03*
X754000Y268000D03*
D23*
X543936Y256317D02*
X543936Y323064D01*
X543936Y256317D02*
X561253Y239000D01*
X666000Y239000D01*
X543936Y323064D02*
X513048Y353952D01*
X666000Y239000D02*
X695000Y268000D01*
X754000Y268000D01*
X254952Y353952D02*
X246000Y345000D01*
X254952Y353952D02*
X513048Y353952D01*
X433000Y667000D02*
X409000Y667000D01*
X389100Y647100D01*
X389100Y646000D01*
X389100Y587100D01*
X361000Y559000D01*
D20*
X361000Y559000D03*
X433000Y667000D03*
X816000Y446000D03*
X816000Y437000D03*
X872000Y346000D03*
X883000Y346000D03*
X804000Y451000D03*
X352000Y329000D03*
D23*
X352000Y175000D01*
X359000Y168000D01*
X359000Y64000D01*
X393900Y29100D02*
X393900Y28500D01*
X393900Y29100D02*
X359000Y64000D01*
D20*
X352000Y339000D03*
D23*
X373900Y40100D02*
X373900Y28500D01*
X345000Y174000D02*
X345000Y332000D01*
X345000Y174000D02*
X353000Y166000D01*
X353000Y61000D01*
X373900Y40100D01*
X345000Y332000D02*
X352000Y339000D01*
X403600Y291000D02*
X416600Y278000D01*
X522000Y278000D02*
X529000Y271000D01*
X522000Y278000D02*
X416600Y278000D01*
D20*
X529000Y271000D03*
X736000Y357000D03*
D23*
X765000Y386000D01*
X795000Y482000D02*
X832000Y482000D01*
X765000Y452000D02*
X765000Y386000D01*
X765000Y452000D02*
X795000Y482000D01*
D20*
X832000Y482000D03*
D23*
X416600Y303000D02*
X403600Y316000D01*
X416600Y303000D02*
X537000Y303000D01*
D20*
X537000Y303000D03*
X722000Y357000D03*
D23*
X755000Y390000D01*
X755000Y594000D01*
X778000Y617000D01*
X830000Y617000D01*
D20*
X830000Y617000D03*
X930000Y220000D03*
X930000Y238000D03*
X930000Y248000D03*
X930000Y258000D03*
X947000Y238000D03*
X947000Y220000D03*
X414000Y682000D03*
X462000Y682000D03*
D23*
X414000Y682000D01*
D20*
X847000Y72000D03*
D23*
X870000Y95000D01*
X955000Y95000D01*
X966990Y83010D01*
X966990Y55000D01*
D20*
X245000Y562000D03*
X204000Y544000D03*
D23*
X231000Y571000D01*
X236000Y571000D01*
X245000Y562000D01*
D20*
X234000Y562000D03*
X202000Y534000D03*
D23*
X206000Y534000D02*
X234000Y562000D01*
X206000Y534000D02*
X202000Y534000D01*
D20*
X168000Y531000D03*
D23*
X180000Y531000D01*
X232000Y583000D02*
X257000Y583000D01*
X232000Y583000D02*
X180000Y531000D01*
D20*
X257000Y583000D03*
X160000Y499000D03*
X208000Y355000D03*
D23*
X160000Y440000D02*
X110200Y390200D01*
X110200Y342400D01*
X147400Y342400D01*
X160000Y355000D02*
X208000Y355000D01*
X160000Y355000D02*
X147400Y342400D01*
X160000Y440000D02*
X160000Y499000D01*
D20*
X314000Y503000D03*
D23*
X63100Y721300D02*
X63100Y725100D01*
X71000Y733000D01*
X88000Y733000D01*
X314000Y598000D02*
X314000Y503000D01*
X93000Y728000D02*
X88000Y733000D01*
X93000Y728000D02*
X93000Y688000D01*
X107000Y674000D01*
X276000Y674000D01*
X288000Y662000D01*
X288000Y624000D01*
X314000Y598000D01*
D20*
X620000Y478000D03*
X242000Y390000D03*
X402000Y386000D03*
D23*
X292000Y386000D01*
X281424Y396576D02*
X248576Y396576D01*
X281424Y396576D02*
X292000Y386000D01*
X248576Y396576D02*
X242000Y390000D01*
D20*
X144000Y511000D03*
D23*
X121400Y417400D02*
X110200Y417400D01*
X144000Y477000D02*
X144000Y511000D01*
X151000Y470000D02*
X151000Y447000D01*
X151000Y470000D02*
X144000Y477000D01*
X151000Y447000D02*
X121400Y417400D01*
D20*
X292000Y329000D03*
D23*
X289000Y326000D01*
X237200Y247200D02*
X237200Y159800D01*
X289000Y316700D02*
X289000Y326000D01*
X289000Y316700D02*
X271000Y298700D01*
X271000Y281000D01*
X237200Y247200D01*
D20*
X314000Y317000D03*
D23*
X314000Y285000D01*
X278000Y249000D01*
X278000Y210000D01*
X313000Y175000D01*
X322700Y175000D02*
X323276Y174424D01*
X324176Y174424D01*
X338800Y159800D01*
X322700Y175000D02*
X313000Y175000D01*
X338800Y159800D02*
X338800Y80800D01*
X294000Y36000D02*
X294000Y28500D01*
X294000Y36000D02*
X338800Y80800D01*
D20*
X310000Y329000D03*
D23*
X307000Y285000D02*
X273000Y251000D01*
X273000Y207000D01*
X313400Y166600D02*
X313400Y159800D01*
X313400Y166600D02*
X273000Y207000D01*
X307000Y326000D02*
X310000Y329000D01*
X307000Y326000D02*
X307000Y285000D01*
D20*
X300000Y317000D03*
D23*
X300000Y286000D01*
X288000Y160000D02*
X288000Y159800D01*
X268000Y254000D02*
X300000Y286000D01*
X268000Y254000D02*
X268000Y180000D01*
X288000Y160000D01*
D20*
X297000Y337000D03*
D23*
X301000Y333000D01*
X301000Y327300D01*
X293424Y319724D01*
X293424Y286424D01*
X262600Y255600D01*
X262600Y159800D01*
D20*
X281000Y318000D03*
D23*
X266000Y303000D01*
X266000Y284000D01*
X232000Y187000D02*
X211800Y166800D01*
X211800Y159800D01*
X232000Y250000D02*
X266000Y284000D01*
X232000Y250000D02*
X232000Y187000D01*
D20*
X278000Y347000D03*
D23*
X278000Y335000D01*
X261000Y318000D01*
X203600Y177000D02*
X186400Y159800D01*
X261000Y287000D02*
X261000Y318000D01*
X261000Y287000D02*
X226000Y252000D01*
X226000Y190000D01*
X213000Y177000D01*
X203600Y177000D01*
X292700Y129500D02*
X292700Y99500D01*
X292700Y129500D02*
X282200Y140000D01*
X194000Y140000D02*
X186000Y148000D01*
X186000Y159400D01*
X186400Y159800D01*
X194000Y140000D02*
X282200Y140000D01*
D20*
X258000Y347000D03*
D23*
X161000Y256000D02*
X161000Y159800D01*
X161000Y256000D02*
X241000Y336000D01*
X247000Y336000D02*
X258000Y347000D01*
X247000Y336000D02*
X241000Y336000D01*
D20*
X203000Y330000D03*
D23*
X189000Y316000D01*
X162000Y316000D01*
X153000Y307000D01*
X153000Y291000D01*
X132000Y270000D01*
X71000Y280000D02*
X39200Y280000D01*
X71000Y280000D02*
X81000Y270000D01*
X132000Y270000D01*
D20*
X192000Y330000D03*
D23*
X184000Y322000D01*
X144000Y296000D02*
X124000Y276000D01*
X144000Y296000D02*
X144000Y313000D01*
X153000Y322000D01*
X184000Y322000D01*
X124000Y276000D02*
X96000Y276000D01*
X72000Y300000D02*
X39200Y300000D01*
X72000Y300000D02*
X96000Y276000D01*
D20*
X572000Y415000D03*
D23*
X707000Y415000D01*
X742000Y450000D02*
X742000Y572000D01*
X742000Y450000D02*
X707000Y415000D01*
D20*
X742000Y572000D03*
D23*
X235300Y707000D02*
X220800Y721500D01*
X323800Y707000D02*
X338300Y721500D01*
X323800Y707000D02*
X235300Y707000D01*
D20*
X332000Y508000D03*
D23*
X338000Y508000D01*
X417900Y587900D01*
X434900Y587900D01*
X439900Y592900D01*
X439900Y646000D01*
D20*
X322000Y508000D03*
D23*
X265000Y618100D02*
X237100Y646000D01*
X265000Y618100D02*
X265000Y531300D01*
X322000Y508000D02*
X322000Y501000D01*
X316000Y495000D01*
X301300Y495000D01*
X265000Y531300D01*
D20*
X181000Y489000D03*
D23*
X135500Y610500D02*
X135500Y646000D01*
X135500Y610500D02*
X141000Y605000D01*
X181000Y503000D02*
X181000Y489000D01*
X141000Y543000D02*
X141000Y605000D01*
X141000Y543000D02*
X181000Y503000D01*
D20*
X167000Y485000D03*
D23*
X110100Y627900D02*
X110100Y646000D01*
X110100Y627900D02*
X136000Y602000D01*
X167000Y507000D02*
X167000Y485000D01*
X167000Y507000D02*
X136000Y538000D01*
X136000Y602000D01*
D20*
X152000Y479000D03*
D23*
X152000Y514000D01*
X94850Y635850D02*
X84700Y646000D01*
X94850Y635850D02*
X131000Y599700D01*
X131000Y535000D01*
X152000Y514000D01*
D20*
X252000Y390000D03*
D23*
X259000Y383000D01*
X259000Y371000D01*
X266000Y364000D01*
X519000Y364000D01*
X554000Y329000D01*
X554000Y261000D01*
X567000Y248000D01*
X656000Y248000D01*
X690000Y282000D01*
X789000Y282000D01*
D20*
X822000Y275000D03*
D23*
X796000Y275000D01*
X789000Y282000D01*
D20*
X264000Y390000D03*
D23*
X264000Y374000D01*
X269000Y369000D01*
X522000Y369000D01*
X559000Y332000D01*
X559000Y263000D01*
X569000Y253000D01*
X744000Y289000D02*
X749000Y294000D01*
X744000Y289000D02*
X688000Y289000D01*
X652000Y253000D02*
X569000Y253000D01*
X652000Y253000D02*
X688000Y289000D01*
D20*
X749000Y294000D03*
X228000Y406000D03*
D23*
X41000Y160000D02*
X38200Y160000D01*
X118000Y222000D02*
X220000Y324000D01*
X118000Y222000D02*
X103000Y222000D01*
X220000Y324000D02*
X220000Y377000D01*
X103000Y222000D02*
X41000Y160000D01*
X235000Y399000D02*
X228000Y406000D01*
X235000Y399000D02*
X235000Y392000D01*
X220000Y377000D01*
D20*
X228000Y396000D03*
D23*
X228000Y393000D01*
X215000Y380000D01*
X215000Y327000D01*
X115000Y227000D01*
X53000Y180000D02*
X38200Y180000D01*
X100000Y227000D02*
X115000Y227000D01*
X100000Y227000D02*
X53000Y180000D01*
D20*
X364000Y342000D03*
D23*
X465800Y168200D02*
X465800Y159800D01*
X359000Y337000D02*
X364000Y342000D01*
X359000Y337000D02*
X359000Y233000D01*
X405000Y187000D01*
X447000Y187000D01*
X465800Y168200D01*
D20*
X368000Y333000D03*
D23*
X365000Y330000D01*
X365000Y234000D01*
X406000Y193000D01*
X458000Y193000D01*
X491200Y159800D01*
D20*
X324000Y317000D03*
X329000Y181000D03*
D23*
X325000Y316000D02*
X324000Y317000D01*
X325000Y316000D02*
X325000Y185000D01*
X329000Y181000D01*
D20*
X331000Y327000D03*
D23*
X331000Y192000D01*
X338000Y185000D01*
D20*
X338000Y185000D03*
X338000Y318000D03*
D23*
X338000Y195000D01*
D20*
X338000Y195000D03*
X133000Y444000D03*
D23*
X74300Y631000D02*
X59300Y646000D01*
X74300Y631000D02*
X92924Y631000D01*
X126000Y597924D01*
X126000Y486300D02*
X140000Y472300D01*
X140000Y451000D01*
X133000Y444000D01*
X126000Y486300D02*
X126000Y597924D01*
D20*
X178000Y346000D03*
D23*
X130000Y317000D02*
X110200Y317000D01*
X130000Y317000D02*
X159000Y346000D01*
X178000Y346000D01*
D20*
X886000Y229000D03*
D23*
X869000Y212000D01*
X735000Y212000D01*
D20*
X735000Y212000D03*
X179000Y330000D03*
D23*
X126600Y291600D02*
X110200Y291600D01*
X151000Y330000D02*
X179000Y330000D01*
X151000Y330000D02*
X134000Y313000D01*
X134000Y299000D01*
X126600Y291600D01*
D20*
X246000Y283000D03*
D23*
X539200Y188000D02*
X567400Y159800D01*
X539200Y188000D02*
X492000Y188000D01*
X472000Y208000D01*
X416000Y208000D01*
X383000Y241000D01*
D20*
X390000Y329000D03*
D23*
X390000Y323000D01*
X383000Y316000D01*
X383000Y241000D01*
X518800Y183000D02*
X542000Y159800D01*
X518800Y183000D02*
X488000Y183000D01*
X468000Y203000D01*
X413000Y203000D01*
X377000Y239000D01*
X377000Y320000D01*
D20*
X383000Y336000D03*
D23*
X383000Y326000D02*
X377000Y320000D01*
X383000Y326000D02*
X383000Y336000D01*
X371000Y325000D02*
X371000Y236000D01*
X498400Y178000D02*
X516600Y159800D01*
X409000Y198000D02*
X371000Y236000D01*
X409000Y198000D02*
X464000Y198000D01*
X484000Y178000D01*
X498400Y178000D01*
D20*
X379000Y347000D03*
D23*
X376000Y344000D01*
X376000Y330000D01*
X371000Y325000D01*
D20*
X306000Y508000D03*
D23*
X308000Y510000D01*
X308000Y596000D01*
X282000Y622000D01*
X282000Y658000D02*
X272000Y668000D01*
X101000Y668000D01*
X82500Y686500D01*
X82500Y720700D02*
X83100Y721300D01*
X82500Y720700D02*
X82500Y686500D01*
X282000Y658000D02*
X282000Y622000D01*
X414500Y646000D02*
X414500Y596500D01*
X364000Y546000D01*
X324000Y546000D01*
D20*
X324000Y546000D03*
X564000Y178000D03*
D23*
X575900Y189900D02*
X575900Y223000D01*
X575900Y189900D02*
X564000Y178000D01*
X632200Y541200D02*
X632200Y651500D01*
X632200Y541200D02*
X612000Y521000D01*
X597000Y521000D01*
D20*
X597000Y521000D03*
X342000Y450000D03*
X296000Y511000D03*
D23*
X276000Y632500D02*
X262500Y646000D01*
X276000Y620000D02*
X303000Y593000D01*
X303000Y518000D01*
X296000Y511000D01*
X276000Y620000D02*
X276000Y632500D01*
D20*
X601000Y479000D03*
X688000Y480000D03*
X556000Y521000D03*
X601000Y549000D03*
X673000Y537000D03*
X549000Y591000D03*
X641000Y586000D03*
X736000Y255000D03*
X714000Y255000D03*
X725000Y255000D03*
X694000Y589000D03*
X235000Y500000D03*
X717000Y109000D03*
X706000Y109000D03*
X300000Y211000D03*
X697000Y149000D03*
X290000Y179000D03*
X254000Y248000D03*
X198000Y279000D03*
X361000Y221000D03*
D24*
X697000Y207000D02*
X697000Y149000D01*
X697000Y207000D02*
X681000Y223000D01*
X652100Y223000D01*
D20*
X202000Y133000D03*
X376000Y199000D03*
D22*
X376000Y135000D01*
X393400Y117600D02*
X393400Y99900D01*
X393400Y117600D02*
X376000Y135000D01*
M02*
