G04 EAGLE Gerber RS-274X export*
G75*
%MOMM*%
%FSLAX34Y34*%
%LPD*%
%INTop Copper*%
%IPPOS*%
%AMOC8*
5,1,8,0,0,1.08239X$1,22.5*%
G01*
%ADD10R,0.350000X1.500000*%
%ADD11R,1.500000X0.350000*%
%ADD12R,1.050000X1.080000*%
%ADD13R,1.080000X1.050000*%
%ADD14R,1.050000X1.050000*%
%ADD15C,1.050000*%
%ADD16R,0.348000X1.397000*%
%ADD17R,0.550000X1.200000*%
%ADD18R,1.000000X1.400000*%
%ADD19C,1.524000*%
%ADD20R,0.850000X0.250000*%
%ADD21R,1.300000X1.550000*%
%ADD22P,1.924489X8X292.500000*%
%ADD23P,1.924489X8X112.500000*%
%ADD24P,1.924489X8X22.500000*%
%ADD25P,1.924489X8X202.500000*%
%ADD26C,1.219200*%
%ADD27R,1.400000X1.000000*%
%ADD28R,1.750000X0.400000*%
%ADD29R,2.540000X2.540000*%
%ADD30R,0.400000X0.700000*%
%ADD31R,2.400000X0.760000*%
%ADD32R,1.220000X0.620000*%
%ADD33C,0.055000*%
%ADD34R,1.700000X1.540000*%
%ADD35R,0.500000X0.250000*%
%ADD36C,2.705100*%
%ADD37C,0.254000*%
%ADD38C,0.654800*%
%ADD39C,0.508000*%
%ADD40C,0.200000*%
%ADD41C,0.685800*%

G36*
X335229Y1795D02*
X335229Y1795D01*
X335460Y1805D01*
X335514Y1815D01*
X335568Y1819D01*
X335794Y1867D01*
X336020Y1909D01*
X336072Y1926D01*
X336126Y1938D01*
X336342Y2017D01*
X336560Y2090D01*
X336609Y2115D01*
X336661Y2134D01*
X336864Y2242D01*
X337069Y2345D01*
X337115Y2376D01*
X337163Y2402D01*
X337349Y2538D01*
X337538Y2669D01*
X337579Y2706D01*
X337623Y2739D01*
X337788Y2899D01*
X337957Y3055D01*
X337992Y3098D01*
X338031Y3136D01*
X338172Y3318D01*
X338318Y3496D01*
X338346Y3544D01*
X338380Y3587D01*
X338494Y3787D01*
X338613Y3984D01*
X338635Y4034D01*
X338662Y4082D01*
X338747Y4296D01*
X338838Y4507D01*
X338852Y4560D01*
X338872Y4611D01*
X338927Y4836D01*
X338987Y5057D01*
X338991Y5101D01*
X339007Y5165D01*
X339062Y5732D01*
X339059Y5798D01*
X339063Y5842D01*
X339063Y45000D01*
X339059Y45060D01*
X339061Y45121D01*
X339039Y45344D01*
X339023Y45568D01*
X339011Y45628D01*
X339005Y45688D01*
X338951Y45906D01*
X338904Y46126D01*
X338884Y46182D01*
X338869Y46241D01*
X338786Y46450D01*
X338708Y46661D01*
X338680Y46714D01*
X338658Y46770D01*
X338546Y46965D01*
X338440Y47163D01*
X338404Y47212D01*
X338374Y47264D01*
X338299Y47355D01*
X338103Y47623D01*
X337946Y47784D01*
X337873Y47873D01*
X294211Y91535D01*
X294166Y91575D01*
X294125Y91619D01*
X293951Y91761D01*
X293781Y91909D01*
X293730Y91942D01*
X293684Y91980D01*
X293491Y92097D01*
X293303Y92219D01*
X293248Y92244D01*
X293196Y92275D01*
X292990Y92364D01*
X292786Y92459D01*
X292728Y92476D01*
X292673Y92500D01*
X292456Y92558D01*
X292241Y92624D01*
X292181Y92633D01*
X292123Y92649D01*
X292006Y92660D01*
X291678Y92711D01*
X291453Y92714D01*
X291357Y92723D01*
X288862Y93757D01*
X286957Y95662D01*
X286454Y96876D01*
X286403Y96979D01*
X286360Y97086D01*
X286275Y97234D01*
X286200Y97386D01*
X286134Y97481D01*
X286077Y97581D01*
X285973Y97715D01*
X285876Y97855D01*
X285798Y97940D01*
X285728Y98031D01*
X285606Y98150D01*
X285491Y98274D01*
X285402Y98348D01*
X285319Y98428D01*
X285182Y98528D01*
X285050Y98636D01*
X284952Y98696D01*
X284858Y98764D01*
X284709Y98844D01*
X284563Y98932D01*
X284457Y98978D01*
X284356Y99032D01*
X284196Y99090D01*
X284040Y99157D01*
X283929Y99187D01*
X283820Y99227D01*
X283654Y99262D01*
X283490Y99307D01*
X283376Y99321D01*
X283263Y99345D01*
X283093Y99357D01*
X282925Y99378D01*
X282810Y99376D01*
X282695Y99384D01*
X282525Y99372D01*
X282355Y99370D01*
X282241Y99352D01*
X282126Y99344D01*
X281960Y99308D01*
X281792Y99282D01*
X281682Y99248D01*
X281569Y99224D01*
X281410Y99165D01*
X281247Y99116D01*
X281143Y99067D01*
X281034Y99027D01*
X280884Y98947D01*
X280731Y98875D01*
X280634Y98812D01*
X280532Y98758D01*
X280395Y98657D01*
X280253Y98565D01*
X280166Y98489D01*
X280073Y98421D01*
X279952Y98302D01*
X279823Y98191D01*
X279747Y98103D01*
X279665Y98023D01*
X279561Y97888D01*
X279450Y97760D01*
X279387Y97663D01*
X279317Y97572D01*
X279263Y97470D01*
X279141Y97281D01*
X279035Y97052D01*
X279001Y96994D01*
X278980Y96940D01*
X278946Y96876D01*
X278443Y95662D01*
X276538Y93757D01*
X274048Y92725D01*
X271352Y92725D01*
X268862Y93757D01*
X266957Y95662D01*
X265925Y98152D01*
X265925Y100848D01*
X266957Y103338D01*
X268862Y105243D01*
X271475Y106326D01*
X271630Y106403D01*
X271788Y106471D01*
X271885Y106530D01*
X271985Y106580D01*
X272127Y106678D01*
X272275Y106768D01*
X272362Y106839D01*
X272454Y106903D01*
X272582Y107020D01*
X272715Y107130D01*
X272791Y107213D01*
X272874Y107289D01*
X272983Y107423D01*
X273100Y107550D01*
X273164Y107643D01*
X273235Y107730D01*
X273325Y107877D01*
X273423Y108020D01*
X273473Y108120D01*
X273531Y108216D01*
X273600Y108375D01*
X273676Y108530D01*
X273712Y108636D01*
X273756Y108740D01*
X273802Y108906D01*
X273856Y109070D01*
X273877Y109181D01*
X273906Y109290D01*
X273928Y109461D01*
X273959Y109631D01*
X273963Y109743D01*
X273977Y109855D01*
X273975Y110027D01*
X273982Y110200D01*
X273971Y110312D01*
X273969Y110425D01*
X273942Y110595D01*
X273925Y110767D01*
X273898Y110876D01*
X273881Y110988D01*
X273831Y111153D01*
X273790Y111321D01*
X273748Y111425D01*
X273715Y111533D01*
X273642Y111689D01*
X273578Y111850D01*
X273522Y111947D01*
X273474Y112049D01*
X273380Y112194D01*
X273294Y112344D01*
X273240Y112410D01*
X273164Y112527D01*
X272802Y112942D01*
X272794Y112953D01*
X265731Y120015D01*
X265686Y120055D01*
X265645Y120099D01*
X265471Y120241D01*
X265301Y120389D01*
X265250Y120422D01*
X265204Y120460D01*
X265011Y120577D01*
X264823Y120699D01*
X264768Y120724D01*
X264716Y120755D01*
X264510Y120844D01*
X264306Y120939D01*
X264248Y120956D01*
X264193Y120980D01*
X263976Y121038D01*
X263761Y121104D01*
X263701Y121113D01*
X263643Y121129D01*
X263526Y121140D01*
X263198Y121191D01*
X262973Y121194D01*
X262858Y121205D01*
X199341Y121205D01*
X199280Y121201D01*
X199220Y121203D01*
X198997Y121181D01*
X198772Y121165D01*
X198713Y121153D01*
X198653Y121147D01*
X198435Y121093D01*
X198215Y121046D01*
X198159Y121026D01*
X198100Y121011D01*
X197891Y120928D01*
X197680Y120850D01*
X197627Y120822D01*
X197571Y120800D01*
X197376Y120688D01*
X197178Y120582D01*
X197129Y120546D01*
X197076Y120516D01*
X196985Y120441D01*
X196718Y120245D01*
X196557Y120088D01*
X196468Y120015D01*
X190679Y114227D01*
X190604Y114140D01*
X190521Y114060D01*
X190417Y113925D01*
X190306Y113797D01*
X190243Y113700D01*
X190173Y113609D01*
X190089Y113462D01*
X189996Y113319D01*
X189947Y113214D01*
X189890Y113114D01*
X189828Y112956D01*
X189756Y112802D01*
X189723Y112692D01*
X189680Y112585D01*
X189640Y112419D01*
X189591Y112257D01*
X189573Y112143D01*
X189546Y112031D01*
X189530Y111861D01*
X189504Y111694D01*
X189502Y111579D01*
X189491Y111464D01*
X189498Y111294D01*
X189496Y111124D01*
X189510Y111010D01*
X189515Y110894D01*
X189546Y110727D01*
X189568Y110559D01*
X189598Y110447D01*
X189619Y110334D01*
X189673Y110173D01*
X189718Y110009D01*
X189764Y109903D01*
X189801Y109794D01*
X189877Y109642D01*
X189944Y109486D01*
X190004Y109388D01*
X190056Y109285D01*
X190152Y109145D01*
X190241Y109000D01*
X190314Y108911D01*
X190380Y108816D01*
X190495Y108691D01*
X190603Y108559D01*
X190688Y108482D01*
X190766Y108397D01*
X190898Y108289D01*
X191023Y108174D01*
X191118Y108109D01*
X191207Y108036D01*
X191353Y107948D01*
X191493Y107852D01*
X191596Y107800D01*
X191694Y107741D01*
X191850Y107674D01*
X192003Y107598D01*
X192112Y107562D01*
X192218Y107516D01*
X192382Y107472D01*
X192543Y107418D01*
X192657Y107397D01*
X192768Y107367D01*
X192883Y107356D01*
X193104Y107316D01*
X193435Y107302D01*
X193553Y107291D01*
X194937Y107291D01*
X194937Y99500D01*
X194937Y91709D01*
X193500Y91709D01*
X193009Y91807D01*
X192547Y91998D01*
X192130Y92277D01*
X191777Y92630D01*
X191498Y93047D01*
X191267Y93606D01*
X191194Y93873D01*
X191193Y93875D01*
X191193Y93876D01*
X191092Y94110D01*
X190968Y94397D01*
X190967Y94398D01*
X190967Y94399D01*
X190819Y94642D01*
X190672Y94883D01*
X190671Y94884D01*
X190670Y94886D01*
X190506Y95086D01*
X190310Y95324D01*
X190309Y95325D01*
X190308Y95326D01*
X190110Y95508D01*
X189891Y95709D01*
X189889Y95710D01*
X189888Y95711D01*
X189655Y95871D01*
X189421Y96032D01*
X189420Y96033D01*
X189419Y96034D01*
X189182Y96151D01*
X188911Y96286D01*
X188910Y96287D01*
X188908Y96287D01*
X188670Y96367D01*
X188371Y96466D01*
X188369Y96467D01*
X188368Y96467D01*
X188104Y96515D01*
X187810Y96569D01*
X187809Y96569D01*
X187807Y96570D01*
X187526Y96581D01*
X187241Y96593D01*
X187239Y96593D01*
X187238Y96593D01*
X186963Y96565D01*
X186674Y96536D01*
X186672Y96536D01*
X186671Y96536D01*
X186415Y96473D01*
X186120Y96401D01*
X186119Y96401D01*
X186118Y96400D01*
X185871Y96302D01*
X185591Y96190D01*
X185590Y96189D01*
X185589Y96189D01*
X185337Y96045D01*
X185097Y95907D01*
X185096Y95906D01*
X185094Y95905D01*
X185088Y95900D01*
X184647Y95557D01*
X184551Y95458D01*
X184485Y95404D01*
X183127Y94046D01*
X183087Y94000D01*
X183043Y93959D01*
X182998Y93905D01*
X182969Y93876D01*
X182883Y93765D01*
X182753Y93616D01*
X182720Y93565D01*
X182682Y93518D01*
X182646Y93460D01*
X182620Y93425D01*
X182548Y93299D01*
X182443Y93138D01*
X182418Y93083D01*
X182387Y93031D01*
X182361Y92971D01*
X182338Y92930D01*
X182282Y92790D01*
X182203Y92621D01*
X182186Y92563D01*
X182162Y92507D01*
X182146Y92447D01*
X182128Y92401D01*
X182091Y92248D01*
X182038Y92075D01*
X182029Y92016D01*
X182013Y91957D01*
X182009Y91909D01*
X181994Y91847D01*
X181978Y91684D01*
X181951Y91512D01*
X181949Y91394D01*
X181938Y91280D01*
X181941Y91216D01*
X181937Y91173D01*
X181937Y77128D01*
X181953Y76899D01*
X181963Y76668D01*
X181973Y76614D01*
X181977Y76560D01*
X182025Y76334D01*
X182067Y76108D01*
X182084Y76056D01*
X182096Y76002D01*
X182175Y75786D01*
X182248Y75568D01*
X182273Y75519D01*
X182292Y75467D01*
X182400Y75264D01*
X182503Y75059D01*
X182534Y75013D01*
X182560Y74965D01*
X182696Y74779D01*
X182827Y74590D01*
X182864Y74549D01*
X182897Y74505D01*
X183057Y74340D01*
X183213Y74171D01*
X183256Y74136D01*
X183294Y74097D01*
X183476Y73956D01*
X183654Y73810D01*
X183702Y73782D01*
X183745Y73748D01*
X183945Y73634D01*
X184142Y73515D01*
X184192Y73493D01*
X184240Y73466D01*
X184454Y73381D01*
X184665Y73290D01*
X184718Y73276D01*
X184769Y73256D01*
X184994Y73201D01*
X185215Y73141D01*
X185259Y73137D01*
X185323Y73121D01*
X185890Y73066D01*
X185956Y73069D01*
X186000Y73065D01*
X199465Y73065D01*
X199583Y73073D01*
X199701Y73072D01*
X199867Y73093D01*
X200034Y73105D01*
X200149Y73129D01*
X200266Y73144D01*
X200375Y73178D01*
X200591Y73224D01*
X200909Y73340D01*
X201020Y73374D01*
X202045Y73799D01*
X203955Y73799D01*
X204980Y73374D01*
X205092Y73337D01*
X205200Y73290D01*
X205361Y73246D01*
X205520Y73193D01*
X205636Y73172D01*
X205750Y73141D01*
X205864Y73130D01*
X206081Y73090D01*
X206419Y73076D01*
X206535Y73065D01*
X216059Y73065D01*
X217553Y72446D01*
X218884Y71115D01*
X218929Y71075D01*
X218970Y71031D01*
X219144Y70889D01*
X219314Y70741D01*
X219364Y70708D01*
X219411Y70670D01*
X219604Y70553D01*
X219792Y70431D01*
X219847Y70406D01*
X219898Y70375D01*
X220105Y70286D01*
X220309Y70191D01*
X220367Y70174D01*
X220422Y70150D01*
X220639Y70092D01*
X220854Y70026D01*
X220914Y70017D01*
X220972Y70001D01*
X221089Y69990D01*
X221417Y69939D01*
X221642Y69936D01*
X221757Y69925D01*
X227402Y69925D01*
X227529Y69866D01*
X227739Y69762D01*
X227787Y69746D01*
X227834Y69725D01*
X228058Y69657D01*
X228279Y69583D01*
X228330Y69574D01*
X228379Y69559D01*
X228611Y69523D01*
X228840Y69482D01*
X228891Y69480D01*
X228942Y69472D01*
X229172Y69469D01*
X229183Y69468D01*
X229192Y69468D01*
X229410Y69460D01*
X229461Y69465D01*
X229512Y69464D01*
X229726Y69492D01*
X229753Y69493D01*
X229776Y69497D01*
X229976Y69518D01*
X230026Y69530D01*
X230077Y69536D01*
X230270Y69589D01*
X230313Y69597D01*
X230351Y69610D01*
X230530Y69654D01*
X230577Y69673D01*
X230627Y69687D01*
X230794Y69759D01*
X230853Y69779D01*
X230892Y69800D01*
X231058Y69867D01*
X231103Y69892D01*
X231150Y69913D01*
X231349Y70035D01*
X231552Y70151D01*
X231570Y70166D01*
X231622Y70201D01*
X231636Y70209D01*
X231641Y70214D01*
X232297Y70652D01*
X232759Y70843D01*
X233250Y70941D01*
X234687Y70941D01*
X234687Y63000D01*
X234687Y55059D01*
X233250Y55059D01*
X232759Y55157D01*
X232297Y55348D01*
X231548Y55849D01*
X231470Y55893D01*
X231342Y55981D01*
X231296Y56004D01*
X231253Y56032D01*
X231111Y56098D01*
X231053Y56131D01*
X230988Y56157D01*
X230832Y56235D01*
X230783Y56251D01*
X230736Y56273D01*
X230568Y56324D01*
X230523Y56342D01*
X230474Y56354D01*
X230291Y56415D01*
X230240Y56424D01*
X230191Y56439D01*
X229999Y56469D01*
X229970Y56476D01*
X229937Y56480D01*
X229730Y56517D01*
X229679Y56519D01*
X229629Y56527D01*
X229417Y56531D01*
X229403Y56532D01*
X229386Y56531D01*
X229161Y56540D01*
X229110Y56535D01*
X229059Y56536D01*
X228834Y56508D01*
X228833Y56508D01*
X228832Y56508D01*
X228827Y56507D01*
X228594Y56484D01*
X228544Y56471D01*
X228493Y56465D01*
X228267Y56404D01*
X228041Y56348D01*
X227993Y56329D01*
X227944Y56316D01*
X227729Y56223D01*
X227512Y56136D01*
X227467Y56111D01*
X227420Y56091D01*
X227395Y56075D01*
X215368Y56075D01*
X214475Y56968D01*
X214475Y60872D01*
X214459Y61101D01*
X214449Y61332D01*
X214439Y61386D01*
X214435Y61440D01*
X214387Y61665D01*
X214345Y61892D01*
X214328Y61944D01*
X214316Y61998D01*
X214237Y62214D01*
X214164Y62432D01*
X214139Y62481D01*
X214120Y62533D01*
X214012Y62736D01*
X213909Y62941D01*
X213878Y62987D01*
X213852Y63035D01*
X213716Y63221D01*
X213585Y63410D01*
X213548Y63451D01*
X213515Y63495D01*
X213355Y63660D01*
X213199Y63829D01*
X213156Y63864D01*
X213118Y63903D01*
X212936Y64044D01*
X212758Y64190D01*
X212710Y64218D01*
X212667Y64252D01*
X212467Y64366D01*
X212270Y64485D01*
X212220Y64507D01*
X212172Y64534D01*
X211958Y64619D01*
X211747Y64710D01*
X211694Y64724D01*
X211643Y64744D01*
X211418Y64799D01*
X211197Y64859D01*
X211153Y64863D01*
X211089Y64879D01*
X210522Y64934D01*
X210456Y64931D01*
X210412Y64935D01*
X206535Y64935D01*
X206417Y64927D01*
X206299Y64928D01*
X206133Y64907D01*
X205966Y64895D01*
X205851Y64871D01*
X205734Y64856D01*
X205625Y64822D01*
X205409Y64776D01*
X205091Y64660D01*
X204980Y64626D01*
X203955Y64201D01*
X202045Y64201D01*
X201020Y64626D01*
X200908Y64663D01*
X200800Y64710D01*
X200639Y64754D01*
X200480Y64807D01*
X200364Y64828D01*
X200250Y64859D01*
X200136Y64870D01*
X199919Y64910D01*
X199581Y64924D01*
X199465Y64935D01*
X186000Y64935D01*
X185771Y64919D01*
X185540Y64909D01*
X185486Y64899D01*
X185432Y64895D01*
X185206Y64847D01*
X184980Y64805D01*
X184928Y64788D01*
X184874Y64776D01*
X184658Y64697D01*
X184440Y64624D01*
X184391Y64599D01*
X184339Y64580D01*
X184136Y64472D01*
X183931Y64369D01*
X183885Y64338D01*
X183837Y64312D01*
X183651Y64176D01*
X183462Y64045D01*
X183421Y64008D01*
X183377Y63975D01*
X183212Y63815D01*
X183043Y63659D01*
X183008Y63616D01*
X182969Y63578D01*
X182828Y63396D01*
X182682Y63218D01*
X182654Y63170D01*
X182620Y63127D01*
X182506Y62927D01*
X182387Y62730D01*
X182365Y62680D01*
X182338Y62632D01*
X182253Y62418D01*
X182162Y62207D01*
X182148Y62154D01*
X182128Y62103D01*
X182073Y61878D01*
X182013Y61657D01*
X182009Y61613D01*
X181994Y61549D01*
X181938Y60982D01*
X181941Y60916D01*
X181937Y60872D01*
X181937Y42354D01*
X181953Y42125D01*
X181963Y41894D01*
X181973Y41840D01*
X181977Y41786D01*
X182025Y41560D01*
X182067Y41334D01*
X182084Y41282D01*
X182096Y41228D01*
X182175Y41012D01*
X182248Y40794D01*
X182273Y40745D01*
X182292Y40693D01*
X182400Y40490D01*
X182503Y40285D01*
X182534Y40239D01*
X182560Y40191D01*
X182696Y40005D01*
X182827Y39816D01*
X182864Y39775D01*
X182897Y39731D01*
X183057Y39566D01*
X183213Y39397D01*
X183256Y39362D01*
X183294Y39323D01*
X183476Y39182D01*
X183654Y39036D01*
X183702Y39008D01*
X183745Y38974D01*
X183945Y38860D01*
X184142Y38741D01*
X184192Y38719D01*
X184240Y38692D01*
X184454Y38607D01*
X184665Y38516D01*
X184718Y38502D01*
X184769Y38482D01*
X184937Y38441D01*
X184937Y30500D01*
X184937Y22565D01*
X184928Y22562D01*
X184874Y22550D01*
X184658Y22471D01*
X184440Y22398D01*
X184391Y22373D01*
X184339Y22354D01*
X184137Y22246D01*
X183931Y22143D01*
X183885Y22112D01*
X183837Y22086D01*
X183651Y21950D01*
X183462Y21819D01*
X183421Y21782D01*
X183377Y21749D01*
X183212Y21589D01*
X183043Y21433D01*
X183008Y21390D01*
X182969Y21352D01*
X182828Y21170D01*
X182682Y20992D01*
X182654Y20944D01*
X182620Y20901D01*
X182506Y20702D01*
X182387Y20504D01*
X182365Y20454D01*
X182338Y20406D01*
X182253Y20192D01*
X182162Y19981D01*
X182148Y19928D01*
X182128Y19877D01*
X182073Y19653D01*
X182013Y19431D01*
X182009Y19386D01*
X181994Y19323D01*
X181938Y18756D01*
X181941Y18690D01*
X181937Y18646D01*
X181937Y5842D01*
X181953Y5613D01*
X181963Y5382D01*
X181973Y5328D01*
X181977Y5274D01*
X182025Y5048D01*
X182067Y4822D01*
X182084Y4770D01*
X182096Y4716D01*
X182175Y4500D01*
X182248Y4282D01*
X182273Y4233D01*
X182292Y4181D01*
X182400Y3978D01*
X182503Y3773D01*
X182534Y3727D01*
X182560Y3679D01*
X182696Y3493D01*
X182827Y3304D01*
X182864Y3263D01*
X182897Y3219D01*
X183057Y3054D01*
X183213Y2885D01*
X183256Y2850D01*
X183294Y2811D01*
X183476Y2670D01*
X183654Y2524D01*
X183702Y2496D01*
X183745Y2462D01*
X183945Y2348D01*
X184142Y2229D01*
X184192Y2207D01*
X184240Y2180D01*
X184454Y2095D01*
X184665Y2004D01*
X184718Y1990D01*
X184769Y1970D01*
X184994Y1915D01*
X185215Y1855D01*
X185259Y1851D01*
X185323Y1835D01*
X185890Y1780D01*
X185956Y1783D01*
X186000Y1779D01*
X335000Y1779D01*
X335229Y1795D01*
G37*
G36*
X343098Y395743D02*
X343098Y395743D01*
X343197Y395746D01*
X343255Y395763D01*
X343316Y395771D01*
X343408Y395807D01*
X343503Y395835D01*
X343555Y395865D01*
X343611Y395888D01*
X343691Y395946D01*
X343777Y395996D01*
X343852Y396062D01*
X343869Y396074D01*
X343876Y396084D01*
X343898Y396103D01*
X350898Y403103D01*
X350958Y403181D01*
X351026Y403253D01*
X351055Y403306D01*
X351092Y403354D01*
X351132Y403445D01*
X351180Y403531D01*
X351195Y403590D01*
X351219Y403646D01*
X351234Y403744D01*
X351259Y403839D01*
X351265Y403939D01*
X351269Y403960D01*
X351267Y403972D01*
X351269Y404000D01*
X351269Y461253D01*
X351252Y461390D01*
X351239Y461529D01*
X351232Y461548D01*
X351229Y461568D01*
X351178Y461697D01*
X351131Y461828D01*
X351120Y461845D01*
X351112Y461864D01*
X351031Y461976D01*
X350953Y462091D01*
X350937Y462105D01*
X350926Y462121D01*
X350818Y462210D01*
X350714Y462302D01*
X350696Y462311D01*
X350681Y462324D01*
X350555Y462383D01*
X350431Y462447D01*
X350411Y462451D01*
X350393Y462460D01*
X350257Y462486D01*
X350121Y462516D01*
X350100Y462516D01*
X350081Y462519D01*
X349942Y462511D01*
X349803Y462507D01*
X349783Y462501D01*
X349763Y462500D01*
X349631Y462457D01*
X349497Y462418D01*
X349480Y462408D01*
X349461Y462402D01*
X349343Y462327D01*
X349223Y462257D01*
X349202Y462238D01*
X349192Y462231D01*
X349178Y462217D01*
X349103Y462150D01*
X345166Y458214D01*
X345106Y458136D01*
X345038Y458064D01*
X345009Y458011D01*
X344972Y457963D01*
X344932Y457872D01*
X344884Y457785D01*
X344869Y457727D01*
X344845Y457671D01*
X344830Y457573D01*
X344805Y457477D01*
X344799Y457377D01*
X344795Y457357D01*
X344797Y457345D01*
X344795Y457317D01*
X344795Y454517D01*
X344807Y454419D01*
X344810Y454320D01*
X344827Y454262D01*
X344835Y454202D01*
X344871Y454110D01*
X344899Y454015D01*
X344929Y453963D01*
X344952Y453906D01*
X345010Y453826D01*
X345060Y453741D01*
X345126Y453665D01*
X345138Y453649D01*
X345148Y453641D01*
X345166Y453620D01*
X346799Y451988D01*
X346799Y448012D01*
X343988Y445201D01*
X340012Y445201D01*
X337201Y448012D01*
X337201Y451988D01*
X338834Y453620D01*
X338894Y453698D01*
X338962Y453770D01*
X338991Y453823D01*
X339028Y453871D01*
X339068Y453962D01*
X339116Y454049D01*
X339131Y454107D01*
X339155Y454163D01*
X339170Y454261D01*
X339195Y454357D01*
X339201Y454457D01*
X339205Y454477D01*
X339203Y454489D01*
X339205Y454517D01*
X339205Y460158D01*
X341214Y462166D01*
X343650Y464602D01*
X343723Y464697D01*
X343802Y464786D01*
X343820Y464822D01*
X343845Y464854D01*
X343892Y464963D01*
X343947Y465069D01*
X343955Y465108D01*
X343971Y465146D01*
X343990Y465263D01*
X344016Y465379D01*
X344015Y465420D01*
X344021Y465460D01*
X344010Y465578D01*
X344007Y465697D01*
X343995Y465736D01*
X343991Y465776D01*
X343951Y465889D01*
X343918Y466003D01*
X343898Y466037D01*
X343884Y466076D01*
X343817Y466174D01*
X343757Y466277D01*
X343717Y466322D01*
X343705Y466339D01*
X343690Y466352D01*
X343650Y466397D01*
X319214Y490834D01*
X319136Y490894D01*
X319064Y490962D01*
X319011Y490991D01*
X318963Y491028D01*
X318872Y491068D01*
X318785Y491116D01*
X318727Y491131D01*
X318671Y491155D01*
X318573Y491170D01*
X318477Y491195D01*
X318377Y491201D01*
X318357Y491205D01*
X318345Y491203D01*
X318317Y491205D01*
X301842Y491205D01*
X295214Y497833D01*
X295150Y497897D01*
X295072Y497958D01*
X295000Y498026D01*
X294947Y498055D01*
X294899Y498092D01*
X294808Y498132D01*
X294721Y498180D01*
X294663Y498195D01*
X294607Y498219D01*
X294509Y498234D01*
X294413Y498259D01*
X294313Y498265D01*
X294293Y498269D01*
X294281Y498267D01*
X294253Y498269D01*
X289581Y498269D01*
X289483Y498257D01*
X289384Y498254D01*
X289326Y498237D01*
X289266Y498229D01*
X289174Y498193D01*
X289079Y498165D01*
X289027Y498135D01*
X288970Y498112D01*
X288890Y498054D01*
X288805Y498004D01*
X288729Y497938D01*
X288713Y497926D01*
X288705Y497916D01*
X288684Y497898D01*
X286988Y496201D01*
X283012Y496201D01*
X281316Y497898D01*
X281238Y497958D01*
X281166Y498026D01*
X281113Y498055D01*
X281065Y498092D01*
X280974Y498132D01*
X280887Y498180D01*
X280829Y498195D01*
X280773Y498219D01*
X280675Y498234D01*
X280579Y498259D01*
X280479Y498265D01*
X280459Y498269D01*
X280447Y498267D01*
X280419Y498269D01*
X278581Y498269D01*
X278483Y498257D01*
X278384Y498254D01*
X278326Y498237D01*
X278266Y498229D01*
X278174Y498193D01*
X278079Y498165D01*
X278027Y498135D01*
X277970Y498112D01*
X277890Y498054D01*
X277805Y498004D01*
X277729Y497938D01*
X277713Y497926D01*
X277705Y497916D01*
X277684Y497898D01*
X275988Y496201D01*
X272012Y496201D01*
X270316Y497898D01*
X270238Y497958D01*
X270166Y498026D01*
X270113Y498055D01*
X270065Y498092D01*
X269974Y498132D01*
X269887Y498180D01*
X269829Y498195D01*
X269773Y498219D01*
X269675Y498234D01*
X269579Y498259D01*
X269479Y498265D01*
X269459Y498269D01*
X269447Y498267D01*
X269419Y498269D01*
X240581Y498269D01*
X240483Y498257D01*
X240384Y498254D01*
X240326Y498237D01*
X240266Y498229D01*
X240174Y498193D01*
X240079Y498165D01*
X240027Y498135D01*
X239970Y498112D01*
X239890Y498054D01*
X239805Y498004D01*
X239729Y497938D01*
X239713Y497926D01*
X239705Y497916D01*
X239684Y497898D01*
X236988Y495201D01*
X233012Y495201D01*
X231607Y496607D01*
X231513Y496680D01*
X231423Y496759D01*
X231388Y496777D01*
X231356Y496802D01*
X231246Y496849D01*
X231140Y496903D01*
X231101Y496912D01*
X231064Y496928D01*
X230946Y496947D01*
X230830Y496973D01*
X230790Y496972D01*
X230750Y496978D01*
X230631Y496967D01*
X230512Y496963D01*
X230473Y496952D01*
X230433Y496948D01*
X230321Y496908D01*
X230207Y496875D01*
X230172Y496854D01*
X230134Y496841D01*
X230035Y496774D01*
X229933Y496713D01*
X229887Y496673D01*
X229871Y496662D01*
X229857Y496647D01*
X229812Y496607D01*
X226103Y492898D01*
X226042Y492819D01*
X225974Y492747D01*
X225945Y492694D01*
X225908Y492646D01*
X225868Y492555D01*
X225820Y492469D01*
X225805Y492410D01*
X225781Y492354D01*
X225766Y492256D01*
X225741Y492161D01*
X225735Y492061D01*
X225731Y492040D01*
X225733Y492028D01*
X225731Y492000D01*
X225731Y412068D01*
X225746Y411950D01*
X225753Y411831D01*
X225766Y411793D01*
X225771Y411752D01*
X225814Y411642D01*
X225851Y411529D01*
X225873Y411494D01*
X225888Y411457D01*
X225958Y411361D01*
X226021Y411260D01*
X226051Y411232D01*
X226074Y411199D01*
X226166Y411123D01*
X226253Y411042D01*
X226288Y411022D01*
X226319Y410997D01*
X226427Y410946D01*
X226531Y410888D01*
X226571Y410878D01*
X226607Y410861D01*
X226724Y410839D01*
X226839Y410809D01*
X226900Y410805D01*
X226920Y410801D01*
X226940Y410803D01*
X227000Y410799D01*
X229988Y410799D01*
X232799Y407988D01*
X232799Y404012D01*
X230893Y402107D01*
X230820Y402013D01*
X230741Y401923D01*
X230723Y401888D01*
X230698Y401856D01*
X230651Y401746D01*
X230597Y401640D01*
X230588Y401601D01*
X230572Y401564D01*
X230553Y401446D01*
X230527Y401330D01*
X230528Y401290D01*
X230522Y401250D01*
X230533Y401131D01*
X230537Y401012D01*
X230548Y400973D01*
X230552Y400933D01*
X230592Y400821D01*
X230625Y400707D01*
X230646Y400672D01*
X230659Y400634D01*
X230726Y400535D01*
X230787Y400433D01*
X230827Y400387D01*
X230838Y400371D01*
X230853Y400357D01*
X230893Y400312D01*
X235103Y396103D01*
X235181Y396042D01*
X235253Y395974D01*
X235306Y395945D01*
X235354Y395908D01*
X235445Y395868D01*
X235531Y395820D01*
X235590Y395805D01*
X235646Y395781D01*
X235744Y395766D01*
X235839Y395741D01*
X235939Y395735D01*
X235960Y395731D01*
X235972Y395733D01*
X236000Y395731D01*
X343000Y395731D01*
X343098Y395743D01*
G37*
G36*
X780517Y114743D02*
X780517Y114743D01*
X780616Y114746D01*
X780674Y114763D01*
X780734Y114771D01*
X780805Y114799D01*
X785187Y114799D01*
X785227Y114781D01*
X785325Y114766D01*
X785421Y114741D01*
X785521Y114735D01*
X785541Y114731D01*
X785553Y114733D01*
X785581Y114731D01*
X790806Y114731D01*
X790924Y114746D01*
X791043Y114753D01*
X791081Y114766D01*
X791122Y114771D01*
X791232Y114814D01*
X791345Y114851D01*
X791380Y114873D01*
X791417Y114888D01*
X791513Y114958D01*
X791614Y115021D01*
X791642Y115051D01*
X791675Y115074D01*
X791751Y115166D01*
X791832Y115253D01*
X791852Y115288D01*
X791877Y115319D01*
X791928Y115427D01*
X791986Y115531D01*
X791996Y115571D01*
X792013Y115607D01*
X792035Y115724D01*
X792065Y115839D01*
X792069Y115900D01*
X792073Y115920D01*
X792071Y115940D01*
X792075Y116000D01*
X792075Y116132D01*
X792968Y117025D01*
X805032Y117025D01*
X805925Y116132D01*
X805925Y116000D01*
X805940Y115882D01*
X805947Y115763D01*
X805960Y115725D01*
X805965Y115684D01*
X806008Y115574D01*
X806045Y115461D01*
X806067Y115426D01*
X806082Y115389D01*
X806151Y115293D01*
X806215Y115192D01*
X806245Y115164D01*
X806268Y115131D01*
X806360Y115056D01*
X806447Y114974D01*
X806482Y114954D01*
X806513Y114929D01*
X806621Y114878D01*
X806725Y114820D01*
X806765Y114810D01*
X806801Y114793D01*
X806918Y114771D01*
X807033Y114741D01*
X807093Y114737D01*
X807113Y114733D01*
X807134Y114735D01*
X807194Y114731D01*
X814549Y114731D01*
X814647Y114743D01*
X814746Y114746D01*
X814804Y114763D01*
X814864Y114771D01*
X814956Y114807D01*
X815051Y114835D01*
X815104Y114865D01*
X815160Y114888D01*
X815240Y114946D01*
X815325Y114996D01*
X815401Y115062D01*
X815417Y115074D01*
X815425Y115084D01*
X815446Y115103D01*
X815868Y115525D01*
X819625Y115525D01*
X819763Y115542D01*
X819901Y115555D01*
X819920Y115562D01*
X819940Y115565D01*
X820070Y115616D01*
X820200Y115663D01*
X820217Y115674D01*
X820236Y115682D01*
X820348Y115763D01*
X820463Y115841D01*
X820477Y115857D01*
X820493Y115868D01*
X820582Y115976D01*
X820674Y116080D01*
X820683Y116098D01*
X820696Y116113D01*
X820755Y116239D01*
X820818Y116363D01*
X820823Y116383D01*
X820832Y116401D01*
X820858Y116538D01*
X820888Y116673D01*
X820887Y116694D01*
X820891Y116713D01*
X820883Y116852D01*
X820878Y116991D01*
X820873Y117011D01*
X820872Y117031D01*
X820829Y117163D01*
X820790Y117297D01*
X820780Y117314D01*
X820774Y117333D01*
X820699Y117451D01*
X820628Y117571D01*
X820610Y117592D01*
X820603Y117602D01*
X820588Y117616D01*
X820522Y117691D01*
X820201Y118012D01*
X820201Y120190D01*
X820186Y120308D01*
X820179Y120427D01*
X820166Y120465D01*
X820161Y120506D01*
X820118Y120616D01*
X820081Y120729D01*
X820059Y120764D01*
X820044Y120801D01*
X819975Y120897D01*
X819911Y120998D01*
X819881Y121026D01*
X819858Y121059D01*
X819769Y121132D01*
X819769Y126231D01*
X823041Y126231D01*
X823041Y126068D01*
X823056Y125950D01*
X823063Y125831D01*
X823076Y125793D01*
X823081Y125752D01*
X823124Y125642D01*
X823161Y125529D01*
X823183Y125494D01*
X823198Y125457D01*
X823267Y125361D01*
X823331Y125260D01*
X823361Y125232D01*
X823384Y125199D01*
X823476Y125123D01*
X823563Y125042D01*
X823598Y125022D01*
X823629Y124997D01*
X823737Y124946D01*
X823841Y124888D01*
X823881Y124878D01*
X823917Y124861D01*
X824034Y124839D01*
X824149Y124809D01*
X824209Y124805D01*
X824229Y124801D01*
X824250Y124803D01*
X824310Y124799D01*
X826706Y124799D01*
X826824Y124814D01*
X826943Y124821D01*
X826981Y124834D01*
X827022Y124839D01*
X827132Y124882D01*
X827245Y124919D01*
X827280Y124941D01*
X827317Y124956D01*
X827413Y125025D01*
X827514Y125089D01*
X827542Y125119D01*
X827575Y125142D01*
X827651Y125234D01*
X827732Y125321D01*
X827752Y125356D01*
X827777Y125387D01*
X827828Y125495D01*
X827886Y125599D01*
X827896Y125639D01*
X827913Y125675D01*
X827935Y125792D01*
X827965Y125907D01*
X827969Y125967D01*
X827973Y125987D01*
X827971Y126008D01*
X827975Y126068D01*
X827975Y131632D01*
X828333Y131990D01*
X828394Y132068D01*
X828462Y132140D01*
X828491Y132193D01*
X828528Y132241D01*
X828568Y132332D01*
X828616Y132419D01*
X828631Y132477D01*
X828655Y132533D01*
X828670Y132631D01*
X828695Y132727D01*
X828701Y132827D01*
X828705Y132847D01*
X828703Y132859D01*
X828705Y132887D01*
X828705Y133318D01*
X828689Y133449D01*
X828678Y133582D01*
X828669Y133607D01*
X828665Y133634D01*
X828617Y133757D01*
X828573Y133882D01*
X828558Y133905D01*
X828548Y133930D01*
X828471Y134037D01*
X828397Y134147D01*
X828377Y134165D01*
X828362Y134187D01*
X828259Y134272D01*
X828161Y134360D01*
X828137Y134373D01*
X828117Y134390D01*
X827997Y134446D01*
X827880Y134508D01*
X827853Y134514D01*
X827829Y134525D01*
X827699Y134550D01*
X827570Y134581D01*
X827543Y134580D01*
X827517Y134585D01*
X827385Y134577D01*
X827252Y134574D01*
X827226Y134567D01*
X827199Y134565D01*
X827073Y134525D01*
X826946Y134489D01*
X826911Y134472D01*
X826897Y134467D01*
X826878Y134456D01*
X826801Y134418D01*
X826481Y134232D01*
X825834Y134059D01*
X823866Y134059D01*
X823734Y134043D01*
X823603Y134032D01*
X823577Y134023D01*
X823550Y134019D01*
X823427Y133971D01*
X823302Y133927D01*
X823280Y133912D01*
X823255Y133902D01*
X823148Y133825D01*
X823037Y133751D01*
X823019Y133731D01*
X822997Y133716D01*
X822913Y133614D01*
X822824Y133515D01*
X822812Y133491D01*
X822795Y133471D01*
X822738Y133351D01*
X822677Y133233D01*
X822670Y133207D01*
X822659Y133183D01*
X822634Y133053D01*
X822604Y132924D01*
X822604Y132897D01*
X822599Y132871D01*
X822607Y132739D01*
X822610Y132606D01*
X822617Y132580D01*
X822619Y132553D01*
X822660Y132427D01*
X822695Y132300D01*
X822712Y132265D01*
X822717Y132251D01*
X822729Y132232D01*
X822767Y132155D01*
X822868Y131981D01*
X823041Y131334D01*
X823041Y128769D01*
X818500Y128769D01*
X813959Y128769D01*
X813959Y131334D01*
X814132Y131981D01*
X814445Y132521D01*
X814491Y132631D01*
X814544Y132738D01*
X814552Y132777D01*
X814568Y132814D01*
X814585Y132932D01*
X814610Y133049D01*
X814608Y133089D01*
X814614Y133129D01*
X814602Y133248D01*
X814597Y133366D01*
X814585Y133405D01*
X814581Y133445D01*
X814540Y133557D01*
X814505Y133671D01*
X814484Y133706D01*
X814470Y133744D01*
X814403Y133841D01*
X814341Y133943D01*
X814312Y133972D01*
X814289Y134005D01*
X814199Y134083D01*
X814114Y134166D01*
X814064Y134199D01*
X814048Y134213D01*
X814030Y134222D01*
X813980Y134255D01*
X813440Y134567D01*
X812967Y135040D01*
X812632Y135619D01*
X812459Y136266D01*
X812459Y139461D01*
X818980Y139461D01*
X819098Y139476D01*
X819217Y139483D01*
X819255Y139496D01*
X819295Y139501D01*
X819406Y139544D01*
X819519Y139581D01*
X819554Y139603D01*
X819591Y139618D01*
X819687Y139688D01*
X819788Y139751D01*
X819816Y139781D01*
X819848Y139805D01*
X819924Y139896D01*
X820006Y139983D01*
X820025Y140018D01*
X820051Y140049D01*
X820102Y140157D01*
X820159Y140261D01*
X820170Y140301D01*
X820187Y140337D01*
X820209Y140454D01*
X820239Y140569D01*
X820243Y140630D01*
X820247Y140650D01*
X820245Y140670D01*
X820249Y140730D01*
X820249Y142001D01*
X820251Y142001D01*
X820251Y140730D01*
X820266Y140612D01*
X820273Y140493D01*
X820286Y140455D01*
X820291Y140415D01*
X820335Y140304D01*
X820371Y140191D01*
X820393Y140156D01*
X820408Y140119D01*
X820478Y140023D01*
X820541Y139922D01*
X820571Y139894D01*
X820595Y139861D01*
X820686Y139786D01*
X820773Y139704D01*
X820808Y139684D01*
X820840Y139659D01*
X820947Y139608D01*
X821051Y139550D01*
X821091Y139540D01*
X821127Y139523D01*
X821244Y139501D01*
X821359Y139471D01*
X821420Y139467D01*
X821440Y139463D01*
X821460Y139465D01*
X821520Y139461D01*
X828041Y139461D01*
X828041Y139307D01*
X828058Y139169D01*
X828071Y139031D01*
X828078Y139012D01*
X828081Y138992D01*
X828132Y138862D01*
X828179Y138732D01*
X828190Y138715D01*
X828198Y138696D01*
X828279Y138584D01*
X828357Y138468D01*
X828373Y138455D01*
X828384Y138439D01*
X828491Y138350D01*
X828596Y138258D01*
X828614Y138249D01*
X828629Y138236D01*
X828755Y138177D01*
X828879Y138113D01*
X828899Y138109D01*
X828917Y138100D01*
X829053Y138074D01*
X829189Y138044D01*
X829210Y138044D01*
X829229Y138041D01*
X829368Y138049D01*
X829507Y138053D01*
X829527Y138059D01*
X829547Y138060D01*
X829679Y138103D01*
X829813Y138142D01*
X829830Y138152D01*
X829849Y138158D01*
X829967Y138233D01*
X830087Y138303D01*
X830108Y138322D01*
X830118Y138329D01*
X830132Y138343D01*
X830208Y138410D01*
X830604Y138806D01*
X830664Y138884D01*
X830732Y138956D01*
X830761Y139009D01*
X830798Y139057D01*
X830838Y139148D01*
X830886Y139235D01*
X830901Y139293D01*
X830925Y139349D01*
X830940Y139447D01*
X830965Y139543D01*
X830971Y139643D01*
X830975Y139663D01*
X830973Y139675D01*
X830975Y139703D01*
X830975Y148032D01*
X831868Y148925D01*
X843632Y148925D01*
X844525Y148032D01*
X844525Y135968D01*
X843632Y135075D01*
X835564Y135075D01*
X835446Y135060D01*
X835327Y135053D01*
X835289Y135040D01*
X835248Y135035D01*
X835138Y134992D01*
X835025Y134955D01*
X834990Y134933D01*
X834953Y134918D01*
X834857Y134849D01*
X834756Y134785D01*
X834728Y134755D01*
X834695Y134732D01*
X834619Y134640D01*
X834538Y134553D01*
X834518Y134518D01*
X834493Y134487D01*
X834442Y134379D01*
X834384Y134275D01*
X834374Y134235D01*
X834357Y134199D01*
X834335Y134082D01*
X834305Y133967D01*
X834301Y133907D01*
X834297Y133887D01*
X834299Y133866D01*
X834298Y133852D01*
X834297Y133850D01*
X834297Y133848D01*
X834295Y133806D01*
X834295Y132887D01*
X834307Y132789D01*
X834310Y132690D01*
X834327Y132632D01*
X834335Y132572D01*
X834371Y132480D01*
X834399Y132385D01*
X834429Y132332D01*
X834452Y132276D01*
X834510Y132196D01*
X834560Y132111D01*
X834626Y132035D01*
X834638Y132019D01*
X834648Y132011D01*
X834667Y131990D01*
X835025Y131632D01*
X835025Y131564D01*
X835040Y131446D01*
X835047Y131327D01*
X835060Y131289D01*
X835065Y131248D01*
X835108Y131138D01*
X835145Y131025D01*
X835167Y130990D01*
X835182Y130953D01*
X835251Y130857D01*
X835315Y130756D01*
X835345Y130728D01*
X835368Y130695D01*
X835460Y130619D01*
X835547Y130538D01*
X835582Y130518D01*
X835613Y130493D01*
X835721Y130442D01*
X835825Y130384D01*
X835865Y130374D01*
X835901Y130357D01*
X836018Y130335D01*
X836133Y130305D01*
X836193Y130301D01*
X836213Y130297D01*
X836234Y130299D01*
X836294Y130295D01*
X849817Y130295D01*
X849915Y130307D01*
X850014Y130310D01*
X850072Y130327D01*
X850132Y130335D01*
X850224Y130371D01*
X850319Y130399D01*
X850372Y130429D01*
X850428Y130452D01*
X850508Y130510D01*
X850593Y130560D01*
X850669Y130626D01*
X850685Y130638D01*
X850693Y130648D01*
X850714Y130666D01*
X861898Y141850D01*
X861958Y141928D01*
X862026Y142000D01*
X862055Y142053D01*
X862092Y142101D01*
X862132Y142192D01*
X862180Y142279D01*
X862195Y142337D01*
X862219Y142393D01*
X862234Y142491D01*
X862259Y142587D01*
X862265Y142687D01*
X862269Y142707D01*
X862267Y142719D01*
X862269Y142747D01*
X862269Y168190D01*
X862254Y168308D01*
X862247Y168427D01*
X862234Y168465D01*
X862229Y168506D01*
X862186Y168616D01*
X862149Y168729D01*
X862127Y168764D01*
X862112Y168801D01*
X862043Y168897D01*
X861979Y168998D01*
X861949Y169026D01*
X861926Y169059D01*
X861834Y169135D01*
X861747Y169216D01*
X861712Y169236D01*
X861681Y169261D01*
X861573Y169312D01*
X861469Y169370D01*
X861429Y169380D01*
X861393Y169397D01*
X861276Y169419D01*
X861161Y169449D01*
X861101Y169453D01*
X861081Y169457D01*
X861060Y169455D01*
X861000Y169459D01*
X858499Y169459D01*
X858499Y177770D01*
X858484Y177888D01*
X858477Y178007D01*
X858464Y178045D01*
X858459Y178085D01*
X858416Y178196D01*
X858379Y178309D01*
X858357Y178343D01*
X858342Y178381D01*
X858273Y178477D01*
X858209Y178578D01*
X858179Y178606D01*
X858156Y178638D01*
X858064Y178714D01*
X857977Y178796D01*
X857942Y178815D01*
X857911Y178841D01*
X857803Y178892D01*
X857699Y178949D01*
X857659Y178959D01*
X857623Y178977D01*
X857516Y178997D01*
X857546Y179001D01*
X857656Y179045D01*
X857769Y179081D01*
X857804Y179103D01*
X857841Y179118D01*
X857937Y179188D01*
X858038Y179251D01*
X858066Y179281D01*
X858099Y179305D01*
X858175Y179396D01*
X858256Y179483D01*
X858276Y179518D01*
X858301Y179550D01*
X858352Y179657D01*
X858410Y179762D01*
X858420Y179801D01*
X858437Y179837D01*
X858459Y179954D01*
X858489Y180070D01*
X858493Y180130D01*
X858497Y180150D01*
X858495Y180170D01*
X858499Y180230D01*
X858499Y188541D01*
X861000Y188541D01*
X861118Y188556D01*
X861237Y188563D01*
X861275Y188576D01*
X861316Y188581D01*
X861426Y188624D01*
X861539Y188661D01*
X861574Y188683D01*
X861611Y188698D01*
X861707Y188767D01*
X861808Y188831D01*
X861836Y188861D01*
X861869Y188884D01*
X861945Y188976D01*
X862026Y189063D01*
X862046Y189098D01*
X862071Y189129D01*
X862122Y189237D01*
X862180Y189341D01*
X862190Y189381D01*
X862207Y189417D01*
X862229Y189534D01*
X862259Y189649D01*
X862263Y189709D01*
X862267Y189729D01*
X862265Y189750D01*
X862269Y189810D01*
X862269Y191206D01*
X862254Y191324D01*
X862247Y191443D01*
X862234Y191481D01*
X862229Y191522D01*
X862186Y191632D01*
X862149Y191745D01*
X862127Y191780D01*
X862112Y191817D01*
X862043Y191913D01*
X861979Y192014D01*
X861949Y192042D01*
X861926Y192075D01*
X861834Y192151D01*
X861747Y192232D01*
X861712Y192252D01*
X861681Y192277D01*
X861573Y192328D01*
X861469Y192386D01*
X861429Y192396D01*
X861393Y192413D01*
X861276Y192435D01*
X861161Y192465D01*
X861101Y192469D01*
X861081Y192473D01*
X861060Y192471D01*
X861000Y192475D01*
X859868Y192475D01*
X858975Y193368D01*
X858975Y202294D01*
X858963Y202392D01*
X858960Y202491D01*
X858943Y202549D01*
X858935Y202610D01*
X858899Y202702D01*
X858871Y202797D01*
X858841Y202849D01*
X858818Y202905D01*
X858760Y202985D01*
X858710Y203071D01*
X858672Y203114D01*
X858670Y203117D01*
X858665Y203121D01*
X858644Y203146D01*
X858632Y203163D01*
X858622Y203170D01*
X858604Y203191D01*
X855191Y206604D01*
X855082Y206689D01*
X854975Y206777D01*
X854956Y206786D01*
X854940Y206798D01*
X854812Y206854D01*
X854687Y206913D01*
X854667Y206917D01*
X854648Y206925D01*
X854510Y206947D01*
X854374Y206973D01*
X854354Y206971D01*
X854334Y206975D01*
X854195Y206962D01*
X854057Y206953D01*
X854038Y206947D01*
X854018Y206945D01*
X853886Y206898D01*
X853755Y206855D01*
X853737Y206844D01*
X853718Y206837D01*
X853603Y206759D01*
X853486Y206685D01*
X853472Y206670D01*
X853455Y206659D01*
X853363Y206555D01*
X853268Y206453D01*
X853258Y206435D01*
X853245Y206420D01*
X853181Y206296D01*
X853114Y206175D01*
X853109Y206155D01*
X853100Y206137D01*
X853070Y206001D01*
X853035Y205867D01*
X853033Y205839D01*
X853030Y205827D01*
X853031Y205806D01*
X853025Y205706D01*
X853025Y193368D01*
X852132Y192475D01*
X840868Y192475D01*
X839975Y193368D01*
X839975Y208632D01*
X840868Y209525D01*
X841166Y209525D01*
X841284Y209540D01*
X841403Y209547D01*
X841441Y209560D01*
X841482Y209565D01*
X841592Y209608D01*
X841705Y209645D01*
X841740Y209667D01*
X841777Y209682D01*
X841873Y209751D01*
X841974Y209815D01*
X842002Y209845D01*
X842035Y209868D01*
X842111Y209960D01*
X842192Y210047D01*
X842212Y210082D01*
X842237Y210113D01*
X842288Y210221D01*
X842346Y210325D01*
X842356Y210365D01*
X842373Y210401D01*
X842395Y210518D01*
X842425Y210633D01*
X842429Y210693D01*
X842433Y210713D01*
X842431Y210734D01*
X842435Y210794D01*
X842435Y212000D01*
X842420Y212118D01*
X842413Y212237D01*
X842400Y212275D01*
X842395Y212316D01*
X842352Y212426D01*
X842315Y212539D01*
X842293Y212574D01*
X842278Y212611D01*
X842209Y212707D01*
X842145Y212808D01*
X842115Y212836D01*
X842092Y212869D01*
X842000Y212945D01*
X841913Y213026D01*
X841878Y213046D01*
X841847Y213071D01*
X841739Y213122D01*
X841635Y213180D01*
X841595Y213190D01*
X841559Y213207D01*
X841442Y213229D01*
X841327Y213259D01*
X841267Y213263D01*
X841247Y213267D01*
X841226Y213265D01*
X841166Y213269D01*
X828194Y213269D01*
X828076Y213254D01*
X827957Y213247D01*
X827919Y213234D01*
X827878Y213229D01*
X827768Y213186D01*
X827655Y213149D01*
X827620Y213127D01*
X827583Y213112D01*
X827487Y213043D01*
X827386Y212979D01*
X827358Y212949D01*
X827325Y212926D01*
X827249Y212834D01*
X827168Y212747D01*
X827148Y212712D01*
X827123Y212681D01*
X827072Y212573D01*
X827014Y212469D01*
X827004Y212429D01*
X826987Y212393D01*
X826965Y212276D01*
X826935Y212161D01*
X826931Y212101D01*
X826927Y212081D01*
X826929Y212060D01*
X826925Y212000D01*
X826925Y207368D01*
X826032Y206475D01*
X824064Y206475D01*
X823946Y206460D01*
X823827Y206453D01*
X823789Y206440D01*
X823748Y206435D01*
X823638Y206392D01*
X823525Y206355D01*
X823490Y206333D01*
X823453Y206318D01*
X823357Y206249D01*
X823256Y206185D01*
X823228Y206155D01*
X823195Y206132D01*
X823119Y206040D01*
X823038Y205953D01*
X823018Y205918D01*
X822993Y205887D01*
X822942Y205779D01*
X822884Y205675D01*
X822874Y205635D01*
X822857Y205599D01*
X822835Y205482D01*
X822805Y205367D01*
X822801Y205307D01*
X822797Y205287D01*
X822799Y205266D01*
X822795Y205206D01*
X822795Y198794D01*
X822810Y198676D01*
X822817Y198557D01*
X822830Y198519D01*
X822835Y198478D01*
X822878Y198368D01*
X822915Y198255D01*
X822937Y198220D01*
X822952Y198183D01*
X823021Y198087D01*
X823085Y197986D01*
X823115Y197958D01*
X823138Y197925D01*
X823230Y197849D01*
X823317Y197768D01*
X823352Y197748D01*
X823383Y197723D01*
X823491Y197672D01*
X823595Y197614D01*
X823635Y197604D01*
X823671Y197587D01*
X823788Y197565D01*
X823903Y197535D01*
X823963Y197531D01*
X823983Y197527D01*
X824004Y197529D01*
X824064Y197525D01*
X826032Y197525D01*
X826925Y196632D01*
X826925Y184868D01*
X826032Y183975D01*
X813968Y183975D01*
X813075Y184868D01*
X813075Y196632D01*
X813968Y197525D01*
X815936Y197525D01*
X816054Y197540D01*
X816173Y197547D01*
X816211Y197560D01*
X816252Y197565D01*
X816362Y197608D01*
X816475Y197645D01*
X816510Y197667D01*
X816547Y197682D01*
X816643Y197751D01*
X816744Y197815D01*
X816772Y197845D01*
X816805Y197868D01*
X816881Y197960D01*
X816962Y198047D01*
X816982Y198082D01*
X817007Y198113D01*
X817058Y198221D01*
X817116Y198325D01*
X817126Y198365D01*
X817143Y198401D01*
X817165Y198518D01*
X817195Y198633D01*
X817199Y198693D01*
X817203Y198713D01*
X817201Y198734D01*
X817205Y198794D01*
X817205Y205206D01*
X817190Y205324D01*
X817183Y205443D01*
X817170Y205481D01*
X817165Y205522D01*
X817122Y205632D01*
X817085Y205745D01*
X817063Y205780D01*
X817048Y205817D01*
X816979Y205913D01*
X816915Y206014D01*
X816885Y206042D01*
X816862Y206075D01*
X816770Y206151D01*
X816683Y206232D01*
X816648Y206252D01*
X816617Y206277D01*
X816509Y206328D01*
X816405Y206386D01*
X816365Y206396D01*
X816329Y206413D01*
X816212Y206435D01*
X816097Y206465D01*
X816037Y206469D01*
X816017Y206473D01*
X815996Y206471D01*
X815936Y206475D01*
X813968Y206475D01*
X813075Y207368D01*
X813075Y212000D01*
X813060Y212118D01*
X813053Y212237D01*
X813040Y212275D01*
X813035Y212316D01*
X812992Y212426D01*
X812955Y212539D01*
X812933Y212574D01*
X812918Y212611D01*
X812849Y212707D01*
X812785Y212808D01*
X812755Y212836D01*
X812732Y212869D01*
X812640Y212945D01*
X812553Y213026D01*
X812518Y213046D01*
X812487Y213071D01*
X812379Y213122D01*
X812275Y213180D01*
X812235Y213190D01*
X812199Y213207D01*
X812082Y213229D01*
X811967Y213259D01*
X811907Y213263D01*
X811887Y213267D01*
X811866Y213265D01*
X811806Y213269D01*
X794060Y213269D01*
X793942Y213254D01*
X793823Y213247D01*
X793785Y213234D01*
X793744Y213229D01*
X793634Y213186D01*
X793521Y213149D01*
X793486Y213127D01*
X793449Y213112D01*
X793353Y213043D01*
X793252Y212979D01*
X793224Y212949D01*
X793191Y212926D01*
X793115Y212834D01*
X793034Y212747D01*
X793014Y212712D01*
X792989Y212681D01*
X792938Y212573D01*
X792880Y212469D01*
X792870Y212429D01*
X792853Y212393D01*
X792831Y212276D01*
X792801Y212161D01*
X792797Y212101D01*
X792793Y212081D01*
X792795Y212060D01*
X792791Y212000D01*
X792791Y207666D01*
X792618Y207019D01*
X792283Y206440D01*
X791810Y205967D01*
X791231Y205632D01*
X790584Y205459D01*
X788874Y205459D01*
X788874Y212000D01*
X788859Y212118D01*
X788852Y212237D01*
X788839Y212275D01*
X788834Y212316D01*
X788791Y212426D01*
X788754Y212539D01*
X788732Y212574D01*
X788717Y212611D01*
X788648Y212707D01*
X788584Y212808D01*
X788554Y212836D01*
X788531Y212869D01*
X788439Y212945D01*
X788352Y213026D01*
X788317Y213046D01*
X788286Y213071D01*
X788178Y213122D01*
X788074Y213180D01*
X788034Y213190D01*
X787998Y213207D01*
X787881Y213229D01*
X787766Y213259D01*
X787706Y213263D01*
X787686Y213267D01*
X787665Y213265D01*
X787605Y213269D01*
X787395Y213269D01*
X787277Y213254D01*
X787158Y213247D01*
X787120Y213234D01*
X787079Y213229D01*
X786969Y213186D01*
X786856Y213149D01*
X786821Y213127D01*
X786784Y213112D01*
X786687Y213043D01*
X786587Y212979D01*
X786559Y212949D01*
X786526Y212926D01*
X786450Y212834D01*
X786369Y212747D01*
X786349Y212712D01*
X786324Y212681D01*
X786273Y212573D01*
X786215Y212469D01*
X786205Y212429D01*
X786188Y212393D01*
X786166Y212276D01*
X786136Y212161D01*
X786132Y212101D01*
X786128Y212081D01*
X786130Y212060D01*
X786126Y212000D01*
X786126Y205459D01*
X784416Y205459D01*
X783769Y205632D01*
X783190Y205967D01*
X782929Y206228D01*
X782835Y206301D01*
X782746Y206380D01*
X782710Y206398D01*
X782678Y206423D01*
X782568Y206470D01*
X782462Y206524D01*
X782423Y206533D01*
X782386Y206549D01*
X782268Y206568D01*
X782152Y206594D01*
X782112Y206593D01*
X782072Y206599D01*
X781953Y206588D01*
X781834Y206584D01*
X781795Y206573D01*
X781755Y206569D01*
X781643Y206529D01*
X781529Y206496D01*
X781494Y206475D01*
X774495Y206475D01*
X774399Y206524D01*
X774360Y206533D01*
X774323Y206549D01*
X774205Y206568D01*
X774089Y206594D01*
X774049Y206593D01*
X774009Y206599D01*
X773890Y206588D01*
X773771Y206584D01*
X773732Y206573D01*
X773692Y206569D01*
X773580Y206529D01*
X773466Y206496D01*
X773431Y206475D01*
X773393Y206462D01*
X773294Y206395D01*
X773192Y206334D01*
X773147Y206294D01*
X773130Y206283D01*
X773116Y206268D01*
X773071Y206228D01*
X772810Y205967D01*
X772231Y205632D01*
X771584Y205459D01*
X769874Y205459D01*
X769874Y212000D01*
X769859Y212118D01*
X769852Y212237D01*
X769839Y212275D01*
X769834Y212316D01*
X769791Y212426D01*
X769754Y212539D01*
X769732Y212574D01*
X769717Y212611D01*
X769648Y212707D01*
X769584Y212808D01*
X769554Y212836D01*
X769531Y212869D01*
X769439Y212945D01*
X769352Y213026D01*
X769317Y213046D01*
X769286Y213071D01*
X769178Y213122D01*
X769074Y213180D01*
X769034Y213190D01*
X768998Y213207D01*
X768881Y213229D01*
X768766Y213259D01*
X768706Y213263D01*
X768686Y213267D01*
X768665Y213265D01*
X768605Y213269D01*
X768395Y213269D01*
X768277Y213254D01*
X768158Y213247D01*
X768120Y213234D01*
X768079Y213229D01*
X767969Y213186D01*
X767856Y213149D01*
X767821Y213127D01*
X767784Y213112D01*
X767687Y213043D01*
X767587Y212979D01*
X767559Y212949D01*
X767526Y212926D01*
X767450Y212834D01*
X767369Y212747D01*
X767349Y212712D01*
X767324Y212681D01*
X767273Y212573D01*
X767215Y212469D01*
X767205Y212429D01*
X767188Y212393D01*
X767166Y212276D01*
X767136Y212161D01*
X767132Y212101D01*
X767128Y212081D01*
X767130Y212060D01*
X767126Y212000D01*
X767126Y205459D01*
X765416Y205459D01*
X764769Y205632D01*
X764190Y205967D01*
X763717Y206440D01*
X763382Y207019D01*
X763209Y207666D01*
X763209Y212000D01*
X763194Y212118D01*
X763187Y212237D01*
X763174Y212275D01*
X763169Y212316D01*
X763126Y212426D01*
X763089Y212539D01*
X763067Y212574D01*
X763052Y212611D01*
X762983Y212707D01*
X762919Y212808D01*
X762889Y212836D01*
X762866Y212869D01*
X762774Y212945D01*
X762687Y213026D01*
X762652Y213046D01*
X762621Y213071D01*
X762513Y213122D01*
X762409Y213180D01*
X762369Y213190D01*
X762333Y213207D01*
X762216Y213229D01*
X762101Y213259D01*
X762041Y213263D01*
X762021Y213267D01*
X762000Y213265D01*
X761940Y213269D01*
X744000Y213269D01*
X743902Y213257D01*
X743803Y213254D01*
X743745Y213237D01*
X743684Y213229D01*
X743592Y213193D01*
X743497Y213165D01*
X743445Y213135D01*
X743389Y213112D01*
X743309Y213054D01*
X743223Y213004D01*
X743148Y212938D01*
X743131Y212926D01*
X743124Y212916D01*
X743103Y212898D01*
X739103Y208898D01*
X739042Y208819D01*
X738974Y208747D01*
X738945Y208694D01*
X738908Y208646D01*
X738868Y208555D01*
X738820Y208469D01*
X738805Y208410D01*
X738781Y208354D01*
X738766Y208256D01*
X738741Y208161D01*
X738735Y208061D01*
X738731Y208040D01*
X738733Y208028D01*
X738731Y208000D01*
X738731Y186000D01*
X738743Y185902D01*
X738746Y185803D01*
X738763Y185745D01*
X738771Y185684D01*
X738807Y185592D01*
X738835Y185497D01*
X738865Y185445D01*
X738888Y185389D01*
X738946Y185309D01*
X738996Y185223D01*
X739062Y185148D01*
X739074Y185131D01*
X739084Y185124D01*
X739103Y185103D01*
X744103Y180103D01*
X744181Y180042D01*
X744253Y179974D01*
X744306Y179945D01*
X744354Y179908D01*
X744445Y179868D01*
X744531Y179820D01*
X744590Y179805D01*
X744646Y179781D01*
X744744Y179766D01*
X744839Y179741D01*
X744939Y179735D01*
X744960Y179731D01*
X744972Y179733D01*
X745000Y179731D01*
X760149Y179731D01*
X760247Y179743D01*
X760346Y179746D01*
X760404Y179763D01*
X760464Y179771D01*
X760556Y179807D01*
X760651Y179835D01*
X760704Y179865D01*
X760760Y179888D01*
X760840Y179946D01*
X760925Y179996D01*
X760958Y180025D01*
X773050Y180025D01*
X773104Y179974D01*
X773157Y179945D01*
X773205Y179908D01*
X773296Y179868D01*
X773383Y179820D01*
X773441Y179805D01*
X773497Y179781D01*
X773595Y179766D01*
X773691Y179741D01*
X773791Y179735D01*
X773811Y179731D01*
X773823Y179733D01*
X773851Y179731D01*
X780149Y179731D01*
X780247Y179743D01*
X780346Y179746D01*
X780404Y179763D01*
X780464Y179771D01*
X780556Y179807D01*
X780651Y179835D01*
X780704Y179865D01*
X780760Y179888D01*
X780840Y179946D01*
X780925Y179996D01*
X780958Y180025D01*
X793032Y180025D01*
X793925Y179132D01*
X793925Y178806D01*
X793937Y178708D01*
X793940Y178609D01*
X793957Y178551D01*
X793965Y178490D01*
X794001Y178398D01*
X794029Y178303D01*
X794059Y178251D01*
X794082Y178195D01*
X794140Y178115D01*
X794190Y178029D01*
X794256Y177954D01*
X794268Y177937D01*
X794278Y177930D01*
X794297Y177909D01*
X794731Y177474D01*
X794731Y150526D01*
X784474Y140269D01*
X783851Y140269D01*
X783753Y140257D01*
X783654Y140254D01*
X783596Y140237D01*
X783536Y140229D01*
X783444Y140193D01*
X783349Y140165D01*
X783296Y140135D01*
X783240Y140112D01*
X783160Y140054D01*
X783075Y140004D01*
X783042Y139975D01*
X782706Y139975D01*
X782608Y139963D01*
X782509Y139960D01*
X782451Y139943D01*
X782390Y139935D01*
X782298Y139899D01*
X782203Y139871D01*
X782151Y139841D01*
X782095Y139818D01*
X782015Y139760D01*
X781929Y139710D01*
X781854Y139644D01*
X781837Y139632D01*
X781830Y139622D01*
X781809Y139604D01*
X781412Y139207D01*
X781327Y139098D01*
X781239Y138991D01*
X781230Y138972D01*
X781218Y138956D01*
X781162Y138828D01*
X781103Y138703D01*
X781099Y138683D01*
X781091Y138664D01*
X781069Y138526D01*
X781043Y138390D01*
X781045Y138370D01*
X781041Y138350D01*
X781054Y138211D01*
X781063Y138073D01*
X781069Y138054D01*
X781071Y138034D01*
X781118Y137902D01*
X781161Y137771D01*
X781172Y137753D01*
X781179Y137734D01*
X781257Y137619D01*
X781331Y137502D01*
X781346Y137488D01*
X781357Y137471D01*
X781461Y137379D01*
X781563Y137284D01*
X781581Y137274D01*
X781596Y137261D01*
X781720Y137197D01*
X781841Y137130D01*
X781861Y137125D01*
X781879Y137116D01*
X782015Y137086D01*
X782149Y137051D01*
X782177Y137049D01*
X782189Y137046D01*
X782210Y137047D01*
X782310Y137041D01*
X782734Y137041D01*
X783381Y136868D01*
X783960Y136533D01*
X784433Y136060D01*
X784768Y135481D01*
X784941Y134834D01*
X784941Y131789D01*
X778270Y131789D01*
X778152Y131774D01*
X778033Y131767D01*
X777995Y131754D01*
X777955Y131749D01*
X777844Y131705D01*
X777731Y131669D01*
X777696Y131647D01*
X777659Y131632D01*
X777563Y131562D01*
X777462Y131499D01*
X777434Y131469D01*
X777402Y131445D01*
X777326Y131354D01*
X777244Y131267D01*
X777225Y131232D01*
X777199Y131200D01*
X777148Y131093D01*
X777091Y130989D01*
X777080Y130949D01*
X777063Y130913D01*
X777041Y130796D01*
X777011Y130681D01*
X777007Y130620D01*
X777003Y130600D01*
X777005Y130580D01*
X777001Y130520D01*
X777001Y129249D01*
X775730Y129249D01*
X775612Y129234D01*
X775493Y129227D01*
X775455Y129214D01*
X775415Y129209D01*
X775304Y129165D01*
X775191Y129129D01*
X775156Y129107D01*
X775119Y129092D01*
X775023Y129022D01*
X774922Y128959D01*
X774894Y128929D01*
X774861Y128905D01*
X774786Y128814D01*
X774704Y128727D01*
X774684Y128692D01*
X774659Y128660D01*
X774608Y128553D01*
X774550Y128449D01*
X774540Y128409D01*
X774523Y128373D01*
X774501Y128256D01*
X774471Y128141D01*
X774467Y128080D01*
X774463Y128060D01*
X774465Y128040D01*
X774461Y127980D01*
X774461Y121339D01*
X774426Y121317D01*
X774389Y121302D01*
X774293Y121233D01*
X774192Y121169D01*
X774164Y121139D01*
X774131Y121116D01*
X774056Y121024D01*
X773974Y120937D01*
X773954Y120902D01*
X773929Y120871D01*
X773878Y120763D01*
X773820Y120659D01*
X773810Y120619D01*
X773793Y120583D01*
X773771Y120466D01*
X773741Y120351D01*
X773737Y120291D01*
X773733Y120271D01*
X773735Y120250D01*
X773731Y120190D01*
X773731Y118000D01*
X773743Y117902D01*
X773746Y117803D01*
X773763Y117745D01*
X773771Y117684D01*
X773807Y117592D01*
X773835Y117497D01*
X773865Y117445D01*
X773888Y117389D01*
X773946Y117309D01*
X773996Y117223D01*
X774062Y117148D01*
X774074Y117131D01*
X774084Y117124D01*
X774103Y117103D01*
X776103Y115103D01*
X776181Y115042D01*
X776253Y114974D01*
X776306Y114945D01*
X776354Y114908D01*
X776445Y114868D01*
X776531Y114820D01*
X776590Y114805D01*
X776646Y114781D01*
X776744Y114766D01*
X776839Y114741D01*
X776939Y114735D01*
X776960Y114731D01*
X776972Y114733D01*
X777000Y114731D01*
X780419Y114731D01*
X780517Y114743D01*
G37*
G36*
X997070Y164746D02*
X997070Y164746D01*
X997189Y164753D01*
X997227Y164766D01*
X997268Y164771D01*
X997378Y164814D01*
X997491Y164851D01*
X997526Y164873D01*
X997563Y164888D01*
X997659Y164958D01*
X997760Y165021D01*
X997788Y165051D01*
X997821Y165074D01*
X997897Y165166D01*
X997978Y165253D01*
X997998Y165288D01*
X998023Y165319D01*
X998074Y165427D01*
X998132Y165531D01*
X998142Y165571D01*
X998159Y165607D01*
X998181Y165724D01*
X998211Y165839D01*
X998215Y165900D01*
X998219Y165920D01*
X998217Y165940D01*
X998221Y166000D01*
X998221Y262000D01*
X998206Y262118D01*
X998199Y262237D01*
X998186Y262275D01*
X998181Y262316D01*
X998138Y262426D01*
X998101Y262539D01*
X998079Y262574D01*
X998064Y262611D01*
X997995Y262707D01*
X997931Y262808D01*
X997901Y262836D01*
X997878Y262869D01*
X997786Y262944D01*
X997699Y263026D01*
X997664Y263046D01*
X997633Y263071D01*
X997525Y263122D01*
X997421Y263180D01*
X997381Y263190D01*
X997345Y263207D01*
X997228Y263229D01*
X997113Y263259D01*
X997053Y263263D01*
X997033Y263267D01*
X997012Y263265D01*
X996952Y263269D01*
X943000Y263269D01*
X942882Y263254D01*
X942763Y263247D01*
X942725Y263234D01*
X942684Y263229D01*
X942574Y263186D01*
X942461Y263149D01*
X942426Y263127D01*
X942389Y263112D01*
X942293Y263043D01*
X942192Y262979D01*
X942164Y262949D01*
X942131Y262926D01*
X942056Y262834D01*
X941974Y262747D01*
X941954Y262712D01*
X941929Y262681D01*
X941878Y262573D01*
X941820Y262469D01*
X941810Y262429D01*
X941793Y262393D01*
X941771Y262276D01*
X941741Y262161D01*
X941737Y262101D01*
X941733Y262081D01*
X941735Y262060D01*
X941731Y262000D01*
X941731Y248000D01*
X941743Y247902D01*
X941746Y247803D01*
X941763Y247745D01*
X941771Y247684D01*
X941807Y247592D01*
X941835Y247497D01*
X941865Y247445D01*
X941888Y247389D01*
X941946Y247309D01*
X941996Y247223D01*
X942062Y247148D01*
X942074Y247131D01*
X942084Y247124D01*
X942103Y247103D01*
X946035Y243170D01*
X946113Y243110D01*
X946185Y243042D01*
X946238Y243013D01*
X946286Y242976D01*
X946377Y242936D01*
X946463Y242888D01*
X946522Y242873D01*
X946578Y242849D01*
X946676Y242834D01*
X946771Y242809D01*
X946871Y242803D01*
X946892Y242799D01*
X946904Y242801D01*
X946932Y242799D01*
X948988Y242799D01*
X951799Y239988D01*
X951799Y238000D01*
X951814Y237882D01*
X951821Y237763D01*
X951834Y237725D01*
X951839Y237684D01*
X951882Y237574D01*
X951919Y237461D01*
X951941Y237426D01*
X951956Y237389D01*
X952025Y237293D01*
X952089Y237192D01*
X952119Y237164D01*
X952142Y237131D01*
X952234Y237056D01*
X952321Y236974D01*
X952356Y236954D01*
X952387Y236929D01*
X952495Y236878D01*
X952599Y236820D01*
X952639Y236810D01*
X952675Y236793D01*
X952792Y236771D01*
X952907Y236741D01*
X952967Y236737D01*
X952987Y236733D01*
X953008Y236735D01*
X953068Y236731D01*
X969474Y236731D01*
X970059Y236147D01*
X970137Y236086D01*
X970209Y236018D01*
X970262Y235989D01*
X970310Y235952D01*
X970401Y235912D01*
X970487Y235864D01*
X970546Y235849D01*
X970602Y235825D01*
X970700Y235810D01*
X970795Y235785D01*
X970895Y235779D01*
X970916Y235775D01*
X970928Y235777D01*
X970956Y235775D01*
X972382Y235775D01*
X973275Y234882D01*
X973275Y223118D01*
X973103Y222946D01*
X973042Y222868D01*
X972974Y222796D01*
X972945Y222743D01*
X972908Y222695D01*
X972868Y222604D01*
X972820Y222517D01*
X972805Y222459D01*
X972781Y222403D01*
X972766Y222305D01*
X972741Y222209D01*
X972735Y222109D01*
X972731Y222089D01*
X972733Y222077D01*
X972731Y222049D01*
X972731Y221526D01*
X969355Y218150D01*
X969324Y218110D01*
X969288Y218077D01*
X969227Y217985D01*
X969160Y217898D01*
X969140Y217853D01*
X969113Y217811D01*
X969077Y217707D01*
X969033Y217607D01*
X969026Y217558D01*
X969010Y217511D01*
X969001Y217401D01*
X968984Y217293D01*
X968988Y217243D01*
X968984Y217194D01*
X969003Y217085D01*
X969013Y216976D01*
X969030Y216929D01*
X969039Y216880D01*
X969084Y216780D01*
X969121Y216677D01*
X969149Y216635D01*
X969169Y216590D01*
X969238Y216504D01*
X969300Y216413D01*
X969337Y216381D01*
X969368Y216342D01*
X969456Y216276D01*
X969538Y216203D01*
X969582Y216180D01*
X969622Y216151D01*
X969767Y216080D01*
X970190Y215904D01*
X971466Y215051D01*
X972551Y213966D01*
X973404Y212690D01*
X973991Y211273D01*
X974095Y210749D01*
X966980Y210749D01*
X966862Y210734D01*
X966743Y210727D01*
X966705Y210714D01*
X966665Y210709D01*
X966554Y210666D01*
X966506Y210650D01*
X966488Y210660D01*
X966449Y210670D01*
X966413Y210687D01*
X966296Y210709D01*
X966180Y210739D01*
X966120Y210743D01*
X966100Y210747D01*
X966080Y210745D01*
X966020Y210749D01*
X958905Y210749D01*
X959009Y211273D01*
X959596Y212690D01*
X960000Y213295D01*
X960006Y213308D01*
X960016Y213319D01*
X960077Y213450D01*
X960142Y213579D01*
X960145Y213594D01*
X960151Y213607D01*
X960178Y213748D01*
X960209Y213890D01*
X960208Y213905D01*
X960211Y213920D01*
X960202Y214063D01*
X960197Y214208D01*
X960192Y214222D01*
X960191Y214237D01*
X960147Y214374D01*
X960106Y214513D01*
X960098Y214525D01*
X960093Y214539D01*
X960016Y214661D01*
X959942Y214785D01*
X959931Y214796D01*
X959923Y214808D01*
X959818Y214907D01*
X959715Y215009D01*
X959702Y215016D01*
X959692Y215026D01*
X959565Y215096D01*
X959440Y215168D01*
X959426Y215172D01*
X959413Y215180D01*
X959273Y215216D01*
X959134Y215255D01*
X959120Y215255D01*
X959105Y215259D01*
X958945Y215269D01*
X949581Y215269D01*
X949483Y215257D01*
X949384Y215254D01*
X949326Y215237D01*
X949266Y215229D01*
X949195Y215201D01*
X944813Y215201D01*
X944773Y215219D01*
X944675Y215234D01*
X944579Y215259D01*
X944479Y215265D01*
X944459Y215269D01*
X944447Y215267D01*
X944419Y215269D01*
X932581Y215269D01*
X932483Y215257D01*
X932384Y215254D01*
X932326Y215237D01*
X932266Y215229D01*
X932195Y215201D01*
X927813Y215201D01*
X927773Y215219D01*
X927675Y215234D01*
X927579Y215259D01*
X927479Y215265D01*
X927459Y215269D01*
X927447Y215267D01*
X927419Y215269D01*
X925285Y215269D01*
X925134Y215250D01*
X924983Y215233D01*
X924976Y215230D01*
X924970Y215229D01*
X924828Y215173D01*
X924686Y215119D01*
X924680Y215115D01*
X924674Y215112D01*
X924551Y215023D01*
X924427Y214935D01*
X924422Y214930D01*
X924417Y214926D01*
X924319Y214807D01*
X924221Y214692D01*
X924218Y214686D01*
X924214Y214681D01*
X924149Y214544D01*
X924083Y214406D01*
X924081Y214399D01*
X924078Y214393D01*
X924050Y214245D01*
X924019Y214094D01*
X924020Y214087D01*
X924019Y214081D01*
X924028Y213929D01*
X924036Y213776D01*
X924038Y213770D01*
X924038Y213763D01*
X924085Y213618D01*
X924131Y213473D01*
X924134Y213467D01*
X924136Y213461D01*
X924218Y213331D01*
X924298Y213202D01*
X924303Y213198D01*
X924306Y213192D01*
X924417Y213088D01*
X924527Y212982D01*
X924533Y212979D01*
X924538Y212974D01*
X924671Y212901D01*
X924804Y212825D01*
X924813Y212823D01*
X924817Y212820D01*
X924827Y212818D01*
X924957Y212774D01*
X924981Y212768D01*
X925560Y212433D01*
X926033Y211960D01*
X926368Y211381D01*
X926541Y210734D01*
X926541Y207539D01*
X921289Y207539D01*
X921289Y214000D01*
X921274Y214118D01*
X921267Y214237D01*
X921254Y214275D01*
X921249Y214316D01*
X921205Y214426D01*
X921169Y214539D01*
X921147Y214574D01*
X921132Y214611D01*
X921062Y214707D01*
X920999Y214808D01*
X920969Y214836D01*
X920945Y214869D01*
X920854Y214945D01*
X920767Y215026D01*
X920732Y215046D01*
X920700Y215071D01*
X920593Y215122D01*
X920489Y215180D01*
X920449Y215190D01*
X920413Y215207D01*
X920296Y215229D01*
X920181Y215259D01*
X920120Y215263D01*
X920100Y215267D01*
X920080Y215265D01*
X920020Y215269D01*
X917480Y215269D01*
X917362Y215254D01*
X917243Y215247D01*
X917205Y215234D01*
X917165Y215229D01*
X917054Y215186D01*
X916941Y215149D01*
X916906Y215127D01*
X916869Y215112D01*
X916773Y215043D01*
X916672Y214979D01*
X916644Y214949D01*
X916611Y214926D01*
X916536Y214834D01*
X916454Y214747D01*
X916434Y214712D01*
X916409Y214681D01*
X916358Y214573D01*
X916300Y214469D01*
X916290Y214429D01*
X916273Y214393D01*
X916251Y214276D01*
X916221Y214161D01*
X916217Y214101D01*
X916213Y214081D01*
X916215Y214060D01*
X916211Y214000D01*
X916211Y207539D01*
X910959Y207539D01*
X910959Y210734D01*
X911132Y211381D01*
X911467Y211960D01*
X911940Y212433D01*
X912519Y212768D01*
X912543Y212774D01*
X912686Y212832D01*
X912826Y212888D01*
X912831Y212892D01*
X912838Y212894D01*
X912961Y212985D01*
X913083Y213074D01*
X913088Y213080D01*
X913093Y213084D01*
X913188Y213201D01*
X913286Y213319D01*
X913289Y213326D01*
X913293Y213331D01*
X913357Y213470D01*
X913422Y213607D01*
X913423Y213614D01*
X913426Y213620D01*
X913453Y213770D01*
X913481Y213920D01*
X913481Y213926D01*
X913482Y213933D01*
X913471Y214084D01*
X913462Y214237D01*
X913460Y214243D01*
X913459Y214250D01*
X913411Y214395D01*
X913364Y214539D01*
X913360Y214545D01*
X913358Y214552D01*
X913275Y214679D01*
X913194Y214808D01*
X913189Y214813D01*
X913185Y214818D01*
X913073Y214921D01*
X912962Y215026D01*
X912956Y215029D01*
X912951Y215034D01*
X912817Y215106D01*
X912683Y215180D01*
X912677Y215181D01*
X912671Y215184D01*
X912522Y215221D01*
X912375Y215259D01*
X912367Y215260D01*
X912362Y215261D01*
X912351Y215261D01*
X912215Y215269D01*
X905314Y215269D01*
X905196Y215254D01*
X905077Y215247D01*
X905039Y215234D01*
X904998Y215229D01*
X904888Y215186D01*
X904775Y215149D01*
X904740Y215127D01*
X904703Y215112D01*
X904607Y215043D01*
X904506Y214979D01*
X904478Y214949D01*
X904445Y214926D01*
X904369Y214834D01*
X904288Y214747D01*
X904268Y214712D01*
X904243Y214681D01*
X904192Y214573D01*
X904134Y214469D01*
X904124Y214429D01*
X904107Y214393D01*
X904085Y214276D01*
X904055Y214161D01*
X904051Y214101D01*
X904047Y214081D01*
X904049Y214060D01*
X904045Y214000D01*
X904045Y213194D01*
X904060Y213076D01*
X904067Y212957D01*
X904080Y212919D01*
X904085Y212878D01*
X904128Y212768D01*
X904165Y212655D01*
X904187Y212620D01*
X904202Y212583D01*
X904271Y212487D01*
X904335Y212386D01*
X904365Y212358D01*
X904388Y212325D01*
X904480Y212249D01*
X904567Y212168D01*
X904602Y212148D01*
X904633Y212123D01*
X904741Y212072D01*
X904845Y212014D01*
X904885Y212004D01*
X904921Y211987D01*
X905038Y211965D01*
X905153Y211935D01*
X905213Y211931D01*
X905233Y211927D01*
X905254Y211929D01*
X905314Y211925D01*
X907132Y211925D01*
X908025Y211032D01*
X908025Y198968D01*
X907132Y198075D01*
X895368Y198075D01*
X894475Y198968D01*
X894475Y209206D01*
X894458Y209343D01*
X894445Y209482D01*
X894438Y209501D01*
X894435Y209522D01*
X894384Y209651D01*
X894337Y209782D01*
X894326Y209798D01*
X894318Y209817D01*
X894237Y209930D01*
X894159Y210045D01*
X894143Y210058D01*
X894132Y210075D01*
X894024Y210163D01*
X893920Y210255D01*
X893902Y210264D01*
X893887Y210277D01*
X893761Y210337D01*
X893637Y210400D01*
X893617Y210404D01*
X893599Y210413D01*
X893463Y210439D01*
X893327Y210470D01*
X893306Y210469D01*
X893287Y210473D01*
X893148Y210464D01*
X893009Y210460D01*
X892989Y210454D01*
X892969Y210453D01*
X892837Y210410D01*
X892703Y210371D01*
X892686Y210361D01*
X892667Y210355D01*
X892549Y210281D01*
X892429Y210210D01*
X892408Y210191D01*
X892398Y210185D01*
X892384Y210170D01*
X892309Y210104D01*
X889103Y206898D01*
X889042Y206819D01*
X888974Y206747D01*
X888945Y206694D01*
X888908Y206646D01*
X888868Y206555D01*
X888820Y206469D01*
X888805Y206410D01*
X888781Y206354D01*
X888766Y206256D01*
X888741Y206161D01*
X888735Y206061D01*
X888731Y206040D01*
X888733Y206028D01*
X888731Y206000D01*
X888731Y185533D01*
X888747Y185401D01*
X888759Y185269D01*
X888767Y185244D01*
X888771Y185218D01*
X888820Y185094D01*
X888863Y184969D01*
X888878Y184947D01*
X888888Y184922D01*
X888966Y184814D01*
X889039Y184704D01*
X889059Y184686D01*
X889074Y184665D01*
X889177Y184580D01*
X889276Y184491D01*
X889299Y184479D01*
X889319Y184462D01*
X889440Y184405D01*
X889558Y184344D01*
X889583Y184338D01*
X889607Y184326D01*
X889738Y184301D01*
X889867Y184271D01*
X889894Y184272D01*
X889920Y184267D01*
X890052Y184275D01*
X890185Y184278D01*
X890211Y184285D01*
X890237Y184286D01*
X890348Y184322D01*
X890358Y184324D01*
X891166Y184541D01*
X894001Y184541D01*
X894001Y176730D01*
X894013Y176632D01*
X894016Y176533D01*
X894033Y176475D01*
X894041Y176415D01*
X894077Y176322D01*
X894105Y176227D01*
X894135Y176175D01*
X894158Y176119D01*
X894216Y176039D01*
X894266Y175953D01*
X894332Y175878D01*
X894344Y175861D01*
X894354Y175854D01*
X894372Y175833D01*
X894872Y175333D01*
X894951Y175272D01*
X895023Y175204D01*
X895076Y175175D01*
X895124Y175138D01*
X895215Y175098D01*
X895301Y175051D01*
X895360Y175036D01*
X895415Y175011D01*
X895513Y174996D01*
X895609Y174971D01*
X895709Y174965D01*
X895730Y174962D01*
X895742Y174963D01*
X895770Y174961D01*
X896466Y174961D01*
X896476Y174882D01*
X896483Y174763D01*
X896496Y174725D01*
X896501Y174684D01*
X896545Y174574D01*
X896581Y174461D01*
X896603Y174426D01*
X896618Y174389D01*
X896688Y174293D01*
X896751Y174192D01*
X896781Y174164D01*
X896805Y174131D01*
X896896Y174056D01*
X896983Y173974D01*
X897018Y173954D01*
X897050Y173929D01*
X897157Y173878D01*
X897262Y173820D01*
X897301Y173810D01*
X897337Y173793D01*
X897454Y173771D01*
X897570Y173741D01*
X897630Y173737D01*
X897650Y173733D01*
X897670Y173735D01*
X897730Y173731D01*
X907706Y173731D01*
X907824Y173746D01*
X907943Y173753D01*
X907981Y173766D01*
X908022Y173771D01*
X908132Y173814D01*
X908245Y173851D01*
X908280Y173873D01*
X908317Y173888D01*
X908413Y173958D01*
X908514Y174021D01*
X908542Y174051D01*
X908575Y174074D01*
X908651Y174166D01*
X908732Y174253D01*
X908752Y174288D01*
X908777Y174319D01*
X908828Y174427D01*
X908886Y174531D01*
X908896Y174571D01*
X908913Y174607D01*
X908935Y174724D01*
X908965Y174839D01*
X908969Y174900D01*
X908973Y174920D01*
X908971Y174940D01*
X908975Y175000D01*
X908975Y182632D01*
X909868Y183525D01*
X921132Y183525D01*
X922025Y182632D01*
X922025Y179064D01*
X922040Y178946D01*
X922047Y178827D01*
X922060Y178789D01*
X922065Y178748D01*
X922108Y178638D01*
X922145Y178525D01*
X922167Y178490D01*
X922182Y178453D01*
X922251Y178357D01*
X922315Y178256D01*
X922345Y178228D01*
X922368Y178195D01*
X922460Y178119D01*
X922547Y178038D01*
X922582Y178018D01*
X922613Y177993D01*
X922721Y177942D01*
X922825Y177884D01*
X922865Y177874D01*
X922901Y177857D01*
X923018Y177835D01*
X923133Y177805D01*
X923193Y177801D01*
X923213Y177797D01*
X923234Y177799D01*
X923294Y177795D01*
X958158Y177795D01*
X969295Y166658D01*
X969295Y166000D01*
X969310Y165882D01*
X969317Y165763D01*
X969330Y165725D01*
X969335Y165684D01*
X969378Y165574D01*
X969415Y165461D01*
X969437Y165426D01*
X969452Y165389D01*
X969521Y165293D01*
X969585Y165192D01*
X969615Y165164D01*
X969638Y165131D01*
X969730Y165056D01*
X969817Y164974D01*
X969852Y164954D01*
X969883Y164929D01*
X969991Y164878D01*
X970095Y164820D01*
X970135Y164810D01*
X970171Y164793D01*
X970288Y164771D01*
X970403Y164741D01*
X970463Y164737D01*
X970483Y164733D01*
X970504Y164735D01*
X970564Y164731D01*
X996952Y164731D01*
X997070Y164746D01*
G37*
G36*
X176018Y1781D02*
X176018Y1781D01*
X176036Y1779D01*
X176218Y1800D01*
X176401Y1819D01*
X176418Y1824D01*
X176435Y1826D01*
X176610Y1883D01*
X176786Y1937D01*
X176801Y1945D01*
X176818Y1951D01*
X176978Y2041D01*
X177140Y2129D01*
X177153Y2140D01*
X177169Y2149D01*
X177308Y2269D01*
X177449Y2386D01*
X177460Y2400D01*
X177474Y2412D01*
X177586Y2557D01*
X177701Y2700D01*
X177709Y2716D01*
X177720Y2730D01*
X177802Y2895D01*
X177887Y3057D01*
X177892Y3074D01*
X177900Y3090D01*
X177947Y3269D01*
X177998Y3444D01*
X178000Y3462D01*
X178004Y3479D01*
X178031Y3810D01*
X178031Y23610D01*
X178030Y23618D01*
X178031Y23627D01*
X178010Y23821D01*
X177991Y24010D01*
X177989Y24019D01*
X177988Y24028D01*
X177929Y24212D01*
X177873Y24395D01*
X177869Y24403D01*
X177866Y24412D01*
X177773Y24580D01*
X177681Y24749D01*
X177676Y24756D01*
X177671Y24764D01*
X177547Y24911D01*
X177424Y25058D01*
X177417Y25064D01*
X177411Y25071D01*
X177259Y25191D01*
X177110Y25311D01*
X177102Y25315D01*
X177095Y25320D01*
X176922Y25408D01*
X176753Y25496D01*
X176744Y25499D01*
X176736Y25503D01*
X176550Y25555D01*
X176366Y25608D01*
X176357Y25608D01*
X176348Y25611D01*
X176155Y25625D01*
X175964Y25641D01*
X175956Y25640D01*
X175947Y25640D01*
X175754Y25616D01*
X175565Y25594D01*
X175556Y25591D01*
X175547Y25590D01*
X175365Y25529D01*
X175182Y25469D01*
X175174Y25464D01*
X175166Y25462D01*
X174999Y25365D01*
X174831Y25271D01*
X174824Y25265D01*
X174817Y25261D01*
X174564Y25046D01*
X173966Y24448D01*
X172690Y23596D01*
X171272Y23009D01*
X171031Y22961D01*
X171031Y30500D01*
X171031Y38039D01*
X171272Y37991D01*
X172690Y37404D01*
X173966Y36552D01*
X174564Y35954D01*
X174571Y35948D01*
X174576Y35942D01*
X174726Y35821D01*
X174875Y35699D01*
X174883Y35695D01*
X174890Y35689D01*
X175061Y35600D01*
X175231Y35510D01*
X175239Y35508D01*
X175247Y35504D01*
X175433Y35450D01*
X175617Y35396D01*
X175626Y35395D01*
X175634Y35392D01*
X175826Y35377D01*
X176018Y35359D01*
X176027Y35360D01*
X176036Y35359D01*
X176225Y35382D01*
X176418Y35403D01*
X176427Y35405D01*
X176435Y35406D01*
X176617Y35466D01*
X176802Y35524D01*
X176810Y35528D01*
X176818Y35531D01*
X176987Y35626D01*
X177154Y35719D01*
X177161Y35725D01*
X177169Y35729D01*
X177315Y35855D01*
X177461Y35979D01*
X177467Y35986D01*
X177474Y35992D01*
X177591Y36144D01*
X177711Y36295D01*
X177715Y36303D01*
X177720Y36310D01*
X177806Y36482D01*
X177893Y36654D01*
X177896Y36663D01*
X177900Y36671D01*
X177950Y36857D01*
X178001Y37042D01*
X178002Y37051D01*
X178004Y37060D01*
X178031Y37390D01*
X178031Y91211D01*
X178029Y91233D01*
X178031Y91256D01*
X178009Y91433D01*
X177991Y91612D01*
X177985Y91633D01*
X177982Y91655D01*
X177926Y91825D01*
X177873Y91997D01*
X177863Y92016D01*
X177856Y92037D01*
X177767Y92193D01*
X177681Y92351D01*
X177667Y92368D01*
X177656Y92387D01*
X177538Y92523D01*
X177424Y92660D01*
X177406Y92674D01*
X177392Y92691D01*
X177250Y92800D01*
X177110Y92912D01*
X177090Y92923D01*
X177072Y92936D01*
X176777Y93088D01*
X175162Y93757D01*
X173257Y95662D01*
X172225Y98152D01*
X172225Y100848D01*
X173257Y103338D01*
X175218Y105299D01*
X175306Y105346D01*
X175323Y105360D01*
X175343Y105371D01*
X175478Y105488D01*
X175617Y105602D01*
X175631Y105620D01*
X175648Y105634D01*
X175757Y105776D01*
X175870Y105915D01*
X175881Y105935D01*
X175894Y105953D01*
X175974Y106113D01*
X176057Y106272D01*
X176064Y106293D01*
X176074Y106313D01*
X176120Y106486D01*
X176170Y106658D01*
X176172Y106680D01*
X176178Y106702D01*
X176205Y107033D01*
X176205Y107658D01*
X177436Y108889D01*
X177453Y108909D01*
X177474Y108927D01*
X177581Y109065D01*
X177691Y109200D01*
X177704Y109224D01*
X177720Y109245D01*
X177798Y109402D01*
X177880Y109556D01*
X177888Y109581D01*
X177900Y109605D01*
X177945Y109775D01*
X177995Y109942D01*
X177997Y109968D01*
X178004Y109994D01*
X178031Y110325D01*
X178031Y123000D01*
X178029Y123018D01*
X178031Y123036D01*
X178010Y123218D01*
X177991Y123401D01*
X177986Y123418D01*
X177984Y123435D01*
X177927Y123610D01*
X177873Y123786D01*
X177865Y123801D01*
X177859Y123818D01*
X177769Y123978D01*
X177681Y124140D01*
X177670Y124153D01*
X177661Y124169D01*
X177541Y124308D01*
X177424Y124449D01*
X177410Y124460D01*
X177398Y124474D01*
X177253Y124586D01*
X177110Y124701D01*
X177094Y124709D01*
X177080Y124720D01*
X176915Y124802D01*
X176753Y124887D01*
X176736Y124892D01*
X176720Y124900D01*
X176541Y124947D01*
X176366Y124998D01*
X176348Y125000D01*
X176331Y125004D01*
X176000Y125031D01*
X139000Y125031D01*
X138982Y125029D01*
X138964Y125031D01*
X138782Y125010D01*
X138599Y124991D01*
X138582Y124986D01*
X138565Y124984D01*
X138390Y124927D01*
X138214Y124873D01*
X138199Y124865D01*
X138182Y124859D01*
X138022Y124769D01*
X137860Y124681D01*
X137847Y124670D01*
X137831Y124661D01*
X137692Y124541D01*
X137551Y124424D01*
X137540Y124410D01*
X137527Y124398D01*
X137414Y124253D01*
X137299Y124110D01*
X137291Y124094D01*
X137280Y124080D01*
X137198Y123915D01*
X137113Y123753D01*
X137108Y123736D01*
X137100Y123720D01*
X137053Y123541D01*
X137002Y123366D01*
X137000Y123348D01*
X136996Y123331D01*
X136969Y123000D01*
X136969Y3810D01*
X136971Y3792D01*
X136969Y3774D01*
X136990Y3592D01*
X137009Y3409D01*
X137014Y3392D01*
X137016Y3375D01*
X137073Y3200D01*
X137127Y3024D01*
X137135Y3009D01*
X137141Y2992D01*
X137231Y2832D01*
X137319Y2670D01*
X137330Y2657D01*
X137339Y2641D01*
X137459Y2502D01*
X137576Y2361D01*
X137590Y2350D01*
X137602Y2336D01*
X137747Y2224D01*
X137890Y2109D01*
X137906Y2101D01*
X137920Y2090D01*
X138085Y2008D01*
X138247Y1923D01*
X138264Y1918D01*
X138281Y1910D01*
X138459Y1863D01*
X138634Y1812D01*
X138652Y1810D01*
X138669Y1806D01*
X139000Y1779D01*
X176000Y1779D01*
X176018Y1781D01*
G37*
G36*
X785351Y311743D02*
X785351Y311743D01*
X785450Y311746D01*
X785508Y311763D01*
X785568Y311771D01*
X785660Y311807D01*
X785755Y311835D01*
X785808Y311865D01*
X785864Y311888D01*
X785944Y311946D01*
X786029Y311996D01*
X786105Y312062D01*
X786121Y312074D01*
X786129Y312084D01*
X786150Y312103D01*
X789842Y315795D01*
X860000Y315795D01*
X860118Y315810D01*
X860237Y315817D01*
X860275Y315830D01*
X860316Y315835D01*
X860426Y315878D01*
X860539Y315915D01*
X860574Y315937D01*
X860611Y315952D01*
X860707Y316021D01*
X860808Y316085D01*
X860836Y316115D01*
X860869Y316138D01*
X860945Y316230D01*
X861026Y316317D01*
X861046Y316352D01*
X861071Y316383D01*
X861122Y316491D01*
X861180Y316595D01*
X861190Y316635D01*
X861207Y316671D01*
X861229Y316788D01*
X861259Y316903D01*
X861263Y316963D01*
X861267Y316983D01*
X861265Y317004D01*
X861269Y317064D01*
X861269Y350936D01*
X861254Y351054D01*
X861247Y351173D01*
X861234Y351211D01*
X861229Y351252D01*
X861186Y351362D01*
X861149Y351475D01*
X861127Y351510D01*
X861112Y351547D01*
X861043Y351643D01*
X860979Y351744D01*
X860949Y351772D01*
X860926Y351805D01*
X860834Y351881D01*
X860747Y351962D01*
X860712Y351982D01*
X860681Y352007D01*
X860573Y352058D01*
X860469Y352116D01*
X860429Y352126D01*
X860393Y352143D01*
X860276Y352165D01*
X860161Y352195D01*
X860101Y352199D01*
X860081Y352203D01*
X860060Y352201D01*
X860000Y352205D01*
X840842Y352205D01*
X836955Y356092D01*
X836955Y356781D01*
X836940Y356899D01*
X836933Y357018D01*
X836920Y357056D01*
X836915Y357097D01*
X836872Y357207D01*
X836835Y357320D01*
X836813Y357355D01*
X836798Y357392D01*
X836729Y357488D01*
X836665Y357589D01*
X836635Y357617D01*
X836612Y357650D01*
X836520Y357726D01*
X836433Y357807D01*
X836398Y357827D01*
X836367Y357852D01*
X836259Y357903D01*
X836155Y357961D01*
X836115Y357971D01*
X836079Y357988D01*
X835962Y358010D01*
X835847Y358040D01*
X835787Y358044D01*
X835767Y358048D01*
X835746Y358046D01*
X835686Y358050D01*
X831084Y358050D01*
X830986Y358038D01*
X830887Y358035D01*
X830829Y358018D01*
X830769Y358010D01*
X830677Y357974D01*
X830581Y357946D01*
X830529Y357916D01*
X830473Y357893D01*
X830393Y357835D01*
X830307Y357785D01*
X830232Y357719D01*
X830216Y357707D01*
X830208Y357697D01*
X830187Y357679D01*
X830050Y357542D01*
X829471Y357207D01*
X828824Y357034D01*
X828015Y357034D01*
X828004Y357118D01*
X827997Y357237D01*
X827985Y357275D01*
X827980Y357316D01*
X827936Y357426D01*
X827899Y357539D01*
X827877Y357574D01*
X827863Y357611D01*
X827793Y357707D01*
X827729Y357808D01*
X827699Y357836D01*
X827676Y357869D01*
X827584Y357945D01*
X827497Y358026D01*
X827462Y358046D01*
X827431Y358071D01*
X827323Y358122D01*
X827219Y358180D01*
X827180Y358190D01*
X827143Y358207D01*
X827026Y358229D01*
X826911Y358259D01*
X826851Y358263D01*
X826831Y358267D01*
X826830Y358267D01*
X826810Y358265D01*
X826750Y358269D01*
X826632Y358254D01*
X826513Y358247D01*
X826474Y358234D01*
X826434Y358229D01*
X826324Y358186D01*
X826210Y358149D01*
X826176Y358127D01*
X826139Y358112D01*
X826042Y358043D01*
X825942Y357979D01*
X825914Y357949D01*
X825881Y357926D01*
X825805Y357834D01*
X825724Y357747D01*
X825704Y357712D01*
X825678Y357681D01*
X825628Y357573D01*
X825570Y357469D01*
X825560Y357429D01*
X825543Y357393D01*
X825521Y357276D01*
X825491Y357161D01*
X825487Y357101D01*
X825483Y357081D01*
X825484Y357060D01*
X825483Y357034D01*
X824676Y357034D01*
X824029Y357207D01*
X823450Y357542D01*
X823313Y357679D01*
X823235Y357739D01*
X823163Y357807D01*
X823110Y357836D01*
X823062Y357873D01*
X822971Y357913D01*
X822884Y357961D01*
X822826Y357976D01*
X822770Y358000D01*
X822672Y358015D01*
X822577Y358040D01*
X822477Y358046D01*
X822456Y358050D01*
X822444Y358048D01*
X822416Y358050D01*
X817837Y358050D01*
X817828Y358055D01*
X817780Y358092D01*
X817689Y358132D01*
X817602Y358180D01*
X817544Y358195D01*
X817488Y358219D01*
X817390Y358234D01*
X817294Y358259D01*
X817194Y358265D01*
X817174Y358269D01*
X817162Y358267D01*
X817134Y358269D01*
X816866Y358269D01*
X816768Y358257D01*
X816669Y358254D01*
X816611Y358237D01*
X816551Y358229D01*
X816459Y358193D01*
X816363Y358165D01*
X816311Y358135D01*
X816255Y358112D01*
X816175Y358054D01*
X816168Y358050D01*
X811584Y358050D01*
X811486Y358038D01*
X811387Y358035D01*
X811329Y358018D01*
X811269Y358010D01*
X811177Y357974D01*
X811081Y357946D01*
X811029Y357916D01*
X810973Y357893D01*
X810893Y357835D01*
X810807Y357785D01*
X810732Y357719D01*
X810716Y357707D01*
X810708Y357697D01*
X810687Y357679D01*
X810550Y357542D01*
X809971Y357207D01*
X809324Y357034D01*
X808515Y357034D01*
X808504Y357118D01*
X808497Y357237D01*
X808485Y357275D01*
X808480Y357316D01*
X808436Y357426D01*
X808399Y357539D01*
X808377Y357574D01*
X808363Y357611D01*
X808293Y357707D01*
X808229Y357808D01*
X808199Y357836D01*
X808176Y357869D01*
X808084Y357945D01*
X807997Y358026D01*
X807962Y358046D01*
X807931Y358071D01*
X807823Y358122D01*
X807719Y358180D01*
X807680Y358190D01*
X807643Y358207D01*
X807526Y358229D01*
X807411Y358259D01*
X807351Y358263D01*
X807331Y358267D01*
X807330Y358267D01*
X807310Y358265D01*
X807250Y358269D01*
X807132Y358254D01*
X807013Y358247D01*
X806974Y358234D01*
X806934Y358229D01*
X806824Y358186D01*
X806710Y358149D01*
X806676Y358127D01*
X806639Y358112D01*
X806542Y358043D01*
X806442Y357979D01*
X806414Y357949D01*
X806381Y357926D01*
X806305Y357834D01*
X806224Y357747D01*
X806204Y357712D01*
X806178Y357681D01*
X806128Y357573D01*
X806070Y357469D01*
X806060Y357429D01*
X806043Y357393D01*
X806021Y357276D01*
X805991Y357161D01*
X805987Y357101D01*
X805983Y357081D01*
X805984Y357060D01*
X805983Y357034D01*
X805176Y357034D01*
X804529Y357207D01*
X803950Y357542D01*
X803813Y357679D01*
X803735Y357739D01*
X803663Y357807D01*
X803610Y357836D01*
X803562Y357873D01*
X803471Y357913D01*
X803384Y357961D01*
X803326Y357976D01*
X803270Y358000D01*
X803172Y358015D01*
X803077Y358040D01*
X802977Y358046D01*
X802956Y358050D01*
X802944Y358048D01*
X802916Y358050D01*
X798337Y358050D01*
X798328Y358055D01*
X798280Y358092D01*
X798189Y358132D01*
X798102Y358180D01*
X798044Y358195D01*
X797988Y358219D01*
X797890Y358234D01*
X797794Y358259D01*
X797694Y358265D01*
X797674Y358269D01*
X797662Y358267D01*
X797634Y358269D01*
X797366Y358269D01*
X797268Y358257D01*
X797169Y358254D01*
X797111Y358237D01*
X797051Y358229D01*
X796959Y358193D01*
X796863Y358165D01*
X796811Y358135D01*
X796755Y358112D01*
X796675Y358054D01*
X796668Y358050D01*
X791837Y358050D01*
X791828Y358055D01*
X791780Y358092D01*
X791689Y358132D01*
X791602Y358180D01*
X791544Y358195D01*
X791488Y358219D01*
X791390Y358234D01*
X791294Y358259D01*
X791194Y358265D01*
X791174Y358269D01*
X791162Y358267D01*
X791134Y358269D01*
X790866Y358269D01*
X790768Y358257D01*
X790669Y358254D01*
X790611Y358237D01*
X790551Y358229D01*
X790459Y358193D01*
X790363Y358165D01*
X790311Y358135D01*
X790255Y358112D01*
X790175Y358054D01*
X790168Y358050D01*
X785584Y358050D01*
X785486Y358038D01*
X785387Y358035D01*
X785329Y358018D01*
X785269Y358010D01*
X785177Y357974D01*
X785081Y357946D01*
X785029Y357916D01*
X784973Y357893D01*
X784893Y357835D01*
X784807Y357785D01*
X784732Y357719D01*
X784716Y357707D01*
X784708Y357697D01*
X784687Y357679D01*
X784550Y357542D01*
X783971Y357207D01*
X783324Y357034D01*
X782515Y357034D01*
X782504Y357118D01*
X782497Y357237D01*
X782485Y357275D01*
X782480Y357316D01*
X782436Y357426D01*
X782399Y357539D01*
X782377Y357574D01*
X782363Y357611D01*
X782293Y357707D01*
X782229Y357808D01*
X782199Y357836D01*
X782176Y357869D01*
X782084Y357945D01*
X781997Y358026D01*
X781962Y358046D01*
X781931Y358071D01*
X781823Y358122D01*
X781719Y358180D01*
X781680Y358190D01*
X781643Y358207D01*
X781526Y358229D01*
X781411Y358259D01*
X781351Y358263D01*
X781331Y358267D01*
X781330Y358267D01*
X781310Y358265D01*
X781250Y358269D01*
X781132Y358254D01*
X781013Y358247D01*
X780974Y358234D01*
X780934Y358229D01*
X780824Y358186D01*
X780710Y358149D01*
X780676Y358127D01*
X780639Y358112D01*
X780542Y358043D01*
X780442Y357979D01*
X780414Y357949D01*
X780381Y357926D01*
X780305Y357834D01*
X780224Y357747D01*
X780204Y357712D01*
X780178Y357681D01*
X780128Y357573D01*
X780070Y357469D01*
X780060Y357429D01*
X780043Y357393D01*
X780021Y357276D01*
X779991Y357161D01*
X779987Y357101D01*
X779983Y357081D01*
X779984Y357060D01*
X779983Y357034D01*
X779176Y357034D01*
X778468Y357224D01*
X778443Y357237D01*
X778391Y357249D01*
X778341Y357270D01*
X778237Y357285D01*
X778134Y357310D01*
X778080Y357309D01*
X778027Y357316D01*
X777921Y357305D01*
X777816Y357303D01*
X777764Y357289D01*
X777711Y357283D01*
X777611Y357246D01*
X777509Y357218D01*
X777508Y357218D01*
X776824Y357034D01*
X776015Y357034D01*
X776004Y357118D01*
X775997Y357237D01*
X775985Y357275D01*
X775980Y357316D01*
X775936Y357426D01*
X775899Y357539D01*
X775877Y357574D01*
X775863Y357611D01*
X775793Y357707D01*
X775729Y357808D01*
X775699Y357836D01*
X775676Y357869D01*
X775584Y357945D01*
X775497Y358026D01*
X775462Y358046D01*
X775431Y358071D01*
X775323Y358122D01*
X775219Y358180D01*
X775180Y358190D01*
X775143Y358207D01*
X775026Y358229D01*
X774911Y358259D01*
X774851Y358263D01*
X774831Y358267D01*
X774830Y358267D01*
X774810Y358265D01*
X774750Y358269D01*
X774632Y358254D01*
X774513Y358247D01*
X774474Y358234D01*
X774434Y358229D01*
X774324Y358186D01*
X774210Y358149D01*
X774176Y358127D01*
X774139Y358112D01*
X774042Y358043D01*
X773942Y357979D01*
X773914Y357949D01*
X773881Y357926D01*
X773805Y357834D01*
X773724Y357747D01*
X773704Y357712D01*
X773678Y357681D01*
X773628Y357573D01*
X773570Y357469D01*
X773560Y357429D01*
X773543Y357393D01*
X773521Y357276D01*
X773491Y357161D01*
X773487Y357101D01*
X773483Y357081D01*
X773484Y357060D01*
X773483Y357034D01*
X772676Y357034D01*
X772029Y357207D01*
X771450Y357542D01*
X771313Y357679D01*
X771235Y357739D01*
X771163Y357807D01*
X771110Y357836D01*
X771062Y357873D01*
X770971Y357913D01*
X770884Y357961D01*
X770826Y357976D01*
X770770Y358000D01*
X770672Y358015D01*
X770577Y358040D01*
X770477Y358046D01*
X770456Y358050D01*
X770444Y358048D01*
X770416Y358050D01*
X765837Y358050D01*
X765828Y358055D01*
X765780Y358092D01*
X765689Y358132D01*
X765602Y358180D01*
X765544Y358195D01*
X765488Y358219D01*
X765390Y358234D01*
X765294Y358259D01*
X765194Y358265D01*
X765174Y358269D01*
X765162Y358267D01*
X765134Y358269D01*
X764866Y358269D01*
X764768Y358257D01*
X764669Y358254D01*
X764611Y358237D01*
X764551Y358229D01*
X764459Y358193D01*
X764363Y358165D01*
X764311Y358135D01*
X764255Y358112D01*
X764175Y358054D01*
X764168Y358050D01*
X759337Y358050D01*
X759328Y358055D01*
X759280Y358092D01*
X759189Y358132D01*
X759102Y358180D01*
X759044Y358195D01*
X758988Y358219D01*
X758890Y358234D01*
X758794Y358259D01*
X758694Y358265D01*
X758674Y358269D01*
X758662Y358267D01*
X758634Y358269D01*
X751000Y358269D01*
X750902Y358257D01*
X750803Y358254D01*
X750745Y358237D01*
X750684Y358229D01*
X750592Y358193D01*
X750497Y358165D01*
X750445Y358135D01*
X750389Y358112D01*
X750309Y358054D01*
X750223Y358004D01*
X750148Y357938D01*
X750131Y357926D01*
X750124Y357916D01*
X750103Y357898D01*
X746103Y353898D01*
X746042Y353819D01*
X745974Y353747D01*
X745945Y353694D01*
X745908Y353646D01*
X745868Y353555D01*
X745820Y353469D01*
X745805Y353410D01*
X745781Y353354D01*
X745766Y353256D01*
X745741Y353161D01*
X745735Y353061D01*
X745731Y353040D01*
X745733Y353028D01*
X745731Y353000D01*
X745731Y317000D01*
X745743Y316902D01*
X745746Y316803D01*
X745763Y316745D01*
X745771Y316684D01*
X745807Y316592D01*
X745835Y316497D01*
X745865Y316445D01*
X745888Y316389D01*
X745946Y316309D01*
X745996Y316223D01*
X746062Y316148D01*
X746074Y316131D01*
X746084Y316124D01*
X746103Y316103D01*
X750103Y312103D01*
X750181Y312042D01*
X750253Y311974D01*
X750306Y311945D01*
X750354Y311908D01*
X750445Y311868D01*
X750531Y311820D01*
X750590Y311805D01*
X750646Y311781D01*
X750744Y311766D01*
X750839Y311741D01*
X750939Y311735D01*
X750960Y311731D01*
X750972Y311733D01*
X751000Y311731D01*
X785253Y311731D01*
X785351Y311743D01*
G37*
%LPC*%
G36*
X308500Y20709D02*
X308500Y20709D01*
X308009Y20807D01*
X307547Y20998D01*
X307130Y21277D01*
X306777Y21630D01*
X306498Y22047D01*
X306267Y22606D01*
X306194Y22873D01*
X306193Y22875D01*
X306193Y22876D01*
X306080Y23136D01*
X305968Y23397D01*
X305968Y23398D01*
X305967Y23399D01*
X305815Y23647D01*
X305672Y23883D01*
X305671Y23884D01*
X305670Y23886D01*
X305506Y24086D01*
X305310Y24324D01*
X305309Y24325D01*
X305308Y24326D01*
X305110Y24508D01*
X304891Y24709D01*
X304889Y24710D01*
X304888Y24711D01*
X304670Y24861D01*
X304421Y25032D01*
X304420Y25033D01*
X304419Y25034D01*
X304175Y25155D01*
X303911Y25286D01*
X303910Y25287D01*
X303908Y25287D01*
X303658Y25371D01*
X303371Y25466D01*
X303369Y25467D01*
X303368Y25467D01*
X303097Y25517D01*
X302810Y25569D01*
X302809Y25569D01*
X302807Y25570D01*
X302525Y25581D01*
X302241Y25593D01*
X302239Y25593D01*
X302238Y25593D01*
X301965Y25565D01*
X301674Y25536D01*
X301672Y25536D01*
X301671Y25536D01*
X301398Y25469D01*
X301120Y25401D01*
X301119Y25401D01*
X301118Y25400D01*
X300852Y25294D01*
X300591Y25190D01*
X300590Y25189D01*
X300589Y25189D01*
X300337Y25045D01*
X300097Y24907D01*
X300096Y24906D01*
X300094Y24905D01*
X300088Y24900D01*
X299647Y24557D01*
X299551Y24458D01*
X299485Y24404D01*
X297838Y22757D01*
X295348Y21725D01*
X292652Y21725D01*
X290162Y22757D01*
X288257Y24662D01*
X287754Y25876D01*
X287703Y25979D01*
X287660Y26086D01*
X287575Y26234D01*
X287500Y26386D01*
X287434Y26481D01*
X287377Y26581D01*
X287273Y26715D01*
X287176Y26855D01*
X287098Y26940D01*
X287028Y27031D01*
X286906Y27150D01*
X286791Y27274D01*
X286702Y27348D01*
X286619Y27428D01*
X286482Y27528D01*
X286350Y27636D01*
X286252Y27696D01*
X286158Y27764D01*
X286009Y27844D01*
X285863Y27932D01*
X285757Y27978D01*
X285656Y28032D01*
X285496Y28090D01*
X285340Y28157D01*
X285229Y28187D01*
X285120Y28227D01*
X284954Y28262D01*
X284790Y28307D01*
X284676Y28321D01*
X284563Y28345D01*
X284393Y28357D01*
X284225Y28378D01*
X284110Y28376D01*
X283995Y28384D01*
X283825Y28372D01*
X283655Y28370D01*
X283541Y28352D01*
X283426Y28344D01*
X283260Y28308D01*
X283092Y28282D01*
X282982Y28248D01*
X282869Y28224D01*
X282710Y28165D01*
X282547Y28116D01*
X282443Y28067D01*
X282334Y28027D01*
X282184Y27947D01*
X282031Y27875D01*
X281934Y27812D01*
X281832Y27758D01*
X281695Y27657D01*
X281553Y27565D01*
X281466Y27489D01*
X281373Y27421D01*
X281252Y27302D01*
X281123Y27191D01*
X281047Y27103D01*
X280965Y27023D01*
X280861Y26888D01*
X280750Y26760D01*
X280687Y26663D01*
X280617Y26572D01*
X280563Y26470D01*
X280441Y26281D01*
X280301Y25980D01*
X280246Y25876D01*
X279743Y24662D01*
X277838Y22757D01*
X275348Y21725D01*
X272652Y21725D01*
X270162Y22757D01*
X268257Y24662D01*
X267225Y27152D01*
X267225Y29848D01*
X268257Y32338D01*
X270162Y34243D01*
X272652Y35275D01*
X275348Y35275D01*
X277838Y34243D01*
X279743Y32338D01*
X280246Y31124D01*
X280298Y31021D01*
X280340Y30914D01*
X280425Y30766D01*
X280500Y30614D01*
X280566Y30519D01*
X280623Y30419D01*
X280727Y30285D01*
X280824Y30145D01*
X280902Y30060D01*
X280972Y29969D01*
X281094Y29851D01*
X281209Y29725D01*
X281298Y29652D01*
X281381Y29572D01*
X281519Y29472D01*
X281650Y29364D01*
X281748Y29304D01*
X281842Y29236D01*
X281992Y29156D01*
X282137Y29068D01*
X282243Y29022D01*
X282344Y28968D01*
X282504Y28910D01*
X282660Y28843D01*
X282771Y28813D01*
X282880Y28773D01*
X283046Y28738D01*
X283210Y28693D01*
X283324Y28679D01*
X283437Y28655D01*
X283607Y28643D01*
X283775Y28622D01*
X283891Y28624D01*
X284006Y28616D01*
X284175Y28628D01*
X284345Y28630D01*
X284459Y28648D01*
X284574Y28656D01*
X284740Y28692D01*
X284908Y28718D01*
X285018Y28752D01*
X285131Y28776D01*
X285290Y28835D01*
X285453Y28884D01*
X285558Y28933D01*
X285666Y28973D01*
X285815Y29053D01*
X285970Y29125D01*
X286066Y29188D01*
X286168Y29242D01*
X286305Y29343D01*
X286447Y29435D01*
X286534Y29511D01*
X286627Y29579D01*
X286749Y29698D01*
X286877Y29810D01*
X286952Y29897D01*
X287035Y29977D01*
X287139Y30112D01*
X287250Y30240D01*
X287313Y30337D01*
X287383Y30428D01*
X287437Y30530D01*
X287559Y30719D01*
X287699Y31020D01*
X287754Y31124D01*
X288257Y32338D01*
X290162Y34243D01*
X292652Y35275D01*
X295348Y35275D01*
X297838Y34243D01*
X299485Y32596D01*
X299486Y32595D01*
X299488Y32593D01*
X299731Y32383D01*
X299916Y32222D01*
X299917Y32221D01*
X299918Y32220D01*
X300167Y32059D01*
X300394Y31912D01*
X300395Y31911D01*
X300396Y31911D01*
X300644Y31796D01*
X300911Y31672D01*
X300912Y31672D01*
X300913Y31671D01*
X301181Y31590D01*
X301456Y31507D01*
X301457Y31507D01*
X301459Y31506D01*
X301733Y31464D01*
X302019Y31420D01*
X302021Y31420D01*
X302022Y31419D01*
X302314Y31416D01*
X302589Y31412D01*
X302590Y31412D01*
X302592Y31412D01*
X302869Y31448D01*
X303154Y31484D01*
X303156Y31484D01*
X303157Y31485D01*
X303406Y31553D01*
X303703Y31634D01*
X303705Y31635D01*
X303706Y31636D01*
X303963Y31746D01*
X304227Y31860D01*
X304228Y31861D01*
X304229Y31862D01*
X304480Y32015D01*
X304713Y32157D01*
X304714Y32158D01*
X304715Y32159D01*
X304925Y32332D01*
X305153Y32519D01*
X305154Y32520D01*
X305155Y32521D01*
X305337Y32720D01*
X305538Y32939D01*
X305539Y32940D01*
X305540Y32941D01*
X305696Y33169D01*
X305861Y33409D01*
X305861Y33410D01*
X305862Y33411D01*
X305981Y33650D01*
X306115Y33919D01*
X306115Y33920D01*
X306116Y33922D01*
X306118Y33928D01*
X306294Y34459D01*
X306295Y34462D01*
X306498Y34953D01*
X306777Y35370D01*
X307130Y35723D01*
X307547Y36002D01*
X308009Y36193D01*
X308500Y36291D01*
X309937Y36291D01*
X309937Y28500D01*
X309937Y20709D01*
X308500Y20709D01*
G37*
%LPD*%
%LPC*%
G36*
X297045Y64201D02*
X297045Y64201D01*
X295282Y64932D01*
X293932Y66282D01*
X293201Y68045D01*
X293201Y69955D01*
X293932Y71718D01*
X295282Y73068D01*
X297045Y73799D01*
X298955Y73799D01*
X300718Y73068D01*
X302068Y71718D01*
X302799Y69955D01*
X302799Y68045D01*
X302068Y66282D01*
X300718Y64932D01*
X298955Y64201D01*
X297045Y64201D01*
G37*
%LPD*%
%LPC*%
G36*
X898999Y177499D02*
X898999Y177499D01*
X898999Y184541D01*
X901834Y184541D01*
X902481Y184368D01*
X903060Y184033D01*
X903533Y183560D01*
X903868Y182981D01*
X904041Y182334D01*
X904041Y177499D01*
X898999Y177499D01*
G37*
%LPD*%
%LPC*%
G36*
X848459Y181499D02*
X848459Y181499D01*
X848459Y186334D01*
X848632Y186981D01*
X848967Y187560D01*
X849440Y188033D01*
X850019Y188368D01*
X850666Y188541D01*
X853501Y188541D01*
X853501Y181499D01*
X848459Y181499D01*
G37*
%LPD*%
%LPC*%
G36*
X850666Y169459D02*
X850666Y169459D01*
X850019Y169632D01*
X849440Y169967D01*
X848967Y170440D01*
X848632Y171019D01*
X848459Y171666D01*
X848459Y176501D01*
X853501Y176501D01*
X853501Y169459D01*
X850666Y169459D01*
G37*
%LPD*%
%LPC*%
G36*
X769539Y193289D02*
X769539Y193289D01*
X769539Y198541D01*
X772734Y198541D01*
X773381Y198368D01*
X773960Y198033D01*
X774433Y197560D01*
X774768Y196981D01*
X774941Y196334D01*
X774941Y193289D01*
X769539Y193289D01*
G37*
%LPD*%
%LPC*%
G36*
X801539Y130289D02*
X801539Y130289D01*
X801539Y135541D01*
X804734Y135541D01*
X805381Y135368D01*
X805960Y135033D01*
X806433Y134560D01*
X806768Y133981D01*
X806941Y133334D01*
X806941Y130289D01*
X801539Y130289D01*
G37*
%LPD*%
%LPC*%
G36*
X822539Y175789D02*
X822539Y175789D01*
X822539Y181041D01*
X825734Y181041D01*
X826381Y180868D01*
X826960Y180533D01*
X827433Y180060D01*
X827768Y179481D01*
X827941Y178834D01*
X827941Y175789D01*
X822539Y175789D01*
G37*
%LPD*%
%LPC*%
G36*
X789539Y193289D02*
X789539Y193289D01*
X789539Y198541D01*
X792734Y198541D01*
X793381Y198368D01*
X793960Y198033D01*
X794433Y197560D01*
X794768Y196981D01*
X794941Y196334D01*
X794941Y193289D01*
X789539Y193289D01*
G37*
%LPD*%
%LPC*%
G36*
X822789Y144539D02*
X822789Y144539D01*
X822789Y149941D01*
X825834Y149941D01*
X826481Y149768D01*
X827060Y149433D01*
X827533Y148960D01*
X827868Y148381D01*
X828041Y147734D01*
X828041Y144539D01*
X822789Y144539D01*
G37*
%LPD*%
%LPC*%
G36*
X812059Y175789D02*
X812059Y175789D01*
X812059Y178834D01*
X812232Y179481D01*
X812567Y180060D01*
X813040Y180533D01*
X813619Y180868D01*
X814266Y181041D01*
X817461Y181041D01*
X817461Y175789D01*
X812059Y175789D01*
G37*
%LPD*%
%LPC*%
G36*
X791059Y130289D02*
X791059Y130289D01*
X791059Y133334D01*
X791232Y133981D01*
X791567Y134560D01*
X792040Y135033D01*
X792619Y135368D01*
X793266Y135541D01*
X796461Y135541D01*
X796461Y130289D01*
X791059Y130289D01*
G37*
%LPD*%
%LPC*%
G36*
X921289Y197059D02*
X921289Y197059D01*
X921289Y202461D01*
X926541Y202461D01*
X926541Y199266D01*
X926368Y198619D01*
X926033Y198040D01*
X925560Y197567D01*
X924981Y197232D01*
X924334Y197059D01*
X921289Y197059D01*
G37*
%LPD*%
%LPC*%
G36*
X779059Y193289D02*
X779059Y193289D01*
X779059Y196334D01*
X779232Y196981D01*
X779567Y197560D01*
X780040Y198033D01*
X780619Y198368D01*
X781266Y198541D01*
X784461Y198541D01*
X784461Y193289D01*
X779059Y193289D01*
G37*
%LPD*%
%LPC*%
G36*
X759059Y193289D02*
X759059Y193289D01*
X759059Y196334D01*
X759232Y196981D01*
X759567Y197560D01*
X760040Y198033D01*
X760619Y198368D01*
X761266Y198541D01*
X764461Y198541D01*
X764461Y193289D01*
X759059Y193289D01*
G37*
%LPD*%
%LPC*%
G36*
X779539Y121459D02*
X779539Y121459D01*
X779539Y126711D01*
X784941Y126711D01*
X784941Y123666D01*
X784768Y123019D01*
X784433Y122440D01*
X783960Y121967D01*
X783381Y121632D01*
X782734Y121459D01*
X779539Y121459D01*
G37*
%LPD*%
%LPC*%
G36*
X801539Y119959D02*
X801539Y119959D01*
X801539Y125211D01*
X806941Y125211D01*
X806941Y122166D01*
X806768Y121519D01*
X806433Y120940D01*
X805960Y120467D01*
X805381Y120132D01*
X804734Y119959D01*
X801539Y119959D01*
G37*
%LPD*%
%LPC*%
G36*
X769539Y182959D02*
X769539Y182959D01*
X769539Y188211D01*
X774941Y188211D01*
X774941Y185166D01*
X774768Y184519D01*
X774433Y183940D01*
X773960Y183467D01*
X773381Y183132D01*
X772734Y182959D01*
X769539Y182959D01*
G37*
%LPD*%
%LPC*%
G36*
X812459Y144539D02*
X812459Y144539D01*
X812459Y147734D01*
X812632Y148381D01*
X812967Y148960D01*
X813440Y149433D01*
X814019Y149768D01*
X814666Y149941D01*
X817711Y149941D01*
X817711Y144539D01*
X812459Y144539D01*
G37*
%LPD*%
%LPC*%
G36*
X822539Y165459D02*
X822539Y165459D01*
X822539Y170711D01*
X827941Y170711D01*
X827941Y167666D01*
X827768Y167019D01*
X827433Y166440D01*
X826960Y165967D01*
X826381Y165632D01*
X825734Y165459D01*
X822539Y165459D01*
G37*
%LPD*%
%LPC*%
G36*
X789539Y182959D02*
X789539Y182959D01*
X789539Y188211D01*
X794941Y188211D01*
X794941Y185166D01*
X794768Y184519D01*
X794433Y183940D01*
X793960Y183467D01*
X793381Y183132D01*
X792734Y182959D01*
X789539Y182959D01*
G37*
%LPD*%
%LPC*%
G36*
X814266Y165459D02*
X814266Y165459D01*
X813619Y165632D01*
X813040Y165967D01*
X812567Y166440D01*
X812232Y167019D01*
X812059Y167666D01*
X812059Y170711D01*
X817461Y170711D01*
X817461Y165459D01*
X814266Y165459D01*
G37*
%LPD*%
%LPC*%
G36*
X793266Y119959D02*
X793266Y119959D01*
X792619Y120132D01*
X792040Y120467D01*
X791567Y120940D01*
X791232Y121519D01*
X791059Y122166D01*
X791059Y125211D01*
X796461Y125211D01*
X796461Y119959D01*
X793266Y119959D01*
G37*
%LPD*%
%LPC*%
G36*
X781266Y182959D02*
X781266Y182959D01*
X780619Y183132D01*
X780040Y183467D01*
X779567Y183940D01*
X779232Y184519D01*
X779059Y185166D01*
X779059Y188211D01*
X784461Y188211D01*
X784461Y182959D01*
X781266Y182959D01*
G37*
%LPD*%
%LPC*%
G36*
X761266Y182959D02*
X761266Y182959D01*
X760619Y183132D01*
X760040Y183467D01*
X759567Y183940D01*
X759232Y184519D01*
X759059Y185166D01*
X759059Y188211D01*
X764461Y188211D01*
X764461Y182959D01*
X761266Y182959D01*
G37*
%LPD*%
%LPC*%
G36*
X913166Y197059D02*
X913166Y197059D01*
X912519Y197232D01*
X911940Y197567D01*
X911467Y198040D01*
X911132Y198619D01*
X910959Y199266D01*
X910959Y202461D01*
X916211Y202461D01*
X916211Y197059D01*
X913166Y197059D01*
G37*
%LPD*%
%LPC*%
G36*
X968249Y207251D02*
X968249Y207251D01*
X974095Y207251D01*
X973991Y206727D01*
X973404Y205310D01*
X972551Y204034D01*
X971466Y202949D01*
X970190Y202096D01*
X968773Y201509D01*
X968249Y201405D01*
X968249Y207251D01*
G37*
%LPD*%
%LPC*%
G36*
X964227Y201509D02*
X964227Y201509D01*
X962810Y202096D01*
X961534Y202949D01*
X960449Y204034D01*
X959596Y205310D01*
X959009Y206727D01*
X958905Y207251D01*
X964751Y207251D01*
X964751Y201405D01*
X964227Y201509D01*
G37*
%LPD*%
%LPC*%
G36*
X161031Y101531D02*
X161031Y101531D01*
X161031Y107039D01*
X161272Y106991D01*
X162690Y106404D01*
X163966Y105552D01*
X165052Y104466D01*
X165904Y103190D01*
X166491Y101772D01*
X166539Y101531D01*
X161031Y101531D01*
G37*
%LPD*%
%LPC*%
G36*
X161031Y97469D02*
X161031Y97469D01*
X166539Y97469D01*
X166491Y97228D01*
X165904Y95810D01*
X165052Y94534D01*
X163966Y93448D01*
X162690Y92596D01*
X161272Y92009D01*
X161031Y91961D01*
X161031Y97469D01*
G37*
%LPD*%
%LPC*%
G36*
X151461Y101531D02*
X151461Y101531D01*
X151509Y101772D01*
X152096Y103190D01*
X152948Y104466D01*
X154034Y105552D01*
X155310Y106404D01*
X156728Y106991D01*
X156969Y107039D01*
X156969Y101531D01*
X151461Y101531D01*
G37*
%LPD*%
%LPC*%
G36*
X161461Y32531D02*
X161461Y32531D01*
X161509Y32772D01*
X162096Y34190D01*
X162948Y35466D01*
X164034Y36552D01*
X165310Y37404D01*
X166728Y37991D01*
X166969Y38039D01*
X166969Y32531D01*
X161461Y32531D01*
G37*
%LPD*%
%LPC*%
G36*
X166728Y23009D02*
X166728Y23009D01*
X165310Y23596D01*
X164034Y24448D01*
X162948Y25534D01*
X162096Y26810D01*
X161509Y28228D01*
X161461Y28469D01*
X166969Y28469D01*
X166969Y22961D01*
X166728Y23009D01*
G37*
%LPD*%
%LPC*%
G36*
X156728Y92009D02*
X156728Y92009D01*
X155310Y92596D01*
X154034Y93448D01*
X152948Y94534D01*
X152096Y95810D01*
X151509Y97228D01*
X151461Y97469D01*
X156969Y97469D01*
X156969Y91961D01*
X156728Y92009D01*
G37*
%LPD*%
%LPC*%
G36*
X816166Y121459D02*
X816166Y121459D01*
X815519Y121632D01*
X814940Y121967D01*
X814467Y122440D01*
X814132Y123019D01*
X813959Y123666D01*
X813959Y126231D01*
X817231Y126231D01*
X817231Y121459D01*
X816166Y121459D01*
G37*
%LPD*%
%LPC*%
G36*
X242813Y67063D02*
X242813Y67063D01*
X242813Y70941D01*
X244250Y70941D01*
X244741Y70843D01*
X245203Y70652D01*
X245620Y70373D01*
X245973Y70020D01*
X246252Y69603D01*
X246443Y69141D01*
X246541Y68650D01*
X246541Y67063D01*
X242813Y67063D01*
G37*
%LPD*%
%LPC*%
G36*
X242813Y55059D02*
X242813Y55059D01*
X242813Y58937D01*
X246541Y58937D01*
X246541Y57350D01*
X246443Y56859D01*
X246252Y56397D01*
X245973Y55980D01*
X245620Y55627D01*
X245203Y55348D01*
X244741Y55157D01*
X244250Y55059D01*
X242813Y55059D01*
G37*
%LPD*%
%LPC*%
G36*
X193063Y34563D02*
X193063Y34563D01*
X193063Y38291D01*
X194500Y38291D01*
X194991Y38193D01*
X195453Y38002D01*
X195870Y37723D01*
X196223Y37370D01*
X196502Y36953D01*
X196693Y36491D01*
X196791Y36000D01*
X196791Y34563D01*
X193063Y34563D01*
G37*
%LPD*%
%LPC*%
G36*
X203063Y103563D02*
X203063Y103563D01*
X203063Y107291D01*
X204500Y107291D01*
X204991Y107193D01*
X205453Y107002D01*
X205870Y106723D01*
X206223Y106370D01*
X206502Y105953D01*
X206693Y105491D01*
X206791Y105000D01*
X206791Y103563D01*
X203063Y103563D01*
G37*
%LPD*%
%LPC*%
G36*
X318063Y32563D02*
X318063Y32563D01*
X318063Y36291D01*
X319500Y36291D01*
X319991Y36193D01*
X320453Y36002D01*
X320870Y35723D01*
X321223Y35370D01*
X321502Y34953D01*
X321693Y34491D01*
X321791Y34000D01*
X321791Y32563D01*
X318063Y32563D01*
G37*
%LPD*%
%LPC*%
G36*
X318063Y20709D02*
X318063Y20709D01*
X318063Y24437D01*
X321791Y24437D01*
X321791Y23000D01*
X321693Y22509D01*
X321502Y22047D01*
X321223Y21630D01*
X320870Y21277D01*
X320453Y20998D01*
X319991Y20807D01*
X319500Y20709D01*
X318063Y20709D01*
G37*
%LPD*%
%LPC*%
G36*
X203063Y91709D02*
X203063Y91709D01*
X203063Y95437D01*
X206791Y95437D01*
X206791Y94000D01*
X206693Y93509D01*
X206502Y93047D01*
X206223Y92630D01*
X205870Y92277D01*
X205453Y91998D01*
X204991Y91807D01*
X204500Y91709D01*
X203063Y91709D01*
G37*
%LPD*%
%LPC*%
G36*
X193063Y22709D02*
X193063Y22709D01*
X193063Y26437D01*
X196791Y26437D01*
X196791Y25000D01*
X196693Y24509D01*
X196502Y24047D01*
X196223Y23630D01*
X195870Y23277D01*
X195453Y22998D01*
X194991Y22807D01*
X194500Y22709D01*
X193063Y22709D01*
G37*
%LPD*%
%LPC*%
G36*
X766999Y190749D02*
X766999Y190749D01*
X766999Y190751D01*
X767001Y190751D01*
X767001Y190749D01*
X766999Y190749D01*
G37*
%LPD*%
%LPC*%
G36*
X798999Y127749D02*
X798999Y127749D01*
X798999Y127751D01*
X799001Y127751D01*
X799001Y127749D01*
X798999Y127749D01*
G37*
%LPD*%
%LPC*%
G36*
X786999Y190749D02*
X786999Y190749D01*
X786999Y190751D01*
X787001Y190751D01*
X787001Y190749D01*
X786999Y190749D01*
G37*
%LPD*%
%LPC*%
G36*
X819999Y173249D02*
X819999Y173249D01*
X819999Y173251D01*
X820001Y173251D01*
X820001Y173249D01*
X819999Y173249D01*
G37*
%LPD*%
%LPC*%
G36*
X918749Y204999D02*
X918749Y204999D01*
X918749Y205001D01*
X918751Y205001D01*
X918751Y204999D01*
X918749Y204999D01*
G37*
%LPD*%
D10*
X348800Y529250D03*
X343800Y529250D03*
X338800Y529250D03*
X333800Y529250D03*
X328800Y529250D03*
X323800Y529250D03*
X318800Y529250D03*
X313800Y529250D03*
X308800Y529250D03*
X303800Y529250D03*
X298800Y529250D03*
X293800Y529250D03*
X288800Y529250D03*
X283800Y529250D03*
X278800Y529250D03*
X273800Y529250D03*
X268800Y529250D03*
X263800Y529250D03*
X258800Y529250D03*
X253800Y529250D03*
X248800Y529250D03*
X243800Y529250D03*
X238800Y529250D03*
X233800Y529250D03*
X228800Y529250D03*
D11*
X210050Y510750D03*
X210050Y505750D03*
X210050Y500750D03*
X210050Y495750D03*
X210050Y490750D03*
X210050Y485750D03*
X210050Y480750D03*
X210050Y475750D03*
X210050Y470750D03*
X210050Y465750D03*
X210050Y460750D03*
X210050Y455750D03*
X210050Y450750D03*
X210050Y445750D03*
X210050Y440750D03*
X210050Y435750D03*
X210050Y430750D03*
X210050Y425750D03*
X210050Y420750D03*
X210050Y415750D03*
X210050Y410750D03*
X210050Y405750D03*
X210050Y400750D03*
X210050Y395750D03*
X210050Y390750D03*
D10*
X228800Y371750D03*
X233800Y371750D03*
X238800Y371750D03*
X243800Y371750D03*
X248800Y371750D03*
X253800Y371750D03*
X258800Y371750D03*
X263800Y371750D03*
X268800Y371750D03*
X273800Y371750D03*
X278800Y371750D03*
X283800Y371750D03*
X288800Y371750D03*
X293800Y371750D03*
X298800Y371750D03*
X303800Y371750D03*
X308800Y371750D03*
X313800Y371750D03*
X318800Y371750D03*
X323800Y371750D03*
X328800Y371750D03*
X333800Y371750D03*
X338800Y371750D03*
X343800Y371750D03*
X348800Y371750D03*
D11*
X367550Y390500D03*
X367550Y395500D03*
X367550Y400500D03*
X367550Y405500D03*
X367550Y410500D03*
X367550Y415500D03*
X367550Y420500D03*
X367550Y425500D03*
X367550Y430500D03*
X367550Y435500D03*
X367550Y440500D03*
X367550Y445500D03*
X367550Y450500D03*
X367550Y455500D03*
X367550Y460500D03*
X367550Y465500D03*
X367550Y470500D03*
X367550Y475500D03*
X367550Y480500D03*
X367550Y485500D03*
X367550Y490500D03*
X367550Y495500D03*
X367550Y500500D03*
X367550Y505500D03*
X367550Y510500D03*
D12*
X467750Y366700D03*
X450250Y366700D03*
X467750Y392500D03*
X450250Y392500D03*
D13*
X318000Y569350D03*
X318000Y586850D03*
X277000Y570550D03*
X277000Y588050D03*
X268500Y338050D03*
X268500Y320550D03*
D12*
X399750Y444900D03*
X417250Y444900D03*
D13*
X140700Y414450D03*
X140700Y431950D03*
D12*
X493850Y367700D03*
X511350Y367700D03*
X493850Y392100D03*
X511350Y392100D03*
D13*
X270100Y230350D03*
X270100Y247850D03*
D12*
X298050Y271700D03*
X280550Y271700D03*
D13*
X632300Y156450D03*
X632300Y173950D03*
X611300Y156350D03*
X611300Y173850D03*
D14*
X670700Y100300D03*
D15*
X650700Y100300D03*
X630700Y100300D03*
X610700Y100300D03*
D14*
X670700Y29100D03*
D15*
X650700Y29100D03*
X630700Y29100D03*
X610700Y29100D03*
D14*
X433400Y99900D03*
D15*
X413400Y99900D03*
X393400Y99900D03*
X373400Y99900D03*
D14*
X552400Y721500D03*
D15*
X572400Y721500D03*
X592400Y721500D03*
X612400Y721500D03*
X632400Y721500D03*
X652400Y721500D03*
D14*
X552200Y651500D03*
D15*
X572200Y651500D03*
X592200Y651500D03*
X612200Y651500D03*
X632200Y651500D03*
X652200Y651500D03*
D14*
X433900Y28500D03*
D15*
X413900Y28500D03*
X393900Y28500D03*
X373900Y28500D03*
D14*
X40200Y421400D03*
D15*
X40200Y441400D03*
X40200Y461400D03*
X40200Y481400D03*
X40200Y501400D03*
X40200Y521400D03*
D16*
X761750Y366560D03*
X768250Y366560D03*
X774750Y366560D03*
X781250Y366560D03*
X787750Y366560D03*
X794250Y366560D03*
X800750Y366560D03*
X813750Y366560D03*
X807250Y366560D03*
X820250Y366560D03*
X826750Y366560D03*
X833250Y366560D03*
X839750Y366560D03*
X846250Y366560D03*
X761750Y293440D03*
X768250Y293440D03*
X774750Y293440D03*
X781250Y293440D03*
X787750Y293440D03*
X794250Y293440D03*
X800750Y293440D03*
X807250Y293440D03*
X813750Y293440D03*
X820250Y293440D03*
X826750Y293440D03*
X833250Y293440D03*
X839750Y293440D03*
X846250Y293440D03*
D12*
X815250Y424000D03*
X832750Y424000D03*
X815250Y396000D03*
X832750Y396000D03*
D13*
X746000Y413750D03*
X746000Y396250D03*
X777200Y413950D03*
X777200Y396450D03*
X746000Y433250D03*
X746000Y450750D03*
X777000Y433250D03*
X777000Y450750D03*
D12*
X858250Y396000D03*
X875750Y396000D03*
D13*
X300000Y570250D03*
X300000Y587750D03*
X687000Y413750D03*
X687000Y396250D03*
X714000Y413750D03*
X714000Y396250D03*
D17*
X768500Y214000D03*
X778000Y214000D03*
X787500Y214000D03*
X787500Y240000D03*
X768500Y240000D03*
D13*
X787000Y190750D03*
X787000Y173250D03*
X767000Y190750D03*
X767000Y173250D03*
X747000Y239750D03*
X747000Y222250D03*
X714000Y222250D03*
X714000Y239750D03*
X720000Y199750D03*
X720000Y182250D03*
X820000Y190750D03*
X820000Y173250D03*
X820000Y213250D03*
X820000Y230750D03*
D18*
X856000Y179000D03*
X846500Y201000D03*
X865500Y201000D03*
D12*
X846250Y231000D03*
X863750Y231000D03*
X863750Y260000D03*
X846250Y260000D03*
D13*
X563000Y357750D03*
X563000Y340250D03*
D19*
X454400Y240000D03*
X429000Y240000D03*
X403600Y240000D03*
X454400Y265000D03*
X429000Y265000D03*
X403600Y265000D03*
D13*
X714000Y450750D03*
X714000Y433250D03*
D12*
X912750Y329100D03*
X895250Y329100D03*
X831750Y538000D03*
X814250Y538000D03*
D19*
X403600Y291000D03*
X429000Y291000D03*
X454400Y291000D03*
D12*
X831750Y670000D03*
X814250Y670000D03*
D19*
X403600Y316000D03*
X429000Y316000D03*
X454400Y316000D03*
D14*
X553000Y28500D03*
D15*
X533000Y28500D03*
X513000Y28500D03*
X493000Y28500D03*
D14*
X553000Y100500D03*
D15*
X533000Y100500D03*
X513000Y100500D03*
X493000Y100500D03*
D20*
X924500Y366300D03*
X909500Y366300D03*
X924500Y361300D03*
X909500Y361300D03*
D13*
X687000Y360250D03*
X687000Y377750D03*
X687000Y320250D03*
X687000Y337750D03*
X417000Y532250D03*
X417000Y549750D03*
X439000Y532250D03*
X439000Y549750D03*
D14*
X314000Y28500D03*
D15*
X294000Y28500D03*
X274000Y28500D03*
D14*
X199000Y99500D03*
D15*
X179000Y99500D03*
X159000Y99500D03*
D14*
X312700Y99500D03*
D15*
X292700Y99500D03*
X272700Y99500D03*
D14*
X966500Y229000D03*
D15*
X966500Y209000D03*
D12*
X901250Y258000D03*
X918750Y258000D03*
X769250Y586000D03*
X786750Y586000D03*
D21*
X724500Y480250D03*
X724500Y559750D03*
X769500Y480250D03*
X769500Y560250D03*
D12*
X770250Y721000D03*
X787750Y721000D03*
D19*
X403600Y341000D03*
X429000Y341000D03*
X454400Y341000D03*
D21*
X724500Y613250D03*
X724500Y692750D03*
X769500Y613250D03*
X769500Y693250D03*
D12*
X834650Y45900D03*
X817150Y45900D03*
X816350Y72400D03*
X833850Y72400D03*
D13*
X687000Y433250D03*
X687000Y450750D03*
D14*
X43100Y721300D03*
D15*
X63100Y721300D03*
X83100Y721300D03*
X103100Y721300D03*
D12*
X741750Y586000D03*
X724250Y586000D03*
D13*
X658400Y451250D03*
X658400Y433750D03*
D12*
X834750Y23000D03*
X817250Y23000D03*
X831750Y639000D03*
X814250Y639000D03*
X831750Y507000D03*
X814250Y507000D03*
D22*
X338800Y159800D03*
X313400Y159800D03*
X288000Y159800D03*
X262600Y159800D03*
X237200Y159800D03*
X211800Y159800D03*
X186400Y159800D03*
X161000Y159800D03*
D14*
X278300Y721500D03*
D15*
X298300Y721500D03*
X318300Y721500D03*
X338300Y721500D03*
D12*
X334350Y605000D03*
X316850Y605000D03*
X354350Y599200D03*
X371850Y599200D03*
D14*
X160800Y721500D03*
D15*
X180800Y721500D03*
X200800Y721500D03*
X220800Y721500D03*
D14*
X38200Y140000D03*
D15*
X38200Y160000D03*
X38200Y180000D03*
X38200Y200000D03*
D12*
X901250Y229000D03*
X918750Y229000D03*
X918750Y205000D03*
X901250Y205000D03*
D23*
X312900Y646000D03*
X338300Y646000D03*
X363700Y646000D03*
X389100Y646000D03*
X414500Y646000D03*
X439900Y646000D03*
X465300Y646000D03*
X490700Y646000D03*
D24*
X110200Y595200D03*
X110200Y569800D03*
X110200Y544400D03*
X110200Y519000D03*
X110200Y493600D03*
X110200Y468200D03*
X110200Y442800D03*
X110200Y417400D03*
X110200Y209900D03*
X110200Y184500D03*
X110200Y159100D03*
X110200Y133700D03*
X110200Y108300D03*
X110200Y82900D03*
X110200Y57500D03*
X110200Y32100D03*
D19*
X110200Y342400D03*
X110200Y317000D03*
X110200Y291600D03*
D23*
X389600Y159800D03*
X415000Y159800D03*
X440400Y159800D03*
X465800Y159800D03*
X491200Y159800D03*
X516600Y159800D03*
X542000Y159800D03*
X567400Y159800D03*
D25*
X490800Y417400D03*
X490800Y442800D03*
X490800Y468200D03*
X490800Y493600D03*
X490800Y519000D03*
X490800Y544400D03*
X490800Y569800D03*
X490800Y595200D03*
D22*
X262500Y646000D03*
X237100Y646000D03*
X211700Y646000D03*
X186300Y646000D03*
X160900Y646000D03*
X135500Y646000D03*
X110100Y646000D03*
X84700Y646000D03*
X59300Y646000D03*
X33900Y646000D03*
D14*
X39200Y260000D03*
D15*
X39200Y280000D03*
X39200Y300000D03*
X39200Y320000D03*
X39200Y340000D03*
X39200Y360000D03*
D24*
X490800Y341300D03*
X490800Y315900D03*
X490800Y290500D03*
X490800Y265100D03*
X490800Y239700D03*
X490800Y214300D03*
D13*
X679000Y182250D03*
X679000Y199750D03*
D26*
X581996Y223000D02*
X569804Y223000D01*
X646004Y223000D02*
X658196Y223000D01*
D27*
X563000Y559000D03*
X585000Y568500D03*
X585000Y549500D03*
X651000Y559000D03*
X673000Y568500D03*
X673000Y549500D03*
D13*
X532000Y559750D03*
X532000Y542250D03*
X620000Y558750D03*
X620000Y541250D03*
D12*
X584750Y594000D03*
X567250Y594000D03*
X672750Y593000D03*
X655250Y593000D03*
D27*
X563000Y489000D03*
X585000Y498500D03*
X585000Y479500D03*
D13*
X532000Y489250D03*
X532000Y506750D03*
D12*
X584750Y521000D03*
X567250Y521000D03*
D27*
X652000Y489000D03*
X674000Y498500D03*
X674000Y479500D03*
D13*
X620000Y489250D03*
X620000Y506750D03*
D12*
X673750Y522000D03*
X656250Y522000D03*
D28*
X945750Y380000D03*
X945750Y354000D03*
X945750Y373500D03*
X945750Y367000D03*
X945750Y360500D03*
D29*
X974000Y329750D03*
X974000Y404250D03*
D14*
X396600Y721500D03*
D15*
X416600Y721500D03*
X436600Y721500D03*
X456600Y721500D03*
X476600Y721500D03*
X496600Y721500D03*
D12*
X392950Y599400D03*
X410450Y599400D03*
D14*
X189000Y30500D03*
D15*
X169000Y30500D03*
D12*
X238750Y63000D03*
X221250Y63000D03*
D14*
X966500Y156000D03*
D15*
X966500Y136000D03*
D13*
X799000Y110250D03*
X799000Y127750D03*
D18*
X906000Y153000D03*
X896500Y175000D03*
X915500Y175000D03*
D12*
X837750Y142000D03*
X820250Y142000D03*
X905750Y131000D03*
X888250Y131000D03*
D30*
X818500Y110500D03*
X825000Y110500D03*
X831500Y110500D03*
X831500Y127500D03*
X818500Y127500D03*
D31*
X593600Y330000D03*
X593600Y342700D03*
X593600Y355400D03*
X593600Y317300D03*
X593600Y304600D03*
X632400Y304600D03*
X632400Y317300D03*
X632400Y330000D03*
X632400Y342700D03*
X632400Y355400D03*
D32*
X755000Y129500D03*
X755000Y139000D03*
X755000Y148500D03*
X729000Y148500D03*
X729000Y129500D03*
D13*
X777000Y129250D03*
X777000Y146750D03*
D12*
X729250Y109000D03*
X746750Y109000D03*
D33*
X323375Y228825D02*
X317525Y228825D01*
X323375Y228825D02*
X323375Y227175D01*
X317525Y227175D01*
X317525Y228825D01*
X317525Y227697D02*
X323375Y227697D01*
X323375Y228219D02*
X317525Y228219D01*
X317525Y228741D02*
X323375Y228741D01*
X323375Y232825D02*
X317525Y232825D01*
X323375Y232825D02*
X323375Y231175D01*
X317525Y231175D01*
X317525Y232825D01*
X317525Y231697D02*
X323375Y231697D01*
X323375Y232219D02*
X317525Y232219D01*
X317525Y232741D02*
X323375Y232741D01*
X323375Y236825D02*
X317525Y236825D01*
X323375Y236825D02*
X323375Y235175D01*
X317525Y235175D01*
X317525Y236825D01*
X317525Y235697D02*
X323375Y235697D01*
X323375Y236219D02*
X317525Y236219D01*
X317525Y236741D02*
X323375Y236741D01*
X323375Y240825D02*
X317525Y240825D01*
X323375Y240825D02*
X323375Y239175D01*
X317525Y239175D01*
X317525Y240825D01*
X317525Y239697D02*
X323375Y239697D01*
X323375Y240219D02*
X317525Y240219D01*
X317525Y240741D02*
X323375Y240741D01*
X323375Y244825D02*
X317525Y244825D01*
X323375Y244825D02*
X323375Y243175D01*
X317525Y243175D01*
X317525Y244825D01*
X317525Y243697D02*
X323375Y243697D01*
X323375Y244219D02*
X317525Y244219D01*
X317525Y244741D02*
X323375Y244741D01*
X323375Y248825D02*
X317525Y248825D01*
X323375Y248825D02*
X323375Y247175D01*
X317525Y247175D01*
X317525Y248825D01*
X317525Y247697D02*
X323375Y247697D01*
X323375Y248219D02*
X317525Y248219D01*
X317525Y248741D02*
X323375Y248741D01*
X314175Y250525D02*
X314175Y256375D01*
X315825Y256375D01*
X315825Y250525D01*
X314175Y250525D01*
X314175Y251047D02*
X315825Y251047D01*
X315825Y251569D02*
X314175Y251569D01*
X314175Y252091D02*
X315825Y252091D01*
X315825Y252613D02*
X314175Y252613D01*
X314175Y253135D02*
X315825Y253135D01*
X315825Y253657D02*
X314175Y253657D01*
X314175Y254179D02*
X315825Y254179D01*
X315825Y254701D02*
X314175Y254701D01*
X314175Y255223D02*
X315825Y255223D01*
X315825Y255745D02*
X314175Y255745D01*
X314175Y256267D02*
X315825Y256267D01*
X310175Y256375D02*
X310175Y250525D01*
X310175Y256375D02*
X311825Y256375D01*
X311825Y250525D01*
X310175Y250525D01*
X310175Y251047D02*
X311825Y251047D01*
X311825Y251569D02*
X310175Y251569D01*
X310175Y252091D02*
X311825Y252091D01*
X311825Y252613D02*
X310175Y252613D01*
X310175Y253135D02*
X311825Y253135D01*
X311825Y253657D02*
X310175Y253657D01*
X310175Y254179D02*
X311825Y254179D01*
X311825Y254701D02*
X310175Y254701D01*
X310175Y255223D02*
X311825Y255223D01*
X311825Y255745D02*
X310175Y255745D01*
X310175Y256267D02*
X311825Y256267D01*
X306175Y256375D02*
X306175Y250525D01*
X306175Y256375D02*
X307825Y256375D01*
X307825Y250525D01*
X306175Y250525D01*
X306175Y251047D02*
X307825Y251047D01*
X307825Y251569D02*
X306175Y251569D01*
X306175Y252091D02*
X307825Y252091D01*
X307825Y252613D02*
X306175Y252613D01*
X306175Y253135D02*
X307825Y253135D01*
X307825Y253657D02*
X306175Y253657D01*
X306175Y254179D02*
X307825Y254179D01*
X307825Y254701D02*
X306175Y254701D01*
X306175Y255223D02*
X307825Y255223D01*
X307825Y255745D02*
X306175Y255745D01*
X306175Y256267D02*
X307825Y256267D01*
X302175Y256375D02*
X302175Y250525D01*
X302175Y256375D02*
X303825Y256375D01*
X303825Y250525D01*
X302175Y250525D01*
X302175Y251047D02*
X303825Y251047D01*
X303825Y251569D02*
X302175Y251569D01*
X302175Y252091D02*
X303825Y252091D01*
X303825Y252613D02*
X302175Y252613D01*
X302175Y253135D02*
X303825Y253135D01*
X303825Y253657D02*
X302175Y253657D01*
X302175Y254179D02*
X303825Y254179D01*
X303825Y254701D02*
X302175Y254701D01*
X302175Y255223D02*
X303825Y255223D01*
X303825Y255745D02*
X302175Y255745D01*
X302175Y256267D02*
X303825Y256267D01*
X298175Y256375D02*
X298175Y250525D01*
X298175Y256375D02*
X299825Y256375D01*
X299825Y250525D01*
X298175Y250525D01*
X298175Y251047D02*
X299825Y251047D01*
X299825Y251569D02*
X298175Y251569D01*
X298175Y252091D02*
X299825Y252091D01*
X299825Y252613D02*
X298175Y252613D01*
X298175Y253135D02*
X299825Y253135D01*
X299825Y253657D02*
X298175Y253657D01*
X298175Y254179D02*
X299825Y254179D01*
X299825Y254701D02*
X298175Y254701D01*
X298175Y255223D02*
X299825Y255223D01*
X299825Y255745D02*
X298175Y255745D01*
X298175Y256267D02*
X299825Y256267D01*
X294175Y256375D02*
X294175Y250525D01*
X294175Y256375D02*
X295825Y256375D01*
X295825Y250525D01*
X294175Y250525D01*
X294175Y251047D02*
X295825Y251047D01*
X295825Y251569D02*
X294175Y251569D01*
X294175Y252091D02*
X295825Y252091D01*
X295825Y252613D02*
X294175Y252613D01*
X294175Y253135D02*
X295825Y253135D01*
X295825Y253657D02*
X294175Y253657D01*
X294175Y254179D02*
X295825Y254179D01*
X295825Y254701D02*
X294175Y254701D01*
X294175Y255223D02*
X295825Y255223D01*
X295825Y255745D02*
X294175Y255745D01*
X294175Y256267D02*
X295825Y256267D01*
X292475Y247175D02*
X286625Y247175D01*
X286625Y248825D01*
X292475Y248825D01*
X292475Y247175D01*
X292475Y247697D02*
X286625Y247697D01*
X286625Y248219D02*
X292475Y248219D01*
X292475Y248741D02*
X286625Y248741D01*
X286625Y243175D02*
X292475Y243175D01*
X286625Y243175D02*
X286625Y244825D01*
X292475Y244825D01*
X292475Y243175D01*
X292475Y243697D02*
X286625Y243697D01*
X286625Y244219D02*
X292475Y244219D01*
X292475Y244741D02*
X286625Y244741D01*
X286625Y239175D02*
X292475Y239175D01*
X286625Y239175D02*
X286625Y240825D01*
X292475Y240825D01*
X292475Y239175D01*
X292475Y239697D02*
X286625Y239697D01*
X286625Y240219D02*
X292475Y240219D01*
X292475Y240741D02*
X286625Y240741D01*
X286625Y235175D02*
X292475Y235175D01*
X286625Y235175D02*
X286625Y236825D01*
X292475Y236825D01*
X292475Y235175D01*
X292475Y235697D02*
X286625Y235697D01*
X286625Y236219D02*
X292475Y236219D01*
X292475Y236741D02*
X286625Y236741D01*
X286625Y231175D02*
X292475Y231175D01*
X286625Y231175D02*
X286625Y232825D01*
X292475Y232825D01*
X292475Y231175D01*
X292475Y231697D02*
X286625Y231697D01*
X286625Y232219D02*
X292475Y232219D01*
X292475Y232741D02*
X286625Y232741D01*
X286625Y227175D02*
X292475Y227175D01*
X286625Y227175D02*
X286625Y228825D01*
X292475Y228825D01*
X292475Y227175D01*
X292475Y227697D02*
X286625Y227697D01*
X286625Y228219D02*
X292475Y228219D01*
X292475Y228741D02*
X286625Y228741D01*
X295825Y225475D02*
X295825Y219625D01*
X294175Y219625D01*
X294175Y225475D01*
X295825Y225475D01*
X295825Y220147D02*
X294175Y220147D01*
X294175Y220669D02*
X295825Y220669D01*
X295825Y221191D02*
X294175Y221191D01*
X294175Y221713D02*
X295825Y221713D01*
X295825Y222235D02*
X294175Y222235D01*
X294175Y222757D02*
X295825Y222757D01*
X295825Y223279D02*
X294175Y223279D01*
X294175Y223801D02*
X295825Y223801D01*
X295825Y224323D02*
X294175Y224323D01*
X294175Y224845D02*
X295825Y224845D01*
X295825Y225367D02*
X294175Y225367D01*
X299825Y225475D02*
X299825Y219625D01*
X298175Y219625D01*
X298175Y225475D01*
X299825Y225475D01*
X299825Y220147D02*
X298175Y220147D01*
X298175Y220669D02*
X299825Y220669D01*
X299825Y221191D02*
X298175Y221191D01*
X298175Y221713D02*
X299825Y221713D01*
X299825Y222235D02*
X298175Y222235D01*
X298175Y222757D02*
X299825Y222757D01*
X299825Y223279D02*
X298175Y223279D01*
X298175Y223801D02*
X299825Y223801D01*
X299825Y224323D02*
X298175Y224323D01*
X298175Y224845D02*
X299825Y224845D01*
X299825Y225367D02*
X298175Y225367D01*
X303825Y225475D02*
X303825Y219625D01*
X302175Y219625D01*
X302175Y225475D01*
X303825Y225475D01*
X303825Y220147D02*
X302175Y220147D01*
X302175Y220669D02*
X303825Y220669D01*
X303825Y221191D02*
X302175Y221191D01*
X302175Y221713D02*
X303825Y221713D01*
X303825Y222235D02*
X302175Y222235D01*
X302175Y222757D02*
X303825Y222757D01*
X303825Y223279D02*
X302175Y223279D01*
X302175Y223801D02*
X303825Y223801D01*
X303825Y224323D02*
X302175Y224323D01*
X302175Y224845D02*
X303825Y224845D01*
X303825Y225367D02*
X302175Y225367D01*
X307825Y225475D02*
X307825Y219625D01*
X306175Y219625D01*
X306175Y225475D01*
X307825Y225475D01*
X307825Y220147D02*
X306175Y220147D01*
X306175Y220669D02*
X307825Y220669D01*
X307825Y221191D02*
X306175Y221191D01*
X306175Y221713D02*
X307825Y221713D01*
X307825Y222235D02*
X306175Y222235D01*
X306175Y222757D02*
X307825Y222757D01*
X307825Y223279D02*
X306175Y223279D01*
X306175Y223801D02*
X307825Y223801D01*
X307825Y224323D02*
X306175Y224323D01*
X306175Y224845D02*
X307825Y224845D01*
X307825Y225367D02*
X306175Y225367D01*
X311825Y225475D02*
X311825Y219625D01*
X310175Y219625D01*
X310175Y225475D01*
X311825Y225475D01*
X311825Y220147D02*
X310175Y220147D01*
X310175Y220669D02*
X311825Y220669D01*
X311825Y221191D02*
X310175Y221191D01*
X310175Y221713D02*
X311825Y221713D01*
X311825Y222235D02*
X310175Y222235D01*
X310175Y222757D02*
X311825Y222757D01*
X311825Y223279D02*
X310175Y223279D01*
X310175Y223801D02*
X311825Y223801D01*
X311825Y224323D02*
X310175Y224323D01*
X310175Y224845D02*
X311825Y224845D01*
X311825Y225367D02*
X310175Y225367D01*
X315825Y225475D02*
X315825Y219625D01*
X314175Y219625D01*
X314175Y225475D01*
X315825Y225475D01*
X315825Y220147D02*
X314175Y220147D01*
X314175Y220669D02*
X315825Y220669D01*
X315825Y221191D02*
X314175Y221191D01*
X314175Y221713D02*
X315825Y221713D01*
X315825Y222235D02*
X314175Y222235D01*
X314175Y222757D02*
X315825Y222757D01*
X315825Y223279D02*
X314175Y223279D01*
X314175Y223801D02*
X315825Y223801D01*
X315825Y224323D02*
X314175Y224323D01*
X314175Y224845D02*
X315825Y224845D01*
X315825Y225367D02*
X314175Y225367D01*
D34*
X305000Y238000D03*
D35*
X238700Y204700D03*
X238700Y209700D03*
X238700Y214700D03*
X238700Y219700D03*
X211200Y204700D03*
X211200Y209700D03*
X211200Y214700D03*
X211200Y219700D03*
D13*
X255000Y183250D03*
X255000Y200750D03*
D12*
X231750Y185000D03*
X214250Y185000D03*
D13*
X276000Y201750D03*
X276000Y184250D03*
X339000Y222250D03*
X339000Y239750D03*
D12*
X195750Y211000D03*
X178250Y211000D03*
X195750Y239000D03*
X178250Y239000D03*
X195750Y185000D03*
X178250Y185000D03*
X346750Y262000D03*
X329250Y262000D03*
X200750Y307000D03*
X183250Y307000D03*
D18*
X222000Y288000D03*
X231500Y266000D03*
X212500Y266000D03*
D26*
X875804Y653000D02*
X887996Y653000D01*
X952004Y653000D02*
X964196Y653000D01*
D36*
X873010Y68526D02*
X873010Y41475D01*
X920000Y41475D02*
X920000Y68526D01*
X966990Y68526D02*
X966990Y41475D01*
D26*
X887996Y536000D02*
X875804Y536000D01*
X952004Y536000D02*
X964196Y536000D01*
D19*
X894600Y711000D03*
X920000Y711000D03*
X945400Y711000D03*
D13*
X80000Y360250D03*
X80000Y377750D03*
D37*
X774750Y366560D02*
X781250Y366560D01*
D38*
X789000Y57000D03*
X816000Y85000D03*
X787000Y161000D03*
X767000Y161000D03*
D39*
X767000Y173250D01*
X787000Y173250D02*
X787000Y161000D01*
X816350Y72400D02*
X816000Y72050D01*
D38*
X799000Y639000D03*
X708000Y612000D03*
X708000Y586000D03*
X708000Y559000D03*
X710000Y480000D03*
X700000Y396000D03*
D37*
X713750Y396000D01*
X714000Y396250D01*
X700000Y396000D02*
X687250Y396000D01*
X687000Y396250D01*
X710000Y480000D02*
X724250Y480000D01*
X724500Y480250D01*
X723750Y559000D02*
X708000Y559000D01*
X723750Y559000D02*
X724500Y559750D01*
X724250Y586000D02*
X708000Y586000D01*
X708000Y612000D02*
X723250Y612000D01*
X724500Y613250D01*
X799000Y639000D02*
X814250Y639000D01*
D38*
X724000Y709000D03*
D37*
X724000Y693250D01*
X724500Y692750D01*
D38*
X298000Y69000D03*
X342000Y68000D03*
X463000Y69000D03*
X650000Y66000D03*
X814000Y494000D03*
D37*
X814000Y506750D01*
X814250Y507000D01*
X210050Y455750D02*
X164500Y455750D01*
X140700Y431950D01*
X210050Y455750D02*
X232750Y455750D01*
X233000Y456000D01*
D38*
X233000Y456000D03*
X84000Y452000D03*
D37*
X73400Y441400D02*
X40200Y441400D01*
X73400Y441400D02*
X84000Y452000D01*
D38*
X274000Y390000D03*
D37*
X274000Y371950D01*
X273800Y371750D01*
D38*
X255000Y322000D03*
D37*
X268500Y322000D01*
X268500Y320550D01*
X349500Y440500D02*
X367550Y440500D01*
X349500Y440500D02*
X342000Y433000D01*
D38*
X342000Y433000D03*
D37*
X417000Y445150D02*
X417250Y444900D01*
X417000Y445150D02*
X417000Y456000D01*
D38*
X417000Y456000D03*
D37*
X288800Y529250D02*
X283800Y529250D01*
D38*
X272000Y554000D03*
X256000Y506000D03*
D37*
X288800Y529250D02*
X288800Y542200D01*
X277000Y554000D02*
X272000Y554000D01*
X277000Y554000D02*
X288800Y542200D01*
X283800Y538200D02*
X283800Y529250D01*
X283800Y538200D02*
X278000Y544000D01*
X272000Y544000D01*
D38*
X272000Y544000D03*
D37*
X439000Y549750D02*
X439750Y549000D01*
X453000Y549000D01*
D38*
X453000Y549000D03*
D39*
X962500Y205000D02*
X966500Y209000D01*
X962500Y205000D02*
X918750Y205000D01*
D37*
X820000Y230750D02*
X808750Y230750D01*
X806000Y228000D01*
D38*
X806000Y228000D03*
D37*
X782000Y228000D01*
X778000Y224000D01*
X778000Y214000D01*
X738000Y182250D02*
X747000Y173250D01*
X738000Y182250D02*
X720000Y182250D01*
X747000Y173250D02*
X767000Y173250D01*
D38*
X203000Y69000D03*
X159000Y69000D03*
D39*
X203000Y69000D01*
X215250Y69000D01*
D37*
X829000Y120000D02*
X831500Y117500D01*
X829000Y120000D02*
X825000Y120000D01*
X831500Y117500D02*
X831500Y110500D01*
D38*
X825000Y120000D03*
D37*
X593600Y342700D02*
X577700Y342700D01*
X563250Y340000D02*
X563000Y340250D01*
D38*
X575000Y330000D03*
D37*
X593300Y317000D02*
X593600Y317300D01*
X593300Y317000D02*
X575000Y317000D01*
X577600Y304600D02*
X593600Y304600D01*
X577600Y304600D02*
X575000Y302000D01*
D38*
X575000Y317000D03*
X575000Y302000D03*
D39*
X896500Y175000D02*
X898000Y176500D01*
D38*
X898000Y192000D03*
D39*
X898000Y176500D01*
D37*
X816000Y85000D02*
X816000Y72050D01*
X755000Y139000D02*
X742000Y139000D01*
D38*
X742000Y139000D03*
D39*
X777000Y146750D02*
X787000Y156750D01*
X787000Y161000D01*
D38*
X783000Y110000D03*
D37*
X833000Y423750D02*
X832750Y424000D01*
X833000Y423750D02*
X833000Y410000D01*
D38*
X833000Y410000D03*
D37*
X833000Y396250D01*
X832750Y396000D01*
D38*
X895000Y396000D03*
D37*
X924000Y380000D02*
X945750Y380000D01*
D38*
X924000Y380000D03*
D40*
X299000Y232000D02*
X299000Y222550D01*
X255000Y183250D02*
X253750Y182000D01*
D38*
X244000Y182000D03*
D40*
X233375Y183375D02*
X231750Y185000D01*
D37*
X234750Y182000D02*
X244000Y182000D01*
X234750Y182000D02*
X233375Y183375D01*
X244000Y182000D02*
X253750Y182000D01*
X269375Y229625D02*
X270100Y230350D01*
X269375Y229625D02*
X268750Y229000D01*
X246000Y229000D01*
D38*
X246000Y229000D03*
D37*
X246000Y222000D01*
X243700Y219700D01*
X238700Y219700D01*
D40*
X271000Y228000D02*
X289550Y228000D01*
X271000Y228000D02*
X269375Y229625D01*
D37*
X800750Y293440D02*
X800750Y302750D01*
X804000Y306000D01*
D38*
X804000Y306000D03*
D37*
X826750Y366560D02*
X826750Y382750D01*
X830000Y386000D01*
X830000Y393250D01*
X832750Y396000D01*
X875750Y396000D02*
X895000Y396000D01*
D39*
X783000Y110000D02*
X747750Y110000D01*
X746750Y109000D01*
X783000Y110000D02*
X798750Y110000D01*
X799000Y110250D01*
D37*
X246000Y251500D02*
X231500Y266000D01*
X246000Y251500D02*
X246000Y229000D01*
X789000Y57000D02*
X789000Y36000D01*
X802000Y23000D02*
X817250Y23000D01*
X802000Y23000D02*
X789000Y36000D01*
D38*
X317000Y276000D03*
D37*
X342000Y276000D01*
X346750Y271250D02*
X346750Y262000D01*
X346750Y271250D02*
X342000Y276000D01*
X281000Y272150D02*
X281000Y283000D01*
X281000Y272150D02*
X280550Y271700D01*
D38*
X281000Y283000D03*
X305000Y238000D03*
D37*
X679000Y182250D02*
X679000Y169000D01*
D38*
X679000Y169000D03*
D37*
X719750Y182000D02*
X720000Y182250D01*
X719750Y182000D02*
X707000Y182000D01*
D38*
X707000Y182000D03*
X330000Y587000D03*
D39*
X318150Y587000D01*
X318000Y586850D01*
X277000Y588050D02*
X277000Y601000D01*
D38*
X277000Y601000D03*
X287000Y599000D03*
D39*
X286875Y598875D01*
X298000Y587750D01*
D37*
X863750Y231000D02*
X876750Y244000D01*
X883000Y244000D01*
D38*
X883000Y244000D03*
X967000Y180000D03*
D39*
X918000Y192000D02*
X898000Y192000D01*
D38*
X918000Y192000D03*
D39*
X918000Y204250D01*
X918750Y205000D01*
X918000Y205750D01*
X918000Y216000D01*
D38*
X918000Y216000D03*
X967000Y193000D03*
D39*
X966500Y209000D02*
X980000Y222500D01*
X980000Y245000D01*
D38*
X980000Y245000D03*
D39*
X967000Y193000D02*
X967000Y180000D01*
X967000Y193000D02*
X967000Y208500D01*
X966500Y209000D01*
X966000Y245000D02*
X980000Y245000D01*
D38*
X966000Y245000D03*
X289000Y446000D03*
X322000Y446000D03*
X288000Y470000D03*
X321000Y471000D03*
X252000Y470000D03*
X252000Y419000D03*
X289000Y420000D03*
X322000Y420000D03*
X252000Y446000D03*
D37*
X510000Y366350D02*
X511350Y367700D01*
X510000Y366350D02*
X510000Y347000D01*
D38*
X510000Y347000D03*
D37*
X510000Y393450D02*
X510000Y417000D01*
X510000Y393450D02*
X511350Y392100D01*
D38*
X510000Y417000D03*
D37*
X684000Y317250D02*
X687000Y320250D01*
X684000Y317250D02*
X684000Y307000D01*
D38*
X684000Y307000D03*
D37*
X575250Y340250D02*
X563000Y340250D01*
X575250Y340250D02*
X577700Y342700D01*
X575000Y330000D02*
X593600Y330000D01*
X774750Y366560D02*
X774750Y376750D01*
X778000Y380000D01*
D38*
X778000Y380000D03*
D37*
X807250Y366560D02*
X807250Y354250D01*
X804000Y351000D01*
D38*
X804000Y351000D03*
D37*
X575000Y330000D02*
X566000Y330000D01*
X563250Y332750D02*
X563250Y340000D01*
X563250Y332750D02*
X566000Y330000D01*
X747000Y222250D02*
X748750Y224000D01*
X778000Y224000D01*
X305000Y238000D02*
X299000Y232000D01*
D39*
X300000Y587750D02*
X298000Y587750D01*
X215250Y69000D02*
X221250Y63000D01*
D38*
X804000Y332000D03*
X777000Y332000D03*
X834000Y332000D03*
X147000Y69000D03*
X174000Y83000D03*
X174000Y69000D03*
X173000Y51000D03*
X147000Y84000D03*
X147000Y51000D03*
X12000Y738000D03*
X12000Y699000D03*
X15000Y13000D03*
X39000Y13000D03*
X62000Y13000D03*
X15000Y32000D03*
X39000Y32000D03*
X62000Y32000D03*
X17000Y102000D03*
X41000Y102000D03*
X64000Y102000D03*
X12000Y668000D03*
X12000Y620000D03*
X12000Y590000D03*
X12000Y554000D03*
X985000Y721000D03*
X985000Y682000D03*
X985000Y651000D03*
X985000Y603000D03*
X985000Y573000D03*
X985000Y537000D03*
D39*
X787000Y190750D02*
X767000Y190750D01*
X768500Y192250D01*
X768500Y214000D01*
D37*
X787500Y214000D02*
X787500Y191250D01*
X787000Y190750D01*
D38*
X831000Y158000D03*
X857000Y158000D03*
X842000Y158000D03*
X820000Y158000D03*
D39*
X820000Y173250D01*
D37*
X532000Y506750D02*
X532000Y521000D01*
D38*
X532000Y521000D03*
X406000Y550000D03*
D37*
X416750Y550000D01*
X417000Y549750D01*
X399150Y445500D02*
X367550Y445500D01*
X399150Y445500D02*
X399750Y444900D01*
X403000Y448150D01*
X403000Y456000D01*
D38*
X403000Y456000D03*
D37*
X298800Y569050D02*
X299875Y570125D01*
X300000Y570250D01*
X150000Y423750D02*
X140700Y414450D01*
X150000Y423750D02*
X150000Y433000D01*
X167750Y450750D01*
X210050Y450750D01*
X293800Y544750D02*
X277000Y561550D01*
X277000Y570550D01*
X293800Y544750D02*
X293800Y529250D01*
D38*
X256000Y335000D03*
D37*
X278800Y359350D02*
X278800Y371750D01*
X278800Y359350D02*
X268500Y349050D01*
X268500Y338050D01*
X265450Y335000D02*
X256000Y335000D01*
X265450Y335000D02*
X268500Y338050D01*
X302800Y530250D02*
X302800Y554150D01*
X302800Y530250D02*
X303800Y529250D01*
D39*
X820000Y173250D02*
X830000Y173250D01*
X842000Y173250D01*
X831000Y172250D02*
X831000Y158000D01*
X831000Y172250D02*
X830000Y173250D01*
X842000Y173250D02*
X842000Y158000D01*
X842000Y173250D02*
X847750Y179000D01*
X856000Y179000D01*
X857000Y178000D01*
X857000Y158000D01*
D37*
X593600Y355400D02*
X565350Y355400D01*
X563000Y357750D01*
D38*
X801000Y161000D03*
D37*
X876000Y131000D02*
X888250Y131000D01*
D38*
X876000Y131000D03*
X825000Y62000D03*
D37*
X817150Y54150D01*
X817150Y45900D01*
D39*
X811750Y173250D02*
X806000Y179000D01*
X806000Y178000D01*
X806000Y179000D02*
X806000Y187000D01*
X811750Y173250D02*
X820000Y173250D01*
X806000Y187000D02*
X802250Y190750D01*
X787000Y190750D01*
X820250Y157750D02*
X820250Y142000D01*
X820250Y157750D02*
X820000Y158000D01*
X799000Y139000D02*
X799000Y127750D01*
X802000Y142000D02*
X808000Y142000D01*
X802000Y142000D02*
X799000Y139000D01*
D37*
X799250Y127500D02*
X818500Y127500D01*
X799250Y127500D02*
X799000Y127750D01*
D39*
X767000Y129500D02*
X755000Y129500D01*
X767000Y129500D02*
X776750Y129500D01*
X777000Y129250D01*
D37*
X764500Y148500D02*
X755000Y148500D01*
X767000Y146000D02*
X767000Y129500D01*
X767000Y146000D02*
X764500Y148500D01*
D39*
X801000Y161000D02*
X801000Y173000D01*
X806000Y178000D01*
D37*
X814250Y538000D02*
X814000Y538250D01*
X814000Y556000D01*
D38*
X814000Y556000D03*
D37*
X802000Y586000D02*
X786750Y586000D01*
D38*
X802000Y586000D03*
D37*
X799000Y670000D02*
X814250Y670000D01*
D38*
X799000Y670000D03*
D37*
X802000Y721000D02*
X787750Y721000D01*
D38*
X802000Y721000D03*
X808000Y142000D03*
D39*
X820250Y142000D01*
X788000Y129000D02*
X777250Y129000D01*
X777000Y129250D01*
D38*
X788000Y129000D03*
D39*
X797750Y129000D02*
X799000Y127750D01*
X797750Y129000D02*
X788000Y129000D01*
D37*
X178250Y211000D02*
X152000Y211000D01*
X167250Y196000D02*
X178250Y185000D01*
X167250Y196000D02*
X152000Y196000D01*
D38*
X152000Y211000D03*
X152000Y196000D03*
D39*
X142000Y413150D02*
X140700Y414450D01*
X142000Y413150D02*
X142000Y401000D01*
D38*
X142000Y401000D03*
X327000Y560000D03*
D39*
X323000Y611150D02*
X323000Y617000D01*
X323000Y611150D02*
X316850Y605000D01*
D38*
X323000Y617000D03*
D37*
X298800Y569050D02*
X298800Y529250D01*
D39*
X371850Y599200D02*
X373000Y598050D01*
X373000Y588000D01*
D38*
X373000Y588000D03*
D39*
X410450Y599400D02*
X411050Y600000D01*
X423000Y600000D01*
D38*
X423000Y600000D03*
D39*
X277450Y571000D02*
X277000Y570550D01*
X277450Y571000D02*
X288000Y571000D01*
D38*
X288000Y571000D03*
D39*
X299000Y571000D01*
X299875Y570125D01*
D37*
X532000Y542250D02*
X532000Y521000D01*
X620000Y519000D02*
X620000Y506750D01*
D38*
X620000Y519000D03*
D37*
X620000Y541250D01*
D38*
X683000Y630000D03*
X708000Y630000D03*
X655000Y630000D03*
X642000Y630000D03*
D37*
X645950Y171950D02*
X634300Y171950D01*
X632300Y173950D01*
X645950Y171950D02*
X646000Y172000D01*
D38*
X646000Y172000D03*
D37*
X611300Y173850D02*
X611000Y174150D01*
X611000Y185000D01*
D38*
X611000Y185000D03*
X674000Y434000D03*
D37*
X178250Y239000D02*
X152000Y239000D01*
D38*
X152000Y239000D03*
D39*
X674000Y390750D02*
X674000Y434000D01*
X674000Y390750D02*
X687000Y377750D01*
D38*
X592000Y435000D03*
D39*
X592000Y406000D01*
X563000Y377000D02*
X563000Y357750D01*
X563000Y377000D02*
X592000Y406000D01*
X433900Y22500D02*
X443700Y12700D01*
X433900Y22500D02*
X433900Y28500D01*
X553000Y28500D02*
X553000Y19000D01*
X546700Y12700D02*
X443700Y12700D01*
X546700Y12700D02*
X553000Y19000D01*
D37*
X302800Y554150D02*
X318000Y569350D01*
D39*
X318000Y569000D02*
X327000Y560000D01*
X318000Y569000D02*
X318000Y569350D01*
D37*
X82250Y380000D02*
X80000Y377750D01*
X82250Y380000D02*
X95000Y380000D01*
D41*
X95000Y380000D03*
D37*
X468750Y367700D02*
X493850Y367700D01*
X468750Y367700D02*
X467750Y366700D01*
X467750Y392500D02*
X493450Y392500D01*
X493850Y392100D01*
X450250Y392500D02*
X448750Y394000D01*
X429000Y394000D01*
D38*
X429000Y394000D03*
D37*
X450250Y366700D02*
X442000Y358450D01*
X411683Y264936D02*
X403664Y264936D01*
X403600Y265000D01*
X411683Y264936D02*
X425333Y278586D01*
X434586Y278586D01*
X442000Y286000D01*
X442000Y358450D01*
D38*
X360000Y210000D03*
D40*
X339000Y222250D02*
X315300Y222250D01*
X315000Y222550D01*
X339000Y222250D02*
X351250Y210000D01*
X360000Y210000D01*
X283300Y214700D02*
X238700Y214700D01*
X283300Y214700D02*
X287000Y211000D01*
D38*
X287000Y211000D03*
D40*
X315000Y214000D02*
X315000Y222550D01*
X315000Y214000D02*
X318000Y211000D01*
D38*
X318000Y211000D03*
D37*
X610700Y155750D02*
X611300Y156350D01*
X610700Y100300D02*
X610700Y80000D01*
X493000Y76000D02*
X493000Y100500D01*
X493000Y76000D02*
X498000Y71000D01*
X601700Y71000D01*
X601850Y71150D01*
X610700Y80000D01*
X493000Y66000D02*
X493000Y28500D01*
X493000Y66000D02*
X498000Y71000D01*
X610700Y62300D02*
X610700Y29100D01*
X610700Y62300D02*
X601850Y71150D01*
D38*
X595000Y156000D03*
D37*
X610700Y155750D02*
X610700Y100300D01*
X610450Y156000D02*
X595000Y156000D01*
X610450Y156000D02*
X610700Y155750D01*
X595000Y156000D02*
X595000Y185000D01*
X579000Y201000D01*
X533000Y201000D01*
X517000Y217000D01*
X517000Y351000D01*
X534000Y368000D01*
D38*
X534000Y368000D03*
X274000Y501000D03*
D37*
X273800Y501200D02*
X273800Y529250D01*
X273800Y501200D02*
X274000Y501000D01*
X174750Y435750D02*
X165000Y426000D01*
X174750Y435750D02*
X210050Y435750D01*
D40*
X211200Y214700D02*
X199450Y214700D01*
X195750Y211000D01*
D37*
X165000Y283682D02*
X165000Y426000D01*
X165000Y283682D02*
X177000Y271682D01*
X177000Y253000D01*
D38*
X177000Y253000D03*
D37*
X182750Y224000D02*
X195750Y211000D01*
X182750Y224000D02*
X177000Y224000D01*
D38*
X177000Y224000D03*
D37*
X176750Y430750D02*
X210050Y430750D01*
X176750Y430750D02*
X170000Y424000D01*
D40*
X195750Y239000D02*
X195750Y225250D01*
X201300Y219700D02*
X211200Y219700D01*
X201300Y219700D02*
X195750Y225250D01*
D37*
X195750Y239000D02*
X195750Y261250D01*
X170000Y287000D02*
X170000Y424000D01*
X170000Y287000D02*
X195750Y261250D01*
D38*
X412000Y480000D03*
D37*
X380500Y470500D02*
X367550Y470500D01*
X390000Y480000D02*
X412000Y480000D01*
X390000Y480000D02*
X380500Y470500D01*
X632400Y330000D02*
X658000Y330000D01*
D38*
X658000Y330000D03*
D37*
X401500Y485500D02*
X367550Y485500D01*
D38*
X406000Y490000D03*
D37*
X401500Y485500D01*
X632400Y317300D02*
X632700Y317000D01*
X667000Y317000D01*
D38*
X667000Y317000D03*
X406000Y500000D03*
D37*
X396500Y490500D01*
X367550Y490500D01*
D38*
X676000Y338000D03*
D37*
X687000Y337750D02*
X687250Y338000D01*
X666000Y342700D02*
X632400Y342700D01*
X666000Y342700D02*
X668300Y342700D01*
X676000Y338000D02*
X687250Y338000D01*
X676000Y338000D02*
X671300Y342700D01*
X668300Y342700D01*
X687000Y360250D02*
X685750Y361500D01*
D38*
X405000Y519000D03*
D37*
X386500Y500500D01*
X367550Y500500D01*
D38*
X702000Y361000D03*
D37*
X687750Y361000D01*
X687000Y360250D01*
X652400Y355400D02*
X632400Y355400D01*
X652400Y355400D02*
X658000Y361000D01*
X685250Y361000D01*
X685750Y361500D01*
X391250Y495500D02*
X367550Y495500D01*
D38*
X428000Y508000D03*
X660000Y408000D03*
D37*
X660000Y432150D02*
X658400Y433750D01*
X660000Y432150D02*
X660000Y408000D01*
X656000Y404000D01*
X428000Y508000D02*
X403750Y508000D01*
X391250Y495500D01*
X428000Y521250D02*
X417000Y532250D01*
X428000Y521250D02*
X428000Y508000D01*
X428000Y521250D02*
X439000Y532250D01*
X615400Y304600D02*
X632400Y304600D01*
X615400Y304600D02*
X613000Y307000D01*
X613000Y388000D01*
X629000Y404000D01*
X656000Y404000D01*
X630700Y100300D02*
X630700Y29100D01*
X535000Y206000D02*
X522000Y219000D01*
X522000Y342000D01*
X541000Y361000D01*
D38*
X541000Y361000D03*
X285000Y501000D03*
D37*
X278800Y507200D02*
X278800Y529250D01*
X278800Y507200D02*
X285000Y501000D01*
X513000Y126000D02*
X513000Y100500D01*
X529000Y142000D02*
X578000Y142000D01*
X529000Y142000D02*
X513000Y126000D01*
D38*
X578000Y142000D03*
X622000Y142000D03*
D37*
X622000Y196000D02*
X612000Y206000D01*
X622000Y196000D02*
X622000Y142000D01*
X612000Y206000D02*
X535000Y206000D01*
X622000Y142000D02*
X628000Y142000D01*
X629000Y142000D01*
X628000Y142000D02*
X632300Y146300D01*
X629000Y142000D02*
X631700Y139300D01*
X631700Y101300D01*
X630700Y100300D01*
X632300Y146300D02*
X632300Y156450D01*
X563000Y489000D02*
X562750Y489250D01*
D38*
X460000Y493000D03*
D37*
X519750Y489250D02*
X532000Y489250D01*
X519750Y489250D02*
X516000Y493000D01*
D38*
X516000Y493000D03*
D37*
X425500Y435500D02*
X367550Y435500D01*
X425500Y435500D02*
X460000Y470000D01*
X460000Y493000D01*
D38*
X546000Y516000D03*
D37*
X532000Y489250D02*
X532250Y489000D01*
X562500Y489000D02*
X562750Y489250D01*
X546000Y493000D02*
X546000Y516000D01*
X542000Y489000D02*
X532250Y489000D01*
X542000Y489000D02*
X546000Y493000D01*
X550000Y489000D01*
X562500Y489000D01*
X603000Y712100D02*
X612400Y721500D01*
X367550Y475500D02*
X348500Y475500D01*
X333000Y491000D01*
D38*
X333000Y491000D03*
X603000Y582000D03*
D37*
X603000Y712100D01*
X609250Y558750D02*
X620000Y558750D01*
X603000Y565000D02*
X603000Y582000D01*
X603000Y565000D02*
X609250Y558750D01*
X620000Y558750D02*
X620250Y559000D01*
X651000Y559000D01*
X575000Y678000D02*
X536000Y678000D01*
X575000Y678000D02*
X592400Y695400D01*
X592400Y721500D01*
X520000Y662000D02*
X520000Y571750D01*
X520000Y662000D02*
X536000Y678000D01*
X367550Y480500D02*
X354500Y480500D01*
X344000Y491000D01*
D38*
X344000Y491000D03*
X510000Y557000D03*
D37*
X532000Y559750D02*
X532750Y559000D01*
X563000Y559000D01*
X532000Y559750D02*
X520000Y571750D01*
X510000Y557000D02*
X530750Y557000D01*
X532750Y559000D01*
X432500Y425500D02*
X367550Y425500D01*
X473116Y498116D02*
X481000Y506000D01*
X501000Y506000D01*
X510000Y515000D01*
X510000Y539000D01*
X473116Y498116D02*
X473116Y483116D01*
X473000Y483000D01*
X473000Y466000D01*
X432500Y425500D01*
D38*
X510000Y539000D03*
X613000Y678000D03*
D37*
X635000Y678000D01*
X639000Y682000D01*
X639000Y708100D02*
X652400Y721500D01*
X639000Y708100D02*
X639000Y682000D01*
D38*
X132000Y471000D03*
D37*
X209800Y471000D01*
X210050Y470750D01*
X258800Y529250D02*
X258800Y570200D01*
X236000Y593000D01*
X77400Y461400D02*
X40200Y461400D01*
X77400Y461400D02*
X88000Y472000D01*
X88000Y551000D01*
X94000Y557000D01*
X159000Y557000D01*
D38*
X159000Y557000D03*
X219000Y593000D03*
D37*
X236000Y593000D01*
X253800Y565200D02*
X253800Y529250D01*
X73400Y481400D02*
X40200Y481400D01*
X73400Y481400D02*
X81000Y489000D01*
X81000Y568000D01*
X95000Y582000D01*
X166000Y582000D01*
D38*
X166000Y582000D03*
D37*
X219000Y582000D02*
X237000Y582000D01*
X253800Y565200D01*
D38*
X219000Y582000D03*
X132000Y460000D03*
D37*
X137750Y465750D02*
X210050Y465750D01*
X137750Y465750D02*
X132000Y460000D01*
D38*
X246000Y355000D03*
X781000Y275000D03*
D37*
X787750Y281750D02*
X787750Y293440D01*
X787750Y281750D02*
X781000Y275000D01*
X248800Y357800D02*
X248800Y371750D01*
X248800Y357800D02*
X246000Y355000D01*
D38*
X246000Y345000D03*
X754000Y268000D03*
D37*
X761750Y275750D02*
X761750Y293440D01*
X761750Y275750D02*
X754000Y268000D01*
X253800Y352800D02*
X253800Y371750D01*
X253800Y352800D02*
X246000Y345000D01*
D38*
X361000Y559000D03*
D37*
X348800Y546800D02*
X348800Y529250D01*
X348800Y546800D02*
X361000Y559000D01*
D38*
X433000Y667000D03*
D37*
X456600Y690600D02*
X456600Y721500D01*
X456600Y690600D02*
X433000Y667000D01*
X794250Y380750D02*
X794250Y366560D01*
X794250Y380750D02*
X788000Y387000D01*
X755250Y387000D01*
X746000Y396250D01*
X746000Y413750D02*
X746000Y433250D01*
X800750Y390250D02*
X800750Y366560D01*
X794550Y396450D02*
X777200Y396450D01*
X794550Y396450D02*
X800750Y390250D01*
X777200Y413950D02*
X777000Y414150D01*
X777000Y433250D01*
D39*
X777000Y450750D02*
X746000Y450750D01*
D37*
X813750Y394500D02*
X813750Y366560D01*
X813750Y394500D02*
X815250Y396000D01*
D39*
X815250Y424000D01*
D38*
X816000Y446000D03*
D39*
X811000Y451000D01*
X816000Y446000D02*
X816250Y445750D01*
X816000Y424750D02*
X815250Y424000D01*
X816000Y424750D02*
X816000Y437000D01*
D38*
X816000Y437000D03*
D37*
X781250Y303250D02*
X781250Y293440D01*
X781250Y303250D02*
X791000Y313000D01*
X890000Y313000D01*
X895250Y318250D02*
X895250Y329100D01*
X895250Y318250D02*
X890000Y313000D01*
D39*
X895250Y329100D02*
X883000Y329100D01*
X875900Y329100D01*
X872000Y333000D01*
X872000Y346000D01*
D38*
X872000Y346000D03*
X883000Y346000D03*
D39*
X883000Y329100D01*
X816000Y437000D02*
X816000Y446000D01*
X746000Y450750D02*
X714000Y450750D01*
X804000Y451000D02*
X811000Y451000D01*
D38*
X804000Y451000D03*
D39*
X777250Y451000D01*
X777000Y450750D01*
D37*
X833250Y381250D02*
X833250Y366560D01*
X833250Y381250D02*
X848000Y396000D01*
X858250Y396000D01*
X858250Y439750D01*
X837000Y461000D01*
X697250Y461000D01*
X687000Y450750D01*
X333800Y371750D02*
X333800Y347200D01*
X352000Y329000D01*
D38*
X352000Y329000D03*
D37*
X338800Y352200D02*
X338800Y371750D01*
X338800Y352200D02*
X352000Y339000D01*
D38*
X352000Y339000D03*
D37*
X687000Y413750D02*
X687000Y433250D01*
X714000Y433250D02*
X714000Y413750D01*
X714000Y222250D02*
X714000Y205750D01*
X720000Y199750D01*
X820000Y190750D02*
X820000Y213250D01*
X834750Y23000D02*
X843875Y13875D01*
X834750Y23000D02*
X834750Y32250D01*
X832000Y35000D01*
X808000Y35000D02*
X805000Y38000D01*
X805000Y89000D01*
X818500Y102500D02*
X818500Y110500D01*
X808000Y35000D02*
X832000Y35000D01*
X805000Y89000D02*
X818500Y102500D01*
X843875Y13875D02*
X910875Y13875D01*
X920000Y23000D02*
X920000Y55000D01*
X920000Y23000D02*
X910875Y13875D01*
D39*
X846250Y231000D02*
X846250Y260000D01*
X846500Y230750D02*
X846500Y201000D01*
X846500Y230750D02*
X846250Y231000D01*
D37*
X901300Y361300D02*
X909500Y361300D01*
X901300Y361300D02*
X895000Y355000D01*
X842000Y355000D01*
X839750Y357250D01*
X839750Y366560D01*
X901700Y366300D02*
X909500Y366300D01*
X891000Y377000D02*
X852000Y377000D01*
X846250Y371250D01*
X846250Y366560D01*
X891000Y377000D02*
X901700Y366300D01*
X924500Y366300D02*
X945050Y366300D01*
X945750Y367000D01*
X944950Y361300D02*
X924500Y361300D01*
X944950Y361300D02*
X945750Y360500D01*
X454900Y290500D02*
X454400Y291000D01*
X454900Y290500D02*
X490800Y290500D01*
X490700Y265000D02*
X454400Y265000D01*
X490700Y265000D02*
X490800Y265100D01*
D39*
X935000Y354000D02*
X945750Y354000D01*
X912750Y331750D02*
X912750Y329100D01*
X912750Y331750D02*
X935000Y354000D01*
D37*
X856750Y497000D02*
X846750Y507000D01*
X831750Y507000D01*
D38*
X529000Y271000D03*
D37*
X736000Y339000D02*
X736000Y357000D01*
X736000Y339000D02*
X680000Y283000D01*
X541000Y283000D01*
X529000Y271000D01*
D38*
X736000Y357000D03*
X832000Y482000D03*
D37*
X832000Y506750D01*
X831750Y507000D02*
X831750Y538000D01*
X831750Y507000D02*
X832000Y506750D01*
X958100Y505100D02*
X958100Y536000D01*
X958100Y505100D02*
X950000Y497000D01*
X856750Y497000D01*
X490700Y316000D02*
X454400Y316000D01*
X490700Y316000D02*
X490800Y315900D01*
D38*
X537000Y303000D03*
D37*
X677000Y289000D02*
X722000Y334000D01*
X722000Y357000D01*
D38*
X722000Y357000D03*
X830000Y617000D03*
D37*
X830000Y637250D01*
X831750Y639000D01*
X537000Y303000D02*
X551000Y289000D01*
X677000Y289000D01*
X831750Y670000D02*
X832000Y670000D01*
X831750Y669750D02*
X831750Y639000D01*
X831750Y669750D02*
X832000Y670000D01*
X958100Y669900D02*
X958100Y653000D01*
X958100Y669900D02*
X948000Y680000D01*
X841750Y680000D01*
X831750Y670000D01*
X490800Y341300D02*
X454700Y341300D01*
X454400Y341000D01*
X238800Y529250D02*
X238800Y545200D01*
X191700Y626000D02*
X211700Y646000D01*
X191700Y626000D02*
X191700Y592300D01*
X238800Y545200D01*
D39*
X918750Y229000D02*
X931000Y229000D01*
X947000Y229000D01*
X966500Y229000D01*
X918750Y229000D02*
X918750Y237000D01*
D38*
X930000Y220000D03*
X930000Y238000D03*
X930000Y248000D03*
X930000Y258000D03*
D39*
X918750Y248000D02*
X918750Y237000D01*
X918750Y248000D02*
X918750Y258000D01*
X930000Y228000D02*
X930000Y220000D01*
X930000Y228000D02*
X931000Y229000D01*
X930000Y238000D02*
X919750Y238000D01*
X918750Y237000D01*
X918750Y248000D02*
X930000Y248000D01*
X930000Y258000D02*
X918750Y258000D01*
D38*
X947000Y238000D03*
X947000Y220000D03*
D39*
X947000Y229000D02*
X947000Y238000D01*
X947000Y229000D02*
X947000Y220000D01*
D37*
X343800Y529250D02*
X343800Y563800D01*
X392950Y588400D02*
X392950Y599400D01*
X392950Y588400D02*
X378550Y574000D01*
X354000Y574000D02*
X343800Y563800D01*
X354000Y574000D02*
X378550Y574000D01*
X392950Y599400D02*
X363700Y628650D01*
X363700Y646000D01*
X399700Y682000D01*
X414000Y682000D01*
D38*
X414000Y682000D03*
D37*
X476600Y696600D02*
X476600Y721500D01*
X476600Y696600D02*
X462000Y682000D01*
D38*
X462000Y682000D03*
D39*
X899250Y260000D02*
X901250Y258000D01*
X899250Y260000D02*
X863750Y260000D01*
D37*
X872910Y54900D02*
X843650Y54900D01*
X834650Y45900D01*
X872910Y54900D02*
X873010Y55000D01*
X834250Y72000D02*
X833850Y72400D01*
X834250Y72000D02*
X847000Y72000D01*
D38*
X847000Y72000D03*
X245000Y562000D03*
D37*
X248800Y558200D02*
X248800Y529250D01*
X248800Y558200D02*
X245000Y562000D01*
D38*
X204000Y544000D03*
D37*
X185000Y544000D01*
X159200Y569800D02*
X110200Y569800D01*
X159200Y569800D02*
X185000Y544000D01*
D38*
X234000Y562000D03*
D37*
X243800Y552200D01*
X243800Y529250D01*
X174600Y544400D02*
X110200Y544400D01*
X185000Y534000D02*
X202000Y534000D01*
X185000Y534000D02*
X174600Y544400D01*
D38*
X202000Y534000D03*
D37*
X186300Y590700D02*
X186300Y646000D01*
X233800Y543200D02*
X233800Y529250D01*
X233800Y543200D02*
X186300Y590700D01*
X228800Y541200D02*
X228800Y529250D01*
X180900Y626000D02*
X160900Y646000D01*
X180900Y626000D02*
X180900Y589100D01*
X228800Y541200D01*
X210050Y510750D02*
X199050Y510750D01*
X140000Y519000D02*
X110200Y519000D01*
X140000Y519000D02*
X144000Y523000D01*
X186800Y523000D01*
X199050Y510750D01*
X268800Y516800D02*
X268800Y529250D01*
X268800Y516800D02*
X267000Y515000D01*
X227000Y515000D01*
X221000Y521000D01*
X221000Y542000D01*
X168000Y595000D01*
X110400Y595000D02*
X110200Y595200D01*
X110400Y595000D02*
X168000Y595000D01*
X96000Y457000D02*
X110200Y442800D01*
X96000Y457000D02*
X96000Y525000D01*
X102000Y531000D01*
X168000Y531000D01*
D38*
X168000Y531000D03*
X257000Y583000D03*
D37*
X263800Y576200D01*
X263800Y529250D01*
X119200Y468200D02*
X110200Y468200D01*
X119200Y468200D02*
X159000Y508000D01*
X192250Y495750D02*
X210050Y495750D01*
X180000Y508000D02*
X159000Y508000D01*
X180000Y508000D02*
X192250Y495750D01*
D38*
X160000Y499000D03*
D37*
X190000Y491000D02*
X209800Y491000D01*
X190000Y491000D02*
X182000Y499000D01*
X160000Y499000D01*
X209800Y491000D02*
X210050Y490750D01*
X208000Y355000D02*
X211000Y352000D01*
X211000Y317000D01*
D38*
X208000Y355000D03*
D37*
X211000Y317000D02*
X201000Y307000D01*
X200750Y307000D01*
X200750Y295250D01*
X208000Y288000D01*
X222000Y288000D01*
X314000Y503000D02*
X313800Y503200D01*
X313800Y529250D01*
D38*
X314000Y503000D03*
D37*
X620000Y489250D02*
X651750Y489250D01*
X652000Y489000D01*
X620000Y489250D02*
X620000Y478000D01*
D38*
X620000Y478000D03*
X242000Y390000D03*
D37*
X243800Y388200D02*
X243800Y371750D01*
X243800Y388200D02*
X242000Y390000D01*
D38*
X402000Y386000D03*
D37*
X426000Y386000D02*
X429936Y382064D01*
X524064Y382064D01*
X426000Y386000D02*
X402000Y386000D01*
X524064Y382064D02*
X532000Y390000D01*
X615000Y465000D02*
X620000Y470000D01*
X620000Y478000D01*
X532000Y458000D02*
X532000Y390000D01*
X532000Y458000D02*
X539000Y465000D01*
X615000Y465000D01*
D38*
X144000Y511000D03*
D37*
X197250Y505750D02*
X210050Y505750D01*
X197250Y505750D02*
X185000Y518000D01*
X151000Y518000D02*
X144000Y511000D01*
X151000Y518000D02*
X185000Y518000D01*
X293800Y371750D02*
X293800Y351800D01*
D38*
X292000Y329000D03*
D37*
X290000Y331000D01*
X290000Y348000D02*
X293800Y351800D01*
X290000Y348000D02*
X290000Y331000D01*
D38*
X314000Y317000D03*
D37*
X313800Y336200D02*
X313800Y371750D01*
X313800Y336200D02*
X317000Y333000D01*
X317000Y325000D01*
X314000Y322000D01*
X314000Y317000D01*
X308800Y330200D02*
X308800Y371750D01*
X308800Y330200D02*
X310000Y329000D01*
D38*
X310000Y329000D03*
D37*
X196500Y124000D02*
X179000Y106500D01*
X179000Y99500D01*
X278000Y149800D02*
X288000Y159800D01*
X278000Y149800D02*
X278000Y129000D01*
X273000Y124000D02*
X196500Y124000D01*
X273000Y124000D02*
X278000Y129000D01*
D38*
X300000Y317000D03*
D37*
X300000Y329000D02*
X303800Y332800D01*
X300000Y329000D02*
X300000Y317000D01*
X303800Y332800D02*
X303800Y371750D01*
X298800Y371750D02*
X298800Y338800D01*
X297000Y337000D01*
D38*
X297000Y337000D03*
D37*
X285000Y350000D02*
X285000Y322000D01*
X281000Y318000D01*
X288800Y353800D02*
X288800Y371750D01*
X288800Y353800D02*
X285000Y350000D01*
D38*
X281000Y318000D03*
D37*
X283800Y356200D02*
X283800Y371750D01*
D38*
X278000Y347000D03*
D37*
X278000Y350400D01*
X283800Y356200D01*
X268800Y357800D02*
X268800Y371750D01*
X268800Y357800D02*
X258000Y347000D01*
D38*
X258000Y347000D03*
D37*
X210050Y410750D02*
X194750Y410750D01*
X191064Y407064D01*
X191064Y361936D02*
X203000Y350000D01*
X191064Y361936D02*
X191064Y407064D01*
X203000Y350000D02*
X203000Y330000D01*
D38*
X203000Y330000D03*
D37*
X210050Y415750D02*
X190750Y415750D01*
X186000Y359000D02*
X192000Y353000D01*
X186000Y411000D02*
X190750Y415750D01*
X186000Y411000D02*
X186000Y359000D01*
X192000Y353000D02*
X192000Y330000D01*
D38*
X192000Y330000D03*
D37*
X210050Y440750D02*
X172750Y440750D01*
X133000Y357000D02*
X101000Y357000D01*
X94000Y350000D01*
X160000Y384000D02*
X160000Y428000D01*
X160000Y384000D02*
X133000Y357000D01*
X94000Y350000D02*
X94000Y330000D01*
X160000Y428000D02*
X172750Y440750D01*
X84000Y320000D02*
X39200Y320000D01*
X84000Y320000D02*
X94000Y330000D01*
X99317Y362064D02*
X130064Y362064D01*
X155000Y387000D01*
X99317Y362064D02*
X77253Y340000D01*
X155000Y387000D02*
X155000Y431000D01*
X77253Y340000D02*
X39200Y340000D01*
X155000Y431000D02*
X169750Y445750D01*
X210050Y445750D01*
X770250Y693250D02*
X770250Y721000D01*
X770250Y693250D02*
X769500Y693250D01*
X745000Y586000D02*
X741750Y586000D01*
X741750Y599750D01*
X755250Y613250D01*
X769500Y613250D01*
X439600Y377000D02*
X403600Y341000D01*
X534000Y377000D02*
X572000Y415000D01*
X534000Y377000D02*
X439600Y377000D01*
D38*
X572000Y415000D03*
X742000Y572000D03*
D37*
X742000Y583000D01*
X745000Y586000D01*
X769500Y613250D02*
X769500Y693250D01*
X338800Y568650D02*
X338800Y529250D01*
X354350Y584200D02*
X354350Y599200D01*
X354350Y584200D02*
X338800Y568650D01*
X345300Y639000D02*
X338300Y646000D01*
X345300Y639000D02*
X345300Y608250D01*
X354350Y599200D01*
X338300Y646000D02*
X338300Y721500D01*
X312900Y646000D02*
X312900Y636450D01*
X334350Y615000D02*
X334350Y605000D01*
X334350Y615000D02*
X312900Y636450D01*
X312900Y646000D02*
X312900Y700100D01*
X318300Y705500D02*
X318300Y721500D01*
X318300Y705500D02*
X312900Y700100D01*
X214300Y735000D02*
X200800Y721500D01*
X318300Y721500D02*
X318300Y729700D01*
X313000Y735000D02*
X214300Y735000D01*
X313000Y735000D02*
X318300Y729700D01*
X333800Y573800D02*
X333800Y529250D01*
X342000Y597350D02*
X334350Y605000D01*
X342000Y582000D02*
X333800Y573800D01*
X342000Y582000D02*
X342000Y597350D01*
X439900Y646000D02*
X439900Y659800D01*
X450400Y670300D01*
X481700Y670300D01*
X496600Y685200D02*
X496600Y721500D01*
X496600Y685200D02*
X481700Y670300D01*
X328800Y529250D02*
X328800Y511200D01*
X332000Y508000D01*
D38*
X332000Y508000D03*
D37*
X318800Y511200D02*
X318800Y529250D01*
X318800Y511200D02*
X322000Y508000D01*
D38*
X322000Y508000D03*
X181000Y489000D03*
D37*
X184250Y485750D02*
X210050Y485750D01*
X184250Y485750D02*
X181000Y489000D01*
D38*
X167000Y485000D03*
D37*
X174000Y485000D02*
X178250Y480750D01*
X174000Y485000D02*
X167000Y485000D01*
X178250Y480750D02*
X210050Y480750D01*
D38*
X152000Y479000D03*
D37*
X155250Y475750D01*
X210050Y475750D01*
X258800Y383200D02*
X258800Y371750D01*
X258800Y383200D02*
X252000Y390000D01*
D38*
X252000Y390000D03*
D37*
X826750Y293440D02*
X826750Y279750D01*
X822000Y275000D01*
D38*
X822000Y275000D03*
D37*
X264000Y371950D02*
X263800Y371750D01*
X264000Y371950D02*
X264000Y390000D01*
D38*
X264000Y390000D03*
X749000Y294000D03*
D37*
X760000Y305000D01*
X772000Y305000D02*
X775000Y302000D01*
X775000Y293690D02*
X774750Y293440D01*
X772000Y305000D02*
X760000Y305000D01*
X775000Y302000D02*
X775000Y293690D01*
X227750Y405750D02*
X210050Y405750D01*
X227750Y405750D02*
X228000Y406000D01*
D38*
X228000Y406000D03*
D37*
X223250Y400750D02*
X210050Y400750D01*
X223250Y400750D02*
X228000Y396000D01*
D38*
X228000Y396000D03*
D37*
X210050Y500750D02*
X194250Y500750D01*
X182000Y513000D01*
X157000Y513000D01*
X137600Y493600D01*
X110200Y493600D01*
D38*
X364000Y342000D03*
D37*
X359000Y342000D01*
X343800Y357200D02*
X343800Y371750D01*
X343800Y357200D02*
X359000Y342000D01*
D38*
X368000Y333000D03*
D37*
X359000Y350000D02*
X348800Y360200D01*
X348800Y371750D01*
X372000Y337000D02*
X368000Y333000D01*
X372000Y337000D02*
X372000Y346000D01*
X368000Y350000D01*
X359000Y350000D01*
X324000Y317000D02*
X321800Y319200D01*
D38*
X324000Y317000D03*
X329000Y181000D03*
D37*
X333000Y177000D01*
X386000Y177000D02*
X390000Y173000D01*
X389600Y172600D01*
X389600Y159800D01*
X386000Y177000D02*
X333000Y177000D01*
X318800Y339200D02*
X318800Y371750D01*
X321800Y336200D02*
X321800Y319200D01*
X321800Y336200D02*
X318800Y339200D01*
D38*
X331000Y327000D03*
X338000Y185000D03*
D37*
X341000Y182000D02*
X409000Y182000D01*
X341000Y182000D02*
X338000Y185000D01*
X409000Y182000D02*
X415000Y176000D01*
X415000Y159800D01*
X323800Y342200D02*
X323800Y371750D01*
X331000Y335000D02*
X331000Y327000D01*
X331000Y335000D02*
X323800Y342200D01*
D38*
X338000Y318000D03*
X338000Y195000D03*
D37*
X440400Y174400D02*
X441000Y175000D01*
X440400Y174400D02*
X440400Y159800D01*
X328800Y345200D02*
X328800Y371750D01*
X328800Y345200D02*
X338000Y336000D01*
X338000Y318000D01*
X338000Y195000D02*
X346000Y187000D01*
X429000Y187000D02*
X441000Y175000D01*
X429000Y187000D02*
X346000Y187000D01*
D38*
X133000Y444000D03*
D37*
X149750Y460750D02*
X210050Y460750D01*
X149750Y460750D02*
X133000Y444000D01*
X901250Y229000D02*
X901250Y205000D01*
D38*
X178000Y346000D03*
D37*
X175000Y420000D02*
X180750Y425750D01*
X210050Y425750D01*
X175000Y349000D02*
X178000Y346000D01*
X175000Y349000D02*
X175000Y420000D01*
X886000Y229000D02*
X901250Y229000D01*
D38*
X886000Y229000D03*
X735000Y212000D03*
D37*
X210050Y420750D02*
X185750Y420750D01*
X181000Y416000D01*
D38*
X179000Y330000D03*
D37*
X181000Y355000D02*
X181000Y416000D01*
X187000Y349000D02*
X187000Y338000D01*
X179000Y330000D01*
X187000Y349000D02*
X181000Y355000D01*
D40*
X299000Y258000D02*
X299000Y253450D01*
X299000Y258000D02*
X296000Y261000D01*
X268000Y261000D01*
X246000Y283000D01*
D38*
X246000Y283000D03*
D37*
X210050Y395750D02*
X198750Y395750D01*
X196000Y393000D01*
X218000Y316000D02*
X244000Y290000D01*
X196000Y380000D02*
X196000Y393000D01*
X196000Y380000D02*
X218000Y358000D01*
X218000Y316000D01*
X390000Y249253D02*
X390000Y234000D01*
X397000Y227000D01*
X429000Y227000D01*
X429000Y240000D01*
X349253Y290000D02*
X244000Y290000D01*
X349253Y290000D02*
X390000Y249253D01*
X219250Y390750D02*
X210050Y390750D01*
X219250Y390750D02*
X223000Y387000D01*
X223000Y320000D01*
X248000Y295000D01*
X365000Y295000D01*
X373000Y276000D02*
X397000Y252000D01*
X416000Y252000D01*
X429000Y265000D01*
X373000Y276000D02*
X373000Y287000D01*
X365000Y295000D01*
X228800Y322200D02*
X228800Y371750D01*
X228800Y322200D02*
X251000Y300000D01*
X425000Y291000D02*
X429000Y291000D01*
X425000Y291000D02*
X412000Y278000D01*
X367000Y300000D02*
X251000Y300000D01*
X367000Y300000D02*
X389000Y278000D01*
X412000Y278000D01*
X233800Y325200D02*
X233800Y371750D01*
X233800Y325200D02*
X254000Y305000D01*
X418000Y305000D01*
X429000Y316000D01*
X238800Y328200D02*
X238800Y371750D01*
X238800Y328200D02*
X257000Y310000D01*
X416000Y328000D02*
X429000Y341000D01*
X381000Y310000D02*
X257000Y310000D01*
X381000Y310000D02*
X399000Y328000D01*
X416000Y328000D01*
X454400Y240000D02*
X490500Y240000D01*
X490800Y239700D01*
X438000Y473000D02*
X393000Y473000D01*
X473000Y577400D02*
X490800Y595200D01*
X442000Y477000D02*
X438000Y473000D01*
X442000Y477000D02*
X442000Y512000D01*
X473000Y543000D01*
X473000Y577400D01*
X380500Y460500D02*
X367550Y460500D01*
X380500Y460500D02*
X393000Y473000D01*
X384500Y455500D02*
X367550Y455500D01*
X478000Y557000D02*
X490800Y569800D01*
X397000Y468000D02*
X384500Y455500D01*
X397000Y468000D02*
X440000Y468000D01*
X447000Y475000D01*
X447000Y509000D01*
X478000Y540000D01*
X478000Y557000D01*
X387500Y450500D02*
X367550Y450500D01*
X387500Y450500D02*
X400000Y463000D01*
X444000Y463000D01*
X453000Y472000D01*
X453000Y507000D01*
X490400Y544400D02*
X490800Y544400D01*
X490400Y544400D02*
X453000Y507000D01*
X476800Y519000D02*
X490800Y519000D01*
X476800Y519000D02*
X468000Y510200D01*
X468000Y470000D01*
X428500Y430500D01*
X367550Y430500D01*
X478000Y480800D02*
X490800Y493600D01*
X435500Y420500D02*
X367550Y420500D01*
X435500Y420500D02*
X478000Y463000D01*
X478000Y480800D01*
X476000Y437000D02*
X454500Y415500D01*
X476000Y437000D02*
X476000Y453400D01*
X490800Y468200D01*
X454500Y415500D02*
X367550Y415500D01*
X458500Y410500D02*
X490800Y442800D01*
X458500Y410500D02*
X367550Y410500D01*
X473800Y417400D02*
X490800Y417400D01*
X473800Y417400D02*
X461900Y405500D01*
X367550Y405500D01*
D38*
X390000Y329000D03*
D37*
X392000Y397000D02*
X388500Y400500D01*
X367550Y400500D01*
X392000Y331000D02*
X390000Y329000D01*
X392000Y331000D02*
X392000Y397000D01*
D38*
X383000Y336000D03*
D37*
X382500Y395500D02*
X367550Y395500D01*
X382500Y395500D02*
X387000Y391000D01*
X387000Y345000D01*
X383000Y341000D01*
X383000Y336000D01*
D38*
X379000Y347000D03*
D37*
X380500Y390500D02*
X367550Y390500D01*
X380500Y390500D02*
X382000Y389000D01*
X382000Y350000D01*
X379000Y347000D01*
X380500Y505500D02*
X367550Y505500D01*
X471000Y626300D02*
X490700Y646000D01*
X471000Y626300D02*
X471000Y596000D01*
X388000Y513000D02*
X380500Y505500D01*
X452000Y577000D02*
X471000Y596000D01*
X388000Y550000D02*
X388000Y513000D01*
X388000Y550000D02*
X415000Y577000D01*
X452000Y577000D01*
X465300Y598300D02*
X465300Y646000D01*
X377500Y510500D02*
X367550Y510500D01*
X449000Y582000D02*
X465300Y598300D01*
X449000Y582000D02*
X412000Y582000D01*
X383000Y553000D01*
X383000Y516000D01*
X377500Y510500D01*
X308800Y510800D02*
X308800Y529250D01*
X308800Y510800D02*
X306000Y508000D01*
D38*
X306000Y508000D03*
D37*
X414500Y646000D02*
X414500Y666800D01*
X436600Y688900D02*
X436600Y721500D01*
X436600Y688900D02*
X414500Y666800D01*
D38*
X324000Y546000D03*
D37*
X324000Y529450D02*
X323800Y529250D01*
X324000Y529450D02*
X324000Y546000D01*
D38*
X564000Y178000D03*
D37*
X575900Y223000D02*
X606000Y223000D01*
X629250Y199750D02*
X679000Y199750D01*
X629250Y199750D02*
X606000Y223000D01*
D40*
X423000Y193000D02*
X382500Y233500D01*
X423000Y193000D02*
X549000Y193000D01*
X564000Y178000D01*
X382500Y233500D02*
X382500Y249500D01*
X307000Y253450D02*
X307000Y280000D01*
X312000Y285000D01*
X347000Y285000D01*
X382500Y249500D01*
D37*
X585000Y593750D02*
X584750Y594000D01*
X585000Y593750D02*
X585000Y568500D01*
X584750Y594000D02*
X584750Y627750D01*
X592200Y635200D02*
X592200Y651500D01*
X592200Y635200D02*
X584750Y627750D01*
X672750Y568750D02*
X673000Y568500D01*
X672750Y568750D02*
X672750Y593000D01*
X658750Y607000D01*
X622000Y607000D01*
X612200Y616800D01*
X612200Y651500D01*
X584750Y521000D02*
X584750Y498750D01*
X585000Y498500D01*
D38*
X597000Y521000D03*
D37*
X584750Y521000D01*
X673750Y522000D02*
X674000Y521750D01*
X674000Y498500D01*
X686000Y617700D02*
X652200Y651500D01*
X686000Y534250D02*
X673750Y522000D01*
X686000Y534250D02*
X686000Y617700D01*
X769250Y586000D02*
X769500Y585750D01*
X769500Y560250D01*
X675150Y468000D02*
X658400Y451250D01*
X749250Y480250D02*
X769500Y480250D01*
X737000Y468000D02*
X675150Y468000D01*
X737000Y468000D02*
X749250Y480250D01*
X769500Y480250D02*
X769500Y560250D01*
X367550Y465500D02*
X348500Y465500D01*
X342000Y459000D01*
X342000Y450000D01*
D38*
X342000Y450000D03*
D37*
X348500Y465500D02*
X320000Y494000D01*
X303000Y494000D01*
X296000Y501000D01*
D38*
X296000Y511000D03*
D37*
X296000Y501000D01*
D38*
X601000Y479000D03*
X688000Y480000D03*
X556000Y521000D03*
X601000Y549000D03*
X673000Y537000D03*
X549000Y591000D03*
X641000Y586000D03*
D37*
X601000Y479000D02*
X585500Y479000D01*
X585000Y479500D01*
X674500Y480000D02*
X688000Y480000D01*
X674500Y480000D02*
X674000Y479500D01*
X601000Y549000D02*
X585500Y549000D01*
X585000Y549500D01*
X567250Y521000D02*
X556000Y521000D01*
X673000Y537000D02*
X673000Y549500D01*
X673000Y537000D02*
X662000Y537000D01*
X656250Y531250D02*
X656250Y522000D01*
X656250Y531250D02*
X662000Y537000D01*
X564250Y591000D02*
X549000Y591000D01*
X564250Y591000D02*
X567250Y594000D01*
X549000Y648300D02*
X552200Y651500D01*
X549000Y648300D02*
X549000Y591000D01*
X648250Y586000D02*
X655250Y593000D01*
X648250Y586000D02*
X641000Y586000D01*
D39*
X747000Y239750D02*
X768250Y239750D01*
X768500Y240000D01*
X725000Y239750D02*
X714000Y239750D01*
D38*
X736000Y255000D03*
D39*
X737000Y239750D02*
X714000Y239750D01*
D38*
X714000Y255000D03*
X725000Y255000D03*
D39*
X737000Y239750D02*
X747000Y239750D01*
X714000Y239750D02*
X714000Y255000D01*
X725000Y255000D02*
X725000Y239750D01*
X736000Y240750D02*
X736000Y255000D01*
X736000Y240750D02*
X737000Y239750D01*
D38*
X694000Y589000D03*
D39*
X694000Y716000D01*
X894600Y711000D02*
X894600Y735400D01*
X715000Y737000D02*
X694000Y716000D01*
X715000Y737000D02*
X893000Y737000D01*
X894600Y735400D01*
X920000Y734000D02*
X920000Y711000D01*
X920000Y734000D02*
X917000Y737000D01*
X893000Y737000D01*
D38*
X235000Y500000D03*
D39*
X238750Y74250D02*
X238750Y63000D01*
X238750Y74250D02*
X213500Y99500D01*
D37*
X831500Y127500D02*
X851500Y127500D01*
X865500Y141500D02*
X865500Y201000D01*
X865500Y141500D02*
X851500Y127500D01*
X837750Y142000D02*
X831500Y135750D01*
X831500Y127500D01*
X915500Y175000D02*
X957000Y175000D01*
X966500Y165500D02*
X966500Y156000D01*
X966500Y165500D02*
X957000Y175000D01*
X906000Y153000D02*
X906000Y131250D01*
X905750Y131000D01*
X825000Y110500D02*
X825000Y104000D01*
X828000Y101000D01*
X905750Y111000D02*
X905750Y131000D01*
X905750Y111000D02*
X895750Y101000D01*
X828000Y101000D01*
D39*
X729250Y129250D02*
X729000Y129500D01*
X729250Y129250D02*
X729250Y109000D01*
D37*
X728500Y109750D01*
D39*
X729250Y109000D02*
X706000Y109000D01*
D38*
X717000Y109000D03*
X706000Y109000D03*
D40*
X311000Y253450D02*
X311000Y260000D01*
X313000Y262000D02*
X329250Y262000D01*
X313000Y262000D02*
X311000Y260000D01*
D38*
X300000Y211000D03*
D40*
X289550Y248000D02*
X270250Y248000D01*
X270100Y247850D01*
X251050Y204700D02*
X238700Y204700D01*
X251050Y204700D02*
X255000Y200750D01*
X307000Y213000D02*
X307000Y222550D01*
X305000Y211000D02*
X300000Y211000D01*
X305000Y211000D02*
X307000Y213000D01*
D38*
X697000Y149000D03*
X290000Y179000D03*
D37*
X284750Y184250D01*
X276000Y184250D01*
X263750Y192000D02*
X255000Y200750D01*
X268250Y192000D02*
X276000Y184250D01*
X268250Y192000D02*
X263750Y192000D01*
D38*
X254000Y248000D03*
D39*
X269950Y248000D02*
X270100Y247850D01*
X269950Y248000D02*
X254000Y248000D01*
X183250Y293750D02*
X183250Y307000D01*
X183250Y293750D02*
X198000Y279000D01*
D38*
X198000Y279000D03*
X361000Y221000D03*
D39*
X361000Y233000D01*
X354250Y239750D02*
X339000Y239750D01*
X354250Y239750D02*
X361000Y233000D01*
X329250Y249500D02*
X329250Y262000D01*
X329250Y249500D02*
X339000Y239750D01*
X201300Y133700D02*
X110200Y133700D01*
X201300Y133700D02*
X202000Y133000D01*
D38*
X202000Y133000D03*
D40*
X373000Y202000D02*
X376000Y199000D01*
D38*
X376000Y199000D03*
D40*
X268050Y209700D02*
X238700Y209700D01*
X268050Y209700D02*
X276000Y201750D01*
X276250Y202000D01*
X311000Y205000D02*
X311000Y222550D01*
X311000Y205000D02*
X308000Y202000D01*
X276250Y202000D01*
X311000Y205000D02*
X314000Y202000D01*
X373000Y202000D01*
X211200Y204700D02*
X211200Y188050D01*
X214250Y185000D01*
X195750Y185000D01*
X211200Y204700D02*
X211200Y209700D01*
X303000Y253450D02*
X303000Y260000D01*
X298050Y264950D02*
X298050Y271700D01*
X298050Y264950D02*
X303000Y260000D01*
X295000Y253450D02*
X286550Y253450D01*
X284000Y256000D01*
X265000Y256000D01*
X245000Y276000D01*
X221000Y276000D01*
X212500Y267500D02*
X212500Y266000D01*
X212500Y267500D02*
X221000Y276000D01*
D37*
X79750Y360000D02*
X39200Y360000D01*
X79750Y360000D02*
X80000Y360250D01*
M02*
