G04 EAGLE Gerber RS-274X export*
G75*
%MOMM*%
%FSLAX34Y34*%
%LPD*%
%INTop Paste*%
%IPPOS*%
%AMOC8*
5,1,8,0,0,1.08239X$1,22.5*%
G01*
%ADD10R,0.300000X1.450000*%
%ADD11R,1.450000X0.300000*%
%ADD12R,1.050000X1.080000*%
%ADD13R,1.080000X1.050000*%
%ADD14R,0.348000X1.397000*%
%ADD15R,0.550000X1.200000*%
%ADD16R,1.000000X1.400000*%
%ADD17R,0.850000X0.250000*%
%ADD18R,1.300000X1.550000*%
%ADD19R,1.400000X1.000000*%
%ADD20R,1.750000X0.400000*%
%ADD21R,0.400000X0.700000*%
%ADD22R,2.400000X0.760000*%
%ADD23R,1.220000X0.620000*%
%ADD24R,0.610075X0.529991*%
%ADD25R,0.609847X0.529847*%
%ADD26R,0.611272X0.531125*%
%ADD27R,0.609984X0.530131*%
%ADD28C,0.055000*%
%ADD29R,0.500000X0.250000*%


D10*
X348800Y529250D03*
X343800Y529250D03*
X338800Y529250D03*
X333800Y529250D03*
X328800Y529250D03*
X323800Y529250D03*
X318800Y529250D03*
X313800Y529250D03*
X308800Y529250D03*
X303800Y529250D03*
X298800Y529250D03*
X293800Y529250D03*
X288800Y529250D03*
X283800Y529250D03*
X278800Y529250D03*
X273800Y529250D03*
X268800Y529250D03*
X263800Y529250D03*
X258800Y529250D03*
X253800Y529250D03*
X248800Y529250D03*
X243800Y529250D03*
X238800Y529250D03*
X233800Y529250D03*
X228800Y529250D03*
D11*
X210050Y510500D03*
X210050Y505500D03*
X210050Y500500D03*
X210050Y495500D03*
X210050Y490500D03*
X210050Y485500D03*
X210050Y480500D03*
X210050Y475500D03*
X210050Y470500D03*
X210050Y465500D03*
X210050Y460500D03*
X210050Y455500D03*
X210050Y450500D03*
X210050Y445500D03*
X210050Y440500D03*
X210050Y435500D03*
X210050Y430500D03*
X210050Y425500D03*
X210050Y420500D03*
X210050Y415500D03*
X210050Y410500D03*
X210050Y405500D03*
X210050Y400500D03*
X210050Y395500D03*
X210050Y390500D03*
D10*
X228800Y371750D03*
X233800Y371750D03*
X238800Y371750D03*
X243800Y371750D03*
X248800Y371750D03*
X253800Y371750D03*
X258800Y371750D03*
X263800Y371750D03*
X268800Y371750D03*
X273800Y371750D03*
X278800Y371750D03*
X283800Y371750D03*
X288800Y371750D03*
X293800Y371750D03*
X298800Y371750D03*
X303800Y371750D03*
X308800Y371750D03*
X313800Y371750D03*
X318800Y371750D03*
X323800Y371750D03*
X328800Y371750D03*
X333800Y371750D03*
X338800Y371750D03*
X343800Y371750D03*
X348800Y371750D03*
D11*
X367550Y390500D03*
X367550Y395500D03*
X367550Y400500D03*
X367550Y405500D03*
X367550Y410500D03*
X367550Y415500D03*
X367550Y420500D03*
X367550Y425500D03*
X367550Y430500D03*
X367550Y435500D03*
X367550Y440500D03*
X367550Y445500D03*
X367550Y450500D03*
X367550Y455500D03*
X367550Y460500D03*
X367550Y465500D03*
X367550Y470500D03*
X367550Y475500D03*
X367550Y480500D03*
X367550Y485500D03*
X367550Y490500D03*
X367550Y495500D03*
X367550Y500500D03*
X367550Y505500D03*
X367550Y510500D03*
D12*
X467750Y366700D03*
X450250Y366700D03*
X467750Y392500D03*
X450250Y392500D03*
D13*
X318000Y569350D03*
X318000Y586850D03*
X277000Y570550D03*
X277000Y588050D03*
X268500Y338050D03*
X268500Y320550D03*
D12*
X399750Y444900D03*
X417250Y444900D03*
D13*
X140700Y414450D03*
X140700Y431950D03*
D12*
X493850Y367700D03*
X511350Y367700D03*
X493850Y392100D03*
X511350Y392100D03*
D13*
X270100Y230350D03*
X270100Y247850D03*
D12*
X298050Y271700D03*
X280550Y271700D03*
D13*
X632300Y156450D03*
X632300Y173950D03*
X611300Y156350D03*
X611300Y173850D03*
D14*
X761750Y366560D03*
X768250Y366560D03*
X774750Y366560D03*
X781250Y366560D03*
X787750Y366560D03*
X794250Y366560D03*
X800750Y366560D03*
X813750Y366560D03*
X807250Y366560D03*
X820250Y366560D03*
X826750Y366560D03*
X833250Y366560D03*
X839750Y366560D03*
X846250Y366560D03*
X761750Y293440D03*
X768250Y293440D03*
X774750Y293440D03*
X781250Y293440D03*
X787750Y293440D03*
X794250Y293440D03*
X800750Y293440D03*
X807250Y293440D03*
X813750Y293440D03*
X820250Y293440D03*
X826750Y293440D03*
X833250Y293440D03*
X839750Y293440D03*
X846250Y293440D03*
D12*
X815250Y424000D03*
X832750Y424000D03*
X815250Y396000D03*
X832750Y396000D03*
D13*
X746000Y413750D03*
X746000Y396250D03*
X777200Y413950D03*
X777200Y396450D03*
X746000Y433250D03*
X746000Y450750D03*
X777000Y433250D03*
X777000Y450750D03*
D12*
X858250Y396000D03*
X875750Y396000D03*
D13*
X300000Y570250D03*
X300000Y587750D03*
X687000Y413750D03*
X687000Y396250D03*
X714000Y413750D03*
X714000Y396250D03*
D15*
X768500Y214000D03*
X778000Y214000D03*
X787500Y214000D03*
X787500Y240000D03*
X768500Y240000D03*
D13*
X787000Y190750D03*
X787000Y173250D03*
X767000Y190750D03*
X767000Y173250D03*
X747000Y239750D03*
X747000Y222250D03*
X714000Y222250D03*
X714000Y239750D03*
X720000Y199750D03*
X720000Y182250D03*
X820000Y190750D03*
X820000Y173250D03*
X820000Y213250D03*
X820000Y230750D03*
D16*
X856000Y179000D03*
X846500Y201000D03*
X865500Y201000D03*
D12*
X846250Y231000D03*
X863750Y231000D03*
X863750Y260000D03*
X846250Y260000D03*
D13*
X563000Y357750D03*
X563000Y340250D03*
X714000Y450750D03*
X714000Y433250D03*
D12*
X912750Y329100D03*
X895250Y329100D03*
X831750Y538000D03*
X814250Y538000D03*
X831750Y670000D03*
X814250Y670000D03*
D17*
X924500Y366300D03*
X909500Y366300D03*
X924500Y361300D03*
X909500Y361300D03*
D13*
X687000Y360250D03*
X687000Y377750D03*
X687000Y320250D03*
X687000Y337750D03*
X417000Y532250D03*
X417000Y549750D03*
X439000Y532250D03*
X439000Y549750D03*
D12*
X901250Y258000D03*
X918750Y258000D03*
X769250Y586000D03*
X786750Y586000D03*
D18*
X724500Y480250D03*
X724500Y559750D03*
X769500Y480250D03*
X769500Y560250D03*
D12*
X770250Y721000D03*
X787750Y721000D03*
D18*
X724500Y613250D03*
X724500Y692750D03*
X769500Y613250D03*
X769500Y693250D03*
D12*
X834650Y45900D03*
X817150Y45900D03*
X816350Y72400D03*
X833850Y72400D03*
D13*
X687000Y433250D03*
X687000Y450750D03*
D12*
X741750Y586000D03*
X724250Y586000D03*
D13*
X658400Y451250D03*
X658400Y433750D03*
D12*
X834750Y23000D03*
X817250Y23000D03*
X831750Y639000D03*
X814250Y639000D03*
X831750Y507000D03*
X814250Y507000D03*
X334350Y605000D03*
X316850Y605000D03*
X354350Y599200D03*
X371850Y599200D03*
X901250Y229000D03*
X918750Y229000D03*
X918750Y205000D03*
X901250Y205000D03*
D13*
X679000Y182250D03*
X679000Y199750D03*
D19*
X563000Y559000D03*
X585000Y568500D03*
X585000Y549500D03*
X651000Y559000D03*
X673000Y568500D03*
X673000Y549500D03*
D13*
X532000Y559750D03*
X532000Y542250D03*
X620000Y558750D03*
X620000Y541250D03*
D12*
X584750Y594000D03*
X567250Y594000D03*
X672750Y593000D03*
X655250Y593000D03*
D19*
X563000Y489000D03*
X585000Y498500D03*
X585000Y479500D03*
D13*
X532000Y489250D03*
X532000Y506750D03*
D12*
X584750Y521000D03*
X567250Y521000D03*
D19*
X652000Y489000D03*
X674000Y498500D03*
X674000Y479500D03*
D13*
X620000Y489250D03*
X620000Y506750D03*
D12*
X673750Y522000D03*
X656250Y522000D03*
D20*
X945750Y380000D03*
X945750Y354000D03*
X945750Y373500D03*
X945750Y367000D03*
X945750Y360500D03*
D12*
X392950Y599400D03*
X410450Y599400D03*
X238750Y63000D03*
X221250Y63000D03*
D13*
X799000Y110250D03*
X799000Y127750D03*
D16*
X906000Y153000D03*
X896500Y175000D03*
X915500Y175000D03*
D12*
X837750Y142000D03*
X820250Y142000D03*
X905750Y131000D03*
X888250Y131000D03*
D21*
X818500Y110500D03*
X825000Y110500D03*
X831500Y110500D03*
X831500Y127500D03*
X818500Y127500D03*
D22*
X593600Y330000D03*
X593600Y342700D03*
X593600Y355400D03*
X593600Y317300D03*
X593600Y304600D03*
X632400Y304600D03*
X632400Y317300D03*
X632400Y330000D03*
X632400Y342700D03*
X632400Y355400D03*
D23*
X755000Y129500D03*
X755000Y139000D03*
X755000Y148500D03*
X729000Y148500D03*
X729000Y129500D03*
D13*
X777000Y129250D03*
X777000Y146750D03*
D12*
X729250Y109000D03*
X746750Y109000D03*
D24*
X308850Y234550D03*
D25*
X301149Y234549D03*
D26*
X308856Y241456D03*
D27*
X301150Y241451D03*
D28*
X317525Y228825D02*
X323375Y228825D01*
X323375Y227175D01*
X317525Y227175D01*
X317525Y228825D01*
X317525Y227697D02*
X323375Y227697D01*
X323375Y228219D02*
X317525Y228219D01*
X317525Y228741D02*
X323375Y228741D01*
X323375Y232825D02*
X317525Y232825D01*
X323375Y232825D02*
X323375Y231175D01*
X317525Y231175D01*
X317525Y232825D01*
X317525Y231697D02*
X323375Y231697D01*
X323375Y232219D02*
X317525Y232219D01*
X317525Y232741D02*
X323375Y232741D01*
X323375Y236825D02*
X317525Y236825D01*
X323375Y236825D02*
X323375Y235175D01*
X317525Y235175D01*
X317525Y236825D01*
X317525Y235697D02*
X323375Y235697D01*
X323375Y236219D02*
X317525Y236219D01*
X317525Y236741D02*
X323375Y236741D01*
X323375Y240825D02*
X317525Y240825D01*
X323375Y240825D02*
X323375Y239175D01*
X317525Y239175D01*
X317525Y240825D01*
X317525Y239697D02*
X323375Y239697D01*
X323375Y240219D02*
X317525Y240219D01*
X317525Y240741D02*
X323375Y240741D01*
X323375Y244825D02*
X317525Y244825D01*
X323375Y244825D02*
X323375Y243175D01*
X317525Y243175D01*
X317525Y244825D01*
X317525Y243697D02*
X323375Y243697D01*
X323375Y244219D02*
X317525Y244219D01*
X317525Y244741D02*
X323375Y244741D01*
X323375Y248825D02*
X317525Y248825D01*
X323375Y248825D02*
X323375Y247175D01*
X317525Y247175D01*
X317525Y248825D01*
X317525Y247697D02*
X323375Y247697D01*
X323375Y248219D02*
X317525Y248219D01*
X317525Y248741D02*
X323375Y248741D01*
X314175Y250525D02*
X314175Y256375D01*
X315825Y256375D01*
X315825Y250525D01*
X314175Y250525D01*
X314175Y251047D02*
X315825Y251047D01*
X315825Y251569D02*
X314175Y251569D01*
X314175Y252091D02*
X315825Y252091D01*
X315825Y252613D02*
X314175Y252613D01*
X314175Y253135D02*
X315825Y253135D01*
X315825Y253657D02*
X314175Y253657D01*
X314175Y254179D02*
X315825Y254179D01*
X315825Y254701D02*
X314175Y254701D01*
X314175Y255223D02*
X315825Y255223D01*
X315825Y255745D02*
X314175Y255745D01*
X314175Y256267D02*
X315825Y256267D01*
X310175Y256375D02*
X310175Y250525D01*
X310175Y256375D02*
X311825Y256375D01*
X311825Y250525D01*
X310175Y250525D01*
X310175Y251047D02*
X311825Y251047D01*
X311825Y251569D02*
X310175Y251569D01*
X310175Y252091D02*
X311825Y252091D01*
X311825Y252613D02*
X310175Y252613D01*
X310175Y253135D02*
X311825Y253135D01*
X311825Y253657D02*
X310175Y253657D01*
X310175Y254179D02*
X311825Y254179D01*
X311825Y254701D02*
X310175Y254701D01*
X310175Y255223D02*
X311825Y255223D01*
X311825Y255745D02*
X310175Y255745D01*
X310175Y256267D02*
X311825Y256267D01*
X306175Y256375D02*
X306175Y250525D01*
X306175Y256375D02*
X307825Y256375D01*
X307825Y250525D01*
X306175Y250525D01*
X306175Y251047D02*
X307825Y251047D01*
X307825Y251569D02*
X306175Y251569D01*
X306175Y252091D02*
X307825Y252091D01*
X307825Y252613D02*
X306175Y252613D01*
X306175Y253135D02*
X307825Y253135D01*
X307825Y253657D02*
X306175Y253657D01*
X306175Y254179D02*
X307825Y254179D01*
X307825Y254701D02*
X306175Y254701D01*
X306175Y255223D02*
X307825Y255223D01*
X307825Y255745D02*
X306175Y255745D01*
X306175Y256267D02*
X307825Y256267D01*
X302175Y256375D02*
X302175Y250525D01*
X302175Y256375D02*
X303825Y256375D01*
X303825Y250525D01*
X302175Y250525D01*
X302175Y251047D02*
X303825Y251047D01*
X303825Y251569D02*
X302175Y251569D01*
X302175Y252091D02*
X303825Y252091D01*
X303825Y252613D02*
X302175Y252613D01*
X302175Y253135D02*
X303825Y253135D01*
X303825Y253657D02*
X302175Y253657D01*
X302175Y254179D02*
X303825Y254179D01*
X303825Y254701D02*
X302175Y254701D01*
X302175Y255223D02*
X303825Y255223D01*
X303825Y255745D02*
X302175Y255745D01*
X302175Y256267D02*
X303825Y256267D01*
X298175Y256375D02*
X298175Y250525D01*
X298175Y256375D02*
X299825Y256375D01*
X299825Y250525D01*
X298175Y250525D01*
X298175Y251047D02*
X299825Y251047D01*
X299825Y251569D02*
X298175Y251569D01*
X298175Y252091D02*
X299825Y252091D01*
X299825Y252613D02*
X298175Y252613D01*
X298175Y253135D02*
X299825Y253135D01*
X299825Y253657D02*
X298175Y253657D01*
X298175Y254179D02*
X299825Y254179D01*
X299825Y254701D02*
X298175Y254701D01*
X298175Y255223D02*
X299825Y255223D01*
X299825Y255745D02*
X298175Y255745D01*
X298175Y256267D02*
X299825Y256267D01*
X294175Y256375D02*
X294175Y250525D01*
X294175Y256375D02*
X295825Y256375D01*
X295825Y250525D01*
X294175Y250525D01*
X294175Y251047D02*
X295825Y251047D01*
X295825Y251569D02*
X294175Y251569D01*
X294175Y252091D02*
X295825Y252091D01*
X295825Y252613D02*
X294175Y252613D01*
X294175Y253135D02*
X295825Y253135D01*
X295825Y253657D02*
X294175Y253657D01*
X294175Y254179D02*
X295825Y254179D01*
X295825Y254701D02*
X294175Y254701D01*
X294175Y255223D02*
X295825Y255223D01*
X295825Y255745D02*
X294175Y255745D01*
X294175Y256267D02*
X295825Y256267D01*
X292475Y247175D02*
X286625Y247175D01*
X286625Y248825D01*
X292475Y248825D01*
X292475Y247175D01*
X292475Y247697D02*
X286625Y247697D01*
X286625Y248219D02*
X292475Y248219D01*
X292475Y248741D02*
X286625Y248741D01*
X286625Y243175D02*
X292475Y243175D01*
X286625Y243175D02*
X286625Y244825D01*
X292475Y244825D01*
X292475Y243175D01*
X292475Y243697D02*
X286625Y243697D01*
X286625Y244219D02*
X292475Y244219D01*
X292475Y244741D02*
X286625Y244741D01*
X286625Y239175D02*
X292475Y239175D01*
X286625Y239175D02*
X286625Y240825D01*
X292475Y240825D01*
X292475Y239175D01*
X292475Y239697D02*
X286625Y239697D01*
X286625Y240219D02*
X292475Y240219D01*
X292475Y240741D02*
X286625Y240741D01*
X286625Y235175D02*
X292475Y235175D01*
X286625Y235175D02*
X286625Y236825D01*
X292475Y236825D01*
X292475Y235175D01*
X292475Y235697D02*
X286625Y235697D01*
X286625Y236219D02*
X292475Y236219D01*
X292475Y236741D02*
X286625Y236741D01*
X286625Y231175D02*
X292475Y231175D01*
X286625Y231175D02*
X286625Y232825D01*
X292475Y232825D01*
X292475Y231175D01*
X292475Y231697D02*
X286625Y231697D01*
X286625Y232219D02*
X292475Y232219D01*
X292475Y232741D02*
X286625Y232741D01*
X286625Y227175D02*
X292475Y227175D01*
X286625Y227175D02*
X286625Y228825D01*
X292475Y228825D01*
X292475Y227175D01*
X292475Y227697D02*
X286625Y227697D01*
X286625Y228219D02*
X292475Y228219D01*
X292475Y228741D02*
X286625Y228741D01*
X295825Y225475D02*
X295825Y219625D01*
X294175Y219625D01*
X294175Y225475D01*
X295825Y225475D01*
X295825Y220147D02*
X294175Y220147D01*
X294175Y220669D02*
X295825Y220669D01*
X295825Y221191D02*
X294175Y221191D01*
X294175Y221713D02*
X295825Y221713D01*
X295825Y222235D02*
X294175Y222235D01*
X294175Y222757D02*
X295825Y222757D01*
X295825Y223279D02*
X294175Y223279D01*
X294175Y223801D02*
X295825Y223801D01*
X295825Y224323D02*
X294175Y224323D01*
X294175Y224845D02*
X295825Y224845D01*
X295825Y225367D02*
X294175Y225367D01*
X299825Y225475D02*
X299825Y219625D01*
X298175Y219625D01*
X298175Y225475D01*
X299825Y225475D01*
X299825Y220147D02*
X298175Y220147D01*
X298175Y220669D02*
X299825Y220669D01*
X299825Y221191D02*
X298175Y221191D01*
X298175Y221713D02*
X299825Y221713D01*
X299825Y222235D02*
X298175Y222235D01*
X298175Y222757D02*
X299825Y222757D01*
X299825Y223279D02*
X298175Y223279D01*
X298175Y223801D02*
X299825Y223801D01*
X299825Y224323D02*
X298175Y224323D01*
X298175Y224845D02*
X299825Y224845D01*
X299825Y225367D02*
X298175Y225367D01*
X303825Y225475D02*
X303825Y219625D01*
X302175Y219625D01*
X302175Y225475D01*
X303825Y225475D01*
X303825Y220147D02*
X302175Y220147D01*
X302175Y220669D02*
X303825Y220669D01*
X303825Y221191D02*
X302175Y221191D01*
X302175Y221713D02*
X303825Y221713D01*
X303825Y222235D02*
X302175Y222235D01*
X302175Y222757D02*
X303825Y222757D01*
X303825Y223279D02*
X302175Y223279D01*
X302175Y223801D02*
X303825Y223801D01*
X303825Y224323D02*
X302175Y224323D01*
X302175Y224845D02*
X303825Y224845D01*
X303825Y225367D02*
X302175Y225367D01*
X307825Y225475D02*
X307825Y219625D01*
X306175Y219625D01*
X306175Y225475D01*
X307825Y225475D01*
X307825Y220147D02*
X306175Y220147D01*
X306175Y220669D02*
X307825Y220669D01*
X307825Y221191D02*
X306175Y221191D01*
X306175Y221713D02*
X307825Y221713D01*
X307825Y222235D02*
X306175Y222235D01*
X306175Y222757D02*
X307825Y222757D01*
X307825Y223279D02*
X306175Y223279D01*
X306175Y223801D02*
X307825Y223801D01*
X307825Y224323D02*
X306175Y224323D01*
X306175Y224845D02*
X307825Y224845D01*
X307825Y225367D02*
X306175Y225367D01*
X311825Y225475D02*
X311825Y219625D01*
X310175Y219625D01*
X310175Y225475D01*
X311825Y225475D01*
X311825Y220147D02*
X310175Y220147D01*
X310175Y220669D02*
X311825Y220669D01*
X311825Y221191D02*
X310175Y221191D01*
X310175Y221713D02*
X311825Y221713D01*
X311825Y222235D02*
X310175Y222235D01*
X310175Y222757D02*
X311825Y222757D01*
X311825Y223279D02*
X310175Y223279D01*
X310175Y223801D02*
X311825Y223801D01*
X311825Y224323D02*
X310175Y224323D01*
X310175Y224845D02*
X311825Y224845D01*
X311825Y225367D02*
X310175Y225367D01*
X315825Y225475D02*
X315825Y219625D01*
X314175Y219625D01*
X314175Y225475D01*
X315825Y225475D01*
X315825Y220147D02*
X314175Y220147D01*
X314175Y220669D02*
X315825Y220669D01*
X315825Y221191D02*
X314175Y221191D01*
X314175Y221713D02*
X315825Y221713D01*
X315825Y222235D02*
X314175Y222235D01*
X314175Y222757D02*
X315825Y222757D01*
X315825Y223279D02*
X314175Y223279D01*
X314175Y223801D02*
X315825Y223801D01*
X315825Y224323D02*
X314175Y224323D01*
X314175Y224845D02*
X315825Y224845D01*
X315825Y225367D02*
X314175Y225367D01*
D29*
X238700Y204700D03*
X238700Y209700D03*
X238700Y214700D03*
X238700Y219700D03*
X211200Y204700D03*
X211200Y209700D03*
X211200Y214700D03*
X211200Y219700D03*
D13*
X255000Y183250D03*
X255000Y200750D03*
D12*
X231750Y185000D03*
X214250Y185000D03*
D13*
X276000Y201750D03*
X276000Y184250D03*
X339000Y222250D03*
X339000Y239750D03*
D12*
X195750Y211000D03*
X178250Y211000D03*
X195750Y239000D03*
X178250Y239000D03*
X195750Y185000D03*
X178250Y185000D03*
X346750Y262000D03*
X329250Y262000D03*
X200750Y307000D03*
X183250Y307000D03*
D16*
X222000Y288000D03*
X231500Y266000D03*
X212500Y266000D03*
D13*
X80000Y360250D03*
X80000Y377750D03*
M02*
